G75*
G70*
%OFA0B0*%
%FSLAX24Y24*%
%IPPOS*%
%LPD*%
%AMOC8*
5,1,8,0,0,1.08239X$1,22.5*
%
%ADD10C,0.0040*%
%ADD11C,0.0070*%
%ADD12C,0.0100*%
%ADD13R,0.0827X0.0118*%
%ADD14C,0.0050*%
%ADD15C,0.0060*%
D10*
X009604Y008947D02*
X009681Y008870D01*
X009835Y008870D01*
X009911Y008947D01*
X010065Y008947D02*
X010065Y009023D01*
X010141Y009100D01*
X010372Y009100D01*
X010372Y008947D01*
X010295Y008870D01*
X010141Y008870D01*
X010065Y008947D01*
X010218Y009254D02*
X010372Y009100D01*
X010525Y008947D02*
X010602Y008870D01*
X010755Y008870D01*
X010832Y008947D01*
X010832Y009254D01*
X010755Y009330D01*
X010602Y009330D01*
X010525Y009254D01*
X010218Y009254D02*
X010065Y009330D01*
X009911Y009254D02*
X009835Y009330D01*
X009681Y009330D01*
X009604Y009254D01*
X009604Y009177D01*
X009681Y009100D01*
X009604Y009023D01*
X009604Y008947D01*
X009681Y009100D02*
X009758Y009100D01*
X011354Y009023D02*
X011354Y008947D01*
X011431Y008870D01*
X011585Y008870D01*
X011661Y008947D01*
X011661Y009023D01*
X011585Y009100D01*
X011431Y009100D01*
X011354Y009023D01*
X011431Y009100D02*
X011354Y009177D01*
X011354Y009254D01*
X011431Y009330D01*
X011585Y009330D01*
X011661Y009254D01*
X011661Y009177D01*
X011585Y009100D01*
X011815Y009100D02*
X012122Y009100D01*
X011891Y009330D01*
X011891Y008870D01*
X012275Y008870D02*
X012429Y009023D01*
X012352Y009023D02*
X012582Y009023D01*
X012582Y008870D02*
X012582Y009330D01*
X012352Y009330D01*
X012275Y009254D01*
X012275Y009100D01*
X012352Y009023D01*
X012979Y009254D02*
X013286Y008947D01*
X013286Y008870D01*
X013516Y008870D02*
X013516Y009330D01*
X013747Y009100D01*
X013440Y009100D01*
X013286Y009330D02*
X012979Y009330D01*
X012979Y009254D01*
X013900Y009254D02*
X013900Y009100D01*
X013977Y009023D01*
X014207Y009023D01*
X014207Y008870D02*
X014207Y009330D01*
X013977Y009330D01*
X013900Y009254D01*
X014054Y009023D02*
X013900Y008870D01*
X014604Y008870D02*
X014911Y008870D01*
X014604Y009177D01*
X014604Y009254D01*
X014681Y009330D01*
X014835Y009330D01*
X014911Y009254D01*
X015065Y009330D02*
X015218Y009254D01*
X015372Y009100D01*
X015141Y009100D01*
X015065Y009023D01*
X015065Y008947D01*
X015141Y008870D01*
X015295Y008870D01*
X015372Y008947D01*
X015372Y009100D01*
X015525Y008947D02*
X015602Y008870D01*
X015755Y008870D01*
X015832Y008947D01*
X015832Y009254D01*
X015755Y009330D01*
X015602Y009330D01*
X015525Y009254D01*
X016766Y007955D02*
X016920Y007955D01*
X016997Y007879D01*
X017150Y007955D02*
X017457Y007955D01*
X017304Y007955D02*
X017304Y007495D01*
X016997Y007495D02*
X016690Y007802D01*
X016690Y007879D01*
X016766Y007955D01*
X016690Y007495D02*
X016997Y007495D01*
X017104Y008870D02*
X017411Y008870D01*
X017258Y008870D02*
X017258Y009330D01*
X017411Y009177D01*
X017565Y009330D02*
X017718Y009254D01*
X017872Y009100D01*
X017641Y009100D01*
X017565Y009023D01*
X017565Y008947D01*
X017641Y008870D01*
X017795Y008870D01*
X017872Y008947D01*
X017872Y009100D01*
X018025Y008947D02*
X018102Y008870D01*
X018255Y008870D01*
X018332Y008947D01*
X018332Y009254D01*
X018255Y009330D01*
X018102Y009330D01*
X018025Y009254D01*
X018854Y009330D02*
X019008Y009254D01*
X019161Y009100D01*
X018931Y009100D01*
X018854Y009023D01*
X018854Y008947D01*
X018931Y008870D01*
X019085Y008870D01*
X019161Y008947D01*
X019161Y009100D01*
X019315Y009100D02*
X019622Y009100D01*
X019391Y009330D01*
X019391Y008870D01*
X019775Y008870D02*
X019929Y009023D01*
X019852Y009023D02*
X020082Y009023D01*
X020082Y008870D02*
X020082Y009330D01*
X019852Y009330D01*
X019775Y009254D01*
X019775Y009100D01*
X019852Y009023D01*
X020479Y008947D02*
X020556Y008870D01*
X020710Y008870D01*
X020786Y008947D01*
X020786Y009100D02*
X020633Y009177D01*
X020556Y009177D01*
X020479Y009100D01*
X020479Y008947D01*
X020786Y009100D02*
X020786Y009330D01*
X020479Y009330D01*
X020940Y009100D02*
X021247Y009100D01*
X021016Y009330D01*
X021016Y008870D01*
X021400Y008870D02*
X021554Y009023D01*
X021477Y009023D02*
X021707Y009023D01*
X021707Y008870D02*
X021707Y009330D01*
X021477Y009330D01*
X021400Y009254D01*
X021400Y009100D01*
X021477Y009023D01*
X022104Y008947D02*
X022181Y008870D01*
X022335Y008870D01*
X022411Y008947D01*
X022104Y009254D01*
X022104Y008947D01*
X022104Y009254D02*
X022181Y009330D01*
X022335Y009330D01*
X022411Y009254D01*
X022411Y008947D01*
X022565Y008947D02*
X022565Y009023D01*
X022641Y009100D01*
X022872Y009100D01*
X022872Y008947D01*
X022795Y008870D01*
X022641Y008870D01*
X022565Y008947D01*
X022718Y009254D02*
X022872Y009100D01*
X023025Y008947D02*
X023102Y008870D01*
X023255Y008870D01*
X023332Y008947D01*
X023332Y009254D01*
X023255Y009330D01*
X023102Y009330D01*
X023025Y009254D01*
X022718Y009254D02*
X022565Y009330D01*
X022255Y012120D02*
X022102Y012120D01*
X022025Y012197D01*
X021872Y012197D02*
X021795Y012120D01*
X021641Y012120D01*
X021565Y012197D01*
X021565Y012350D01*
X021641Y012427D01*
X021718Y012427D01*
X021872Y012350D01*
X021872Y012580D01*
X021565Y012580D01*
X021411Y012350D02*
X021104Y012350D01*
X021181Y012120D02*
X021181Y012580D01*
X021411Y012350D01*
X022025Y012504D02*
X022102Y012580D01*
X022255Y012580D01*
X022332Y012504D01*
X022332Y012197D01*
X022255Y012120D01*
X024681Y009330D02*
X024835Y009330D01*
X024911Y009254D01*
X024911Y009177D01*
X024835Y009100D01*
X024604Y009100D01*
X024604Y008947D02*
X024604Y009254D01*
X024681Y009330D01*
X025065Y009330D02*
X025372Y009330D01*
X025372Y009100D01*
X025218Y009177D01*
X025141Y009177D01*
X025065Y009100D01*
X025065Y008947D01*
X025141Y008870D01*
X025295Y008870D01*
X025372Y008947D01*
X025525Y008947D02*
X025602Y008870D01*
X025755Y008870D01*
X025832Y008947D01*
X025832Y009254D01*
X025755Y009330D01*
X025602Y009330D01*
X025525Y009254D01*
X024911Y008947D02*
X024835Y008870D01*
X024681Y008870D01*
X024604Y008947D01*
X026354Y009100D02*
X026661Y009100D01*
X026431Y009330D01*
X026431Y008870D01*
X026815Y009100D02*
X027122Y009100D01*
X026891Y009330D01*
X026891Y008870D01*
X027275Y008870D02*
X027429Y009023D01*
X027352Y009023D02*
X027582Y009023D01*
X027582Y008870D02*
X027582Y009330D01*
X027352Y009330D01*
X027275Y009254D01*
X027275Y009100D01*
X027352Y009023D01*
X027985Y009023D02*
X027985Y008947D01*
X028062Y008870D01*
X028216Y008870D01*
X028292Y008947D01*
X028139Y009100D02*
X028062Y009100D01*
X027985Y009023D01*
X028062Y009100D02*
X027985Y009177D01*
X027985Y009254D01*
X028062Y009330D01*
X028216Y009330D01*
X028292Y009254D01*
X028446Y009100D02*
X028753Y009100D01*
X028523Y009330D01*
X028523Y008870D01*
X028906Y008870D02*
X029060Y009023D01*
X028983Y009023D02*
X029213Y009023D01*
X029213Y008870D02*
X029213Y009330D01*
X028983Y009330D01*
X028906Y009254D01*
X028906Y009100D01*
X028983Y009023D01*
X029604Y009023D02*
X029604Y008947D01*
X029681Y008870D01*
X029835Y008870D01*
X029911Y008947D01*
X029911Y009023D01*
X029835Y009100D01*
X029681Y009100D01*
X029604Y009023D01*
X029681Y009100D02*
X029604Y009177D01*
X029604Y009254D01*
X029681Y009330D01*
X029835Y009330D01*
X029911Y009254D01*
X029911Y009177D01*
X029835Y009100D01*
X030065Y009100D02*
X030065Y008947D01*
X030141Y008870D01*
X030295Y008870D01*
X030372Y008947D01*
X030525Y008947D02*
X030602Y008870D01*
X030755Y008870D01*
X030832Y008947D01*
X030832Y009254D01*
X030755Y009330D01*
X030602Y009330D01*
X030525Y009254D01*
X030372Y009330D02*
X030372Y009100D01*
X030218Y009177D01*
X030141Y009177D01*
X030065Y009100D01*
X030065Y009330D02*
X030372Y009330D01*
X029630Y012120D02*
X029477Y012120D01*
X029400Y012197D01*
X029247Y012197D02*
X029170Y012120D01*
X029016Y012120D01*
X028940Y012197D01*
X028940Y012350D01*
X029016Y012427D01*
X029093Y012427D01*
X029247Y012350D01*
X029247Y012580D01*
X028940Y012580D01*
X028786Y012504D02*
X028710Y012580D01*
X028556Y012580D01*
X028479Y012504D01*
X028479Y012427D01*
X028786Y012120D01*
X028479Y012120D01*
X029400Y012504D02*
X029477Y012580D01*
X029630Y012580D01*
X029707Y012504D01*
X029707Y012197D01*
X029630Y012120D01*
X026707Y012197D02*
X026630Y012120D01*
X026477Y012120D01*
X026400Y012197D01*
X026247Y012197D02*
X026170Y012120D01*
X026016Y012120D01*
X025940Y012197D01*
X025940Y012350D01*
X026016Y012427D01*
X026093Y012427D01*
X026247Y012350D01*
X026247Y012580D01*
X025940Y012580D01*
X025786Y012504D02*
X025710Y012580D01*
X025556Y012580D01*
X025479Y012504D01*
X025479Y012427D01*
X025556Y012350D01*
X025479Y012273D01*
X025479Y012197D01*
X025556Y012120D01*
X025710Y012120D01*
X025786Y012197D01*
X025633Y012350D02*
X025556Y012350D01*
X026400Y012504D02*
X026477Y012580D01*
X026630Y012580D01*
X026707Y012504D01*
X026707Y012197D01*
X026131Y018620D02*
X025824Y018620D01*
X025747Y018697D01*
X025747Y018850D01*
X025824Y018927D01*
X025824Y019080D02*
X025747Y019157D01*
X025747Y019311D01*
X025824Y019387D01*
X026131Y019387D01*
X026207Y019311D01*
X026207Y019157D01*
X026131Y019080D01*
X026054Y019080D01*
X025977Y019157D01*
X025977Y019387D01*
X025824Y019541D02*
X025747Y019541D01*
X025824Y019541D02*
X026131Y019848D01*
X026207Y019848D01*
X026207Y019541D01*
X026131Y018927D02*
X026207Y018850D01*
X026207Y018697D01*
X026131Y018620D01*
X022207Y018697D02*
X022131Y018620D01*
X021824Y018620D01*
X021747Y018697D01*
X021747Y018850D01*
X021824Y018927D01*
X021824Y019080D02*
X021747Y019157D01*
X021747Y019311D01*
X021824Y019387D01*
X022131Y019387D01*
X022207Y019311D01*
X022207Y019157D01*
X022131Y019080D01*
X022054Y019080D01*
X021977Y019157D01*
X021977Y019387D01*
X021977Y019541D02*
X021977Y019771D01*
X021900Y019848D01*
X021824Y019848D01*
X021747Y019771D01*
X021747Y019618D01*
X021824Y019541D01*
X021977Y019541D01*
X022131Y019694D01*
X022207Y019848D01*
X022131Y018927D02*
X022207Y018850D01*
X022207Y018697D01*
X019255Y012580D02*
X019102Y012580D01*
X019025Y012504D01*
X018872Y012580D02*
X018872Y012350D01*
X018718Y012427D01*
X018641Y012427D01*
X018565Y012350D01*
X018565Y012197D01*
X018641Y012120D01*
X018795Y012120D01*
X018872Y012197D01*
X019025Y012197D02*
X019102Y012120D01*
X019255Y012120D01*
X019332Y012197D01*
X019332Y012504D01*
X019255Y012580D01*
X018872Y012580D02*
X018565Y012580D01*
X018411Y012580D02*
X018411Y012350D01*
X018258Y012427D01*
X018181Y012427D01*
X018104Y012350D01*
X018104Y012197D01*
X018181Y012120D01*
X018335Y012120D01*
X018411Y012197D01*
X018411Y012580D02*
X018104Y012580D01*
X014832Y012504D02*
X014832Y012197D01*
X014755Y012120D01*
X014602Y012120D01*
X014525Y012197D01*
X014372Y012197D02*
X014295Y012120D01*
X014141Y012120D01*
X014065Y012197D01*
X014065Y012350D01*
X014141Y012427D01*
X014218Y012427D01*
X014372Y012350D01*
X014372Y012580D01*
X014065Y012580D01*
X013911Y012350D02*
X013681Y012350D01*
X013604Y012273D01*
X013604Y012197D01*
X013681Y012120D01*
X013835Y012120D01*
X013911Y012197D01*
X013911Y012350D01*
X013758Y012504D01*
X013604Y012580D01*
X014525Y012504D02*
X014602Y012580D01*
X014755Y012580D01*
X014832Y012504D01*
X011832Y012504D02*
X011832Y012197D01*
X011755Y012120D01*
X011602Y012120D01*
X011525Y012197D01*
X011372Y012197D02*
X011295Y012120D01*
X011141Y012120D01*
X011065Y012197D01*
X011065Y012350D01*
X011141Y012427D01*
X011218Y012427D01*
X011372Y012350D01*
X011372Y012580D01*
X011065Y012580D01*
X010911Y012580D02*
X010604Y012580D01*
X010604Y012504D01*
X010911Y012197D01*
X010911Y012120D01*
X011525Y012504D02*
X011602Y012580D01*
X011755Y012580D01*
X011832Y012504D01*
X009881Y018120D02*
X009574Y018120D01*
X009497Y018197D01*
X009497Y018350D01*
X009574Y018427D01*
X009574Y018580D02*
X009497Y018657D01*
X009497Y018811D01*
X009574Y018887D01*
X009881Y018887D01*
X009957Y018811D01*
X009957Y018657D01*
X009881Y018580D01*
X009804Y018580D01*
X009727Y018657D01*
X009727Y018887D01*
X009727Y019041D02*
X009804Y019194D01*
X009804Y019271D01*
X009727Y019348D01*
X009574Y019348D01*
X009497Y019271D01*
X009497Y019118D01*
X009574Y019041D01*
X009727Y019041D02*
X009957Y019041D01*
X009957Y019348D01*
X009881Y019989D02*
X009574Y019989D01*
X009497Y020066D01*
X009497Y020219D01*
X009574Y020296D01*
X009574Y020449D02*
X009497Y020526D01*
X009497Y020679D01*
X009574Y020756D01*
X009650Y020756D01*
X009727Y020679D01*
X009727Y020449D01*
X009574Y020449D01*
X009727Y020449D02*
X009881Y020603D01*
X009957Y020756D01*
X009727Y020910D02*
X009727Y021217D01*
X009497Y021140D02*
X009957Y021140D01*
X009727Y020910D01*
X009881Y020296D02*
X009957Y020219D01*
X009957Y020066D01*
X009881Y019989D01*
X009881Y018427D02*
X009957Y018350D01*
X009957Y018197D01*
X009881Y018120D01*
X015747Y018322D02*
X015747Y018475D01*
X015824Y018552D01*
X015824Y018705D02*
X015747Y018782D01*
X015747Y018936D01*
X015824Y019012D01*
X016131Y019012D01*
X016207Y018936D01*
X016207Y018782D01*
X016131Y018705D01*
X016054Y018705D01*
X015977Y018782D01*
X015977Y019012D01*
X015977Y019166D02*
X015977Y019473D01*
X015747Y019396D02*
X016207Y019396D01*
X015977Y019166D01*
X016131Y018552D02*
X016207Y018475D01*
X016207Y018322D01*
X016131Y018245D01*
X015824Y018245D01*
X015747Y018322D01*
X015824Y020120D02*
X015747Y020197D01*
X015747Y020350D01*
X015824Y020427D01*
X015824Y020580D02*
X015747Y020657D01*
X015747Y020811D01*
X015824Y020887D01*
X015900Y020887D01*
X015977Y020811D01*
X015977Y020580D01*
X015824Y020580D01*
X015977Y020580D02*
X016131Y020734D01*
X016207Y020887D01*
X016207Y021041D02*
X015977Y021041D01*
X016054Y021194D01*
X016054Y021271D01*
X015977Y021348D01*
X015824Y021348D01*
X015747Y021271D01*
X015747Y021118D01*
X015824Y021041D01*
X016207Y021041D02*
X016207Y021348D01*
X016131Y020427D02*
X016207Y020350D01*
X016207Y020197D01*
X016131Y020120D01*
X015824Y020120D01*
X014131Y029370D02*
X013824Y029370D01*
X013747Y029447D01*
X013747Y029600D01*
X013824Y029677D01*
X013707Y029600D02*
X013631Y029677D01*
X013477Y029677D01*
X013400Y029600D01*
X013400Y029370D01*
X013247Y029370D02*
X013707Y029370D01*
X013707Y029600D01*
X013707Y029830D02*
X013477Y029830D01*
X013554Y029984D01*
X013554Y030061D01*
X013477Y030137D01*
X013324Y030137D01*
X013247Y030061D01*
X013247Y029907D01*
X013324Y029830D01*
X013247Y029677D02*
X013400Y029523D01*
X013207Y029600D02*
X013131Y029677D01*
X012977Y029677D01*
X012900Y029600D01*
X012900Y029370D01*
X012747Y029370D02*
X013207Y029370D01*
X013207Y029600D01*
X012900Y029523D02*
X012747Y029677D01*
X012707Y029600D02*
X012707Y029447D01*
X012631Y029370D01*
X012324Y029370D01*
X012247Y029447D01*
X012247Y029600D01*
X012324Y029677D01*
X012207Y029600D02*
X012207Y029447D01*
X012131Y029370D01*
X011824Y029370D01*
X011747Y029447D01*
X011747Y029600D01*
X011824Y029677D01*
X011707Y029600D02*
X011707Y029447D01*
X011631Y029370D01*
X011324Y029370D01*
X011247Y029447D01*
X011247Y029600D01*
X011324Y029677D01*
X011207Y029600D02*
X011207Y029447D01*
X011131Y029370D01*
X010824Y029370D01*
X010747Y029447D01*
X010747Y029600D01*
X010824Y029677D01*
X010707Y029600D02*
X010707Y029447D01*
X010631Y029370D01*
X010324Y029370D01*
X010247Y029447D01*
X010247Y029600D01*
X010324Y029677D01*
X010324Y029830D02*
X010400Y029830D01*
X010477Y029907D01*
X010477Y030061D01*
X010400Y030137D01*
X010324Y030137D01*
X010247Y030061D01*
X010247Y029907D01*
X010324Y029830D01*
X010477Y029907D02*
X010554Y029830D01*
X010631Y029830D01*
X010707Y029907D01*
X010707Y030061D01*
X010631Y030137D01*
X010554Y030137D01*
X010477Y030061D01*
X010477Y030291D02*
X010477Y030598D01*
X010247Y030521D02*
X010707Y030521D01*
X010477Y030291D01*
X010747Y030368D02*
X010747Y030521D01*
X010824Y030598D01*
X010900Y030598D01*
X010977Y030521D01*
X010977Y030368D01*
X011054Y030291D01*
X011131Y030291D01*
X011207Y030368D01*
X011207Y030521D01*
X011131Y030598D01*
X011054Y030598D01*
X010977Y030521D01*
X010977Y030368D02*
X010900Y030291D01*
X010824Y030291D01*
X010747Y030368D01*
X010824Y030137D02*
X010900Y030137D01*
X010977Y030061D01*
X010977Y029830D01*
X010824Y029830D01*
X010747Y029907D01*
X010747Y030061D01*
X010824Y030137D01*
X011131Y029984D02*
X010977Y029830D01*
X011131Y029677D02*
X011207Y029600D01*
X011247Y029830D02*
X011324Y029830D01*
X011631Y030137D01*
X011707Y030137D01*
X011707Y029830D01*
X011747Y029907D02*
X011747Y030061D01*
X011824Y030137D01*
X011900Y030137D01*
X011977Y030061D01*
X011977Y029830D01*
X011824Y029830D01*
X011747Y029907D01*
X011977Y029830D02*
X012131Y029984D01*
X012207Y030137D01*
X012247Y030291D02*
X012247Y030598D01*
X012207Y030521D02*
X012207Y030368D01*
X012131Y030291D01*
X012054Y030291D01*
X011977Y030368D01*
X011977Y030598D01*
X011824Y030598D02*
X012131Y030598D01*
X012207Y030521D01*
X012247Y030444D02*
X012707Y030444D01*
X012554Y030291D01*
X012631Y030137D02*
X012324Y029830D01*
X012247Y029830D01*
X012131Y029677D02*
X012207Y029600D01*
X012631Y029677D02*
X012707Y029600D01*
X012707Y029830D02*
X012707Y030137D01*
X012631Y030137D01*
X012747Y030061D02*
X013207Y030061D01*
X012977Y029830D01*
X012977Y030137D01*
X013054Y030291D02*
X012977Y030368D01*
X012977Y030598D01*
X012824Y030598D02*
X013131Y030598D01*
X013207Y030521D01*
X013207Y030368D01*
X013131Y030291D01*
X013054Y030291D01*
X013247Y030368D02*
X013247Y030521D01*
X013324Y030598D01*
X013631Y030598D01*
X013324Y030291D01*
X013247Y030368D01*
X013324Y030291D02*
X013631Y030291D01*
X013707Y030368D01*
X013707Y030521D01*
X013631Y030598D01*
X013747Y030521D02*
X013747Y030368D01*
X013824Y030291D01*
X013977Y030291D02*
X014054Y030444D01*
X014054Y030521D01*
X013977Y030598D01*
X013824Y030598D01*
X013747Y030521D01*
X013977Y030291D02*
X014207Y030291D01*
X014207Y030598D01*
X014610Y030504D02*
X014610Y030427D01*
X014917Y030120D01*
X014610Y030120D01*
X014610Y030504D02*
X014687Y030580D01*
X014841Y030580D01*
X014917Y030504D01*
X015071Y030580D02*
X015378Y030580D01*
X015378Y030350D01*
X015224Y030427D01*
X015148Y030427D01*
X015071Y030350D01*
X015071Y030197D01*
X015148Y030120D01*
X015301Y030120D01*
X015378Y030197D01*
X015531Y030120D02*
X015685Y030273D01*
X015608Y030273D02*
X015838Y030273D01*
X015838Y030120D02*
X015838Y030580D01*
X015608Y030580D01*
X015531Y030504D01*
X015531Y030350D01*
X015608Y030273D01*
X014207Y030061D02*
X014207Y029907D01*
X014131Y029830D01*
X014054Y029830D01*
X013977Y029907D01*
X013977Y030061D01*
X013900Y030137D01*
X013824Y030137D01*
X013747Y030061D01*
X013747Y029907D01*
X013824Y029830D01*
X013900Y029830D01*
X013977Y029907D01*
X013977Y030061D02*
X014054Y030137D01*
X014131Y030137D01*
X014207Y030061D01*
X014131Y029677D02*
X014207Y029600D01*
X014207Y029447D01*
X014131Y029370D01*
X013707Y029830D02*
X013707Y030137D01*
X012824Y030291D02*
X012747Y030368D01*
X012747Y030521D01*
X012824Y030598D01*
X011824Y030598D02*
X011747Y030521D01*
X011747Y030368D01*
X011824Y030291D01*
X011707Y030368D02*
X011707Y030521D01*
X011631Y030598D01*
X011324Y030291D01*
X011247Y030368D01*
X011247Y030521D01*
X011324Y030598D01*
X011631Y030598D01*
X011707Y030368D02*
X011631Y030291D01*
X011324Y030291D01*
X011207Y030137D02*
X011131Y029984D01*
X010707Y029600D02*
X010631Y029677D01*
X011631Y029677D02*
X011707Y029600D01*
X009207Y029600D02*
X009207Y029370D01*
X008747Y029370D01*
X008900Y029370D02*
X008900Y029600D01*
X008977Y029677D01*
X009131Y029677D01*
X009207Y029600D01*
X009207Y029830D02*
X008977Y029830D01*
X009054Y029984D01*
X009054Y030061D01*
X008977Y030137D01*
X008824Y030137D01*
X008747Y030061D01*
X008747Y029907D01*
X008824Y029830D01*
X008747Y029677D02*
X008900Y029523D01*
X009207Y029830D02*
X009207Y030137D01*
X009054Y030291D02*
X009207Y030444D01*
X008747Y030444D01*
X008747Y030291D02*
X008747Y030598D01*
X006707Y031066D02*
X006631Y030989D01*
X006324Y030989D01*
X006247Y031066D01*
X006247Y031219D01*
X006324Y031296D01*
X006477Y031449D02*
X006477Y031756D01*
X006324Y031910D02*
X006631Y031910D01*
X006707Y031986D01*
X006707Y032140D01*
X006631Y032217D01*
X006324Y031910D01*
X006247Y031986D01*
X006247Y032140D01*
X006324Y032217D01*
X006631Y032217D01*
X006707Y031679D02*
X006247Y031679D01*
X006082Y031679D02*
X006006Y031756D01*
X005929Y031756D01*
X005852Y031679D01*
X005775Y031756D01*
X005699Y031756D01*
X005622Y031679D01*
X005622Y031526D01*
X005699Y031449D01*
X005582Y031526D02*
X005582Y031679D01*
X005506Y031756D01*
X005429Y031756D01*
X005352Y031679D01*
X005275Y031756D01*
X005199Y031756D01*
X005122Y031679D01*
X005122Y031526D01*
X005199Y031449D01*
X005199Y031296D02*
X005122Y031219D01*
X005122Y031066D01*
X005199Y030989D01*
X005506Y030989D01*
X005582Y031066D01*
X005582Y031219D01*
X005506Y031296D01*
X005622Y031219D02*
X005699Y031296D01*
X005622Y031219D02*
X005622Y031066D01*
X005699Y030989D01*
X006006Y030989D01*
X006082Y031066D01*
X006082Y031219D01*
X006006Y031296D01*
X006006Y031449D02*
X006082Y031526D01*
X006082Y031679D01*
X005852Y031679D02*
X005852Y031603D01*
X005582Y031526D02*
X005506Y031449D01*
X005352Y031603D02*
X005352Y031679D01*
X005275Y031910D02*
X005352Y031986D01*
X005352Y032140D01*
X005275Y032217D01*
X005199Y032217D01*
X005122Y032140D01*
X005122Y031986D01*
X005199Y031910D01*
X005275Y031910D01*
X005352Y031986D02*
X005429Y031910D01*
X005506Y031910D01*
X005582Y031986D01*
X005582Y032140D01*
X005506Y032217D01*
X005429Y032217D01*
X005352Y032140D01*
X005622Y032140D02*
X005699Y032217D01*
X006006Y032217D01*
X006082Y032140D01*
X006082Y031986D01*
X006006Y031910D01*
X005929Y031910D01*
X005852Y031986D01*
X005852Y032217D01*
X005622Y032140D02*
X005622Y031986D01*
X005699Y031910D01*
X004957Y031910D02*
X004957Y032217D01*
X004881Y032217D01*
X004574Y031910D01*
X004497Y031910D01*
X004574Y031756D02*
X004497Y031679D01*
X004497Y031526D01*
X004574Y031449D01*
X004574Y031296D02*
X004497Y031219D01*
X004497Y031066D01*
X004574Y030989D01*
X004881Y030989D01*
X004957Y031066D01*
X004957Y031219D01*
X004881Y031296D01*
X004881Y031449D02*
X004957Y031526D01*
X004957Y031679D01*
X004881Y031756D01*
X004804Y031756D01*
X004727Y031679D01*
X004650Y031756D01*
X004574Y031756D01*
X004727Y031679D02*
X004727Y031603D01*
X004332Y031603D02*
X003872Y031603D01*
X003872Y031756D02*
X003872Y031449D01*
X003872Y031296D02*
X004025Y031142D01*
X004025Y031219D02*
X004025Y030989D01*
X003872Y030989D02*
X004332Y030989D01*
X004332Y031219D01*
X004256Y031296D01*
X004102Y031296D01*
X004025Y031219D01*
X004179Y031449D02*
X004332Y031603D01*
X004256Y031910D02*
X004332Y031986D01*
X004332Y032140D01*
X004256Y032217D01*
X004179Y032217D01*
X004102Y032140D01*
X004025Y032217D01*
X003949Y032217D01*
X003872Y032140D01*
X003872Y031986D01*
X003949Y031910D01*
X004102Y032063D02*
X004102Y032140D01*
X006477Y031449D02*
X006707Y031679D01*
X006631Y031296D02*
X006707Y031219D01*
X006707Y031066D01*
X010574Y039495D02*
X010497Y039572D01*
X010497Y039725D01*
X010574Y039802D01*
X010574Y039955D02*
X010497Y039955D01*
X010574Y039955D02*
X010881Y040262D01*
X010957Y040262D01*
X010957Y039955D01*
X010997Y040032D02*
X011074Y039955D01*
X011227Y039955D01*
X011227Y040186D01*
X011150Y040262D01*
X011074Y040262D01*
X010997Y040186D01*
X010997Y040032D01*
X011074Y039802D02*
X010997Y039725D01*
X010997Y039572D01*
X011074Y039495D01*
X011381Y039495D01*
X011457Y039572D01*
X011457Y039725D01*
X011381Y039802D01*
X011227Y039955D02*
X011381Y040109D01*
X011457Y040262D01*
X010957Y039725D02*
X010957Y039572D01*
X010881Y039495D01*
X010574Y039495D01*
X010881Y039802D02*
X010957Y039725D01*
X010185Y039995D02*
X010031Y039995D01*
X010108Y039995D02*
X010108Y040455D01*
X010185Y040455D02*
X010031Y040455D01*
X009878Y040379D02*
X009878Y040072D01*
X009801Y039995D01*
X009648Y039995D01*
X009571Y040072D01*
X009417Y039995D02*
X009110Y039995D01*
X009264Y039995D02*
X009264Y040455D01*
X009417Y040302D01*
X009571Y040379D02*
X009648Y040455D01*
X009801Y040455D01*
X009878Y040379D01*
X008707Y040353D02*
X008247Y040353D01*
X008247Y040506D02*
X008247Y040199D01*
X008324Y040046D02*
X008247Y039969D01*
X008247Y039816D01*
X008324Y039739D01*
X008631Y039739D01*
X008707Y039816D01*
X008707Y039969D01*
X008631Y040046D01*
X008554Y040199D02*
X008707Y040353D01*
X008477Y040660D02*
X008477Y040967D01*
X008247Y040890D02*
X008707Y040890D01*
X008477Y040660D01*
X007832Y040660D02*
X007602Y040660D01*
X007679Y040813D01*
X007679Y040890D01*
X007602Y040967D01*
X007449Y040967D01*
X007372Y040890D01*
X007372Y040736D01*
X007449Y040660D01*
X007372Y040506D02*
X007372Y040199D01*
X007372Y040353D02*
X007832Y040353D01*
X007679Y040199D01*
X007756Y040046D02*
X007832Y039969D01*
X007832Y039816D01*
X007756Y039739D01*
X007449Y039739D01*
X007372Y039816D01*
X007372Y039969D01*
X007449Y040046D01*
X007832Y040660D02*
X007832Y040967D01*
X009133Y043620D02*
X009440Y043620D01*
X009133Y043927D01*
X009133Y044004D01*
X009210Y044080D01*
X009363Y044080D01*
X009440Y044004D01*
X009593Y044004D02*
X009670Y044080D01*
X009823Y044080D01*
X009900Y044004D01*
X009900Y043697D01*
X009823Y043620D01*
X009670Y043620D01*
X009593Y043697D01*
X010054Y043620D02*
X010207Y043620D01*
X010130Y043620D02*
X010130Y044080D01*
X010054Y044080D02*
X010207Y044080D01*
X010497Y043975D02*
X010574Y044052D01*
X010497Y043975D02*
X010497Y043822D01*
X010574Y043745D01*
X010881Y043745D01*
X010957Y043822D01*
X010957Y043975D01*
X010881Y044052D01*
X010997Y043975D02*
X011074Y044052D01*
X010997Y043975D02*
X010997Y043822D01*
X011074Y043745D01*
X011381Y043745D01*
X011457Y043822D01*
X011457Y043975D01*
X011381Y044052D01*
X011304Y044205D02*
X011457Y044359D01*
X010997Y044359D01*
X010957Y044359D02*
X010497Y044359D01*
X010497Y044512D02*
X010497Y044205D01*
X010804Y044205D02*
X010957Y044359D01*
X010997Y044512D02*
X010997Y044205D01*
X010997Y044666D02*
X011304Y044973D01*
X011381Y044973D01*
X011457Y044896D01*
X011457Y044743D01*
X011381Y044666D01*
X010997Y044666D02*
X010997Y044973D01*
X010957Y044896D02*
X010881Y044973D01*
X010804Y044973D01*
X010727Y044896D01*
X010650Y044973D01*
X010574Y044973D01*
X010497Y044896D01*
X010497Y044743D01*
X010574Y044666D01*
X010727Y044819D02*
X010727Y044896D01*
X010957Y044896D02*
X010957Y044743D01*
X010881Y044666D01*
X011860Y044995D02*
X012167Y044995D01*
X012014Y044995D02*
X012014Y045455D01*
X012167Y045302D01*
X012312Y045495D02*
X012466Y045495D01*
X012542Y045572D01*
X012542Y045648D01*
X012466Y045725D01*
X012312Y045725D01*
X012235Y045648D01*
X012235Y045572D01*
X012312Y045495D01*
X012474Y045455D02*
X012474Y044995D01*
X012321Y044995D02*
X012628Y044995D01*
X012781Y045072D02*
X012858Y044995D01*
X013011Y044995D01*
X013088Y045072D01*
X013088Y045379D01*
X013011Y045455D01*
X012858Y045455D01*
X012781Y045379D01*
X012773Y045495D02*
X012696Y045572D01*
X012773Y045495D02*
X012926Y045495D01*
X013003Y045572D01*
X013003Y045879D01*
X012926Y045955D01*
X012773Y045955D01*
X012696Y045879D01*
X012542Y045879D02*
X012542Y045802D01*
X012466Y045725D01*
X012312Y045725D02*
X012235Y045802D01*
X012235Y045879D01*
X012312Y045955D01*
X012466Y045955D01*
X012542Y045879D01*
X012474Y045455D02*
X012628Y045302D01*
X013786Y046447D02*
X013479Y046754D01*
X013479Y046830D01*
X013786Y046830D01*
X013710Y046870D02*
X013556Y046870D01*
X013479Y046947D01*
X013479Y047023D01*
X013556Y047100D01*
X013786Y047100D01*
X013786Y046947D01*
X013710Y046870D01*
X013940Y046870D02*
X014247Y046870D01*
X014093Y046870D02*
X014093Y047330D01*
X014247Y047177D01*
X014400Y047254D02*
X014477Y047330D01*
X014630Y047330D01*
X014707Y047254D01*
X014707Y046947D01*
X014630Y046870D01*
X014477Y046870D01*
X014400Y046947D01*
X014477Y046830D02*
X014630Y046830D01*
X014707Y046754D01*
X014707Y046447D01*
X014630Y046370D01*
X014477Y046370D01*
X014400Y046447D01*
X014247Y046370D02*
X013940Y046370D01*
X014093Y046370D02*
X014093Y046830D01*
X014247Y046677D01*
X014400Y046754D02*
X014477Y046830D01*
X013786Y047100D02*
X013633Y047254D01*
X013479Y047330D01*
X013786Y046447D02*
X013786Y046370D01*
X016306Y043705D02*
X016229Y043629D01*
X016229Y043552D01*
X016306Y043475D01*
X016229Y043398D01*
X016229Y043322D01*
X016306Y043245D01*
X016460Y043245D01*
X016536Y043322D01*
X016690Y043322D02*
X016690Y043398D01*
X016766Y043475D01*
X016843Y043475D01*
X016766Y043475D02*
X016690Y043552D01*
X016690Y043629D01*
X016766Y043705D01*
X016920Y043705D01*
X016997Y043629D01*
X017150Y043629D02*
X017227Y043705D01*
X017380Y043705D01*
X017457Y043629D01*
X017457Y043322D01*
X017380Y043245D01*
X017227Y043245D01*
X017150Y043322D01*
X016997Y043322D02*
X016920Y043245D01*
X016766Y043245D01*
X016690Y043322D01*
X016536Y043629D02*
X016460Y043705D01*
X016306Y043705D01*
X016306Y043475D02*
X016383Y043475D01*
X016306Y042205D02*
X016536Y041975D01*
X016229Y041975D01*
X016306Y041745D02*
X016306Y042205D01*
X016690Y042129D02*
X016690Y042052D01*
X016766Y041975D01*
X016690Y041898D01*
X016690Y041822D01*
X016766Y041745D01*
X016920Y041745D01*
X016997Y041822D01*
X017150Y041822D02*
X017227Y041745D01*
X017380Y041745D01*
X017457Y041822D01*
X017457Y042129D01*
X017380Y042205D01*
X017227Y042205D01*
X017150Y042129D01*
X016997Y042129D02*
X016920Y042205D01*
X016766Y042205D01*
X016690Y042129D01*
X016766Y041975D02*
X016843Y041975D01*
X019122Y042004D02*
X019122Y042157D01*
X019199Y042234D01*
X019199Y042387D02*
X019122Y042464D01*
X019122Y042618D01*
X019199Y042694D01*
X019352Y042694D01*
X019429Y042618D01*
X019429Y042541D01*
X019352Y042387D01*
X019582Y042387D01*
X019582Y042694D01*
X019506Y042234D02*
X019582Y042157D01*
X019582Y042004D01*
X019506Y041927D01*
X019199Y041927D01*
X019122Y042004D01*
X019122Y041773D02*
X019122Y041620D01*
X019122Y041697D02*
X019582Y041697D01*
X019582Y041773D02*
X019582Y041620D01*
X020747Y041572D02*
X020747Y041725D01*
X020824Y041802D01*
X020747Y041955D02*
X021054Y042262D01*
X021131Y042262D01*
X021207Y042186D01*
X021207Y042032D01*
X021131Y041955D01*
X021131Y041802D02*
X021207Y041725D01*
X021207Y041572D01*
X021131Y041495D01*
X020824Y041495D01*
X020747Y041572D01*
X020747Y041955D02*
X020747Y042262D01*
X020824Y042416D02*
X020747Y042493D01*
X020747Y042646D01*
X020824Y042723D01*
X020977Y042723D01*
X021054Y042646D01*
X021054Y042569D01*
X020977Y042416D01*
X021207Y042416D01*
X021207Y042723D01*
X021199Y040342D02*
X021275Y040342D01*
X021352Y040265D01*
X021352Y040035D01*
X021199Y040035D01*
X021122Y040111D01*
X021122Y040265D01*
X021199Y040342D01*
X021506Y040188D02*
X021352Y040035D01*
X021275Y039881D02*
X021199Y039881D01*
X021122Y039804D01*
X021122Y039651D01*
X021199Y039574D01*
X021199Y039421D02*
X021122Y039344D01*
X021122Y039191D01*
X021199Y039114D01*
X021506Y039114D01*
X021582Y039191D01*
X021582Y039344D01*
X021506Y039421D01*
X021506Y039574D02*
X021582Y039651D01*
X021582Y039804D01*
X021506Y039881D01*
X021429Y039881D01*
X021352Y039804D01*
X021275Y039881D01*
X021352Y039804D02*
X021352Y039728D01*
X021506Y040188D02*
X021582Y040342D01*
X022997Y041447D02*
X023074Y041370D01*
X023381Y041370D01*
X023457Y041447D01*
X023457Y041600D01*
X023381Y041677D01*
X023381Y041830D02*
X023457Y041907D01*
X023457Y042061D01*
X023381Y042137D01*
X023304Y042137D01*
X022997Y041830D01*
X022997Y042137D01*
X023227Y042291D02*
X023227Y042598D01*
X022997Y042521D02*
X023457Y042521D01*
X023227Y042291D01*
X023074Y041677D02*
X022997Y041600D01*
X022997Y041447D01*
X025872Y041469D02*
X025872Y041316D01*
X025949Y041239D01*
X026256Y041239D01*
X026332Y041316D01*
X026332Y041469D01*
X026256Y041546D01*
X026256Y041699D02*
X026332Y041776D01*
X026332Y041929D01*
X026256Y042006D01*
X026179Y042006D01*
X025872Y041699D01*
X025872Y042006D01*
X025949Y042160D02*
X025872Y042236D01*
X025872Y042390D01*
X025949Y042467D01*
X026256Y042467D01*
X026332Y042390D01*
X026332Y042236D01*
X026256Y042160D01*
X026179Y042160D01*
X026102Y042236D01*
X026102Y042467D01*
X025949Y041546D02*
X025872Y041469D01*
X026449Y040598D02*
X026372Y040521D01*
X026372Y040368D01*
X026449Y040291D01*
X026449Y040137D02*
X026372Y040061D01*
X026372Y039907D01*
X026449Y039830D01*
X026372Y039677D02*
X026525Y039523D01*
X026525Y039600D02*
X026525Y039370D01*
X026372Y039370D02*
X026832Y039370D01*
X026832Y039600D01*
X026756Y039677D01*
X026602Y039677D01*
X026525Y039600D01*
X026756Y039830D02*
X026832Y039907D01*
X026832Y040061D01*
X026756Y040137D01*
X026679Y040137D01*
X026602Y040061D01*
X026525Y040137D01*
X026449Y040137D01*
X026602Y040061D02*
X026602Y039984D01*
X026756Y040291D02*
X026832Y040368D01*
X026832Y040521D01*
X026756Y040598D01*
X026679Y040598D01*
X026602Y040521D01*
X026525Y040598D01*
X026449Y040598D01*
X026602Y040521D02*
X026602Y040444D01*
X028872Y040390D02*
X028872Y040236D01*
X028949Y040160D01*
X029102Y040160D02*
X029179Y040313D01*
X029179Y040390D01*
X029102Y040467D01*
X028949Y040467D01*
X028872Y040390D01*
X029102Y040160D02*
X029332Y040160D01*
X029332Y040467D01*
X029256Y040006D02*
X029179Y040006D01*
X029102Y039929D01*
X029025Y040006D01*
X028949Y040006D01*
X028872Y039929D01*
X028872Y039776D01*
X028949Y039699D01*
X028949Y039546D02*
X028872Y039469D01*
X028872Y039316D01*
X028949Y039239D01*
X029256Y039239D01*
X029332Y039316D01*
X029332Y039469D01*
X029256Y039546D01*
X029256Y039699D02*
X029332Y039776D01*
X029332Y039929D01*
X029256Y040006D01*
X029102Y039929D02*
X029102Y039853D01*
X028949Y041364D02*
X028872Y041441D01*
X028872Y041594D01*
X028949Y041671D01*
X028872Y041824D02*
X029179Y042131D01*
X029256Y042131D01*
X029332Y042054D01*
X029332Y041901D01*
X029256Y041824D01*
X029256Y041671D02*
X029332Y041594D01*
X029332Y041441D01*
X029256Y041364D01*
X028949Y041364D01*
X028872Y041824D02*
X028872Y042131D01*
X028949Y042285D02*
X029025Y042285D01*
X029102Y042361D01*
X029102Y042515D01*
X029025Y042592D01*
X028949Y042592D01*
X028872Y042515D01*
X028872Y042361D01*
X028949Y042285D01*
X029102Y042361D02*
X029179Y042285D01*
X029256Y042285D01*
X029332Y042361D01*
X029332Y042515D01*
X029256Y042592D01*
X029179Y042592D01*
X029102Y042515D01*
X024957Y036973D02*
X024957Y036666D01*
X024881Y036512D02*
X024957Y036436D01*
X024957Y036282D01*
X024881Y036205D01*
X024881Y036052D02*
X024957Y035975D01*
X024957Y035822D01*
X024881Y035745D01*
X024574Y035745D01*
X024497Y035822D01*
X024497Y035975D01*
X024574Y036052D01*
X024497Y036205D02*
X024804Y036512D01*
X024881Y036512D01*
X024574Y036666D02*
X024881Y036973D01*
X024957Y036973D01*
X024574Y036666D02*
X024497Y036666D01*
X024497Y036512D02*
X024497Y036205D01*
X021505Y032455D02*
X021582Y032379D01*
X021582Y032072D01*
X021505Y031995D01*
X021352Y031995D01*
X021275Y032072D01*
X021122Y032072D02*
X021045Y031995D01*
X020891Y031995D01*
X020815Y032072D01*
X020815Y032379D01*
X020891Y032455D01*
X021045Y032455D01*
X021122Y032379D01*
X021122Y032302D01*
X021045Y032225D01*
X020815Y032225D01*
X020661Y032072D02*
X020585Y031995D01*
X020431Y031995D01*
X020354Y032072D01*
X020354Y032148D01*
X020431Y032225D01*
X020508Y032225D01*
X020431Y032225D02*
X020354Y032302D01*
X020354Y032379D01*
X020431Y032455D01*
X020585Y032455D01*
X020661Y032379D01*
X021275Y032379D02*
X021352Y032455D01*
X021505Y032455D01*
X021747Y030598D02*
X021747Y030291D01*
X021747Y030444D02*
X022207Y030444D01*
X022054Y030291D01*
X022131Y030137D02*
X022207Y030061D01*
X022207Y029907D01*
X022131Y029830D01*
X022054Y029830D01*
X021977Y029907D01*
X021977Y030137D01*
X021824Y030137D02*
X022131Y030137D01*
X022247Y030061D02*
X022247Y029907D01*
X022324Y029830D01*
X022400Y029830D01*
X022477Y029907D01*
X022477Y030061D01*
X022400Y030137D01*
X022324Y030137D01*
X022247Y030061D01*
X022247Y030291D02*
X022324Y030291D01*
X022631Y030598D01*
X022707Y030598D01*
X022707Y030291D01*
X022747Y030368D02*
X022747Y030521D01*
X022824Y030598D01*
X023131Y030598D01*
X023207Y030521D01*
X023207Y030368D01*
X023131Y030291D01*
X023054Y030291D01*
X022977Y030368D01*
X022977Y030598D01*
X023247Y030521D02*
X023247Y030368D01*
X023324Y030291D01*
X023400Y030291D01*
X023477Y030368D01*
X023477Y030521D01*
X023400Y030598D01*
X023324Y030598D01*
X023247Y030521D01*
X023477Y030521D02*
X023554Y030598D01*
X023631Y030598D01*
X023707Y030521D01*
X023707Y030368D01*
X023631Y030291D01*
X023554Y030291D01*
X023477Y030368D01*
X023400Y030137D02*
X023324Y030137D01*
X023247Y030061D01*
X023247Y029907D01*
X023324Y029830D01*
X023400Y029830D01*
X023477Y029907D01*
X023477Y030061D01*
X023400Y030137D01*
X023477Y030061D02*
X023554Y030137D01*
X023631Y030137D01*
X023707Y030061D01*
X023707Y029907D01*
X023631Y029830D01*
X023554Y029830D01*
X023477Y029907D01*
X023207Y029907D02*
X023207Y030061D01*
X023131Y030137D01*
X023054Y030137D01*
X022977Y030061D01*
X022977Y029907D01*
X023054Y029830D01*
X023131Y029830D01*
X023207Y029907D01*
X022977Y029907D02*
X022900Y029830D01*
X022824Y029830D01*
X022747Y029907D01*
X022747Y030061D01*
X022824Y030137D01*
X022900Y030137D01*
X022977Y030061D01*
X022707Y030061D02*
X022707Y029907D01*
X022631Y029830D01*
X022554Y029830D01*
X022477Y029907D01*
X022477Y030061D02*
X022554Y030137D01*
X022631Y030137D01*
X022707Y030061D01*
X022824Y030291D02*
X022747Y030368D01*
X022824Y029677D02*
X022747Y029600D01*
X022747Y029447D01*
X022824Y029370D01*
X023131Y029370D01*
X023207Y029447D01*
X023207Y029600D01*
X023131Y029677D01*
X023247Y029600D02*
X023324Y029677D01*
X023247Y029600D02*
X023247Y029447D01*
X023324Y029370D01*
X023631Y029370D01*
X023707Y029447D01*
X023707Y029600D01*
X023631Y029677D01*
X023747Y029600D02*
X023824Y029677D01*
X023747Y029600D02*
X023747Y029447D01*
X023824Y029370D01*
X024131Y029370D01*
X024207Y029447D01*
X024207Y029600D01*
X024131Y029677D01*
X024247Y029677D02*
X024400Y029523D01*
X024400Y029600D02*
X024400Y029370D01*
X024247Y029370D02*
X024707Y029370D01*
X024707Y029600D01*
X024631Y029677D01*
X024477Y029677D01*
X024400Y029600D01*
X024324Y029830D02*
X024247Y029907D01*
X024247Y030061D01*
X024324Y030137D01*
X024477Y030137D01*
X024554Y030061D01*
X024554Y029984D01*
X024477Y029830D01*
X024707Y029830D01*
X024707Y030137D01*
X024747Y030061D02*
X024747Y029907D01*
X024824Y029830D01*
X024977Y029830D02*
X025054Y029984D01*
X025054Y030061D01*
X024977Y030137D01*
X024824Y030137D01*
X024747Y030061D01*
X024631Y030291D02*
X024707Y030368D01*
X024707Y030521D01*
X024631Y030598D01*
X024554Y030598D01*
X024477Y030521D01*
X024400Y030598D01*
X024324Y030598D01*
X024247Y030521D01*
X024247Y030368D01*
X024324Y030291D01*
X024207Y030368D02*
X024207Y030521D01*
X024131Y030598D01*
X023824Y030291D01*
X023747Y030368D01*
X023747Y030521D01*
X023824Y030598D01*
X024131Y030598D01*
X024207Y030368D02*
X024131Y030291D01*
X023824Y030291D01*
X023824Y030137D02*
X024131Y030137D01*
X024207Y030061D01*
X024207Y029907D01*
X024131Y029830D01*
X024054Y029830D01*
X023977Y029907D01*
X023977Y030137D01*
X023824Y030137D02*
X023747Y030061D01*
X023747Y029907D01*
X023824Y029830D01*
X024477Y030444D02*
X024477Y030521D01*
X024747Y030521D02*
X025207Y030521D01*
X024977Y030291D01*
X024977Y030598D01*
X025247Y030598D02*
X025247Y030291D01*
X025554Y030598D01*
X025631Y030598D01*
X025707Y030521D01*
X025707Y030368D01*
X025631Y030291D01*
X025631Y030137D02*
X025707Y030061D01*
X025707Y029907D01*
X025631Y029830D01*
X025554Y029830D01*
X025477Y029907D01*
X025477Y030137D01*
X025324Y030137D02*
X025631Y030137D01*
X025324Y030137D02*
X025247Y030061D01*
X025247Y029907D01*
X025324Y029830D01*
X025207Y029830D02*
X024977Y029830D01*
X024977Y029677D02*
X024900Y029600D01*
X024900Y029370D01*
X024747Y029370D02*
X025207Y029370D01*
X025207Y029600D01*
X025131Y029677D01*
X024977Y029677D01*
X024900Y029523D02*
X024747Y029677D01*
X025207Y029830D02*
X025207Y030137D01*
X025324Y029677D02*
X025247Y029600D01*
X025247Y029447D01*
X025324Y029370D01*
X025631Y029370D01*
X025707Y029447D01*
X025707Y029600D01*
X025631Y029677D01*
X026747Y029677D02*
X026900Y029523D01*
X026900Y029600D02*
X026900Y029370D01*
X026747Y029370D02*
X027207Y029370D01*
X027207Y029600D01*
X027131Y029677D01*
X026977Y029677D01*
X026900Y029600D01*
X026824Y029830D02*
X026747Y029907D01*
X026747Y030061D01*
X026824Y030137D01*
X026977Y030137D01*
X027054Y030061D01*
X027054Y029984D01*
X026977Y029830D01*
X027207Y029830D01*
X027207Y030137D01*
X026977Y030291D02*
X027131Y030444D01*
X027207Y030598D01*
X026977Y030521D02*
X026977Y030291D01*
X026824Y030291D01*
X026747Y030368D01*
X026747Y030521D01*
X026824Y030598D01*
X026900Y030598D01*
X026977Y030521D01*
X022707Y029600D02*
X022707Y029447D01*
X022631Y029370D01*
X022324Y029370D01*
X022247Y029447D01*
X022247Y029600D01*
X022324Y029677D01*
X022207Y029600D02*
X022207Y029447D01*
X022131Y029370D01*
X021824Y029370D01*
X021747Y029447D01*
X021747Y029600D01*
X021824Y029677D01*
X021824Y029830D02*
X021747Y029907D01*
X021747Y030061D01*
X021824Y030137D01*
X022131Y029677D02*
X022207Y029600D01*
X022631Y029677D02*
X022707Y029600D01*
X020588Y030120D02*
X020588Y030580D01*
X020358Y030580D01*
X020281Y030504D01*
X020281Y030350D01*
X020358Y030273D01*
X020588Y030273D01*
X020435Y030273D02*
X020281Y030120D01*
X020128Y030197D02*
X020051Y030120D01*
X019898Y030120D01*
X019821Y030197D01*
X019821Y030350D01*
X019898Y030427D01*
X019974Y030427D01*
X020128Y030350D01*
X020128Y030580D01*
X019821Y030580D01*
X019667Y030580D02*
X019667Y030350D01*
X019514Y030427D01*
X019437Y030427D01*
X019360Y030350D01*
X019360Y030197D01*
X019437Y030120D01*
X019591Y030120D01*
X019667Y030197D01*
X019667Y030580D02*
X019360Y030580D01*
X016582Y032072D02*
X016505Y031995D01*
X016352Y031995D01*
X016275Y032072D01*
X016122Y032072D02*
X016122Y032148D01*
X016045Y032225D01*
X015891Y032225D01*
X015815Y032148D01*
X015815Y032072D01*
X015891Y031995D01*
X016045Y031995D01*
X016122Y032072D01*
X016045Y032225D02*
X016122Y032302D01*
X016122Y032379D01*
X016045Y032455D01*
X015891Y032455D01*
X015815Y032379D01*
X015815Y032302D01*
X015891Y032225D01*
X015661Y032225D02*
X015431Y032225D01*
X015354Y032148D01*
X015354Y032072D01*
X015431Y031995D01*
X015585Y031995D01*
X015661Y032072D01*
X015661Y032225D01*
X015508Y032379D01*
X015354Y032455D01*
X016275Y032379D02*
X016352Y032455D01*
X016505Y032455D01*
X016582Y032379D01*
X016582Y032072D01*
X019199Y035745D02*
X019122Y035822D01*
X019122Y035975D01*
X019199Y036052D01*
X019122Y036205D02*
X019429Y036512D01*
X019506Y036512D01*
X019582Y036436D01*
X019582Y036282D01*
X019506Y036205D01*
X019506Y036052D02*
X019582Y035975D01*
X019582Y035822D01*
X019506Y035745D01*
X019199Y035745D01*
X019122Y036205D02*
X019122Y036512D01*
X019199Y036666D02*
X019122Y036743D01*
X019122Y036896D01*
X019199Y036973D01*
X019275Y036973D01*
X019352Y036896D01*
X019352Y036666D01*
X019199Y036666D01*
X019352Y036666D02*
X019506Y036819D01*
X019582Y036973D01*
X019523Y046245D02*
X019676Y046245D01*
X019753Y046322D01*
X019906Y046245D02*
X020060Y046398D01*
X019983Y046398D02*
X020213Y046398D01*
X020213Y046245D02*
X020213Y046705D01*
X019983Y046705D01*
X019906Y046629D01*
X019906Y046475D01*
X019983Y046398D01*
X019753Y046629D02*
X019676Y046705D01*
X019523Y046705D01*
X019446Y046629D01*
X019446Y046552D01*
X019523Y046475D01*
X019446Y046398D01*
X019446Y046322D01*
X019523Y046245D01*
X019523Y046475D02*
X019599Y046475D01*
X019523Y046745D02*
X019676Y046745D01*
X019753Y046822D01*
X019906Y046745D02*
X020060Y046898D01*
X019983Y046898D02*
X020213Y046898D01*
X020213Y046745D02*
X020213Y047205D01*
X019983Y047205D01*
X019906Y047129D01*
X019906Y046975D01*
X019983Y046898D01*
X019753Y047129D02*
X019676Y047205D01*
X019523Y047205D01*
X019446Y047129D01*
X019446Y047052D01*
X019523Y046975D01*
X019446Y046898D01*
X019446Y046822D01*
X019523Y046745D01*
X019523Y046975D02*
X019599Y046975D01*
X019292Y047052D02*
X019139Y047205D01*
X019139Y046745D01*
X019216Y046705D02*
X019292Y046629D01*
X019216Y046705D02*
X019062Y046705D01*
X018985Y046629D01*
X018985Y046552D01*
X019292Y046245D01*
X018985Y046245D01*
X018985Y046745D02*
X019292Y046745D01*
X019354Y007330D02*
X019354Y007254D01*
X019661Y006947D01*
X019661Y006870D01*
X019815Y006947D02*
X019891Y006870D01*
X020045Y006870D01*
X020122Y006947D01*
X020122Y007100D02*
X019968Y007177D01*
X019891Y007177D01*
X019815Y007100D01*
X019815Y006947D01*
X020122Y007100D02*
X020122Y007330D01*
X019815Y007330D01*
X019661Y007330D02*
X019354Y007330D01*
X019431Y006455D02*
X019354Y006379D01*
X019354Y006302D01*
X019431Y006225D01*
X019585Y006225D01*
X019661Y006302D01*
X019661Y006379D01*
X019585Y006455D01*
X019431Y006455D01*
X019431Y006225D02*
X019354Y006148D01*
X019354Y006072D01*
X019431Y005995D01*
X019585Y005995D01*
X019661Y006072D01*
X019661Y006148D01*
X019585Y006225D01*
X019815Y006148D02*
X019815Y006072D01*
X019891Y005995D01*
X020045Y005995D01*
X020122Y006072D01*
X020275Y005995D02*
X020429Y006148D01*
X020352Y006148D02*
X020582Y006148D01*
X020582Y005995D02*
X020582Y006455D01*
X020352Y006455D01*
X020275Y006379D01*
X020275Y006225D01*
X020352Y006148D01*
X020122Y006379D02*
X020045Y006455D01*
X019891Y006455D01*
X019815Y006379D01*
X019815Y006302D01*
X019891Y006225D01*
X019815Y006148D01*
X019891Y006225D02*
X019968Y006225D01*
X020275Y006870D02*
X020429Y007023D01*
X020352Y007023D02*
X020582Y007023D01*
X020582Y006870D02*
X020582Y007330D01*
X020352Y007330D01*
X020275Y007254D01*
X020275Y007100D01*
X020352Y007023D01*
X019707Y005598D02*
X019631Y005598D01*
X019324Y005291D01*
X019247Y005291D01*
X019324Y005137D02*
X019247Y005061D01*
X019247Y004907D01*
X019324Y004830D01*
X019247Y004677D02*
X019400Y004523D01*
X019400Y004600D02*
X019400Y004370D01*
X019247Y004370D02*
X019707Y004370D01*
X019707Y004600D01*
X019631Y004677D01*
X019477Y004677D01*
X019400Y004600D01*
X019082Y004600D02*
X019082Y004447D01*
X019006Y004370D01*
X018699Y004370D01*
X018622Y004447D01*
X018622Y004600D01*
X018699Y004677D01*
X018852Y004830D02*
X018852Y005137D01*
X018699Y005291D02*
X018622Y005368D01*
X018622Y005521D01*
X018699Y005598D01*
X018775Y005598D01*
X018852Y005521D01*
X018852Y005444D01*
X018852Y005521D02*
X018929Y005598D01*
X019006Y005598D01*
X019082Y005521D01*
X019082Y005368D01*
X019006Y005291D01*
X019082Y005061D02*
X018622Y005061D01*
X018457Y005061D02*
X018227Y004830D01*
X018227Y005137D01*
X018082Y005148D02*
X017622Y005148D01*
X017602Y005137D02*
X017602Y004830D01*
X017832Y005061D01*
X017372Y005061D01*
X017602Y005291D02*
X017602Y005598D01*
X017622Y005609D02*
X018082Y005609D01*
X017929Y005455D01*
X017997Y005521D02*
X017997Y005368D01*
X018074Y005291D01*
X018082Y005302D02*
X018082Y004995D01*
X017997Y005061D02*
X018457Y005061D01*
X018457Y005291D02*
X018227Y005291D01*
X018304Y005444D01*
X018304Y005521D01*
X018227Y005598D01*
X018074Y005598D01*
X017997Y005521D01*
X017832Y005521D02*
X017602Y005291D01*
X017622Y005455D02*
X017622Y005762D01*
X017832Y005521D02*
X017372Y005521D01*
X017449Y004677D02*
X017372Y004600D01*
X017372Y004447D01*
X017449Y004370D01*
X017756Y004370D01*
X017832Y004447D01*
X017832Y004600D01*
X017756Y004677D01*
X017997Y004600D02*
X018074Y004677D01*
X017997Y004600D02*
X017997Y004447D01*
X018074Y004370D01*
X018381Y004370D01*
X018457Y004447D01*
X018457Y004600D01*
X018381Y004677D01*
X018852Y004830D02*
X019082Y005061D01*
X019324Y005137D02*
X019400Y005137D01*
X019477Y005061D01*
X019477Y004984D01*
X019477Y005061D02*
X019554Y005137D01*
X019631Y005137D01*
X019707Y005061D01*
X019707Y004907D01*
X019631Y004830D01*
X019707Y005291D02*
X019707Y005598D01*
X019006Y004677D02*
X019082Y004600D01*
X018457Y005291D02*
X018457Y005598D01*
X018352Y001330D02*
X018275Y001254D01*
X018275Y001100D01*
X018352Y001023D01*
X018582Y001023D01*
X018582Y000870D02*
X018582Y001330D01*
X018352Y001330D01*
X018122Y001254D02*
X018045Y001330D01*
X017891Y001330D01*
X017815Y001254D01*
X017815Y001177D01*
X017891Y001100D01*
X017815Y001023D01*
X017815Y000947D01*
X017891Y000870D01*
X018045Y000870D01*
X018122Y000947D01*
X018275Y000870D02*
X018429Y001023D01*
X017968Y001100D02*
X017891Y001100D01*
X017661Y001100D02*
X017508Y001177D01*
X017431Y001177D01*
X017354Y001100D01*
X017354Y000947D01*
X017431Y000870D01*
X017585Y000870D01*
X017661Y000947D01*
X017661Y001100D02*
X017661Y001330D01*
X017354Y001330D01*
D11*
X010162Y040906D02*
X010125Y040906D01*
X010162Y040906D02*
X010162Y041544D01*
X010125Y041544D01*
X009808Y041544D02*
X009770Y041544D01*
X009434Y041544D02*
X009396Y041544D01*
X009079Y041544D02*
X009042Y041544D01*
X009042Y040906D01*
X009079Y040906D01*
X009396Y040906D02*
X009808Y040906D01*
X009770Y042531D02*
X009808Y042531D01*
X010125Y042531D02*
X010162Y042531D01*
X010162Y043169D01*
X010125Y043169D01*
X009808Y043169D02*
X009396Y043169D01*
X009079Y043169D02*
X009042Y043169D01*
X009042Y042531D01*
X009079Y042531D01*
X009396Y042531D02*
X009434Y042531D01*
X018033Y042556D02*
X018033Y042518D01*
X018033Y042182D02*
X018033Y042144D01*
X018033Y041827D02*
X018033Y041790D01*
X018671Y041790D01*
X018671Y041827D01*
X018671Y042144D02*
X018671Y042556D01*
X018671Y042873D02*
X018671Y042910D01*
X018033Y042910D01*
X018033Y042873D01*
D12*
X020352Y003790D02*
X020057Y003377D01*
X020628Y003377D01*
X020352Y003790D01*
D13*
X020352Y003810D03*
D14*
X020223Y002194D02*
X020223Y001744D01*
X020373Y001744D02*
X020073Y001744D01*
X020373Y002044D02*
X020223Y002194D01*
X020533Y002119D02*
X020533Y001819D01*
X020608Y001744D01*
X020833Y001744D01*
X020833Y002194D01*
X020608Y002194D01*
X020533Y002119D01*
D15*
X017287Y006652D02*
X017287Y006985D01*
X016986Y006985D01*
X016478Y006985D02*
X016167Y006985D01*
X016167Y006652D01*
X016654Y005660D02*
X016987Y005660D01*
X016987Y005349D01*
X016987Y004841D02*
X016987Y004540D01*
X016654Y004540D01*
M02*
