M48
INCH,TZ
T10C0.024
T11C0.024
T12C0.032
T13C0.040
T14C0.071
T15C0.118
T16C0.130
%
T10
X005477Y009600
X005977Y009600
X006477Y009600
X006977Y009600
X007352Y010350
X007352Y010850
X007352Y011350
X007602Y012725
X004477Y014100
X003477Y013475
X003477Y012725
X001477Y012475
X005852Y017350
X008477Y017475
X008477Y017975
X008977Y017975
X008977Y017475
X011477Y019100
X011477Y019600
X011977Y019600
X011977Y019100
X012477Y019100
X012477Y019600
X013227Y019600
X013227Y019100
X013727Y019100
X013727Y019600
X014227Y019600
X014227Y019100
X013977Y021600
X013977Y022100
X014477Y021600
X015977Y021600
X015977Y022100
X016477Y022100
X016477Y021600
X014477Y023850
X014227Y025600
X013477Y025600
X013477Y026600
X014227Y026600
X014977Y026600
X014977Y025600
X015727Y025600
X015727Y026600
X016727Y024850
X017477Y024850
X018227Y025350
X018227Y025850
X018227Y026350
X018227Y026850
X018227Y027350
X018727Y027350
X018727Y026850
X018727Y026350
X018727Y025850
X018727Y025350
X020977Y028850
X021727Y028850
X022977Y028850
X023477Y028850
X023977Y028850
X024477Y028850
X024977Y028850
X025977Y028850
X026477Y028850
X026727Y026600
X025977Y026600
X025227Y026600
X025227Y025600
X025977Y025600
X026727Y025600
X026477Y023600
X026977Y021600
X027477Y021600
X027977Y021600
X028727Y019350
X028852Y018100
X028852Y017600
X028352Y017600
X027852Y017600
X027852Y018100
X028352Y018100
X029352Y018100
X029352Y017600
X024977Y019600
X024477Y019600
X023977Y019600
X023977Y019100
X024477Y019100
X023477Y019100
X023477Y019600
X022977Y019600
X021852Y018225
X021352Y018225
X021352Y017725
X021852Y017725
X020852Y017725
X020852Y018225
X020352Y018225
X020352Y017725
X019227Y019350
X019977Y021600
X020477Y021600
X020977Y021600
X021477Y023600
X021227Y025600
X021977Y025600
X021977Y026600
X021227Y026600
X022727Y026600
X023477Y026600
X023477Y025600
X022727Y025600
X024477Y025600
X024477Y026600
X024477Y023100
X023477Y023100
X019977Y029475
X018477Y031225
X018477Y031725
X018477Y033600
X016352Y032600
X015602Y032600
X013602Y031725
X013602Y031225
X015227Y029725
X015227Y028850
X015727Y028850
X016227Y028850
X016977Y029475
X014227Y028850
X013727Y028850
X013227Y028850
X012477Y028850
X011977Y028850
X011477Y029725
X010977Y028850
X009977Y028850
X008852Y027850
X007852Y028475
X007852Y029975
X008102Y032475
X005852Y034850
X006852Y039100
X009227Y038975
X009477Y037475
X009977Y037475
X011977Y037225
X012227Y037975
X012727Y037975
X012352Y041600
X011977Y046725
X017227Y045350
X017977Y044225
X018852Y044225
X020227Y043225
X020602Y040975
X022102Y039100
X020602Y037475
X020227Y035350
X018977Y037600
X018477Y037600
X017977Y037600
X017977Y039225
X018477Y039225
X017977Y040350
X015977Y037600
X015977Y037100
X022102Y035725
X023602Y037475
X023977Y034850
X023352Y031725
X023352Y031225
X026852Y037225
X026102Y038850
X028352Y039100
X023977Y043600
X023602Y040975
X012477Y026600
X012477Y025600
X011727Y025600
X010977Y025600
X010227Y025600
X010227Y026600
X010977Y026600
X011727Y026600
X011477Y023850
X012727Y023850
X013227Y023850
X011727Y022100
X011727Y021600
X011227Y021600
X009727Y021600
X009727Y022100
X009227Y022100
X009227Y021600
X007977Y023350
X007977Y023850
X006227Y021350
X005477Y024350
X003477Y025225
X003727Y021225
X016477Y017975
X016477Y017475
X019977Y008225
X015852Y001600
X015852Y000975
T11
X021477Y037475
X022727Y037475
X022727Y040975
X022102Y041100
X021477Y040975
X018602Y046100
X018602Y046850
X016477Y046850
X016477Y046100
X016977Y041350
X016977Y040225
X015477Y041350
X014102Y038975
X013602Y038975
X013727Y037975
X013227Y037975
X011602Y044100
X012727Y044850
X011852Y045725
X012727Y046350
X010227Y045350
X010227Y044850
X009227Y044850
X007477Y043600
X026852Y040975
X028352Y041100
X029852Y040975
T12
X030227Y010850
X028227Y010850
X027227Y010850
X025227Y010850
X022727Y010850
X020727Y010850
X019727Y010850
X017727Y010850
X015227Y010850
X013227Y010850
X012227Y010850
X010227Y010850
T13
X002477Y026850
X002477Y027850
X002477Y028850
X002477Y029850
X002477Y030850
X001477Y030850
X001477Y029850
X001477Y028850
X001477Y027850
X001477Y026850
X001477Y032100
X001477Y033100
X001477Y034100
X001477Y035100
X001477Y036100
X001477Y037100
X001477Y038100
X001477Y039100
X001477Y040100
X001477Y041100
X001477Y042100
X001477Y043100
X002477Y043100
X002477Y042100
X002477Y041100
X002477Y040100
X002477Y039100
X002477Y038100
X002477Y037100
X002477Y036100
X002477Y035100
X002477Y034100
X002477Y033100
X002477Y032100
X004477Y045100
X004477Y046100
X005477Y046100
X005477Y045100
X006477Y045100
X006477Y046100
X007477Y046100
X007477Y045100
X008477Y045100
X008477Y046100
T14
X008506Y007850
X006852Y007850
X005198Y007811
X005198Y005685
X006852Y005685
X008506Y005685
X010698Y005685
X012352Y005685
X014006Y005685
X014006Y007850
X012352Y007850
X010698Y007811
X023073Y007811
X024727Y007850
X026381Y007850
X026381Y005685
X024727Y005685
X023073Y005685
T15
X023073Y002811
X026381Y002811
X014006Y002811
X010698Y002811
X008506Y002811
X005198Y002811
T16
X001977Y001850
X007227Y026100
X001977Y045600
X029727Y026100
X029977Y045725
X029977Y001850
M30

