G75*
G70*
%OFA0B0*%
%FSLAX24Y24*%
%IPPOS*%
%LPD*%
%AMOC8*
5,1,8,0,0,1.08239X$1,22.5*
%
%ADD10R,0.0250X0.0394*%
%ADD11R,0.0394X0.0250*%
%ADD12R,0.0512X0.0591*%
%ADD13R,0.0591X0.0236*%
%ADD14R,0.0256X0.0197*%
%ADD15R,0.0217X0.0197*%
%ADD16OC8,0.0600*%
%ADD17C,0.0040*%
%ADD18R,0.0591X0.0512*%
%ADD19R,0.0512X0.0630*%
%ADD20R,0.0236X0.0866*%
%ADD21R,0.0157X0.0571*%
%ADD22R,0.3031X0.1339*%
%ADD23R,0.1260X0.1339*%
%ADD24C,0.1063*%
%ADD25OC8,0.0520*%
%ADD26R,0.1378X0.0984*%
%ADD27R,0.0984X0.1378*%
%ADD28R,0.0630X0.0460*%
%ADD29R,0.0512X0.0512*%
%ADD30R,0.0787X0.0512*%
%ADD31R,0.0630X0.0512*%
%ADD32R,0.0500X0.1000*%
%ADD33R,0.1000X0.0500*%
%ADD34R,0.0400X0.0400*%
%ADD35C,0.0120*%
%ADD36R,0.0396X0.0396*%
%ADD37C,0.0660*%
%ADD38C,0.0160*%
%ADD39C,0.0240*%
%ADD40C,0.0320*%
%ADD41C,0.0500*%
%ADD42C,0.1000*%
%ADD43C,0.0400*%
D10*
X006818Y036444D03*
X007211Y036444D03*
X007605Y036444D03*
X007999Y036444D03*
X008392Y036444D03*
X008786Y036444D03*
X009180Y036444D03*
X009573Y036444D03*
X009967Y036444D03*
X010361Y036444D03*
X010755Y036444D03*
X011148Y036444D03*
X011542Y036444D03*
X011936Y036444D03*
X012329Y036444D03*
X012723Y036444D03*
X013117Y036444D03*
X013510Y036444D03*
X013904Y036444D03*
X014298Y036444D03*
X014298Y042350D03*
X013904Y042350D03*
X013510Y042350D03*
X013117Y042350D03*
X012723Y042350D03*
X012329Y042350D03*
X011936Y042350D03*
X011542Y042350D03*
X011148Y042350D03*
X010755Y042350D03*
X010361Y042350D03*
X009967Y042350D03*
X009573Y042350D03*
X009180Y042350D03*
X008786Y042350D03*
X008392Y042350D03*
X007999Y042350D03*
X007605Y042350D03*
X007211Y042350D03*
X006818Y042350D03*
D11*
X006227Y041956D03*
X006227Y041563D03*
X006227Y041169D03*
X006227Y040775D03*
X006227Y040381D03*
X006227Y039988D03*
X006227Y039594D03*
X006227Y039200D03*
X006227Y038807D03*
X006227Y038413D03*
X006227Y038019D03*
X006227Y037626D03*
X006227Y037232D03*
X006227Y036838D03*
X014888Y036838D03*
X014888Y037232D03*
X014888Y037626D03*
X014888Y038019D03*
X014888Y038413D03*
X014888Y038807D03*
X014888Y039200D03*
X014888Y039594D03*
X014888Y039988D03*
X014888Y040381D03*
X014888Y040775D03*
X014888Y041169D03*
X014888Y041563D03*
X014888Y041956D03*
D12*
X017103Y046100D03*
X017103Y046850D03*
X017851Y046850D03*
X017851Y046100D03*
X020228Y042475D03*
X020976Y042475D03*
X020976Y041725D03*
X020228Y041725D03*
X023228Y041725D03*
X023228Y042475D03*
X023976Y042475D03*
X023976Y041725D03*
X026478Y041725D03*
X027226Y041725D03*
X027226Y042475D03*
X026478Y042475D03*
X029478Y042475D03*
X030226Y042475D03*
X030226Y041725D03*
X029478Y041725D03*
X028226Y037225D03*
X027478Y037225D03*
X027478Y036475D03*
X028226Y036475D03*
X023976Y036725D03*
X023976Y035975D03*
X023228Y035975D03*
X023228Y036725D03*
X020976Y036725D03*
X020228Y036725D03*
X020228Y035975D03*
X020976Y035975D03*
X020351Y024100D03*
X020351Y023350D03*
X019603Y023350D03*
X019603Y024100D03*
X017351Y024100D03*
X017351Y023350D03*
X016603Y023350D03*
X016603Y024100D03*
X010101Y033850D03*
X010101Y034600D03*
X009353Y034600D03*
X009353Y033850D03*
X009353Y035350D03*
X010101Y035350D03*
X004601Y035100D03*
X003853Y035100D03*
X003853Y034100D03*
X004601Y034100D03*
X004601Y033100D03*
X003853Y033100D03*
X003853Y032100D03*
X004601Y032100D03*
X004601Y030725D03*
X003853Y030725D03*
X003853Y029975D03*
X003853Y029225D03*
X004601Y029225D03*
X004601Y029975D03*
X004601Y028475D03*
X003853Y028475D03*
X008603Y024100D03*
X008603Y023350D03*
X009351Y023350D03*
X009351Y024100D03*
X004601Y036100D03*
X003853Y036100D03*
X003853Y037100D03*
X004601Y037100D03*
X004601Y038100D03*
X003853Y038100D03*
X003853Y039100D03*
X004601Y039100D03*
X004601Y040100D03*
X003853Y040100D03*
X003853Y041100D03*
X004601Y041100D03*
X004601Y042100D03*
X003853Y042100D03*
X003853Y043100D03*
X004601Y043100D03*
X027603Y024100D03*
X027603Y023350D03*
X028351Y023350D03*
X028351Y024100D03*
D13*
X016227Y040456D03*
X016227Y041244D03*
D14*
X015843Y040850D03*
D15*
X016631Y040850D03*
D16*
X008477Y045100D03*
X008477Y046100D03*
X007477Y046100D03*
X007477Y045100D03*
X006477Y045100D03*
X006477Y046100D03*
X005477Y046100D03*
X005477Y045100D03*
X004477Y045100D03*
X004477Y046100D03*
X002477Y043100D03*
X002477Y042100D03*
X002477Y041100D03*
X002477Y040100D03*
X002477Y039100D03*
X001477Y039100D03*
X001477Y040100D03*
X001477Y041100D03*
X001477Y042100D03*
X001477Y043100D03*
X001477Y038100D03*
X001477Y037100D03*
X001477Y036100D03*
X001477Y035100D03*
X001477Y034100D03*
X001477Y033100D03*
X001477Y032100D03*
X002477Y032100D03*
X002477Y033100D03*
X002477Y034100D03*
X002477Y035100D03*
X002477Y036100D03*
X002477Y037100D03*
X002477Y038100D03*
X002477Y030850D03*
X002477Y029850D03*
X002477Y028850D03*
X002477Y027850D03*
X002477Y026850D03*
X001477Y026850D03*
X001477Y027850D03*
X001477Y028850D03*
X001477Y029850D03*
X001477Y030850D03*
D17*
X010933Y044758D02*
X011511Y044758D01*
X011511Y044638D01*
X010933Y044638D01*
X010933Y044758D01*
X010933Y044677D02*
X011511Y044677D01*
X011511Y044716D02*
X010933Y044716D01*
X010933Y044755D02*
X011511Y044755D01*
X011511Y045014D02*
X010933Y045014D01*
X011511Y045014D02*
X011511Y044894D01*
X010933Y044894D01*
X010933Y045014D01*
X010933Y044933D02*
X011511Y044933D01*
X011511Y044972D02*
X010933Y044972D01*
X010933Y045011D02*
X011511Y045011D01*
X011511Y045270D02*
X010933Y045270D01*
X011511Y045270D02*
X011511Y045150D01*
X010933Y045150D01*
X010933Y045270D01*
X010933Y045189D02*
X011511Y045189D01*
X011511Y045228D02*
X010933Y045228D01*
X010933Y045267D02*
X011511Y045267D01*
X011511Y045526D02*
X010933Y045526D01*
X011511Y045526D02*
X011511Y045406D01*
X010933Y045406D01*
X010933Y045526D01*
X010933Y045445D02*
X011511Y045445D01*
X011511Y045484D02*
X010933Y045484D01*
X010933Y045523D02*
X011511Y045523D01*
X011511Y045782D02*
X010933Y045782D01*
X011511Y045782D02*
X011511Y045662D01*
X010933Y045662D01*
X010933Y045782D01*
X010933Y045701D02*
X011511Y045701D01*
X011511Y045740D02*
X010933Y045740D01*
X010933Y045779D02*
X011511Y045779D01*
X011511Y046038D02*
X010933Y046038D01*
X011511Y046038D02*
X011511Y045918D01*
X010933Y045918D01*
X010933Y046038D01*
X010933Y045957D02*
X011511Y045957D01*
X011511Y045996D02*
X010933Y045996D01*
X010933Y046035D02*
X011511Y046035D01*
X011511Y046294D02*
X010933Y046294D01*
X011511Y046294D02*
X011511Y046174D01*
X010933Y046174D01*
X010933Y046294D01*
X010933Y046213D02*
X011511Y046213D01*
X011511Y046252D02*
X010933Y046252D01*
X010933Y046291D02*
X011511Y046291D01*
X011511Y046550D02*
X010933Y046550D01*
X011511Y046550D02*
X011511Y046430D01*
X010933Y046430D01*
X010933Y046550D01*
X010933Y046469D02*
X011511Y046469D01*
X011511Y046508D02*
X010933Y046508D01*
X010933Y046547D02*
X011511Y046547D01*
X011511Y046806D02*
X010933Y046806D01*
X011511Y046806D02*
X011511Y046686D01*
X010933Y046686D01*
X010933Y046806D01*
X010933Y046725D02*
X011511Y046725D01*
X011511Y046764D02*
X010933Y046764D01*
X010933Y046803D02*
X011511Y046803D01*
X011511Y047062D02*
X010933Y047062D01*
X011511Y047062D02*
X011511Y046942D01*
X010933Y046942D01*
X010933Y047062D01*
X010933Y046981D02*
X011511Y046981D01*
X011511Y047020D02*
X010933Y047020D01*
X010933Y047059D02*
X011511Y047059D01*
X013193Y047062D02*
X013771Y047062D01*
X013771Y046942D01*
X013193Y046942D01*
X013193Y047062D01*
X013193Y046981D02*
X013771Y046981D01*
X013771Y047020D02*
X013193Y047020D01*
X013193Y047059D02*
X013771Y047059D01*
X013771Y046806D02*
X013193Y046806D01*
X013771Y046806D02*
X013771Y046686D01*
X013193Y046686D01*
X013193Y046806D01*
X013193Y046725D02*
X013771Y046725D01*
X013771Y046764D02*
X013193Y046764D01*
X013193Y046803D02*
X013771Y046803D01*
X013771Y046550D02*
X013193Y046550D01*
X013771Y046550D02*
X013771Y046430D01*
X013193Y046430D01*
X013193Y046550D01*
X013193Y046469D02*
X013771Y046469D01*
X013771Y046508D02*
X013193Y046508D01*
X013193Y046547D02*
X013771Y046547D01*
X013771Y046294D02*
X013193Y046294D01*
X013771Y046294D02*
X013771Y046174D01*
X013193Y046174D01*
X013193Y046294D01*
X013193Y046213D02*
X013771Y046213D01*
X013771Y046252D02*
X013193Y046252D01*
X013193Y046291D02*
X013771Y046291D01*
X013771Y046038D02*
X013193Y046038D01*
X013771Y046038D02*
X013771Y045918D01*
X013193Y045918D01*
X013193Y046038D01*
X013193Y045957D02*
X013771Y045957D01*
X013771Y045996D02*
X013193Y045996D01*
X013193Y046035D02*
X013771Y046035D01*
X013771Y045782D02*
X013193Y045782D01*
X013771Y045782D02*
X013771Y045662D01*
X013193Y045662D01*
X013193Y045782D01*
X013193Y045701D02*
X013771Y045701D01*
X013771Y045740D02*
X013193Y045740D01*
X013193Y045779D02*
X013771Y045779D01*
X013771Y045526D02*
X013193Y045526D01*
X013771Y045526D02*
X013771Y045406D01*
X013193Y045406D01*
X013193Y045526D01*
X013193Y045445D02*
X013771Y045445D01*
X013771Y045484D02*
X013193Y045484D01*
X013193Y045523D02*
X013771Y045523D01*
X013771Y045270D02*
X013193Y045270D01*
X013771Y045270D02*
X013771Y045150D01*
X013193Y045150D01*
X013193Y045270D01*
X013193Y045189D02*
X013771Y045189D01*
X013771Y045228D02*
X013193Y045228D01*
X013193Y045267D02*
X013771Y045267D01*
X013771Y045014D02*
X013193Y045014D01*
X013771Y045014D02*
X013771Y044894D01*
X013193Y044894D01*
X013193Y045014D01*
X013193Y044933D02*
X013771Y044933D01*
X013771Y044972D02*
X013193Y044972D01*
X013193Y045011D02*
X013771Y045011D01*
X013771Y044758D02*
X013193Y044758D01*
X013771Y044758D02*
X013771Y044638D01*
X013193Y044638D01*
X013193Y044758D01*
X013193Y044677D02*
X013771Y044677D01*
X013771Y044716D02*
X013193Y044716D01*
X013193Y044755D02*
X013771Y044755D01*
D18*
X013227Y043974D03*
X013227Y043226D03*
X012477Y043226D03*
X012477Y043974D03*
X014727Y043974D03*
X014727Y043226D03*
X015477Y043226D03*
X015477Y043974D03*
X019852Y040349D03*
X019852Y039601D03*
X019852Y038849D03*
X019852Y038101D03*
X024352Y038101D03*
X024352Y038849D03*
X024352Y039601D03*
X024352Y040349D03*
X026102Y040349D03*
X026102Y039601D03*
X030602Y039601D03*
X030602Y040349D03*
X028727Y020974D03*
X028727Y020226D03*
X019227Y020226D03*
X019227Y020974D03*
X016977Y028101D03*
X016977Y028849D03*
X006102Y019224D03*
X006102Y018476D03*
X006102Y016224D03*
X006102Y015476D03*
X002852Y019601D03*
X002852Y020349D03*
D19*
X002726Y018600D03*
X001978Y018600D03*
X004478Y018475D03*
X005226Y018475D03*
X005226Y019350D03*
X004478Y019350D03*
X014978Y046100D03*
X014978Y046850D03*
X015726Y046850D03*
X015726Y046100D03*
D20*
X020602Y040249D03*
X021102Y040249D03*
X021602Y040249D03*
X022102Y040249D03*
X022602Y040249D03*
X023102Y040249D03*
X023602Y040249D03*
X023602Y038201D03*
X023102Y038201D03*
X022602Y038201D03*
X022102Y038201D03*
X021602Y038201D03*
X021102Y038201D03*
X020602Y038201D03*
X026852Y038201D03*
X027352Y038201D03*
X027852Y038201D03*
X028352Y038201D03*
X028852Y038201D03*
X029352Y038201D03*
X029852Y038201D03*
X029852Y040249D03*
X029352Y040249D03*
X028852Y040249D03*
X028352Y040249D03*
X027852Y040249D03*
X027352Y040249D03*
X026852Y040249D03*
X005352Y016999D03*
X004852Y016999D03*
X004352Y016999D03*
X003852Y016999D03*
X003852Y014951D03*
X004352Y014951D03*
X004852Y014951D03*
X005352Y014951D03*
D21*
X010352Y024624D03*
X010602Y024624D03*
X010852Y024624D03*
X011102Y024624D03*
X011352Y024624D03*
X011602Y024624D03*
X011852Y024624D03*
X012102Y024624D03*
X012352Y024624D03*
X012602Y024624D03*
X012852Y024624D03*
X013102Y024624D03*
X013352Y024624D03*
X013602Y024624D03*
X013852Y024624D03*
X014102Y024624D03*
X014352Y024624D03*
X014602Y024624D03*
X014852Y024624D03*
X015102Y024624D03*
X015352Y024624D03*
X015602Y024624D03*
X015602Y027576D03*
X015352Y027576D03*
X015102Y027576D03*
X014852Y027576D03*
X014602Y027576D03*
X014352Y027576D03*
X014102Y027576D03*
X013852Y027576D03*
X013602Y027576D03*
X013352Y027576D03*
X013102Y027576D03*
X012852Y027576D03*
X012602Y027576D03*
X012352Y027576D03*
X012102Y027576D03*
X011852Y027576D03*
X011602Y027576D03*
X011352Y027576D03*
X011102Y027576D03*
X010852Y027576D03*
X010602Y027576D03*
X010352Y027576D03*
X021352Y027576D03*
X021602Y027576D03*
X021852Y027576D03*
X022102Y027576D03*
X022352Y027576D03*
X022602Y027576D03*
X022852Y027576D03*
X023102Y027576D03*
X023352Y027576D03*
X023602Y027576D03*
X023852Y027576D03*
X024102Y027576D03*
X024352Y027576D03*
X024602Y027576D03*
X024852Y027576D03*
X025102Y027576D03*
X025352Y027576D03*
X025602Y027576D03*
X025852Y027576D03*
X026102Y027576D03*
X026352Y027576D03*
X026602Y027576D03*
X026602Y024624D03*
X026352Y024624D03*
X026102Y024624D03*
X025852Y024624D03*
X025602Y024624D03*
X025352Y024624D03*
X025102Y024624D03*
X024852Y024624D03*
X024602Y024624D03*
X024352Y024624D03*
X024102Y024624D03*
X023852Y024624D03*
X023602Y024624D03*
X023352Y024624D03*
X023102Y024624D03*
X022852Y024624D03*
X022602Y024624D03*
X022352Y024624D03*
X022102Y024624D03*
X021852Y024624D03*
X021602Y024624D03*
X021352Y024624D03*
D22*
X018396Y017293D03*
X022058Y013907D03*
X025896Y017293D03*
X029558Y013907D03*
X014558Y013907D03*
X010896Y017293D03*
D23*
X010010Y013907D03*
X015444Y017293D03*
X017510Y013907D03*
X022944Y017293D03*
X025010Y013907D03*
X030444Y017293D03*
D24*
X026381Y007850D03*
X024727Y007850D03*
X023073Y007811D03*
X023073Y005685D03*
X024727Y005685D03*
X026381Y005685D03*
X014006Y005685D03*
X012352Y005685D03*
X010698Y005685D03*
X010698Y007811D03*
X012352Y007850D03*
X014006Y007850D03*
X008506Y007850D03*
X006852Y007850D03*
X005198Y007811D03*
X005198Y005685D03*
X006852Y005685D03*
X008506Y005685D03*
D25*
X010227Y010850D03*
X012227Y010850D03*
X013227Y010850D03*
X015227Y010850D03*
X017727Y010850D03*
X019727Y010850D03*
X020727Y010850D03*
X022727Y010850D03*
X025227Y010850D03*
X027227Y010850D03*
X028227Y010850D03*
X030227Y010850D03*
D26*
X027507Y020600D03*
X024948Y020600D03*
X023007Y020600D03*
X020448Y020600D03*
X016507Y020600D03*
X013948Y020600D03*
X011757Y020600D03*
X009198Y020600D03*
X008632Y010475D03*
X006073Y010475D03*
X004507Y010475D03*
X001948Y010475D03*
X014698Y031475D03*
X017257Y031475D03*
X019698Y031475D03*
X022257Y031475D03*
X019257Y006725D03*
X016698Y006725D03*
X016698Y003225D03*
X019257Y003225D03*
D27*
X002227Y005070D03*
X002227Y007630D03*
D28*
X006352Y033175D03*
X006352Y033775D03*
X007227Y033775D03*
X007227Y033175D03*
X008102Y033175D03*
X008102Y033775D03*
D29*
X002805Y016058D03*
X001899Y016058D03*
D30*
X002352Y013892D03*
D31*
X001852Y016851D03*
X001852Y017599D03*
X002852Y017599D03*
X002852Y016851D03*
D32*
X006727Y030225D03*
X008102Y031225D03*
D33*
X012477Y031475D03*
X006227Y023725D03*
X006227Y022975D03*
X006227Y022225D03*
X002477Y024475D03*
X002477Y025225D03*
D34*
X013227Y037975D03*
X013727Y037975D03*
X013602Y038975D03*
X014102Y038975D03*
X015477Y041350D03*
X016977Y041350D03*
X016977Y040225D03*
X016477Y046100D03*
X016477Y046850D03*
X018602Y046850D03*
X018602Y046100D03*
X021477Y040975D03*
X022102Y041100D03*
X022727Y040975D03*
X022727Y037475D03*
X021477Y037475D03*
X026852Y040975D03*
X028352Y041100D03*
X029852Y040975D03*
X012727Y044850D03*
X011852Y045725D03*
X012727Y046350D03*
X011602Y044100D03*
X010227Y044850D03*
X010227Y045350D03*
X009227Y044850D03*
X007477Y043600D03*
D35*
X007602Y043475D01*
X009102Y043475D01*
X009573Y043004D01*
X009573Y042350D01*
X009377Y042027D02*
X009390Y042013D01*
X009756Y042013D01*
X009770Y042027D01*
X009784Y042013D01*
X010150Y042013D01*
X010164Y042027D01*
X010178Y042013D01*
X010544Y042013D01*
X010558Y042027D01*
X010572Y042013D01*
X010938Y042013D01*
X010951Y042027D01*
X010965Y042013D01*
X011331Y042013D01*
X011345Y042027D01*
X011359Y042013D01*
X011725Y042013D01*
X011739Y042027D01*
X011753Y042013D01*
X012119Y042013D01*
X012133Y042027D01*
X012146Y042013D01*
X012512Y042013D01*
X012526Y042027D01*
X012540Y042013D01*
X012906Y042013D01*
X012909Y042016D01*
X012930Y042004D01*
X012971Y041993D01*
X013114Y041993D01*
X013114Y042347D01*
X013119Y042347D01*
X013119Y041993D01*
X013263Y041993D01*
X013304Y042004D01*
X013325Y042016D01*
X013328Y042013D01*
X013693Y042013D01*
X013707Y042027D01*
X013721Y042013D01*
X014087Y042013D01*
X014101Y042027D01*
X014115Y042013D01*
X014477Y042013D01*
X014477Y039633D01*
X014435Y039675D01*
X013644Y039675D01*
X013519Y039550D01*
X013402Y039433D01*
X013402Y039315D01*
X013344Y039315D01*
X013262Y039233D01*
X013262Y038717D01*
X013344Y038635D01*
X014360Y038635D01*
X014385Y038660D01*
X014431Y038613D01*
X013707Y038613D01*
X013644Y038550D01*
X013527Y038433D01*
X013527Y038315D01*
X012969Y038315D01*
X012967Y038313D01*
X011971Y038313D01*
X011889Y038231D01*
X011889Y037719D01*
X011971Y037637D01*
X012032Y037637D01*
X012144Y037525D01*
X012269Y037400D01*
X012519Y037400D01*
X012917Y037002D01*
X012917Y036975D01*
X010955Y036975D01*
X010955Y037905D01*
X010837Y038022D01*
X010802Y038058D01*
X010685Y038175D01*
X009552Y038175D01*
X009552Y038706D01*
X009565Y038719D01*
X009565Y039231D01*
X009483Y039313D01*
X008971Y039313D01*
X008889Y039231D01*
X008889Y038719D01*
X008971Y038637D01*
X009152Y038637D01*
X009152Y038175D01*
X008894Y038175D01*
X008777Y038058D01*
X008652Y037933D01*
X008652Y037175D01*
X006935Y037175D01*
X006927Y037183D01*
X006927Y038762D01*
X007108Y038762D01*
X007190Y038844D01*
X007190Y039356D01*
X007108Y039438D01*
X006727Y039438D01*
X006727Y042013D01*
X007001Y042013D01*
X007004Y042016D01*
X007025Y042004D01*
X007065Y041993D01*
X007209Y041993D01*
X007209Y042347D01*
X007214Y042347D01*
X007214Y041993D01*
X007357Y041993D01*
X007398Y042004D01*
X007419Y042016D01*
X007422Y042013D01*
X007788Y042013D01*
X007802Y042027D01*
X007816Y042013D01*
X008182Y042013D01*
X008196Y042027D01*
X008209Y042013D01*
X008575Y042013D01*
X008589Y042027D01*
X008603Y042013D01*
X008969Y042013D01*
X008983Y042027D01*
X008997Y042013D01*
X009363Y042013D01*
X009377Y042027D01*
X009180Y042350D02*
X009180Y042897D01*
X008977Y043100D01*
X007102Y043100D01*
X006977Y043225D01*
X006977Y043725D01*
X006852Y043850D01*
X005727Y043850D01*
X004477Y045100D01*
X005477Y045100D02*
X005477Y044600D01*
X005977Y044100D01*
X008977Y044100D01*
X009967Y043110D01*
X009967Y042350D01*
X010361Y042350D02*
X010361Y043091D01*
X009102Y044350D01*
X006602Y044350D01*
X006477Y044475D01*
X006477Y045100D01*
X006727Y043100D02*
X006852Y042975D01*
X006852Y042384D01*
X006818Y042350D01*
X007209Y042286D02*
X007214Y042286D01*
X007209Y042168D02*
X007214Y042168D01*
X007209Y042049D02*
X007214Y042049D01*
X006727Y041931D02*
X014477Y041931D01*
X014477Y041812D02*
X006727Y041812D01*
X006727Y041694D02*
X014477Y041694D01*
X014477Y041575D02*
X006727Y041575D01*
X006727Y041457D02*
X014477Y041457D01*
X014477Y041338D02*
X006727Y041338D01*
X006727Y041220D02*
X014477Y041220D01*
X014477Y041101D02*
X006727Y041101D01*
X006727Y040983D02*
X014477Y040983D01*
X014477Y040864D02*
X006727Y040864D01*
X006727Y040746D02*
X014477Y040746D01*
X014477Y040627D02*
X006727Y040627D01*
X006727Y040509D02*
X014477Y040509D01*
X014477Y040390D02*
X006727Y040390D01*
X006727Y040272D02*
X014477Y040272D01*
X014477Y040153D02*
X006727Y040153D01*
X006727Y040035D02*
X014477Y040035D01*
X014477Y039916D02*
X006727Y039916D01*
X006727Y039798D02*
X014477Y039798D01*
X014477Y039679D02*
X006727Y039679D01*
X006727Y039561D02*
X013530Y039561D01*
X013411Y039442D02*
X006727Y039442D01*
X006852Y039100D02*
X006727Y038975D01*
X006727Y037100D01*
X006852Y036975D01*
X008727Y036975D01*
X008786Y036916D01*
X008786Y036444D01*
X009180Y036444D02*
X009180Y036897D01*
X008852Y037225D01*
X008852Y037850D01*
X008977Y037975D01*
X009352Y037975D01*
X010602Y037975D01*
X010755Y037822D01*
X010755Y036975D01*
X010477Y036975D01*
X010361Y036859D01*
X010361Y036444D01*
X010755Y036444D02*
X010755Y036975D01*
X010955Y037072D02*
X012847Y037072D01*
X012729Y037191D02*
X010955Y037191D01*
X010955Y037309D02*
X012610Y037309D01*
X012352Y037225D02*
X012723Y036854D01*
X012723Y036444D01*
X013117Y036444D02*
X013117Y037085D01*
X012602Y037600D01*
X012352Y037600D01*
X012227Y037725D01*
X012227Y037975D01*
X011889Y038020D02*
X010840Y038020D01*
X010837Y038022D02*
X010837Y038022D01*
X010802Y038058D02*
X010802Y038058D01*
X010721Y038139D02*
X011889Y038139D01*
X011915Y038257D02*
X009552Y038257D01*
X009552Y038376D02*
X013527Y038376D01*
X013588Y038494D02*
X009552Y038494D01*
X009552Y038613D02*
X013707Y038613D01*
X013790Y038413D02*
X013727Y038350D01*
X013727Y037975D01*
X013790Y038413D02*
X014888Y038413D01*
X014888Y038807D02*
X014520Y038807D01*
X014352Y038975D01*
X014102Y038975D01*
X014352Y039475D02*
X013727Y039475D01*
X013602Y039350D01*
X013602Y038975D01*
X013262Y038968D02*
X009565Y038968D01*
X009565Y038850D02*
X013262Y038850D01*
X013262Y038731D02*
X009565Y038731D01*
X009352Y038850D02*
X009227Y038975D01*
X009352Y038850D02*
X009352Y037975D01*
X009152Y038257D02*
X006927Y038257D01*
X006927Y038139D02*
X008858Y038139D01*
X008739Y038020D02*
X006927Y038020D01*
X006927Y037902D02*
X008652Y037902D01*
X008652Y037783D02*
X006927Y037783D01*
X006927Y037665D02*
X008652Y037665D01*
X008652Y037546D02*
X006927Y037546D01*
X006927Y037428D02*
X008652Y037428D01*
X008652Y037309D02*
X006927Y037309D01*
X006927Y037191D02*
X008652Y037191D01*
X009052Y037308D02*
X009052Y037767D01*
X009060Y037775D01*
X009683Y037775D01*
X009639Y037731D01*
X009639Y037219D01*
X009721Y037137D01*
X009767Y037137D01*
X009767Y036975D01*
X009380Y036975D01*
X009380Y036980D01*
X009052Y037308D01*
X009052Y037309D02*
X009639Y037309D01*
X009639Y037428D02*
X009052Y037428D01*
X009052Y037546D02*
X009639Y037546D01*
X009639Y037665D02*
X009052Y037665D01*
X009477Y037475D02*
X009477Y037100D01*
X009573Y037004D01*
X009573Y036444D01*
X009967Y036444D02*
X009967Y037465D01*
X009977Y037475D01*
X009667Y037191D02*
X009169Y037191D01*
X009288Y037072D02*
X009767Y037072D01*
X009152Y038376D02*
X006927Y038376D01*
X006927Y038494D02*
X009152Y038494D01*
X009152Y038613D02*
X006927Y038613D01*
X006927Y038731D02*
X008889Y038731D01*
X008889Y038850D02*
X007190Y038850D01*
X007190Y038968D02*
X008889Y038968D01*
X008889Y039087D02*
X007190Y039087D01*
X007190Y039205D02*
X008889Y039205D01*
X009565Y039205D02*
X013262Y039205D01*
X013262Y039087D02*
X009565Y039087D01*
X010955Y037902D02*
X011889Y037902D01*
X011889Y037783D02*
X010955Y037783D01*
X010955Y037665D02*
X011943Y037665D01*
X012123Y037546D02*
X010955Y037546D01*
X010955Y037428D02*
X012242Y037428D01*
X012352Y037225D02*
X011977Y037225D01*
X011852Y037225D01*
X011727Y037350D01*
X011727Y039975D01*
X012727Y037975D02*
X012727Y037850D01*
X013227Y037350D01*
X013477Y037350D01*
X013510Y037317D01*
X013510Y036444D01*
X013352Y037600D02*
X013227Y037725D01*
X013227Y037975D01*
X013352Y037600D02*
X014102Y037600D01*
X014227Y037725D01*
X014227Y037850D01*
X014396Y038019D01*
X014888Y038019D01*
X014888Y037232D02*
X015234Y037232D01*
X015602Y037600D01*
X015977Y037600D01*
X015977Y037100D02*
X015477Y037100D01*
X015215Y036838D01*
X014888Y036838D01*
X014888Y039200D02*
X014627Y039200D01*
X014352Y039475D01*
X014891Y039985D02*
X014891Y039990D01*
X015245Y039990D01*
X015245Y040134D01*
X015243Y040141D01*
X015431Y040141D01*
X015519Y040178D01*
X015752Y040410D01*
X015752Y040264D01*
X015857Y040158D01*
X016597Y040158D01*
X016702Y040264D01*
X016702Y040572D01*
X016813Y040572D01*
X016919Y040677D01*
X016919Y041023D01*
X016813Y041128D01*
X016682Y041128D01*
X016682Y041244D01*
X016682Y041383D01*
X016671Y041424D01*
X016650Y041460D01*
X016621Y041490D01*
X016584Y041511D01*
X016543Y041522D01*
X016227Y041522D01*
X015911Y041522D01*
X015870Y041511D01*
X015834Y041490D01*
X015804Y041460D01*
X015783Y041424D01*
X015772Y041383D01*
X015772Y041244D01*
X016227Y041244D01*
X016227Y041522D01*
X016227Y041244D01*
X016227Y041244D01*
X016227Y041244D01*
X016682Y041244D01*
X016227Y041244D01*
X016227Y041244D01*
X015772Y041244D01*
X015772Y041128D01*
X015641Y041128D01*
X015535Y041023D01*
X015535Y040873D01*
X015284Y040621D01*
X015243Y040621D01*
X015245Y040629D01*
X015245Y040773D01*
X014891Y040773D01*
X014891Y040778D01*
X015245Y040778D01*
X015245Y040921D01*
X015239Y040943D01*
X015265Y040969D01*
X015265Y041600D01*
X017227Y041600D01*
X017227Y039975D01*
X015245Y039975D01*
X015245Y039985D01*
X014891Y039985D01*
X015245Y040035D02*
X017227Y040035D01*
X017227Y040153D02*
X015459Y040153D01*
X015613Y040272D02*
X015752Y040272D01*
X015752Y040390D02*
X015732Y040390D01*
X015384Y040381D02*
X015843Y040841D01*
X015843Y040850D01*
X016151Y040864D02*
X016342Y040864D01*
X016342Y040966D02*
X016342Y040754D01*
X016151Y040754D01*
X016151Y040966D01*
X016227Y040966D01*
X016342Y040966D01*
X016227Y040966D02*
X016227Y041244D01*
X016227Y041244D01*
X016227Y040966D01*
X016227Y040983D02*
X016227Y040983D01*
X016227Y041101D02*
X016227Y041101D01*
X016227Y041220D02*
X016227Y041220D01*
X016227Y041338D02*
X016227Y041338D01*
X016227Y041457D02*
X016227Y041457D01*
X015802Y041457D02*
X015265Y041457D01*
X015265Y041575D02*
X017227Y041575D01*
X017227Y041457D02*
X016652Y041457D01*
X016682Y041338D02*
X017227Y041338D01*
X017227Y041220D02*
X016682Y041220D01*
X016841Y041101D02*
X017227Y041101D01*
X017227Y040983D02*
X016919Y040983D01*
X016919Y040864D02*
X017227Y040864D01*
X017227Y040746D02*
X016919Y040746D01*
X016869Y040627D02*
X017227Y040627D01*
X017227Y040509D02*
X016702Y040509D01*
X016702Y040390D02*
X017227Y040390D01*
X017227Y040272D02*
X016702Y040272D01*
X015772Y041220D02*
X015265Y041220D01*
X015265Y041338D02*
X015772Y041338D01*
X015613Y041101D02*
X015265Y041101D01*
X015265Y040983D02*
X015535Y040983D01*
X015527Y040864D02*
X015245Y040864D01*
X015245Y040746D02*
X015408Y040746D01*
X015290Y040627D02*
X015245Y040627D01*
X015384Y040381D02*
X014888Y040381D01*
X013402Y039324D02*
X007190Y039324D01*
X006227Y038413D02*
X005290Y038413D01*
X005102Y038225D01*
X005102Y037601D01*
X004601Y037100D01*
X005102Y037225D02*
X005102Y036601D01*
X004601Y036100D01*
X005102Y036225D02*
X005102Y035601D01*
X004601Y035100D01*
X005102Y035225D02*
X005102Y034601D01*
X004601Y034100D01*
X003853Y034100D02*
X002477Y034100D01*
X002477Y033100D02*
X003853Y033100D01*
X004601Y033100D02*
X005352Y033851D01*
X005352Y035100D01*
X005602Y035350D01*
X005602Y035975D01*
X005852Y036225D01*
X005852Y036725D01*
X005965Y036838D01*
X006227Y036838D01*
X006227Y037232D02*
X005859Y037232D01*
X005602Y036975D01*
X005602Y036350D01*
X005352Y036100D01*
X005352Y035475D01*
X005102Y035225D01*
X005727Y034725D02*
X005852Y034850D01*
X005727Y034725D02*
X005727Y032725D01*
X005102Y032100D01*
X004601Y032100D01*
X003853Y032100D02*
X002477Y032100D01*
X003227Y031475D02*
X002602Y030850D01*
X002477Y030850D01*
X002477Y029850D02*
X002977Y029850D01*
X003227Y030100D01*
X003227Y030475D01*
X003477Y030725D01*
X003853Y030725D01*
X003853Y029975D02*
X003477Y029975D01*
X003227Y029725D01*
X003227Y029100D01*
X002977Y028850D01*
X002477Y028850D01*
X002477Y027850D02*
X003102Y027850D01*
X003227Y027975D01*
X003227Y028725D01*
X003727Y029225D01*
X003853Y029225D01*
X003853Y028475D02*
X003727Y028475D01*
X003477Y028225D01*
X003477Y027600D01*
X002727Y026850D01*
X002477Y026850D01*
X002477Y025225D02*
X003477Y025225D01*
X002477Y024475D02*
X000977Y024475D01*
X002352Y021225D02*
X001977Y020850D01*
X001977Y018601D01*
X001978Y018600D01*
X002852Y020349D02*
X004351Y020349D01*
X004602Y020600D01*
X004602Y026600D01*
X005977Y027975D01*
X008727Y027975D01*
X008852Y027850D01*
X009102Y028725D02*
X008102Y028725D01*
X007852Y028475D01*
X007852Y029975D02*
X007477Y029975D01*
X007227Y030225D01*
X007227Y033175D01*
X007227Y033775D02*
X007211Y033791D01*
X007211Y036444D01*
X006818Y036444D02*
X006818Y034566D01*
X006352Y034100D01*
X006352Y033775D01*
X006352Y033175D02*
X006352Y032725D01*
X005102Y031475D01*
X006727Y031475D01*
X006727Y030225D01*
X008102Y031225D02*
X008102Y032475D01*
X008102Y033175D01*
X008102Y033775D02*
X008102Y034100D01*
X007605Y034597D01*
X007605Y036444D01*
X006227Y037626D02*
X005753Y037626D01*
X005602Y037475D01*
X005602Y037350D01*
X005352Y037100D01*
X005352Y036475D01*
X005102Y036225D01*
X005102Y037225D02*
X005352Y037475D01*
X005352Y037975D01*
X005396Y038019D01*
X006227Y038019D01*
X005602Y039101D02*
X004601Y038100D01*
X003853Y038100D02*
X002477Y038100D01*
X002477Y037100D02*
X003853Y037100D01*
X003853Y036100D02*
X002477Y036100D01*
X002477Y035100D02*
X003853Y035100D01*
X003227Y031475D02*
X005102Y031475D01*
X009102Y028725D02*
X010102Y029725D01*
X011477Y029725D01*
X011352Y029600D01*
X011352Y027576D01*
X011602Y027576D02*
X011602Y026475D01*
X011852Y026725D01*
X011852Y027576D01*
X012102Y027576D02*
X012102Y028725D01*
X011977Y028850D01*
X012352Y028725D02*
X012477Y028850D01*
X012352Y028725D02*
X012352Y027576D01*
X012602Y027576D02*
X012602Y026350D01*
X012852Y026100D01*
X012852Y025975D01*
X012977Y025850D01*
X012852Y025725D01*
X012852Y024624D01*
X012602Y024624D02*
X012602Y023975D01*
X012727Y023850D01*
X012349Y023800D02*
X011987Y023800D01*
X011987Y023682D02*
X012349Y023682D01*
X012349Y023577D02*
X012454Y023472D01*
X013500Y023472D01*
X013605Y023577D01*
X013605Y024123D01*
X013592Y024136D01*
X013592Y024178D01*
X013602Y024178D01*
X013602Y024255D01*
X013602Y024178D01*
X013702Y024178D01*
X013727Y024185D01*
X013752Y024178D01*
X013852Y024178D01*
X013852Y024600D01*
X013852Y024600D01*
X013852Y024178D01*
X013952Y024178D01*
X013977Y024185D01*
X014002Y024178D01*
X014084Y024178D01*
X014045Y024139D01*
X013967Y023951D01*
X013967Y022999D01*
X014045Y022811D01*
X014188Y022668D01*
X014717Y022139D01*
X014717Y021350D01*
X010987Y021350D01*
X010987Y021889D01*
X011766Y022668D01*
X011909Y022811D01*
X011987Y022999D01*
X011987Y023951D01*
X011909Y024139D01*
X011870Y024178D01*
X011952Y024178D01*
X011977Y024185D01*
X012002Y024178D01*
X012102Y024178D01*
X012102Y024600D01*
X012102Y024600D01*
X012102Y024178D01*
X012202Y024178D01*
X012227Y024185D01*
X012252Y024178D01*
X012352Y024178D01*
X012352Y024255D01*
X012352Y024255D01*
X012352Y024178D01*
X012362Y024178D01*
X012362Y024136D01*
X012349Y024123D01*
X012349Y023577D01*
X012363Y023563D02*
X011987Y023563D01*
X011987Y023445D02*
X013967Y023445D01*
X013967Y023563D02*
X013591Y023563D01*
X013605Y023682D02*
X013967Y023682D01*
X013967Y023800D02*
X013605Y023800D01*
X013605Y023919D02*
X013967Y023919D01*
X014002Y024037D02*
X013605Y024037D01*
X013602Y023975D02*
X013727Y023850D01*
X013852Y023975D01*
X014102Y024225D01*
X014102Y024624D01*
X013852Y024624D02*
X013852Y023975D01*
X013602Y023975D02*
X013602Y024624D01*
X013352Y024624D02*
X013352Y023975D01*
X013227Y023850D01*
X013592Y024156D02*
X014061Y024156D01*
X013852Y024274D02*
X013852Y024274D01*
X013852Y024393D02*
X013852Y024393D01*
X013852Y024511D02*
X013852Y024511D01*
X013602Y024255D02*
X013602Y024255D01*
X013102Y024624D02*
X013102Y025725D01*
X012977Y025850D01*
X012852Y026100D02*
X012852Y027576D01*
X013102Y027576D02*
X013102Y028725D01*
X013227Y028850D01*
X013727Y028850D02*
X013852Y028725D01*
X013852Y027576D01*
X014102Y027576D02*
X014102Y028725D01*
X014227Y028850D01*
X014602Y028475D02*
X014602Y030475D01*
X014852Y030725D01*
X015727Y030725D01*
X015852Y030850D01*
X015852Y032350D01*
X015602Y032600D01*
X016102Y032350D02*
X016352Y032600D01*
X016102Y032350D02*
X016102Y030600D01*
X015977Y030475D01*
X014977Y030475D01*
X014852Y030350D01*
X014852Y028350D01*
X014602Y028100D01*
X014602Y027576D01*
X014352Y027576D02*
X014352Y028225D01*
X014602Y028475D01*
X014852Y027975D02*
X015227Y028350D01*
X015227Y028850D01*
X015477Y029475D02*
X015227Y029725D01*
X015477Y029475D02*
X016977Y029475D01*
X016977Y028849D01*
X017452Y028896D02*
X020352Y028896D01*
X020352Y029014D02*
X017452Y029014D01*
X017452Y029133D02*
X019669Y029133D01*
X019704Y029097D02*
X020250Y029097D01*
X020352Y029199D01*
X020352Y025100D01*
X017855Y025100D01*
X017855Y025123D01*
X017750Y025228D01*
X017204Y025228D01*
X017102Y025126D01*
X017000Y025228D01*
X016602Y025228D01*
X016602Y027706D01*
X016620Y027696D01*
X016661Y027685D01*
X016917Y027685D01*
X016917Y028041D01*
X017037Y028041D01*
X017037Y027685D01*
X017293Y027685D01*
X017334Y027696D01*
X017371Y027717D01*
X017400Y027747D01*
X017421Y027783D01*
X017432Y027824D01*
X017432Y028041D01*
X017037Y028041D01*
X017037Y028161D01*
X017432Y028161D01*
X017432Y028378D01*
X017421Y028419D01*
X017400Y028455D01*
X017395Y028461D01*
X017452Y028519D01*
X017452Y029179D01*
X017355Y029277D01*
X017355Y029748D01*
X017250Y029853D01*
X016704Y029853D01*
X016602Y029751D01*
X016602Y030823D01*
X017197Y030823D01*
X017197Y031415D01*
X017317Y031415D01*
X017317Y031535D01*
X018106Y031535D01*
X018106Y031975D01*
X018849Y031975D01*
X018849Y031535D01*
X019638Y031535D01*
X019638Y031415D01*
X019758Y031415D01*
X019758Y030823D01*
X020352Y030823D01*
X020352Y029751D01*
X020250Y029853D01*
X019704Y029853D01*
X019599Y029748D01*
X019599Y029202D01*
X019704Y029097D01*
X019599Y029251D02*
X017381Y029251D01*
X017355Y029370D02*
X019599Y029370D01*
X019599Y029488D02*
X017355Y029488D01*
X017355Y029607D02*
X019599Y029607D01*
X019599Y029725D02*
X017355Y029725D01*
X017259Y029844D02*
X019695Y029844D01*
X019977Y029475D02*
X021852Y029475D01*
X022102Y029225D01*
X022102Y028225D01*
X022352Y027975D01*
X022352Y027576D01*
X022602Y027576D02*
X022602Y028100D01*
X022352Y028350D01*
X022352Y030100D01*
X022602Y030350D01*
X024602Y030350D01*
X024727Y030475D01*
X024727Y034850D01*
X024602Y034975D01*
X024102Y034975D01*
X023977Y034850D01*
X024852Y035225D02*
X020352Y035225D01*
X020227Y035350D01*
X020228Y035975D02*
X019852Y035975D01*
X019727Y036100D01*
X019727Y037225D01*
X019852Y037350D01*
X019852Y038101D01*
X020352Y037475D02*
X020602Y037475D01*
X020602Y038201D01*
X020307Y038712D02*
X020307Y038789D01*
X019912Y038789D01*
X019912Y038909D01*
X019792Y038909D01*
X019792Y039265D01*
X019792Y039541D01*
X019912Y039541D01*
X019912Y038909D01*
X020307Y038909D01*
X020307Y039126D01*
X020296Y039167D01*
X020275Y039203D01*
X020254Y039225D01*
X020275Y039247D01*
X020296Y039283D01*
X020307Y039324D01*
X020307Y039541D01*
X019912Y039541D01*
X019912Y039661D01*
X020307Y039661D01*
X020307Y039738D01*
X020409Y039636D01*
X020795Y039636D01*
X020852Y039693D01*
X020909Y039636D01*
X021295Y039636D01*
X021352Y039693D01*
X021409Y039636D01*
X021795Y039636D01*
X021852Y039693D01*
X021909Y039636D01*
X022295Y039636D01*
X022352Y039693D01*
X022409Y039636D01*
X022795Y039636D01*
X022852Y039693D01*
X022909Y039636D01*
X023295Y039636D01*
X023352Y039693D01*
X023409Y039636D01*
X023795Y039636D01*
X023897Y039738D01*
X023897Y039661D01*
X024292Y039661D01*
X024292Y039541D01*
X023897Y039541D01*
X023897Y039324D01*
X023908Y039283D01*
X023929Y039247D01*
X023951Y039225D01*
X023929Y039203D01*
X023908Y039167D01*
X023897Y039126D01*
X023897Y038909D01*
X024292Y038909D01*
X024292Y038789D01*
X023897Y038789D01*
X023897Y038712D01*
X023795Y038814D01*
X023409Y038814D01*
X023352Y038757D01*
X023295Y038814D01*
X022909Y038814D01*
X022852Y038757D01*
X022795Y038814D01*
X022409Y038814D01*
X022338Y038743D01*
X022318Y038762D01*
X022282Y038784D01*
X022241Y038794D01*
X022102Y038794D01*
X021963Y038794D01*
X021922Y038784D01*
X021886Y038762D01*
X021866Y038743D01*
X021795Y038814D01*
X021409Y038814D01*
X021352Y038757D01*
X021295Y038814D01*
X020909Y038814D01*
X020852Y038757D01*
X020795Y038814D01*
X020409Y038814D01*
X020307Y038712D01*
X020307Y038731D02*
X020326Y038731D01*
X020307Y038968D02*
X023897Y038968D01*
X023897Y039087D02*
X020307Y039087D01*
X020273Y039205D02*
X023931Y039205D01*
X023897Y039324D02*
X020307Y039324D01*
X020307Y039442D02*
X023897Y039442D01*
X023897Y039679D02*
X023838Y039679D01*
X023366Y039679D02*
X023338Y039679D01*
X023102Y040249D02*
X023102Y041225D01*
X023227Y041350D01*
X023227Y041724D01*
X023228Y041725D01*
X023228Y042475D01*
X023976Y042475D02*
X024352Y042475D01*
X024477Y042350D01*
X024477Y041225D01*
X024352Y041100D01*
X024352Y040349D01*
X024292Y039561D02*
X019912Y039561D01*
X019912Y039442D02*
X019792Y039442D01*
X019792Y039324D02*
X019912Y039324D01*
X019912Y039205D02*
X019792Y039205D01*
X019792Y039087D02*
X019912Y039087D01*
X019912Y038968D02*
X019792Y038968D01*
X019912Y038850D02*
X024292Y038850D01*
X024292Y038909D02*
X024292Y039185D01*
X024292Y039541D01*
X024412Y039541D01*
X024412Y038909D01*
X024292Y038909D01*
X024292Y038968D02*
X024412Y038968D01*
X024412Y039087D02*
X024292Y039087D01*
X024292Y039205D02*
X024412Y039205D01*
X024412Y039324D02*
X024292Y039324D01*
X024292Y039442D02*
X024412Y039442D01*
X023897Y038731D02*
X023878Y038731D01*
X023602Y038201D02*
X023602Y037475D01*
X023852Y037475D01*
X023976Y037351D01*
X023976Y036725D01*
X024477Y037225D02*
X024477Y036100D01*
X024352Y035975D01*
X023976Y035975D01*
X024852Y035225D02*
X024977Y035100D01*
X024977Y030225D01*
X024852Y030100D01*
X022727Y030100D01*
X022602Y029975D01*
X022602Y028475D01*
X022852Y028225D01*
X022852Y027576D01*
X023102Y027576D02*
X023102Y028725D01*
X022977Y028850D01*
X023352Y028725D02*
X023477Y028850D01*
X023352Y028725D02*
X023352Y027576D01*
X023602Y027576D02*
X023602Y026350D01*
X023852Y026100D01*
X023852Y025975D01*
X023977Y025850D01*
X024102Y025725D01*
X024102Y024624D01*
X023852Y024624D02*
X023852Y025725D01*
X023977Y025850D01*
X023852Y026100D02*
X023852Y027576D01*
X024102Y027576D02*
X024102Y028725D01*
X023977Y028850D01*
X024477Y028850D02*
X024477Y028350D01*
X024852Y027975D01*
X024852Y027576D01*
X025102Y027576D02*
X025102Y028725D01*
X024977Y028850D01*
X025352Y029350D02*
X025227Y029475D01*
X025227Y035475D01*
X024977Y035725D01*
X024977Y043100D01*
X024852Y043225D01*
X020227Y043225D01*
X020228Y042475D02*
X019852Y042475D01*
X019727Y042350D01*
X019727Y041225D01*
X019852Y041100D01*
X019852Y040349D01*
X020307Y039679D02*
X020366Y039679D01*
X020602Y040249D02*
X020602Y040975D01*
X020352Y040975D01*
X020227Y041100D01*
X020227Y041724D01*
X020228Y041725D01*
X020976Y041725D02*
X020976Y042475D01*
X020976Y041725D02*
X020977Y041724D01*
X020977Y041350D01*
X021102Y041225D01*
X021102Y040249D01*
X021602Y040249D02*
X021602Y040850D01*
X021477Y040975D01*
X022102Y041100D02*
X022102Y040249D01*
X022602Y040249D02*
X022602Y040850D01*
X022727Y040975D01*
X023602Y040975D02*
X023602Y040249D01*
X023602Y040975D02*
X023852Y040975D01*
X023977Y041100D01*
X023977Y041724D01*
X023976Y041725D01*
X024102Y043475D02*
X023977Y043600D01*
X024102Y043475D02*
X025102Y043475D01*
X025227Y043350D01*
X025227Y035850D01*
X025477Y035600D01*
X025477Y029600D01*
X025602Y029475D01*
X025602Y027576D01*
X025352Y027576D02*
X025352Y029350D01*
X025977Y028850D02*
X025977Y028600D01*
X026352Y028225D01*
X026352Y027576D01*
X026102Y027576D02*
X026102Y025975D01*
X025977Y025850D01*
X025852Y025975D01*
X025852Y027576D01*
X026602Y027576D02*
X026602Y028725D01*
X026477Y028850D01*
X026977Y027100D02*
X026977Y025100D01*
X017855Y025100D01*
X017855Y025123D01*
X017750Y025228D01*
X017204Y025228D01*
X017102Y025126D01*
X017000Y025228D01*
X016454Y025228D01*
X016349Y025123D01*
X016349Y025100D01*
X009477Y025100D01*
X009477Y027100D01*
X026977Y027100D01*
X026977Y027000D02*
X009477Y027000D01*
X009477Y026881D02*
X026977Y026881D01*
X026977Y026763D02*
X009477Y026763D01*
X009477Y026644D02*
X026977Y026644D01*
X026977Y026526D02*
X009477Y026526D01*
X009477Y026407D02*
X026977Y026407D01*
X026977Y026289D02*
X009477Y026289D01*
X009477Y026170D02*
X026977Y026170D01*
X026977Y026052D02*
X009477Y026052D01*
X009477Y025933D02*
X026977Y025933D01*
X026977Y025815D02*
X009477Y025815D01*
X009477Y025696D02*
X026977Y025696D01*
X026977Y025578D02*
X009477Y025578D01*
X009477Y025459D02*
X026977Y025459D01*
X026977Y025341D02*
X009477Y025341D01*
X009477Y025222D02*
X016448Y025222D01*
X016349Y025104D02*
X009477Y025104D01*
X008603Y024100D02*
X008227Y024100D01*
X007977Y023850D01*
X007977Y023350D02*
X008603Y023350D01*
X007477Y022600D02*
X007102Y022975D01*
X006227Y022975D01*
X006227Y023725D02*
X006227Y024100D01*
X005977Y024350D01*
X005477Y024350D01*
X006227Y022225D02*
X006227Y021350D01*
X007227Y021312D02*
X009967Y021312D01*
X009948Y021241D02*
X009908Y021252D01*
X009258Y021252D01*
X009258Y020660D01*
X009138Y020660D01*
X009138Y021252D01*
X008487Y021252D01*
X008447Y021241D01*
X008410Y021220D01*
X008380Y021190D01*
X008359Y021154D01*
X008349Y021113D01*
X008349Y020660D01*
X009138Y020660D01*
X009138Y020540D01*
X009258Y020540D01*
X009258Y019948D01*
X009908Y019948D01*
X009948Y019959D01*
X009967Y019970D01*
X009967Y018142D01*
X009306Y018142D01*
X009201Y018037D01*
X009201Y017225D01*
X007227Y017225D01*
X007227Y022850D01*
X010227Y022850D01*
X010227Y022571D01*
X010045Y022389D01*
X009967Y022201D01*
X009967Y021230D01*
X009948Y021241D01*
X009967Y021430D02*
X007227Y021430D01*
X007227Y021549D02*
X009967Y021549D01*
X009967Y021667D02*
X007227Y021667D01*
X007227Y021786D02*
X009967Y021786D01*
X009967Y021904D02*
X007227Y021904D01*
X007227Y022023D02*
X009967Y022023D01*
X009967Y022141D02*
X007227Y022141D01*
X007227Y022260D02*
X009991Y022260D01*
X010040Y022378D02*
X007227Y022378D01*
X007227Y022497D02*
X010152Y022497D01*
X010227Y022615D02*
X007227Y022615D01*
X007227Y022734D02*
X010227Y022734D01*
X011002Y021904D02*
X014717Y021904D01*
X014717Y021786D02*
X010987Y021786D01*
X010987Y021667D02*
X014717Y021667D01*
X014717Y021549D02*
X010987Y021549D01*
X010987Y021430D02*
X014717Y021430D01*
X014717Y022023D02*
X011121Y022023D01*
X011239Y022141D02*
X014715Y022141D01*
X014596Y022260D02*
X011358Y022260D01*
X011476Y022378D02*
X014478Y022378D01*
X014359Y022497D02*
X011595Y022497D01*
X011713Y022615D02*
X014241Y022615D01*
X014122Y022734D02*
X011832Y022734D01*
X011926Y022852D02*
X014028Y022852D01*
X013979Y022971D02*
X011975Y022971D01*
X011987Y023089D02*
X013967Y023089D01*
X013967Y023208D02*
X011987Y023208D01*
X011987Y023326D02*
X013967Y023326D01*
X014852Y024624D02*
X014852Y025725D01*
X014977Y025850D01*
X015102Y025975D01*
X015102Y027576D01*
X014852Y027576D02*
X014852Y027975D01*
X015352Y028100D02*
X015352Y027576D01*
X015602Y027576D02*
X015602Y027975D01*
X016227Y028600D01*
X016227Y028850D01*
X015727Y028850D02*
X015727Y028475D01*
X015352Y028100D01*
X016602Y027592D02*
X020352Y027592D01*
X020352Y027474D02*
X016602Y027474D01*
X016602Y027355D02*
X020352Y027355D01*
X020352Y027237D02*
X016602Y027237D01*
X016602Y027118D02*
X020352Y027118D01*
X020352Y027000D02*
X016602Y027000D01*
X016602Y026881D02*
X020352Y026881D01*
X020352Y026763D02*
X016602Y026763D01*
X016602Y026644D02*
X020352Y026644D01*
X020352Y026526D02*
X016602Y026526D01*
X016602Y026407D02*
X020352Y026407D01*
X020352Y026289D02*
X016602Y026289D01*
X016602Y026170D02*
X020352Y026170D01*
X020352Y026052D02*
X016602Y026052D01*
X016602Y025933D02*
X020352Y025933D01*
X020352Y025815D02*
X016602Y025815D01*
X016602Y025696D02*
X020352Y025696D01*
X020352Y025578D02*
X016602Y025578D01*
X016602Y025459D02*
X020352Y025459D01*
X020352Y025341D02*
X016602Y025341D01*
X017006Y025222D02*
X017198Y025222D01*
X017006Y025222D01*
X016727Y024850D02*
X017351Y024226D01*
X017351Y024100D01*
X017351Y023350D02*
X017727Y023350D01*
X017977Y023600D01*
X017977Y024600D01*
X017727Y024850D01*
X017477Y024850D01*
X017756Y025222D02*
X020352Y025222D01*
X020352Y025104D02*
X017855Y025104D01*
X026977Y025104D01*
X026977Y025222D02*
X017756Y025222D01*
X018977Y023850D02*
X018977Y022350D01*
X018905Y021920D02*
X021313Y021920D01*
X021471Y021985D01*
X022842Y023356D01*
X022907Y023514D01*
X022907Y023686D01*
X022862Y023794D01*
X022862Y024100D01*
X023342Y024100D01*
X023342Y024010D01*
X023233Y023965D01*
X023112Y023844D01*
X023047Y023686D01*
X023047Y023028D01*
X021362Y021344D01*
X021297Y021186D01*
X021297Y019514D01*
X021362Y019356D01*
X021483Y019235D01*
X022514Y018205D01*
X022514Y018142D01*
X022239Y018142D01*
X022134Y018037D01*
X022134Y017475D01*
X020092Y017475D01*
X020092Y018037D01*
X019987Y018142D01*
X018826Y018142D01*
X018826Y019821D01*
X018857Y019790D01*
X018927Y019790D01*
X018927Y019701D01*
X018849Y019623D01*
X018849Y019077D01*
X018954Y018972D01*
X019500Y018972D01*
X019605Y019077D01*
X019605Y019623D01*
X019527Y019701D01*
X019527Y019790D01*
X019597Y019790D01*
X019702Y019896D01*
X019702Y019957D01*
X019737Y019948D01*
X020388Y019948D01*
X020388Y020540D01*
X020508Y020540D01*
X020508Y020660D01*
X021296Y020660D01*
X021296Y021113D01*
X021286Y021154D01*
X021265Y021190D01*
X021235Y021220D01*
X021198Y021241D01*
X021158Y021252D01*
X020508Y021252D01*
X020508Y020660D01*
X020388Y020660D01*
X020388Y021252D01*
X019737Y021252D01*
X019697Y021241D01*
X019682Y021233D01*
X019682Y021251D01*
X019671Y021292D01*
X019650Y021328D01*
X019621Y021358D01*
X019584Y021379D01*
X019543Y021390D01*
X019287Y021390D01*
X019287Y021034D01*
X019167Y021034D01*
X019167Y021390D01*
X018911Y021390D01*
X018870Y021379D01*
X018834Y021358D01*
X018826Y021351D01*
X018826Y021841D01*
X018905Y021920D01*
X018889Y021904D02*
X021923Y021904D01*
X021804Y021786D02*
X018826Y021786D01*
X018826Y021667D02*
X021686Y021667D01*
X021567Y021549D02*
X018826Y021549D01*
X018826Y021430D02*
X021449Y021430D01*
X021349Y021312D02*
X019660Y021312D01*
X019287Y021312D02*
X019167Y021312D01*
X019167Y021193D02*
X019287Y021193D01*
X019287Y021075D02*
X019167Y021075D01*
X020388Y021075D02*
X020508Y021075D01*
X020508Y021193D02*
X020388Y021193D01*
X020388Y020956D02*
X020508Y020956D01*
X020508Y020838D02*
X020388Y020838D01*
X020388Y020719D02*
X020508Y020719D01*
X020508Y020601D02*
X021297Y020601D01*
X021296Y020540D02*
X020508Y020540D01*
X020508Y019948D01*
X021158Y019948D01*
X021198Y019959D01*
X021235Y019980D01*
X021265Y020010D01*
X021286Y020046D01*
X021296Y020087D01*
X021296Y020540D01*
X021296Y020482D02*
X021297Y020482D01*
X021296Y020364D02*
X021297Y020364D01*
X021296Y020245D02*
X021297Y020245D01*
X021296Y020127D02*
X021297Y020127D01*
X021297Y020008D02*
X021263Y020008D01*
X021297Y019890D02*
X019696Y019890D01*
X019527Y019771D02*
X021297Y019771D01*
X021297Y019653D02*
X019575Y019653D01*
X019605Y019534D02*
X021297Y019534D01*
X021338Y019416D02*
X019605Y019416D01*
X019605Y019297D02*
X021422Y019297D01*
X021540Y019179D02*
X019605Y019179D01*
X019588Y019060D02*
X021659Y019060D01*
X021777Y018942D02*
X018826Y018942D01*
X018826Y019060D02*
X018866Y019060D01*
X018849Y019179D02*
X018826Y019179D01*
X018826Y019297D02*
X018849Y019297D01*
X018849Y019416D02*
X018826Y019416D01*
X018826Y019534D02*
X018849Y019534D01*
X018826Y019653D02*
X018879Y019653D01*
X018927Y019771D02*
X018826Y019771D01*
X018826Y018823D02*
X021896Y018823D01*
X022014Y018705D02*
X018826Y018705D01*
X018826Y018586D02*
X022133Y018586D01*
X022251Y018468D02*
X018826Y018468D01*
X018826Y018349D02*
X022370Y018349D01*
X022488Y018231D02*
X018826Y018231D01*
X017966Y018231D02*
X015737Y018231D01*
X015737Y018142D02*
X015737Y019970D01*
X015756Y019959D01*
X015797Y019948D01*
X016447Y019948D01*
X016447Y020540D01*
X016567Y020540D01*
X016567Y020660D01*
X017356Y020660D01*
X017356Y021113D01*
X017345Y021154D01*
X017324Y021190D01*
X017294Y021220D01*
X017257Y021241D01*
X017217Y021252D01*
X016567Y021252D01*
X016567Y020660D01*
X016447Y020660D01*
X016447Y021252D01*
X015797Y021252D01*
X015756Y021241D01*
X015737Y021230D01*
X015737Y022451D01*
X015659Y022639D01*
X015477Y022821D01*
X015477Y022850D01*
X018227Y022850D01*
X018227Y022458D01*
X018032Y022263D01*
X017966Y022105D01*
X017966Y018142D01*
X016806Y018142D01*
X016701Y018037D01*
X016701Y017225D01*
X016253Y017225D01*
X016253Y018037D01*
X016148Y018142D01*
X015737Y018142D01*
X015737Y018349D02*
X017966Y018349D01*
X017966Y018468D02*
X015737Y018468D01*
X015737Y018586D02*
X017966Y018586D01*
X017966Y018705D02*
X015737Y018705D01*
X015737Y018823D02*
X017966Y018823D01*
X017966Y018942D02*
X015737Y018942D01*
X015737Y019060D02*
X017966Y019060D01*
X017966Y019179D02*
X015737Y019179D01*
X015737Y019297D02*
X017966Y019297D01*
X017966Y019416D02*
X015737Y019416D01*
X015737Y019534D02*
X017966Y019534D01*
X017966Y019653D02*
X015737Y019653D01*
X015737Y019771D02*
X017966Y019771D01*
X017966Y019890D02*
X015737Y019890D01*
X016447Y020008D02*
X016567Y020008D01*
X016567Y019948D02*
X017217Y019948D01*
X017257Y019959D01*
X017294Y019980D01*
X017324Y020010D01*
X017345Y020046D01*
X017356Y020087D01*
X017356Y020540D01*
X016567Y020540D01*
X016567Y019948D01*
X016567Y020127D02*
X016447Y020127D01*
X016447Y020245D02*
X016567Y020245D01*
X016567Y020364D02*
X016447Y020364D01*
X016447Y020482D02*
X016567Y020482D01*
X016567Y020601D02*
X017966Y020601D01*
X017966Y020719D02*
X017356Y020719D01*
X017356Y020838D02*
X017966Y020838D01*
X017966Y020956D02*
X017356Y020956D01*
X017356Y021075D02*
X017966Y021075D01*
X017966Y021193D02*
X017321Y021193D01*
X017966Y021312D02*
X015737Y021312D01*
X015737Y021430D02*
X017966Y021430D01*
X017966Y021549D02*
X015737Y021549D01*
X015737Y021667D02*
X017966Y021667D01*
X017966Y021786D02*
X015737Y021786D01*
X015737Y021904D02*
X017966Y021904D01*
X017966Y022023D02*
X015737Y022023D01*
X015737Y022141D02*
X017981Y022141D01*
X018030Y022260D02*
X015737Y022260D01*
X015737Y022378D02*
X018147Y022378D01*
X018227Y022497D02*
X015718Y022497D01*
X015669Y022615D02*
X018227Y022615D01*
X018227Y022734D02*
X015565Y022734D01*
X016447Y021193D02*
X016567Y021193D01*
X016567Y021075D02*
X016447Y021075D01*
X016447Y020956D02*
X016567Y020956D01*
X016567Y020838D02*
X016447Y020838D01*
X016447Y020719D02*
X016567Y020719D01*
X017356Y020482D02*
X017966Y020482D01*
X017966Y020364D02*
X017356Y020364D01*
X017356Y020245D02*
X017966Y020245D01*
X017966Y020127D02*
X017356Y020127D01*
X017322Y020008D02*
X017966Y020008D01*
X016776Y018112D02*
X016178Y018112D01*
X016253Y017994D02*
X016701Y017994D01*
X016701Y017875D02*
X016253Y017875D01*
X016253Y017757D02*
X016701Y017757D01*
X016701Y017638D02*
X016253Y017638D01*
X016253Y017520D02*
X016701Y017520D01*
X016701Y017401D02*
X016253Y017401D01*
X016253Y017283D02*
X016701Y017283D01*
X016977Y016444D02*
X019987Y016444D01*
X020092Y016549D01*
X020092Y017100D01*
X022134Y017100D01*
X022134Y016549D01*
X022239Y016444D01*
X023648Y016444D01*
X023753Y016549D01*
X023753Y018037D01*
X023648Y018142D01*
X023374Y018142D01*
X023374Y018469D01*
X023319Y018600D01*
X024619Y018600D01*
X024612Y018594D01*
X024547Y018436D01*
X024547Y018142D01*
X024306Y018142D01*
X024201Y018037D01*
X024201Y016549D01*
X024306Y016444D01*
X027487Y016444D01*
X027592Y016549D01*
X027592Y017100D01*
X029634Y017100D01*
X029634Y016549D01*
X029739Y016444D01*
X030977Y016444D01*
X030977Y014756D01*
X027967Y014756D01*
X027862Y014651D01*
X027862Y013163D01*
X027967Y013058D01*
X029797Y013058D01*
X029797Y011382D01*
X029651Y011235D01*
X029547Y010985D01*
X029547Y010715D01*
X029651Y010465D01*
X029765Y010350D01*
X025689Y010350D01*
X025804Y010465D01*
X025907Y010715D01*
X025907Y010985D01*
X025804Y011235D01*
X025690Y011348D01*
X025690Y013058D01*
X025715Y013058D01*
X025820Y013163D01*
X025820Y014651D01*
X025715Y014756D01*
X024306Y014756D01*
X024201Y014651D01*
X024201Y013163D01*
X024306Y013058D01*
X024330Y013058D01*
X024330Y010931D01*
X024434Y010681D01*
X024625Y010490D01*
X024765Y010350D01*
X023189Y010350D01*
X023362Y010524D01*
X023554Y010715D01*
X023657Y010965D01*
X023657Y013067D01*
X023753Y013163D01*
X023753Y014651D01*
X023648Y014756D01*
X020467Y014756D01*
X020362Y014651D01*
X020362Y013163D01*
X020467Y013058D01*
X022297Y013058D01*
X022297Y011382D01*
X022151Y011235D01*
X022047Y010985D01*
X022047Y010715D01*
X022151Y010465D01*
X022265Y010350D01*
X018189Y010350D01*
X018304Y010465D01*
X018407Y010715D01*
X018407Y010985D01*
X018304Y011235D01*
X018190Y011348D01*
X018190Y013058D01*
X018215Y013058D01*
X018320Y013163D01*
X018320Y014651D01*
X018215Y014756D01*
X016977Y014756D01*
X016977Y016444D01*
X016977Y016335D02*
X030977Y016335D01*
X030977Y016216D02*
X016977Y016216D01*
X016977Y016098D02*
X030977Y016098D01*
X030977Y015979D02*
X016977Y015979D01*
X016977Y015861D02*
X030977Y015861D01*
X030977Y015742D02*
X016977Y015742D01*
X016977Y015624D02*
X030977Y015624D01*
X030977Y015505D02*
X016977Y015505D01*
X016977Y015387D02*
X030977Y015387D01*
X030977Y015268D02*
X016977Y015268D01*
X016977Y015150D02*
X030977Y015150D01*
X030977Y015031D02*
X016977Y015031D01*
X016977Y014913D02*
X030977Y014913D01*
X030977Y014794D02*
X016977Y014794D01*
X015977Y014794D02*
X009477Y014794D01*
X009477Y014756D02*
X009477Y016444D01*
X012487Y016444D01*
X012592Y016549D01*
X012592Y018037D01*
X012487Y018142D01*
X011156Y018142D01*
X010987Y018311D01*
X010987Y018600D01*
X014717Y018600D01*
X014717Y018120D01*
X014634Y018037D01*
X014634Y016549D01*
X014739Y016444D01*
X015977Y016444D01*
X015977Y014756D01*
X012967Y014756D01*
X012862Y014651D01*
X012862Y013163D01*
X012967Y013058D01*
X014797Y013058D01*
X014797Y011382D01*
X014651Y011235D01*
X014547Y010985D01*
X014547Y010715D01*
X014651Y010465D01*
X014765Y010350D01*
X010689Y010350D01*
X010804Y010465D01*
X010907Y010715D01*
X010907Y010985D01*
X010804Y011235D01*
X010690Y011348D01*
X010690Y013058D01*
X010715Y013058D01*
X010820Y013163D01*
X010820Y014651D01*
X010715Y014756D01*
X009477Y014756D01*
X009477Y014913D02*
X015977Y014913D01*
X015977Y015031D02*
X009477Y015031D01*
X009477Y015150D02*
X015977Y015150D01*
X015977Y015268D02*
X009477Y015268D01*
X009477Y015387D02*
X015977Y015387D01*
X015977Y015505D02*
X009477Y015505D01*
X009477Y015624D02*
X015977Y015624D01*
X015977Y015742D02*
X009477Y015742D01*
X009477Y015861D02*
X015977Y015861D01*
X015977Y015979D02*
X009477Y015979D01*
X009477Y016098D02*
X015977Y016098D01*
X015977Y016216D02*
X009477Y016216D01*
X009477Y016335D02*
X015977Y016335D01*
X014730Y016453D02*
X012496Y016453D01*
X012592Y016572D02*
X014634Y016572D01*
X014634Y016690D02*
X012592Y016690D01*
X012592Y016809D02*
X014634Y016809D01*
X014634Y016927D02*
X012592Y016927D01*
X012592Y017046D02*
X014634Y017046D01*
X014634Y017164D02*
X012592Y017164D01*
X012592Y017283D02*
X014634Y017283D01*
X014634Y017401D02*
X012592Y017401D01*
X012592Y017520D02*
X014634Y017520D01*
X014634Y017638D02*
X012592Y017638D01*
X012592Y017757D02*
X014634Y017757D01*
X014634Y017875D02*
X012592Y017875D01*
X012592Y017994D02*
X014634Y017994D01*
X014709Y018112D02*
X012517Y018112D01*
X012467Y019948D02*
X011817Y019948D01*
X011817Y020540D01*
X011817Y020660D01*
X012606Y020660D01*
X012606Y020850D01*
X013099Y020850D01*
X013099Y020660D01*
X013888Y020660D01*
X013888Y020540D01*
X014008Y020540D01*
X014008Y019948D01*
X014658Y019948D01*
X014698Y019959D01*
X014717Y019970D01*
X014717Y018600D01*
X010987Y018600D01*
X010987Y019970D01*
X011006Y019959D01*
X011047Y019948D01*
X011697Y019948D01*
X011697Y020540D01*
X011817Y020540D01*
X012606Y020540D01*
X012606Y020087D01*
X012595Y020046D01*
X012574Y020010D01*
X012544Y019980D01*
X012507Y019959D01*
X012467Y019948D01*
X012572Y020008D02*
X013132Y020008D01*
X013130Y020010D02*
X013160Y019980D01*
X013197Y019959D01*
X013237Y019948D01*
X013888Y019948D01*
X013888Y020540D01*
X013099Y020540D01*
X013099Y020087D01*
X013109Y020046D01*
X013130Y020010D01*
X013099Y020127D02*
X012606Y020127D01*
X012606Y020245D02*
X013099Y020245D01*
X013099Y020364D02*
X012606Y020364D01*
X012606Y020482D02*
X013099Y020482D01*
X013099Y020719D02*
X012606Y020719D01*
X012606Y020838D02*
X013099Y020838D01*
X013888Y020601D02*
X011817Y020601D01*
X011817Y020482D02*
X011697Y020482D01*
X011697Y020364D02*
X011817Y020364D01*
X011817Y020245D02*
X011697Y020245D01*
X011697Y020127D02*
X011817Y020127D01*
X011817Y020008D02*
X011697Y020008D01*
X010987Y019890D02*
X014717Y019890D01*
X014717Y019771D02*
X010987Y019771D01*
X010987Y019653D02*
X014717Y019653D01*
X014717Y019534D02*
X010987Y019534D01*
X010987Y019416D02*
X014717Y019416D01*
X014717Y019297D02*
X010987Y019297D01*
X010987Y019179D02*
X014717Y019179D01*
X014717Y019060D02*
X010987Y019060D01*
X010987Y018942D02*
X014717Y018942D01*
X014717Y018823D02*
X010987Y018823D01*
X010987Y018705D02*
X014717Y018705D01*
X014717Y018586D02*
X010987Y018586D01*
X010987Y018468D02*
X014717Y018468D01*
X014717Y018349D02*
X010987Y018349D01*
X011068Y018231D02*
X014717Y018231D01*
X014008Y020008D02*
X013888Y020008D01*
X013888Y020127D02*
X014008Y020127D01*
X014008Y020245D02*
X013888Y020245D01*
X013888Y020364D02*
X014008Y020364D01*
X014008Y020482D02*
X013888Y020482D01*
X012227Y023850D02*
X012102Y023975D01*
X011852Y024225D01*
X011852Y024624D01*
X012102Y024624D02*
X012102Y023975D01*
X011987Y023919D02*
X012349Y023919D01*
X012352Y023975D02*
X012227Y023850D01*
X012352Y023975D02*
X012352Y024624D01*
X012102Y024511D02*
X012102Y024511D01*
X012102Y024393D02*
X012102Y024393D01*
X012102Y024274D02*
X012102Y024274D01*
X011893Y024156D02*
X012362Y024156D01*
X012349Y024037D02*
X011952Y024037D01*
X011102Y024624D02*
X011102Y025975D01*
X011602Y026475D01*
X011102Y025975D02*
X010852Y025725D01*
X010852Y024624D01*
X010852Y027576D02*
X010852Y028725D01*
X010977Y028850D01*
X010352Y028475D02*
X009977Y028850D01*
X010352Y028475D02*
X010352Y027576D01*
X011602Y030975D02*
X013849Y030975D01*
X013849Y031415D01*
X014638Y031415D01*
X014638Y031535D01*
X013849Y031535D01*
X013849Y031975D01*
X011602Y031975D01*
X011602Y030975D01*
X011602Y031029D02*
X013849Y031029D01*
X013849Y031147D02*
X013117Y031147D01*
X013126Y031163D02*
X013137Y031204D01*
X013137Y031415D01*
X012537Y031415D01*
X012537Y031065D01*
X012998Y031065D01*
X013039Y031076D01*
X013075Y031097D01*
X013105Y031127D01*
X013126Y031163D01*
X013137Y031266D02*
X013849Y031266D01*
X013849Y031384D02*
X013137Y031384D01*
X013137Y031535D02*
X013137Y031746D01*
X013126Y031787D01*
X013105Y031823D01*
X013075Y031853D01*
X013039Y031874D01*
X012998Y031885D01*
X012537Y031885D01*
X012537Y031535D01*
X012417Y031535D01*
X012417Y031415D01*
X011817Y031415D01*
X011817Y031204D01*
X011828Y031163D01*
X011849Y031127D01*
X011879Y031097D01*
X011915Y031076D01*
X011956Y031065D01*
X012417Y031065D01*
X012417Y031415D01*
X012537Y031415D01*
X012537Y031535D01*
X013137Y031535D01*
X013137Y031621D02*
X013849Y031621D01*
X013849Y031740D02*
X013137Y031740D01*
X013067Y031858D02*
X013849Y031858D01*
X014638Y031503D02*
X012537Y031503D01*
X012537Y031621D02*
X012417Y031621D01*
X012417Y031535D02*
X012417Y031885D01*
X011956Y031885D01*
X011915Y031874D01*
X011879Y031853D01*
X011849Y031823D01*
X011828Y031787D01*
X011817Y031746D01*
X011817Y031535D01*
X012417Y031535D01*
X012417Y031503D02*
X011602Y031503D01*
X011602Y031621D02*
X011817Y031621D01*
X011817Y031740D02*
X011602Y031740D01*
X011602Y031858D02*
X011888Y031858D01*
X011817Y031384D02*
X011602Y031384D01*
X011602Y031266D02*
X011817Y031266D01*
X011837Y031147D02*
X011602Y031147D01*
X012417Y031147D02*
X012537Y031147D01*
X012537Y031266D02*
X012417Y031266D01*
X012417Y031384D02*
X012537Y031384D01*
X012537Y031740D02*
X012417Y031740D01*
X012417Y031858D02*
X012537Y031858D01*
X014977Y025850D02*
X015102Y025725D01*
X015102Y024624D01*
X016917Y027711D02*
X017037Y027711D01*
X017037Y027829D02*
X016917Y027829D01*
X016917Y027948D02*
X017037Y027948D01*
X017037Y028066D02*
X020352Y028066D01*
X020352Y027948D02*
X017432Y027948D01*
X017432Y027829D02*
X020352Y027829D01*
X020352Y027711D02*
X017359Y027711D01*
X017432Y028185D02*
X020352Y028185D01*
X020352Y028303D02*
X017432Y028303D01*
X017420Y028422D02*
X020352Y028422D01*
X020352Y028540D02*
X017452Y028540D01*
X017452Y028659D02*
X020352Y028659D01*
X020352Y028777D02*
X017452Y028777D01*
X016695Y029844D02*
X016602Y029844D01*
X016602Y029962D02*
X020352Y029962D01*
X020352Y029844D02*
X020259Y029844D01*
X020352Y030081D02*
X016602Y030081D01*
X016602Y030199D02*
X020352Y030199D01*
X020352Y030318D02*
X016602Y030318D01*
X016602Y030436D02*
X020352Y030436D01*
X020352Y030555D02*
X016602Y030555D01*
X016602Y030673D02*
X020352Y030673D01*
X020352Y030792D02*
X016602Y030792D01*
X017197Y030910D02*
X017317Y030910D01*
X017317Y030823D02*
X017967Y030823D01*
X018007Y030834D01*
X018044Y030855D01*
X018074Y030885D01*
X018095Y030921D01*
X018106Y030962D01*
X018106Y031415D01*
X017317Y031415D01*
X017317Y030823D01*
X017317Y031029D02*
X017197Y031029D01*
X017197Y031147D02*
X017317Y031147D01*
X017317Y031266D02*
X017197Y031266D01*
X017197Y031384D02*
X017317Y031384D01*
X017317Y031503D02*
X019638Y031503D01*
X019638Y031415D02*
X018849Y031415D01*
X018849Y030962D01*
X018859Y030921D01*
X018880Y030885D01*
X018910Y030855D01*
X018947Y030834D01*
X018987Y030823D01*
X019638Y030823D01*
X019638Y031415D01*
X019638Y031384D02*
X019758Y031384D01*
X019758Y031266D02*
X019638Y031266D01*
X019638Y031147D02*
X019758Y031147D01*
X019758Y031029D02*
X019638Y031029D01*
X019638Y030910D02*
X019758Y030910D01*
X018866Y030910D02*
X018088Y030910D01*
X018106Y031029D02*
X018849Y031029D01*
X018849Y031147D02*
X018106Y031147D01*
X018106Y031266D02*
X018849Y031266D01*
X018849Y031384D02*
X018106Y031384D01*
X018106Y031621D02*
X018849Y031621D01*
X018849Y031740D02*
X018106Y031740D01*
X018106Y031858D02*
X018849Y031858D01*
X018477Y031725D02*
X018477Y033600D01*
X020228Y036725D02*
X020228Y037351D01*
X020352Y037475D01*
X020977Y037100D02*
X020977Y036726D01*
X020976Y036725D01*
X020976Y035975D01*
X020977Y037100D02*
X021102Y037225D01*
X021102Y038201D01*
X021602Y038201D02*
X021602Y037600D01*
X021477Y037475D01*
X022102Y038100D02*
X022102Y035725D01*
X023228Y035975D02*
X023228Y036725D01*
X023227Y036726D01*
X023227Y037100D01*
X023102Y037225D01*
X023102Y038201D01*
X022602Y038201D02*
X022602Y037600D01*
X022727Y037475D01*
X022102Y038475D02*
X022102Y038475D01*
X022102Y038794D01*
X022102Y038475D01*
X022102Y038494D02*
X022102Y038494D01*
X022102Y038613D02*
X022102Y038613D01*
X022102Y038731D02*
X022102Y038731D01*
X021866Y039679D02*
X021838Y039679D01*
X021366Y039679D02*
X021338Y039679D01*
X020866Y039679D02*
X020838Y039679D01*
X022338Y039679D02*
X022366Y039679D01*
X022838Y039679D02*
X022866Y039679D01*
X024352Y038101D02*
X024352Y037350D01*
X024477Y037225D01*
X025477Y038350D02*
X025477Y045350D01*
X025352Y045475D01*
X017352Y045475D01*
X017227Y045350D01*
X017103Y046100D02*
X016477Y046100D01*
X015726Y046100D01*
X015726Y046850D02*
X016477Y046850D01*
X017103Y046850D01*
X017851Y046850D02*
X018602Y046850D01*
X027727Y046850D01*
X027977Y046600D01*
X027977Y044850D01*
X028602Y044225D01*
X028602Y043600D01*
X028852Y043350D01*
X028852Y040249D01*
X028602Y039693D02*
X028659Y039636D01*
X029045Y039636D01*
X029102Y039693D01*
X029159Y039636D01*
X029545Y039636D01*
X029602Y039693D01*
X029659Y039636D01*
X030045Y039636D01*
X030147Y039738D01*
X030147Y039661D01*
X030542Y039661D01*
X030542Y039541D01*
X030147Y039541D01*
X030147Y039324D01*
X030158Y039283D01*
X030179Y039247D01*
X030209Y039217D01*
X030245Y039196D01*
X030286Y039185D01*
X030542Y039185D01*
X030542Y039541D01*
X030662Y039541D01*
X030662Y039185D01*
X030852Y039185D01*
X030852Y038475D01*
X030150Y038475D01*
X030150Y038709D01*
X030045Y038814D01*
X029659Y038814D01*
X029602Y038757D01*
X029545Y038814D01*
X029159Y038814D01*
X029102Y038757D01*
X029045Y038814D01*
X028659Y038814D01*
X028588Y038743D01*
X028568Y038762D01*
X028532Y038784D01*
X028491Y038794D01*
X028352Y038794D01*
X028213Y038794D01*
X028172Y038784D01*
X028136Y038762D01*
X028116Y038743D01*
X028045Y038814D01*
X027659Y038814D01*
X027602Y038757D01*
X027545Y038814D01*
X027159Y038814D01*
X027102Y038757D01*
X027045Y038814D01*
X026659Y038814D01*
X026554Y038709D01*
X026554Y038475D01*
X025852Y038475D01*
X025852Y039185D01*
X026042Y039185D01*
X026042Y039541D01*
X026162Y039541D01*
X026162Y039185D01*
X026418Y039185D01*
X026459Y039196D01*
X026496Y039217D01*
X026525Y039247D01*
X026546Y039283D01*
X026557Y039324D01*
X026557Y039541D01*
X026162Y039541D01*
X026162Y039661D01*
X026557Y039661D01*
X026557Y039738D01*
X026659Y039636D01*
X027045Y039636D01*
X027102Y039693D01*
X027159Y039636D01*
X027545Y039636D01*
X027602Y039693D01*
X027659Y039636D01*
X028045Y039636D01*
X028102Y039693D01*
X028159Y039636D01*
X028545Y039636D01*
X028602Y039693D01*
X028588Y039679D02*
X028616Y039679D01*
X028116Y039679D02*
X028088Y039679D01*
X027852Y040249D02*
X027852Y043350D01*
X028102Y043600D01*
X028102Y044350D01*
X027727Y044725D01*
X027727Y046475D01*
X027602Y046600D01*
X019227Y046600D01*
X018727Y046100D01*
X018602Y046100D01*
X017851Y046100D01*
X017477Y044725D02*
X017352Y044600D01*
X017352Y043225D01*
X017477Y043100D01*
X018852Y043100D01*
X018977Y042975D01*
X018977Y037600D01*
X015352Y042725D02*
X013852Y042725D01*
X013727Y042850D01*
X013602Y042725D01*
X013227Y042725D01*
X013117Y042615D01*
X013117Y042350D01*
X013114Y042286D02*
X013119Y042286D01*
X013114Y042168D02*
X013119Y042168D01*
X013114Y042049D02*
X013119Y042049D01*
X013727Y042850D02*
X013727Y043975D01*
X013228Y043975D01*
X013227Y043974D01*
X013167Y043945D02*
X012537Y043945D01*
X012537Y043914D02*
X012537Y044034D01*
X012417Y044034D01*
X012417Y043914D01*
X012022Y043914D01*
X012022Y043697D01*
X012033Y043656D01*
X012054Y043620D01*
X012059Y043614D01*
X012045Y043600D01*
X011691Y043600D01*
X011602Y043689D01*
X011602Y043720D01*
X011877Y043720D01*
X011982Y043825D01*
X011982Y044375D01*
X011877Y044480D01*
X011636Y044480D01*
X011711Y044555D01*
X011711Y044842D01*
X011689Y044864D01*
X011691Y044870D01*
X011691Y044954D01*
X011602Y044954D01*
X011602Y044954D01*
X011691Y044954D01*
X011691Y045039D01*
X011689Y045045D01*
X011711Y045067D01*
X011711Y045345D01*
X012127Y045345D01*
X012232Y045450D01*
X012232Y046000D01*
X012127Y046105D01*
X011711Y046105D01*
X011711Y046633D01*
X011689Y046655D01*
X011691Y046661D01*
X011691Y046746D01*
X011691Y046830D01*
X011679Y046874D01*
X011691Y046917D01*
X011691Y047002D01*
X011691Y047010D01*
X013013Y047010D01*
X013013Y047002D01*
X013102Y047002D01*
X013102Y047002D01*
X013013Y047002D01*
X013013Y046917D01*
X013025Y046874D01*
X013013Y046830D01*
X013013Y046746D01*
X013102Y046746D01*
X013102Y046746D01*
X013013Y046746D01*
X013013Y046730D01*
X013002Y046730D01*
X013002Y046730D01*
X012452Y046730D01*
X012347Y046625D01*
X012347Y046075D01*
X012452Y045970D01*
X012993Y045970D01*
X012993Y045323D01*
X013015Y045301D01*
X013013Y045294D01*
X013013Y045219D01*
X013002Y045230D01*
X012452Y045230D01*
X012347Y045125D01*
X012347Y044575D01*
X012452Y044470D01*
X012803Y044470D01*
X012831Y044458D01*
X013089Y044458D01*
X013110Y044438D01*
X013852Y044438D01*
X013852Y043600D01*
X013659Y043600D01*
X013645Y043614D01*
X013650Y043620D01*
X013671Y043656D01*
X013682Y043697D01*
X013682Y043914D01*
X013287Y043914D01*
X013287Y044034D01*
X013167Y044034D01*
X013167Y043914D01*
X012772Y043914D01*
X012537Y043914D01*
X012537Y044034D02*
X013167Y044034D01*
X013167Y044390D01*
X012911Y044390D01*
X012870Y044379D01*
X012852Y044369D01*
X012834Y044379D01*
X012793Y044390D01*
X012537Y044390D01*
X012537Y044034D01*
X012537Y044064D02*
X012417Y044064D01*
X012417Y044034D02*
X012417Y044390D01*
X012161Y044390D01*
X012120Y044379D01*
X012084Y044358D01*
X012054Y044328D01*
X012033Y044292D01*
X012022Y044251D01*
X012022Y044034D01*
X012417Y044034D01*
X012417Y043945D02*
X011982Y043945D01*
X011982Y043827D02*
X012022Y043827D01*
X012022Y043708D02*
X011602Y043708D01*
X011602Y044100D02*
X011352Y044100D01*
X011222Y044230D01*
X011222Y044698D01*
X011222Y044954D02*
X012236Y044954D01*
X012492Y045210D01*
X012477Y045225D01*
X012492Y045210D02*
X013482Y045210D01*
X013482Y044954D02*
X013998Y044954D01*
X014102Y044850D01*
X014102Y043350D01*
X014227Y043225D01*
X014726Y043225D01*
X014727Y043226D01*
X014727Y043974D02*
X014727Y044100D01*
X014352Y044475D01*
X014352Y045100D01*
X013986Y045466D01*
X013482Y045466D01*
X013482Y045722D02*
X014105Y045722D01*
X014602Y045225D01*
X014602Y044600D01*
X014727Y044475D01*
X015227Y044475D01*
X015477Y044225D01*
X015477Y043974D01*
X015477Y043226D02*
X015477Y042850D01*
X015352Y042725D01*
X013852Y043708D02*
X013682Y043708D01*
X013682Y043827D02*
X013852Y043827D01*
X013852Y043945D02*
X013287Y043945D01*
X013287Y044034D02*
X013682Y044034D01*
X013682Y044251D01*
X013671Y044292D01*
X013650Y044328D01*
X013621Y044358D01*
X013584Y044379D01*
X013543Y044390D01*
X013287Y044390D01*
X013287Y044034D01*
X013287Y044064D02*
X013167Y044064D01*
X013167Y044182D02*
X013287Y044182D01*
X013287Y044301D02*
X013167Y044301D01*
X012879Y044698D02*
X012727Y044850D01*
X012879Y044698D02*
X013482Y044698D01*
X013666Y044301D02*
X013852Y044301D01*
X013852Y044419D02*
X011937Y044419D01*
X011982Y044301D02*
X012038Y044301D01*
X012022Y044182D02*
X011982Y044182D01*
X011982Y044064D02*
X012022Y044064D01*
X012417Y044182D02*
X012537Y044182D01*
X012537Y044301D02*
X012417Y044301D01*
X012385Y044538D02*
X011694Y044538D01*
X011711Y044656D02*
X012347Y044656D01*
X012347Y044775D02*
X011711Y044775D01*
X011691Y044893D02*
X012347Y044893D01*
X012347Y045012D02*
X011691Y045012D01*
X011711Y045130D02*
X012353Y045130D01*
X012149Y045367D02*
X012993Y045367D01*
X012993Y045486D02*
X012232Y045486D01*
X012232Y045604D02*
X012993Y045604D01*
X012993Y045723D02*
X012232Y045723D01*
X012232Y045841D02*
X012993Y045841D01*
X012993Y045960D02*
X012232Y045960D01*
X012153Y046078D02*
X012347Y046078D01*
X012347Y046197D02*
X011711Y046197D01*
X011711Y046315D02*
X012347Y046315D01*
X012347Y046434D02*
X011711Y046434D01*
X011711Y046552D02*
X012347Y046552D01*
X012393Y046671D02*
X011691Y046671D01*
X011691Y046746D02*
X011602Y046746D01*
X011691Y046746D01*
X011691Y046789D02*
X013013Y046789D01*
X013016Y046908D02*
X011689Y046908D01*
X011691Y047002D02*
X011602Y047002D01*
X011691Y047002D01*
X011602Y047002D02*
X011602Y047002D01*
X011602Y046746D02*
X011602Y046746D01*
X011222Y046746D02*
X011998Y046746D01*
X012165Y046913D01*
X012331Y046746D01*
X013482Y046746D01*
X013482Y047002D02*
X012254Y047002D01*
X012227Y046975D01*
X012165Y046913D01*
X012227Y046975D02*
X012200Y047002D01*
X011222Y047002D01*
X011222Y046490D02*
X009617Y046490D01*
X009352Y046225D01*
X009352Y044975D01*
X009227Y044850D01*
X009602Y044225D02*
X009602Y046100D01*
X009727Y046225D01*
X011213Y046225D01*
X011222Y046234D01*
X011222Y045978D02*
X011219Y045975D01*
X009977Y045975D01*
X009852Y045850D01*
X009852Y044350D01*
X011542Y042660D01*
X011542Y042350D01*
X011936Y042350D02*
X011936Y042641D01*
X010102Y044475D01*
X010102Y044725D01*
X010227Y044850D01*
X010602Y045100D02*
X010602Y044350D01*
X011727Y043225D01*
X012476Y043225D01*
X012477Y043226D01*
X013227Y043226D01*
X013682Y044064D02*
X013852Y044064D01*
X013852Y044182D02*
X013682Y044182D01*
X013013Y045249D02*
X011711Y045249D01*
X011222Y045210D02*
X010712Y045210D01*
X010602Y045100D01*
X010361Y045466D02*
X011222Y045466D01*
X011222Y045722D02*
X011849Y045722D01*
X011852Y045725D01*
X012727Y046350D02*
X012867Y046490D01*
X013482Y046490D01*
X013482Y046234D02*
X014236Y046234D01*
X014352Y046350D01*
X014352Y046725D01*
X014477Y046850D01*
X014978Y046850D01*
X014978Y046100D02*
X014477Y046100D01*
X014355Y045978D01*
X013482Y045978D01*
X011148Y042679D02*
X011148Y042350D01*
X011148Y042679D02*
X009602Y044225D01*
X010227Y045350D02*
X010361Y045466D01*
X006727Y043100D02*
X004601Y043100D01*
X003853Y043100D02*
X002477Y043100D01*
X002477Y042100D02*
X003853Y042100D01*
X004601Y042100D02*
X005727Y042100D01*
X005871Y041956D01*
X006227Y041956D01*
X006227Y041563D02*
X005064Y041563D01*
X004601Y041100D01*
X005102Y040975D02*
X005102Y040225D01*
X004977Y040100D01*
X004601Y040100D01*
X003853Y040100D02*
X002477Y040100D01*
X002477Y039100D02*
X003853Y039100D01*
X004601Y039100D02*
X005352Y039851D01*
X005352Y040600D01*
X005527Y040775D01*
X006227Y040775D01*
X006227Y040381D02*
X005759Y040381D01*
X005602Y040225D01*
X005602Y039101D01*
X005102Y040975D02*
X005296Y041169D01*
X006227Y041169D01*
X003853Y041100D02*
X002477Y041100D01*
X002352Y021225D02*
X003727Y021225D01*
X006102Y016225D02*
X006727Y016225D01*
X006852Y016100D01*
X006852Y014975D01*
X006727Y014850D01*
X006102Y014850D01*
X005852Y014600D01*
X005852Y013100D01*
X005477Y012725D01*
X003477Y012725D01*
X003477Y013475D02*
X004602Y013475D01*
X004852Y013725D01*
X004852Y014951D01*
X005352Y014951D02*
X005352Y013225D01*
X005227Y013100D01*
X002102Y013100D01*
X001477Y012475D01*
X002458Y011484D02*
X002458Y011147D01*
X002711Y011147D01*
X002816Y011042D01*
X002816Y009908D01*
X002711Y009803D01*
X002458Y009803D01*
X002458Y009716D01*
X002688Y009485D01*
X005078Y009485D01*
X005266Y009407D01*
X005323Y009350D01*
X007996Y009350D01*
X007996Y009803D01*
X007868Y009803D01*
X007763Y009908D01*
X007763Y011042D01*
X007868Y011147D01*
X007996Y011147D01*
X007996Y011600D01*
X007478Y011600D01*
X007453Y011590D01*
X002563Y011590D01*
X002458Y011484D01*
X002458Y011476D02*
X007996Y011476D01*
X007996Y011358D02*
X002458Y011358D01*
X002458Y011239D02*
X007996Y011239D01*
X007841Y011121D02*
X006807Y011121D01*
X006823Y011116D02*
X006783Y011127D01*
X006133Y011127D01*
X006133Y010535D01*
X006921Y010535D01*
X006921Y010988D01*
X006911Y011029D01*
X006890Y011065D01*
X006860Y011095D01*
X006823Y011116D01*
X006918Y011002D02*
X007763Y011002D01*
X007763Y010884D02*
X006921Y010884D01*
X006921Y010765D02*
X007763Y010765D01*
X007763Y010647D02*
X006921Y010647D01*
X006921Y010415D02*
X006133Y010415D01*
X006133Y010535D01*
X006013Y010535D01*
X006013Y011127D01*
X005362Y011127D01*
X005322Y011116D01*
X005290Y011098D01*
X005257Y011116D01*
X005217Y011127D01*
X004567Y011127D01*
X004567Y010535D01*
X006013Y010535D01*
X006013Y010415D01*
X006133Y010415D01*
X006133Y009823D01*
X006783Y009823D01*
X006823Y009834D01*
X006860Y009855D01*
X006890Y009885D01*
X006911Y009921D01*
X006921Y009962D01*
X006921Y010415D01*
X006921Y010410D02*
X007763Y010410D01*
X007763Y010528D02*
X006133Y010528D01*
X006133Y010410D02*
X006013Y010410D01*
X006013Y010415D02*
X006013Y009823D01*
X005362Y009823D01*
X005322Y009834D01*
X005290Y009852D01*
X005257Y009834D01*
X005217Y009823D01*
X004567Y009823D01*
X004567Y010415D01*
X004567Y010535D01*
X004447Y010535D01*
X004447Y011127D01*
X003797Y011127D01*
X003756Y011116D01*
X003719Y011095D01*
X003690Y011065D01*
X003668Y011029D01*
X003658Y010988D01*
X003658Y010535D01*
X004447Y010535D01*
X004447Y010415D01*
X004567Y010415D01*
X005356Y010415D01*
X006013Y010415D01*
X006013Y010528D02*
X004567Y010528D01*
X004567Y010410D02*
X004447Y010410D01*
X004447Y010415D02*
X004447Y009823D01*
X003797Y009823D01*
X003756Y009834D01*
X003719Y009855D01*
X003690Y009885D01*
X003668Y009921D01*
X003658Y009962D01*
X003658Y010415D01*
X004447Y010415D01*
X004447Y010528D02*
X002816Y010528D01*
X002816Y010410D02*
X003658Y010410D01*
X003658Y010291D02*
X002816Y010291D01*
X002816Y010173D02*
X003658Y010173D01*
X003658Y010054D02*
X002816Y010054D01*
X002816Y009936D02*
X003665Y009936D01*
X003658Y010647D02*
X002816Y010647D01*
X002816Y010765D02*
X003658Y010765D01*
X003658Y010884D02*
X002816Y010884D01*
X002816Y011002D02*
X003661Y011002D01*
X003772Y011121D02*
X002738Y011121D01*
X002725Y009817D02*
X007854Y009817D01*
X007763Y009936D02*
X006914Y009936D01*
X006921Y010054D02*
X007763Y010054D01*
X007763Y010173D02*
X006921Y010173D01*
X006921Y010291D02*
X007763Y010291D01*
X007996Y009699D02*
X002475Y009699D01*
X002593Y009580D02*
X007996Y009580D01*
X007996Y009462D02*
X005135Y009462D01*
X004567Y009936D02*
X004447Y009936D01*
X004447Y010054D02*
X004567Y010054D01*
X004567Y010173D02*
X004447Y010173D01*
X004447Y010291D02*
X004567Y010291D01*
X004567Y010647D02*
X004447Y010647D01*
X004447Y010765D02*
X004567Y010765D01*
X004567Y010884D02*
X004447Y010884D01*
X004447Y011002D02*
X004567Y011002D01*
X004567Y011121D02*
X004447Y011121D01*
X005241Y011121D02*
X005338Y011121D01*
X006013Y011121D02*
X006133Y011121D01*
X006133Y011002D02*
X006013Y011002D01*
X006013Y010884D02*
X006133Y010884D01*
X006133Y010765D02*
X006013Y010765D01*
X006013Y010647D02*
X006133Y010647D01*
X006133Y010291D02*
X006013Y010291D01*
X006013Y010173D02*
X006133Y010173D01*
X006133Y010054D02*
X006013Y010054D01*
X006013Y009936D02*
X006133Y009936D01*
X007464Y011595D02*
X007996Y011595D01*
X009602Y009100D02*
X014602Y009100D01*
X015227Y008475D01*
X019727Y008475D01*
X019977Y008225D01*
X019901Y010430D02*
X019747Y010430D01*
X019747Y010830D01*
X019707Y010830D01*
X019307Y010830D01*
X019307Y010676D01*
X019553Y010430D01*
X019707Y010430D01*
X019707Y010830D01*
X019707Y010870D01*
X019307Y010870D01*
X019307Y011024D01*
X019553Y011270D01*
X019707Y011270D01*
X019707Y010870D01*
X019747Y010870D01*
X019747Y011270D01*
X019901Y011270D01*
X020147Y011024D01*
X020147Y010870D01*
X019747Y010870D01*
X019747Y010830D01*
X020147Y010830D01*
X020147Y010676D01*
X019901Y010430D01*
X019999Y010528D02*
X020455Y010528D01*
X020553Y010430D02*
X020707Y010430D01*
X020707Y010830D01*
X020307Y010830D01*
X020307Y010676D01*
X020553Y010430D01*
X020707Y010528D02*
X020747Y010528D01*
X020747Y010430D02*
X020747Y010830D01*
X020707Y010830D01*
X020707Y010870D01*
X020307Y010870D01*
X020307Y011024D01*
X020553Y011270D01*
X020707Y011270D01*
X020707Y010870D01*
X020747Y010870D01*
X020747Y011270D01*
X020901Y011270D01*
X021147Y011024D01*
X021147Y010870D01*
X020747Y010870D01*
X020747Y010830D01*
X021147Y010830D01*
X021147Y010676D01*
X020901Y010430D01*
X020747Y010430D01*
X020747Y010647D02*
X020707Y010647D01*
X020707Y010765D02*
X020747Y010765D01*
X020747Y010884D02*
X020707Y010884D01*
X020707Y011002D02*
X020747Y011002D01*
X020747Y011121D02*
X020707Y011121D01*
X020707Y011239D02*
X020747Y011239D01*
X020932Y011239D02*
X022154Y011239D01*
X022103Y011121D02*
X021050Y011121D01*
X021147Y011002D02*
X022054Y011002D01*
X022047Y010884D02*
X021147Y010884D01*
X021147Y010765D02*
X022047Y010765D01*
X022075Y010647D02*
X021118Y010647D01*
X020999Y010528D02*
X022124Y010528D01*
X022206Y010410D02*
X018248Y010410D01*
X018330Y010528D02*
X019455Y010528D01*
X019337Y010647D02*
X018379Y010647D01*
X018407Y010765D02*
X019307Y010765D01*
X019307Y010884D02*
X018407Y010884D01*
X018400Y011002D02*
X019307Y011002D01*
X019404Y011121D02*
X018351Y011121D01*
X018300Y011239D02*
X019522Y011239D01*
X019707Y011239D02*
X019747Y011239D01*
X019747Y011121D02*
X019707Y011121D01*
X019707Y011002D02*
X019747Y011002D01*
X019747Y010884D02*
X019707Y010884D01*
X019707Y010765D02*
X019747Y010765D01*
X019747Y010647D02*
X019707Y010647D01*
X019707Y010528D02*
X019747Y010528D01*
X020050Y011121D02*
X020404Y011121D01*
X020307Y011002D02*
X020147Y011002D01*
X020147Y010884D02*
X020307Y010884D01*
X020307Y010765D02*
X020147Y010765D01*
X020118Y010647D02*
X020337Y010647D01*
X020522Y011239D02*
X019932Y011239D01*
X020390Y013135D02*
X018292Y013135D01*
X018320Y013254D02*
X020362Y013254D01*
X020362Y013372D02*
X018320Y013372D01*
X018320Y013491D02*
X020362Y013491D01*
X020362Y013609D02*
X018320Y013609D01*
X018320Y013728D02*
X020362Y013728D01*
X020362Y013846D02*
X018320Y013846D01*
X018320Y013965D02*
X020362Y013965D01*
X020362Y014083D02*
X018320Y014083D01*
X018320Y014202D02*
X020362Y014202D01*
X020362Y014320D02*
X018320Y014320D01*
X018320Y014439D02*
X020362Y014439D01*
X020362Y014557D02*
X018320Y014557D01*
X018296Y014676D02*
X020387Y014676D01*
X019996Y016453D02*
X022230Y016453D01*
X022134Y016572D02*
X020092Y016572D01*
X020092Y016690D02*
X022134Y016690D01*
X022134Y016809D02*
X020092Y016809D01*
X020092Y016927D02*
X022134Y016927D01*
X022134Y017046D02*
X020092Y017046D01*
X020092Y017520D02*
X022134Y017520D01*
X022134Y017638D02*
X020092Y017638D01*
X020092Y017757D02*
X022134Y017757D01*
X022134Y017875D02*
X020092Y017875D01*
X020092Y017994D02*
X022134Y017994D01*
X022209Y018112D02*
X020017Y018112D01*
X020388Y020008D02*
X020508Y020008D01*
X020508Y020127D02*
X020388Y020127D01*
X020388Y020245D02*
X020508Y020245D01*
X020508Y020364D02*
X020388Y020364D01*
X020388Y020482D02*
X020508Y020482D01*
X021296Y020719D02*
X021297Y020719D01*
X021296Y020838D02*
X021297Y020838D01*
X021296Y020956D02*
X021297Y020956D01*
X021296Y021075D02*
X021297Y021075D01*
X021300Y021193D02*
X021262Y021193D01*
X021508Y022023D02*
X022041Y022023D01*
X022160Y022141D02*
X021626Y022141D01*
X021745Y022260D02*
X022278Y022260D01*
X022397Y022378D02*
X021863Y022378D01*
X021982Y022497D02*
X022515Y022497D01*
X022634Y022615D02*
X022100Y022615D01*
X022219Y022734D02*
X022752Y022734D01*
X022871Y022852D02*
X022337Y022852D01*
X022456Y022971D02*
X022989Y022971D01*
X023047Y023089D02*
X022574Y023089D01*
X022693Y023208D02*
X023047Y023208D01*
X023047Y023326D02*
X022811Y023326D01*
X022878Y023445D02*
X023047Y023445D01*
X023047Y023563D02*
X022907Y023563D01*
X022907Y023682D02*
X023047Y023682D01*
X023094Y023800D02*
X022862Y023800D01*
X022862Y023919D02*
X023187Y023919D01*
X023102Y023975D02*
X023352Y024225D01*
X023352Y024624D01*
X023102Y024624D02*
X023102Y023975D01*
X022977Y023850D01*
X022852Y023975D01*
X022852Y024624D01*
X022862Y024037D02*
X023342Y024037D01*
X024612Y024037D02*
X025092Y024037D01*
X025102Y023975D02*
X024977Y023850D01*
X024852Y023975D01*
X024852Y024624D01*
X024602Y024624D02*
X024602Y024225D01*
X024727Y024100D01*
X024612Y024100D02*
X025092Y024100D01*
X025092Y023794D01*
X025047Y023686D01*
X025047Y023514D01*
X025112Y023356D01*
X026483Y021985D01*
X026641Y021920D01*
X029799Y021920D01*
X030014Y021705D01*
X030014Y018142D01*
X029739Y018142D01*
X029634Y018037D01*
X029634Y017350D01*
X027592Y017350D01*
X027592Y018037D01*
X027487Y018142D01*
X025407Y018142D01*
X025407Y018172D01*
X026471Y019235D01*
X026592Y019356D01*
X026657Y019514D01*
X026657Y021186D01*
X026592Y021344D01*
X024907Y023028D01*
X024907Y023686D01*
X024842Y023844D01*
X024721Y023965D01*
X024612Y024010D01*
X024612Y024100D01*
X024767Y023919D02*
X025092Y023919D01*
X025102Y023975D02*
X025102Y024624D01*
X025092Y023800D02*
X024860Y023800D01*
X024907Y023682D02*
X025047Y023682D01*
X025047Y023563D02*
X024907Y023563D01*
X024907Y023445D02*
X025076Y023445D01*
X025143Y023326D02*
X024907Y023326D01*
X024907Y023208D02*
X025261Y023208D01*
X025380Y023089D02*
X024907Y023089D01*
X024965Y022971D02*
X025498Y022971D01*
X025617Y022852D02*
X025083Y022852D01*
X025202Y022734D02*
X025735Y022734D01*
X025854Y022615D02*
X025320Y022615D01*
X025439Y022497D02*
X025972Y022497D01*
X026091Y022378D02*
X025557Y022378D01*
X025676Y022260D02*
X026209Y022260D01*
X026328Y022141D02*
X025794Y022141D01*
X025913Y022023D02*
X026446Y022023D01*
X026150Y021786D02*
X029933Y021786D01*
X030014Y021667D02*
X026268Y021667D01*
X026387Y021549D02*
X030014Y021549D01*
X030014Y021430D02*
X026505Y021430D01*
X026605Y021312D02*
X028294Y021312D01*
X028304Y021328D02*
X028283Y021292D01*
X028272Y021251D01*
X028272Y021233D01*
X028257Y021241D01*
X028217Y021252D01*
X027567Y021252D01*
X027567Y020660D01*
X027447Y020660D01*
X027447Y021252D01*
X026797Y021252D01*
X026756Y021241D01*
X026719Y021220D01*
X026690Y021190D01*
X026668Y021154D01*
X026658Y021113D01*
X026658Y020660D01*
X027447Y020660D01*
X027447Y020540D01*
X027567Y020540D01*
X027567Y019948D01*
X028217Y019948D01*
X028252Y019957D01*
X028252Y019896D01*
X028357Y019790D01*
X028427Y019790D01*
X028427Y019701D01*
X028349Y019623D01*
X028349Y019077D01*
X028454Y018972D01*
X029000Y018972D01*
X029105Y019077D01*
X029105Y019623D01*
X029027Y019701D01*
X029027Y019790D01*
X029097Y019790D01*
X029202Y019896D01*
X029202Y020556D01*
X029145Y020614D01*
X029150Y020620D01*
X029171Y020656D01*
X029182Y020697D01*
X029182Y020914D01*
X028787Y020914D01*
X028787Y021034D01*
X028667Y021034D01*
X028667Y021390D01*
X028411Y021390D01*
X028370Y021379D01*
X028334Y021358D01*
X028304Y021328D01*
X028667Y021312D02*
X028787Y021312D01*
X028787Y021390D02*
X028787Y021034D01*
X029182Y021034D01*
X029182Y021251D01*
X029171Y021292D01*
X029150Y021328D01*
X029121Y021358D01*
X029084Y021379D01*
X029043Y021390D01*
X028787Y021390D01*
X028787Y021193D02*
X028667Y021193D01*
X028667Y021075D02*
X028787Y021075D01*
X028787Y020956D02*
X030014Y020956D01*
X030014Y020838D02*
X029182Y020838D01*
X029182Y020719D02*
X030014Y020719D01*
X030014Y020601D02*
X029158Y020601D01*
X029202Y020482D02*
X030014Y020482D01*
X030014Y020364D02*
X029202Y020364D01*
X029202Y020245D02*
X030014Y020245D01*
X030014Y020127D02*
X029202Y020127D01*
X029202Y020008D02*
X030014Y020008D01*
X030014Y019890D02*
X029196Y019890D01*
X029027Y019771D02*
X030014Y019771D01*
X030014Y019653D02*
X029075Y019653D01*
X029105Y019534D02*
X030014Y019534D01*
X030014Y019416D02*
X029105Y019416D01*
X029105Y019297D02*
X030014Y019297D01*
X030014Y019179D02*
X029105Y019179D01*
X029088Y019060D02*
X030014Y019060D01*
X030014Y018942D02*
X026177Y018942D01*
X026295Y019060D02*
X028366Y019060D01*
X028349Y019179D02*
X026414Y019179D01*
X026532Y019297D02*
X028349Y019297D01*
X028349Y019416D02*
X026616Y019416D01*
X026657Y019534D02*
X028349Y019534D01*
X028379Y019653D02*
X026657Y019653D01*
X026657Y019771D02*
X028427Y019771D01*
X028258Y019890D02*
X026657Y019890D01*
X026719Y019980D02*
X026756Y019959D01*
X026797Y019948D01*
X027447Y019948D01*
X027447Y020540D01*
X026658Y020540D01*
X026658Y020087D01*
X026668Y020046D01*
X026690Y020010D01*
X026719Y019980D01*
X026691Y020008D02*
X026657Y020008D01*
X026657Y020127D02*
X026658Y020127D01*
X026657Y020245D02*
X026658Y020245D01*
X026657Y020364D02*
X026658Y020364D01*
X026657Y020482D02*
X026658Y020482D01*
X026657Y020601D02*
X027447Y020601D01*
X027447Y020719D02*
X027567Y020719D01*
X027567Y020838D02*
X027447Y020838D01*
X027447Y020956D02*
X027567Y020956D01*
X027567Y021075D02*
X027447Y021075D01*
X027447Y021193D02*
X027567Y021193D01*
X027567Y020482D02*
X027447Y020482D01*
X027447Y020364D02*
X027567Y020364D01*
X027567Y020245D02*
X027447Y020245D01*
X027447Y020127D02*
X027567Y020127D01*
X027567Y020008D02*
X027447Y020008D01*
X026657Y020719D02*
X026658Y020719D01*
X026657Y020838D02*
X026658Y020838D01*
X026657Y020956D02*
X026658Y020956D01*
X026657Y021075D02*
X026658Y021075D01*
X026654Y021193D02*
X026692Y021193D01*
X026031Y021904D02*
X029815Y021904D01*
X030014Y021312D02*
X029160Y021312D01*
X029182Y021193D02*
X030014Y021193D01*
X030014Y021075D02*
X029182Y021075D01*
X028977Y022350D02*
X028977Y023850D01*
X028727Y024100D01*
X028351Y024100D01*
X028351Y023350D02*
X028351Y022974D01*
X028227Y022850D01*
X026977Y022850D01*
X026477Y023350D01*
X026477Y023600D01*
X026477Y024100D02*
X026352Y024225D01*
X026352Y024624D01*
X026102Y024624D02*
X026102Y025725D01*
X025977Y025850D01*
X025852Y025725D01*
X025852Y024624D01*
X026602Y024624D02*
X027079Y024624D01*
X027603Y024100D01*
X027603Y023350D02*
X027227Y023350D01*
X026977Y023600D01*
X026977Y023850D01*
X026727Y024100D01*
X026477Y024100D01*
X024933Y021786D02*
X023021Y021786D01*
X023139Y021904D02*
X024815Y021904D01*
X024696Y022023D02*
X023258Y022023D01*
X023376Y022141D02*
X024578Y022141D01*
X024459Y022260D02*
X023495Y022260D01*
X023585Y022350D02*
X024369Y022350D01*
X025467Y021252D01*
X025008Y021252D01*
X025008Y020660D01*
X025796Y020660D01*
X025796Y020922D01*
X025797Y020922D01*
X025797Y019778D01*
X024619Y018600D01*
X023319Y018600D01*
X023308Y018627D01*
X022157Y019778D01*
X022157Y020922D01*
X022158Y020922D01*
X022158Y020660D01*
X022947Y020660D01*
X022947Y021252D01*
X022487Y021252D01*
X023585Y022350D01*
X023717Y021252D02*
X023067Y021252D01*
X023067Y020660D01*
X023856Y020660D01*
X023856Y021113D01*
X023845Y021154D01*
X023824Y021190D01*
X023794Y021220D01*
X023757Y021241D01*
X023717Y021252D01*
X023821Y021193D02*
X024133Y021193D01*
X024130Y021190D02*
X024109Y021154D01*
X024099Y021113D01*
X024099Y020660D01*
X024888Y020660D01*
X024888Y021252D01*
X024237Y021252D01*
X024197Y021241D01*
X024160Y021220D01*
X024130Y021190D01*
X024099Y021075D02*
X023856Y021075D01*
X023856Y020956D02*
X024099Y020956D01*
X024099Y020838D02*
X023856Y020838D01*
X023856Y020719D02*
X024099Y020719D01*
X024099Y020540D02*
X024099Y020087D01*
X024109Y020046D01*
X024130Y020010D01*
X024160Y019980D01*
X024197Y019959D01*
X024237Y019948D01*
X024888Y019948D01*
X024888Y020540D01*
X025008Y020540D01*
X025008Y020660D01*
X024888Y020660D01*
X024888Y020540D01*
X024099Y020540D01*
X024099Y020482D02*
X023856Y020482D01*
X023856Y020540D02*
X023856Y020087D01*
X023845Y020046D01*
X023824Y020010D01*
X023794Y019980D01*
X023757Y019959D01*
X023717Y019948D01*
X023067Y019948D01*
X023067Y020540D01*
X023067Y020660D01*
X022947Y020660D01*
X022947Y020540D01*
X023067Y020540D01*
X023856Y020540D01*
X023856Y020364D02*
X024099Y020364D01*
X024099Y020245D02*
X023856Y020245D01*
X023856Y020127D02*
X024099Y020127D01*
X024132Y020008D02*
X023822Y020008D01*
X023067Y020008D02*
X022947Y020008D01*
X022947Y019948D02*
X022297Y019948D01*
X022256Y019959D01*
X022219Y019980D01*
X022190Y020010D01*
X022168Y020046D01*
X022158Y020087D01*
X022158Y020540D01*
X022947Y020540D01*
X022947Y019948D01*
X022947Y020127D02*
X023067Y020127D01*
X023067Y020245D02*
X022947Y020245D01*
X022947Y020364D02*
X023067Y020364D01*
X023067Y020482D02*
X022947Y020482D01*
X022947Y020601D02*
X022157Y020601D01*
X022157Y020719D02*
X022158Y020719D01*
X022157Y020838D02*
X022158Y020838D01*
X022157Y020482D02*
X022158Y020482D01*
X022157Y020364D02*
X022158Y020364D01*
X022157Y020245D02*
X022158Y020245D01*
X022157Y020127D02*
X022158Y020127D01*
X022157Y020008D02*
X022191Y020008D01*
X022157Y019890D02*
X025797Y019890D01*
X025735Y019980D02*
X025765Y020010D01*
X025786Y020046D01*
X025796Y020087D01*
X025796Y020540D01*
X025008Y020540D01*
X025008Y019948D01*
X025658Y019948D01*
X025698Y019959D01*
X025735Y019980D01*
X025763Y020008D02*
X025797Y020008D01*
X025796Y020127D02*
X025797Y020127D01*
X025796Y020245D02*
X025797Y020245D01*
X025796Y020364D02*
X025797Y020364D01*
X025796Y020482D02*
X025797Y020482D01*
X025797Y020601D02*
X025008Y020601D01*
X025008Y020719D02*
X024888Y020719D01*
X024888Y020601D02*
X023067Y020601D01*
X023067Y020719D02*
X022947Y020719D01*
X022947Y020838D02*
X023067Y020838D01*
X023067Y020956D02*
X022947Y020956D01*
X022947Y021075D02*
X023067Y021075D01*
X023067Y021193D02*
X022947Y021193D01*
X022665Y021430D02*
X025289Y021430D01*
X025407Y021312D02*
X022547Y021312D01*
X022784Y021549D02*
X025170Y021549D01*
X025052Y021667D02*
X022902Y021667D01*
X022164Y019771D02*
X025790Y019771D01*
X025671Y019653D02*
X022283Y019653D01*
X022401Y019534D02*
X025553Y019534D01*
X025434Y019416D02*
X022520Y019416D01*
X022638Y019297D02*
X025316Y019297D01*
X025197Y019179D02*
X022757Y019179D01*
X022875Y019060D02*
X025079Y019060D01*
X024960Y018942D02*
X022994Y018942D01*
X023112Y018823D02*
X024842Y018823D01*
X024723Y018705D02*
X023231Y018705D01*
X023325Y018586D02*
X024609Y018586D01*
X024560Y018468D02*
X023374Y018468D01*
X023374Y018349D02*
X024547Y018349D01*
X024547Y018231D02*
X023374Y018231D01*
X023678Y018112D02*
X024276Y018112D01*
X024201Y017994D02*
X023753Y017994D01*
X023753Y017875D02*
X024201Y017875D01*
X024201Y017757D02*
X023753Y017757D01*
X023753Y017638D02*
X024201Y017638D01*
X024201Y017520D02*
X023753Y017520D01*
X023753Y017401D02*
X024201Y017401D01*
X024201Y017283D02*
X023753Y017283D01*
X023753Y017164D02*
X024201Y017164D01*
X024201Y017046D02*
X023753Y017046D01*
X023753Y016927D02*
X024201Y016927D01*
X024201Y016809D02*
X023753Y016809D01*
X023753Y016690D02*
X024201Y016690D01*
X024201Y016572D02*
X023753Y016572D01*
X023657Y016453D02*
X024297Y016453D01*
X024225Y014676D02*
X023729Y014676D01*
X023753Y014557D02*
X024201Y014557D01*
X024201Y014439D02*
X023753Y014439D01*
X023753Y014320D02*
X024201Y014320D01*
X024201Y014202D02*
X023753Y014202D01*
X023753Y014083D02*
X024201Y014083D01*
X024201Y013965D02*
X023753Y013965D01*
X023753Y013846D02*
X024201Y013846D01*
X024201Y013728D02*
X023753Y013728D01*
X023753Y013609D02*
X024201Y013609D01*
X024201Y013491D02*
X023753Y013491D01*
X023753Y013372D02*
X024201Y013372D01*
X024201Y013254D02*
X023753Y013254D01*
X023725Y013135D02*
X024229Y013135D01*
X024330Y013017D02*
X023657Y013017D01*
X023657Y012898D02*
X024330Y012898D01*
X024330Y012780D02*
X023657Y012780D01*
X023657Y012661D02*
X024330Y012661D01*
X024330Y012543D02*
X023657Y012543D01*
X023657Y012424D02*
X024330Y012424D01*
X024330Y012306D02*
X023657Y012306D01*
X023657Y012187D02*
X024330Y012187D01*
X024330Y012069D02*
X023657Y012069D01*
X023657Y011950D02*
X024330Y011950D01*
X024330Y011832D02*
X023657Y011832D01*
X023657Y011713D02*
X024330Y011713D01*
X024330Y011595D02*
X023657Y011595D01*
X023657Y011476D02*
X024330Y011476D01*
X024330Y011358D02*
X023657Y011358D01*
X023657Y011239D02*
X024330Y011239D01*
X024330Y011121D02*
X023657Y011121D01*
X023657Y011002D02*
X024330Y011002D01*
X024350Y010884D02*
X023623Y010884D01*
X023574Y010765D02*
X024399Y010765D01*
X024469Y010647D02*
X023485Y010647D01*
X023367Y010528D02*
X024587Y010528D01*
X024706Y010410D02*
X023248Y010410D01*
X022273Y011358D02*
X018190Y011358D01*
X018190Y011476D02*
X022297Y011476D01*
X022297Y011595D02*
X018190Y011595D01*
X018190Y011713D02*
X022297Y011713D01*
X022297Y011832D02*
X018190Y011832D01*
X018190Y011950D02*
X022297Y011950D01*
X022297Y012069D02*
X018190Y012069D01*
X018190Y012187D02*
X022297Y012187D01*
X022297Y012306D02*
X018190Y012306D01*
X018190Y012424D02*
X022297Y012424D01*
X022297Y012543D02*
X018190Y012543D01*
X018190Y012661D02*
X022297Y012661D01*
X022297Y012780D02*
X018190Y012780D01*
X018190Y012898D02*
X022297Y012898D01*
X022297Y013017D02*
X018190Y013017D01*
X014797Y013017D02*
X010690Y013017D01*
X010690Y012898D02*
X014797Y012898D01*
X014797Y012780D02*
X010690Y012780D01*
X010690Y012661D02*
X014797Y012661D01*
X014797Y012543D02*
X010690Y012543D01*
X010690Y012424D02*
X014797Y012424D01*
X014797Y012306D02*
X010690Y012306D01*
X010690Y012187D02*
X014797Y012187D01*
X014797Y012069D02*
X010690Y012069D01*
X010690Y011950D02*
X014797Y011950D01*
X014797Y011832D02*
X010690Y011832D01*
X010690Y011713D02*
X014797Y011713D01*
X014797Y011595D02*
X010690Y011595D01*
X010690Y011476D02*
X014797Y011476D01*
X014773Y011358D02*
X010690Y011358D01*
X010800Y011239D02*
X012022Y011239D01*
X012053Y011270D02*
X011807Y011024D01*
X011807Y010870D01*
X012207Y010870D01*
X012207Y010830D01*
X011807Y010830D01*
X011807Y010676D01*
X012053Y010430D01*
X012207Y010430D01*
X012207Y010830D01*
X012247Y010830D01*
X012247Y010430D01*
X012401Y010430D01*
X012647Y010676D01*
X012647Y010830D01*
X012247Y010830D01*
X012247Y010870D01*
X012207Y010870D01*
X012207Y011270D01*
X012053Y011270D01*
X012207Y011239D02*
X012247Y011239D01*
X012247Y011270D02*
X012401Y011270D01*
X012647Y011024D01*
X012647Y010870D01*
X012247Y010870D01*
X012247Y011270D01*
X012247Y011121D02*
X012207Y011121D01*
X012207Y011002D02*
X012247Y011002D01*
X012247Y010884D02*
X012207Y010884D01*
X012207Y010765D02*
X012247Y010765D01*
X012247Y010647D02*
X012207Y010647D01*
X012207Y010528D02*
X012247Y010528D01*
X012499Y010528D02*
X012955Y010528D01*
X013053Y010430D02*
X012807Y010676D01*
X012807Y010830D01*
X013207Y010830D01*
X013207Y010870D01*
X012807Y010870D01*
X012807Y011024D01*
X013053Y011270D01*
X013207Y011270D01*
X013207Y010870D01*
X013247Y010870D01*
X013247Y011270D01*
X013401Y011270D01*
X013647Y011024D01*
X013647Y010870D01*
X013247Y010870D01*
X013247Y010830D01*
X013247Y010430D01*
X013401Y010430D01*
X013647Y010676D01*
X013647Y010830D01*
X013247Y010830D01*
X013207Y010830D01*
X013207Y010430D01*
X013053Y010430D01*
X013207Y010528D02*
X013247Y010528D01*
X013247Y010647D02*
X013207Y010647D01*
X013207Y010765D02*
X013247Y010765D01*
X013247Y010884D02*
X013207Y010884D01*
X013207Y011002D02*
X013247Y011002D01*
X013247Y011121D02*
X013207Y011121D01*
X013207Y011239D02*
X013247Y011239D01*
X013432Y011239D02*
X014654Y011239D01*
X014603Y011121D02*
X013550Y011121D01*
X013647Y011002D02*
X014554Y011002D01*
X014547Y010884D02*
X013647Y010884D01*
X013647Y010765D02*
X014547Y010765D01*
X014575Y010647D02*
X013618Y010647D01*
X013499Y010528D02*
X014624Y010528D01*
X014706Y010410D02*
X010748Y010410D01*
X010830Y010528D02*
X011955Y010528D01*
X011837Y010647D02*
X010879Y010647D01*
X010907Y010765D02*
X011807Y010765D01*
X011807Y010884D02*
X010907Y010884D01*
X010900Y011002D02*
X011807Y011002D01*
X011904Y011121D02*
X010851Y011121D01*
X010792Y013135D02*
X012890Y013135D01*
X012862Y013254D02*
X010820Y013254D01*
X010820Y013372D02*
X012862Y013372D01*
X012862Y013491D02*
X010820Y013491D01*
X010820Y013609D02*
X012862Y013609D01*
X012862Y013728D02*
X010820Y013728D01*
X010820Y013846D02*
X012862Y013846D01*
X012862Y013965D02*
X010820Y013965D01*
X010820Y014083D02*
X012862Y014083D01*
X012862Y014202D02*
X010820Y014202D01*
X010820Y014320D02*
X012862Y014320D01*
X012862Y014439D02*
X010820Y014439D01*
X010820Y014557D02*
X012862Y014557D01*
X012887Y014676D02*
X010796Y014676D01*
X009201Y017283D02*
X007227Y017283D01*
X007227Y017401D02*
X009201Y017401D01*
X009201Y017520D02*
X007227Y017520D01*
X007227Y017638D02*
X009201Y017638D01*
X009201Y017757D02*
X007227Y017757D01*
X007227Y017875D02*
X009201Y017875D01*
X009201Y017994D02*
X007227Y017994D01*
X007227Y018112D02*
X009276Y018112D01*
X009967Y018231D02*
X007227Y018231D01*
X007227Y018349D02*
X009967Y018349D01*
X009967Y018468D02*
X007227Y018468D01*
X007227Y018586D02*
X009967Y018586D01*
X009967Y018705D02*
X007227Y018705D01*
X007227Y018823D02*
X009967Y018823D01*
X009967Y018942D02*
X007227Y018942D01*
X007227Y019060D02*
X009967Y019060D01*
X009967Y019179D02*
X007227Y019179D01*
X007227Y019297D02*
X009967Y019297D01*
X009967Y019416D02*
X007227Y019416D01*
X007227Y019534D02*
X009967Y019534D01*
X009967Y019653D02*
X007227Y019653D01*
X007227Y019771D02*
X009967Y019771D01*
X009967Y019890D02*
X007227Y019890D01*
X007227Y020008D02*
X008382Y020008D01*
X008380Y020010D02*
X008410Y019980D01*
X008447Y019959D01*
X008487Y019948D01*
X009138Y019948D01*
X009138Y020540D01*
X008349Y020540D01*
X008349Y020087D01*
X008359Y020046D01*
X008380Y020010D01*
X008349Y020127D02*
X007227Y020127D01*
X007227Y020245D02*
X008349Y020245D01*
X008349Y020364D02*
X007227Y020364D01*
X007227Y020482D02*
X008349Y020482D01*
X008349Y020719D02*
X007227Y020719D01*
X007227Y020601D02*
X009138Y020601D01*
X009138Y020719D02*
X009258Y020719D01*
X009258Y020838D02*
X009138Y020838D01*
X009138Y020956D02*
X009258Y020956D01*
X009258Y021075D02*
X009138Y021075D01*
X009138Y021193D02*
X009258Y021193D01*
X009258Y020482D02*
X009138Y020482D01*
X009138Y020364D02*
X009258Y020364D01*
X009258Y020245D02*
X009138Y020245D01*
X009138Y020127D02*
X009258Y020127D01*
X009258Y020008D02*
X009138Y020008D01*
X008349Y020838D02*
X007227Y020838D01*
X007227Y020956D02*
X008349Y020956D01*
X008349Y021075D02*
X007227Y021075D01*
X007227Y021193D02*
X008383Y021193D01*
X012432Y011239D02*
X013022Y011239D01*
X012904Y011121D02*
X012550Y011121D01*
X012647Y011002D02*
X012807Y011002D01*
X012807Y010884D02*
X012647Y010884D01*
X012647Y010765D02*
X012807Y010765D01*
X012837Y010647D02*
X012618Y010647D01*
X009602Y009100D02*
X009477Y008975D01*
X009477Y007225D01*
X009227Y006975D01*
X006852Y006975D01*
X016698Y003225D02*
X016727Y003225D01*
X025748Y010410D02*
X029706Y010410D01*
X029624Y010528D02*
X028499Y010528D01*
X028401Y010430D02*
X028647Y010676D01*
X028647Y010830D01*
X028247Y010830D01*
X028247Y010430D01*
X028401Y010430D01*
X028247Y010528D02*
X028207Y010528D01*
X028207Y010430D02*
X028207Y010830D01*
X027807Y010830D01*
X027807Y010676D01*
X028053Y010430D01*
X028207Y010430D01*
X028207Y010647D02*
X028247Y010647D01*
X028247Y010765D02*
X028207Y010765D01*
X028207Y010830D02*
X028247Y010830D01*
X028247Y010870D01*
X028207Y010870D01*
X028207Y010830D01*
X028207Y010870D02*
X027807Y010870D01*
X027807Y011024D01*
X028053Y011270D01*
X028207Y011270D01*
X028207Y010870D01*
X028207Y010884D02*
X028247Y010884D01*
X028247Y010870D02*
X028247Y011270D01*
X028401Y011270D01*
X028647Y011024D01*
X028647Y010870D01*
X028247Y010870D01*
X028247Y011002D02*
X028207Y011002D01*
X028207Y011121D02*
X028247Y011121D01*
X028247Y011239D02*
X028207Y011239D01*
X028022Y011239D02*
X027432Y011239D01*
X027401Y011270D02*
X027647Y011024D01*
X027647Y010870D01*
X027247Y010870D01*
X027207Y010870D01*
X027207Y010830D01*
X026807Y010830D01*
X026807Y010676D01*
X027053Y010430D01*
X027207Y010430D01*
X027207Y010830D01*
X027247Y010830D01*
X027247Y010430D01*
X027401Y010430D01*
X027647Y010676D01*
X027647Y010830D01*
X027247Y010830D01*
X027247Y010870D01*
X027247Y011270D01*
X027401Y011270D01*
X027247Y011239D02*
X027207Y011239D01*
X027207Y011270D02*
X027053Y011270D01*
X026807Y011024D01*
X026807Y010870D01*
X027207Y010870D01*
X027207Y011270D01*
X027207Y011121D02*
X027247Y011121D01*
X027247Y011002D02*
X027207Y011002D01*
X027207Y010884D02*
X027247Y010884D01*
X027247Y010765D02*
X027207Y010765D01*
X027207Y010647D02*
X027247Y010647D01*
X027247Y010528D02*
X027207Y010528D01*
X026955Y010528D02*
X025830Y010528D01*
X025879Y010647D02*
X026837Y010647D01*
X026807Y010765D02*
X025907Y010765D01*
X025907Y010884D02*
X026807Y010884D01*
X026807Y011002D02*
X025900Y011002D01*
X025851Y011121D02*
X026904Y011121D01*
X027022Y011239D02*
X025800Y011239D01*
X025690Y011358D02*
X029773Y011358D01*
X029797Y011476D02*
X025690Y011476D01*
X025690Y011595D02*
X029797Y011595D01*
X029797Y011713D02*
X025690Y011713D01*
X025690Y011832D02*
X029797Y011832D01*
X029797Y011950D02*
X025690Y011950D01*
X025690Y012069D02*
X029797Y012069D01*
X029797Y012187D02*
X025690Y012187D01*
X025690Y012306D02*
X029797Y012306D01*
X029797Y012424D02*
X025690Y012424D01*
X025690Y012543D02*
X029797Y012543D01*
X029797Y012661D02*
X025690Y012661D01*
X025690Y012780D02*
X029797Y012780D01*
X029797Y012898D02*
X025690Y012898D01*
X025690Y013017D02*
X029797Y013017D01*
X029654Y011239D02*
X028432Y011239D01*
X028550Y011121D02*
X029603Y011121D01*
X029554Y011002D02*
X028647Y011002D01*
X028647Y010884D02*
X029547Y010884D01*
X029547Y010765D02*
X028647Y010765D01*
X028618Y010647D02*
X029575Y010647D01*
X027955Y010528D02*
X027499Y010528D01*
X027618Y010647D02*
X027837Y010647D01*
X027807Y010765D02*
X027647Y010765D01*
X027647Y010884D02*
X027807Y010884D01*
X027807Y011002D02*
X027647Y011002D01*
X027550Y011121D02*
X027904Y011121D01*
X027890Y013135D02*
X025792Y013135D01*
X025820Y013254D02*
X027862Y013254D01*
X027862Y013372D02*
X025820Y013372D01*
X025820Y013491D02*
X027862Y013491D01*
X027862Y013609D02*
X025820Y013609D01*
X025820Y013728D02*
X027862Y013728D01*
X027862Y013846D02*
X025820Y013846D01*
X025820Y013965D02*
X027862Y013965D01*
X027862Y014083D02*
X025820Y014083D01*
X025820Y014202D02*
X027862Y014202D01*
X027862Y014320D02*
X025820Y014320D01*
X025820Y014439D02*
X027862Y014439D01*
X027862Y014557D02*
X025820Y014557D01*
X025796Y014676D02*
X027887Y014676D01*
X027496Y016453D02*
X029730Y016453D01*
X029634Y016572D02*
X027592Y016572D01*
X027592Y016690D02*
X029634Y016690D01*
X029634Y016809D02*
X027592Y016809D01*
X027592Y016927D02*
X029634Y016927D01*
X029634Y017046D02*
X027592Y017046D01*
X027592Y017401D02*
X029634Y017401D01*
X029634Y017520D02*
X027592Y017520D01*
X027592Y017638D02*
X029634Y017638D01*
X029634Y017757D02*
X027592Y017757D01*
X027592Y017875D02*
X029634Y017875D01*
X029634Y017994D02*
X027592Y017994D01*
X027517Y018112D02*
X029709Y018112D01*
X030014Y018231D02*
X025466Y018231D01*
X025584Y018349D02*
X030014Y018349D01*
X030014Y018468D02*
X025703Y018468D01*
X025821Y018586D02*
X030014Y018586D01*
X030014Y018705D02*
X025940Y018705D01*
X026058Y018823D02*
X030014Y018823D01*
X025797Y020719D02*
X025796Y020719D01*
X025796Y020838D02*
X025797Y020838D01*
X025008Y020838D02*
X024888Y020838D01*
X024888Y020956D02*
X025008Y020956D01*
X025008Y021075D02*
X024888Y021075D01*
X024888Y021193D02*
X025008Y021193D01*
X025008Y020482D02*
X024888Y020482D01*
X024888Y020364D02*
X025008Y020364D01*
X025008Y020245D02*
X024888Y020245D01*
X024888Y020127D02*
X025008Y020127D01*
X025008Y020008D02*
X024888Y020008D01*
X022102Y024624D02*
X022102Y025725D01*
X021977Y025850D01*
X022852Y026725D01*
X021977Y025850D02*
X021852Y025725D01*
X021852Y024624D01*
X021602Y024624D02*
X021602Y024225D01*
X021477Y024100D01*
X021227Y024100D01*
X020977Y023850D01*
X020977Y023600D01*
X020727Y023350D01*
X020351Y023350D01*
X020351Y024100D02*
X020875Y024624D01*
X021352Y024624D01*
X021477Y023600D02*
X021477Y023350D01*
X020977Y022850D01*
X019727Y022850D01*
X019603Y022974D01*
X019603Y023350D01*
X019603Y024100D02*
X019227Y024100D01*
X018977Y023850D01*
X021251Y027576D02*
X020977Y027850D01*
X020977Y028850D01*
X020352Y029133D02*
X020285Y029133D01*
X021251Y027576D02*
X021352Y027576D01*
X021852Y027576D02*
X021852Y028725D01*
X021727Y028850D01*
X023106Y030975D02*
X023106Y031415D01*
X022317Y031415D01*
X022317Y031535D01*
X023106Y031535D01*
X023106Y031975D01*
X023602Y031975D01*
X023602Y030975D01*
X023106Y030975D01*
X023106Y031029D02*
X023602Y031029D01*
X023602Y031147D02*
X023106Y031147D01*
X023106Y031266D02*
X023602Y031266D01*
X023602Y031384D02*
X023106Y031384D01*
X023106Y031621D02*
X023602Y031621D01*
X023602Y031503D02*
X022317Y031503D01*
X023106Y031740D02*
X023602Y031740D01*
X023602Y031858D02*
X023106Y031858D01*
X026852Y037225D02*
X027478Y037225D01*
X027602Y037349D01*
X027602Y037475D01*
X027852Y037725D01*
X027852Y038201D01*
X028352Y038201D02*
X028352Y037725D01*
X028226Y037599D01*
X028226Y037225D01*
X028226Y036475D01*
X027478Y036475D02*
X027478Y037225D01*
X026852Y038201D02*
X025626Y038201D01*
X025477Y038350D01*
X025852Y038494D02*
X026554Y038494D01*
X026554Y038613D02*
X025852Y038613D01*
X025852Y038731D02*
X026576Y038731D01*
X026475Y039205D02*
X030229Y039205D01*
X030147Y039324D02*
X026557Y039324D01*
X026557Y039442D02*
X030147Y039442D01*
X030147Y039679D02*
X030088Y039679D01*
X030542Y039561D02*
X026162Y039561D01*
X026162Y039442D02*
X026042Y039442D01*
X026042Y039324D02*
X026162Y039324D01*
X026162Y039205D02*
X026042Y039205D01*
X025852Y039087D02*
X030852Y039087D01*
X030852Y038968D02*
X025852Y038968D01*
X025852Y038850D02*
X030852Y038850D01*
X030852Y038731D02*
X030128Y038731D01*
X030150Y038613D02*
X030852Y038613D01*
X030852Y038494D02*
X030150Y038494D01*
X030542Y039205D02*
X030662Y039205D01*
X030662Y039324D02*
X030542Y039324D01*
X030542Y039442D02*
X030662Y039442D01*
X030602Y040349D02*
X030602Y041100D01*
X030727Y041225D01*
X030727Y042350D01*
X030602Y042475D01*
X030226Y042475D01*
X029478Y042475D02*
X029478Y041976D01*
X029477Y041975D01*
X029477Y041726D01*
X029478Y041725D01*
X029477Y041726D02*
X029477Y041350D01*
X029352Y041225D01*
X029352Y040249D01*
X029852Y040249D02*
X029852Y040975D01*
X030102Y040975D01*
X030227Y041100D01*
X030227Y041724D01*
X030226Y041725D01*
X029616Y039679D02*
X029588Y039679D01*
X029116Y039679D02*
X029088Y039679D01*
X028352Y040249D02*
X028352Y041100D01*
X027352Y041225D02*
X027352Y040249D01*
X026852Y040249D02*
X026852Y040975D01*
X026602Y040975D01*
X026477Y041100D01*
X026477Y041724D01*
X026478Y041725D01*
X025977Y041225D02*
X025977Y042350D01*
X026102Y042475D01*
X026478Y042475D01*
X027226Y042475D02*
X027226Y041725D01*
X027227Y041724D01*
X027227Y041350D01*
X027352Y041225D01*
X027116Y039679D02*
X027088Y039679D01*
X026616Y039679D02*
X026557Y039679D01*
X026102Y040349D02*
X026102Y041100D01*
X025977Y041225D01*
X027588Y039679D02*
X027616Y039679D01*
X028352Y038794D02*
X028352Y038475D01*
X028352Y038475D01*
X028352Y038794D01*
X028352Y038731D02*
X028352Y038731D01*
X028352Y038613D02*
X028352Y038613D01*
X028352Y038494D02*
X028352Y038494D01*
X018852Y044225D02*
X018852Y044475D01*
X018602Y044725D01*
X017477Y044725D01*
D36*
X017227Y045350D03*
X017977Y044225D03*
X018852Y044225D03*
X020227Y043225D03*
X020602Y040975D03*
X022102Y039100D03*
X020602Y037475D03*
X020227Y035350D03*
X018977Y037600D03*
X018477Y037600D03*
X017977Y037600D03*
X017977Y039225D03*
X018477Y039225D03*
X017977Y040350D03*
X015977Y037600D03*
X015977Y037100D03*
X018477Y033600D03*
X018477Y031725D03*
X018477Y031225D03*
X016977Y029475D03*
X016227Y028850D03*
X015727Y028850D03*
X015227Y028850D03*
X015227Y029725D03*
X014227Y028850D03*
X013727Y028850D03*
X013227Y028850D03*
X012477Y028850D03*
X011977Y028850D03*
X011477Y029725D03*
X010977Y028850D03*
X009977Y028850D03*
X008852Y027850D03*
X007852Y028475D03*
X007852Y029975D03*
X008102Y032475D03*
X005852Y034850D03*
X006852Y039100D03*
X009227Y038975D03*
X009477Y037475D03*
X009977Y037475D03*
X011977Y037225D03*
X012227Y037975D03*
X012727Y037975D03*
X012352Y041600D03*
X011977Y046725D03*
X015602Y032600D03*
X016352Y032600D03*
X013602Y031725D03*
X013602Y031225D03*
X013477Y026600D03*
X014227Y026600D03*
X014977Y026600D03*
X014977Y025600D03*
X014227Y025600D03*
X013477Y025600D03*
X012477Y025600D03*
X012477Y026600D03*
X011727Y026600D03*
X010977Y026600D03*
X010227Y026600D03*
X010227Y025600D03*
X010977Y025600D03*
X011727Y025600D03*
X011477Y023850D03*
X012727Y023850D03*
X013227Y023850D03*
X014477Y023850D03*
X013977Y022100D03*
X013977Y021600D03*
X014477Y021600D03*
X014227Y019600D03*
X013727Y019600D03*
X013727Y019100D03*
X014227Y019100D03*
X013227Y019100D03*
X013227Y019600D03*
X012477Y019600D03*
X012477Y019100D03*
X011977Y019100D03*
X011477Y019100D03*
X011477Y019600D03*
X011977Y019600D03*
X011727Y021600D03*
X011227Y021600D03*
X011727Y022100D03*
X009727Y022100D03*
X009727Y021600D03*
X009227Y021600D03*
X009227Y022100D03*
X007977Y023350D03*
X007977Y023850D03*
X006227Y021350D03*
X005477Y024350D03*
X003477Y025225D03*
X003727Y021225D03*
X005852Y017350D03*
X004477Y014100D03*
X003477Y013475D03*
X003477Y012725D03*
X001477Y012475D03*
X005477Y009600D03*
X005977Y009600D03*
X006477Y009600D03*
X006977Y009600D03*
X007352Y010350D03*
X007352Y010850D03*
X007352Y011350D03*
X007602Y012725D03*
X008477Y017475D03*
X008477Y017975D03*
X008977Y017975D03*
X008977Y017475D03*
X015727Y025600D03*
X015727Y026600D03*
X016727Y024850D03*
X017477Y024850D03*
X018227Y025350D03*
X018227Y025850D03*
X018227Y026350D03*
X018227Y026850D03*
X018227Y027350D03*
X018727Y027350D03*
X018727Y026850D03*
X018727Y026350D03*
X018727Y025850D03*
X018727Y025350D03*
X016477Y022100D03*
X015977Y022100D03*
X015977Y021600D03*
X016477Y021600D03*
X016477Y017975D03*
X016477Y017475D03*
X019227Y019350D03*
X020352Y018225D03*
X020352Y017725D03*
X020852Y017725D03*
X020852Y018225D03*
X021352Y018225D03*
X021352Y017725D03*
X021852Y017725D03*
X021852Y018225D03*
X022977Y019600D03*
X023477Y019600D03*
X023477Y019100D03*
X023977Y019100D03*
X023977Y019600D03*
X024477Y019600D03*
X024477Y019100D03*
X024977Y019600D03*
X026977Y021600D03*
X027477Y021600D03*
X027977Y021600D03*
X026477Y023600D03*
X026727Y025600D03*
X025977Y025600D03*
X025227Y025600D03*
X025227Y026600D03*
X025977Y026600D03*
X026727Y026600D03*
X026477Y028850D03*
X025977Y028850D03*
X024977Y028850D03*
X024477Y028850D03*
X023977Y028850D03*
X023477Y028850D03*
X022977Y028850D03*
X021727Y028850D03*
X020977Y028850D03*
X019977Y029475D03*
X021227Y026600D03*
X021977Y026600D03*
X021977Y025600D03*
X021227Y025600D03*
X021477Y023600D03*
X020977Y021600D03*
X020477Y021600D03*
X019977Y021600D03*
X022727Y025600D03*
X023477Y025600D03*
X023477Y026600D03*
X022727Y026600D03*
X024477Y026600D03*
X024477Y025600D03*
X024477Y023100D03*
X023477Y023100D03*
X027852Y018100D03*
X027852Y017600D03*
X028352Y017600D03*
X028352Y018100D03*
X028852Y018100D03*
X028852Y017600D03*
X029352Y017600D03*
X029352Y018100D03*
X028727Y019350D03*
X023352Y031225D03*
X023352Y031725D03*
X023977Y034850D03*
X023602Y037475D03*
X022102Y035725D03*
X026102Y038850D03*
X026852Y037225D03*
X028352Y039100D03*
X023977Y043600D03*
X023602Y040975D03*
X019977Y008225D03*
X015852Y001600D03*
X015852Y000975D03*
D37*
X002823Y004475D02*
X002227Y005070D01*
X002823Y004475D02*
X006477Y004475D01*
X006852Y004850D01*
X006852Y005685D01*
X006602Y006725D02*
X003132Y006725D01*
X002227Y007630D01*
X002477Y008975D02*
X004977Y008975D01*
X005102Y008850D01*
X005102Y007907D01*
X005198Y007811D01*
X006602Y006725D02*
X006852Y006975D01*
X006852Y007850D01*
X008506Y007850D02*
X008506Y010350D01*
X008506Y017504D01*
X008727Y017725D01*
X010477Y018100D02*
X010477Y022100D01*
X011477Y023100D01*
X011477Y023850D01*
X014477Y023850D02*
X014477Y023100D01*
X015227Y022350D01*
X015227Y017600D01*
X015444Y017383D01*
X015444Y017293D01*
X010896Y017293D02*
X010896Y017681D01*
X010477Y018100D01*
X007602Y012725D02*
X007602Y012350D01*
X007352Y012100D01*
X002352Y012100D01*
X001948Y011695D01*
X001948Y010475D01*
X001948Y009505D01*
X002477Y008975D01*
X010698Y005685D02*
X012352Y005685D01*
X014006Y005685D01*
X014062Y005685D01*
X015102Y006725D01*
X016698Y006725D01*
X016698Y003225D01*
D38*
X008632Y010475D02*
X008506Y010475D01*
X008506Y010350D01*
X005352Y014951D02*
X005352Y015350D01*
X005478Y015476D01*
X006102Y015476D01*
X006102Y016224D02*
X006102Y016225D01*
X006102Y016725D01*
X006352Y016975D01*
X006352Y017850D01*
X006102Y018100D01*
X006102Y018476D01*
X006102Y019224D02*
X005352Y019224D01*
X005226Y019350D01*
X004478Y019350D02*
X004478Y018475D01*
X004477Y018474D01*
X004477Y017975D01*
X004852Y017600D01*
X004852Y016999D01*
X005352Y016999D02*
X005352Y017225D01*
X005477Y017350D01*
X005852Y017350D01*
X005352Y017225D02*
X005352Y017725D01*
X005227Y017850D01*
X005227Y018474D01*
X005226Y018475D01*
X004352Y017475D02*
X004352Y016999D01*
X004352Y017475D02*
X003227Y018600D01*
X002726Y018600D01*
X002726Y019099D01*
X002852Y019225D01*
X002852Y019601D01*
X001978Y018600D02*
X001852Y018474D01*
X001852Y017599D01*
X001852Y016851D02*
X001899Y016804D01*
X001899Y016058D01*
X002453Y014951D02*
X002352Y014850D01*
X002352Y013892D01*
X002453Y014951D02*
X002852Y014951D01*
X002805Y014999D01*
X002805Y016058D01*
X002805Y016804D01*
X002852Y016851D01*
X002852Y017599D02*
X003728Y017599D01*
X003852Y017475D01*
X003852Y016999D01*
X003852Y016350D01*
X003978Y016224D01*
X006102Y016224D01*
X004352Y014225D02*
X004477Y014100D01*
X004352Y014225D02*
X004352Y014951D01*
X003852Y014951D02*
X002852Y014951D01*
X002227Y007630D02*
X001073Y007630D01*
X000977Y007725D01*
X000977Y024475D01*
X000977Y025725D01*
X001227Y025975D01*
X002977Y025975D01*
X006102Y029100D01*
X008977Y029100D01*
X009352Y029475D01*
X009352Y032975D01*
X009977Y033600D01*
X009977Y033726D01*
X010101Y033850D01*
X010101Y034600D01*
X010101Y035350D01*
X010101Y035849D01*
X010361Y036109D01*
X010361Y036444D01*
X009573Y036444D02*
X009573Y036071D01*
X009352Y035850D01*
X009352Y035351D01*
X009353Y035350D01*
X009353Y034600D01*
X009353Y033850D01*
X009352Y033849D01*
X009352Y033475D01*
X008977Y033100D01*
X008977Y029600D01*
X008852Y029475D01*
X005977Y029475D01*
X004977Y028475D01*
X004601Y028475D01*
X004601Y028224D01*
X002727Y026350D01*
X001602Y026350D01*
X001477Y026475D01*
X001477Y026850D01*
X000602Y025975D01*
X000602Y005600D01*
X000727Y005475D01*
X002102Y005475D01*
X002102Y005195D01*
X002227Y005070D01*
X009351Y023350D02*
X009727Y023350D01*
X010602Y024225D01*
X010602Y024624D01*
X010352Y024624D02*
X010352Y024475D01*
X009977Y024100D01*
X009351Y024100D01*
X011352Y023975D02*
X011477Y023850D01*
X011602Y023975D01*
X011602Y024624D01*
X011352Y024624D02*
X011352Y023975D01*
X014352Y023975D02*
X014477Y023850D01*
X014602Y023975D01*
X014602Y024624D01*
X014352Y024624D02*
X014352Y023975D01*
X015352Y024225D02*
X016227Y023350D01*
X016603Y023350D01*
X016603Y024100D02*
X015977Y024100D01*
X015602Y024475D01*
X015602Y024624D01*
X015352Y024624D02*
X015352Y024225D01*
X010102Y033849D02*
X010101Y033850D01*
X007365Y039988D02*
X006227Y039988D01*
X007365Y039988D02*
X007602Y040225D01*
X002227Y031600D02*
X000707Y031600D01*
X000707Y026350D01*
X002227Y026350D01*
X002227Y026449D01*
X002017Y026659D01*
X002017Y027041D01*
X002227Y027251D01*
X002227Y027449D01*
X002017Y027659D01*
X002017Y028041D01*
X002227Y028251D01*
X002227Y028449D01*
X002017Y028659D01*
X002017Y029041D01*
X002227Y029251D01*
X002227Y029449D01*
X002017Y029659D01*
X002017Y030041D01*
X002227Y030251D01*
X002227Y030449D01*
X002017Y030659D01*
X002017Y031041D01*
X002227Y031251D01*
X002227Y031600D01*
X002227Y031483D02*
X000707Y031483D01*
X000707Y031325D02*
X001273Y031325D01*
X001278Y031330D02*
X000997Y031049D01*
X000997Y030870D01*
X001457Y030870D01*
X001457Y030830D01*
X000997Y030830D01*
X000997Y030651D01*
X001278Y030370D01*
X001457Y030370D01*
X001457Y030830D01*
X001497Y030830D01*
X001497Y030370D01*
X001676Y030370D01*
X001957Y030651D01*
X001957Y030830D01*
X001497Y030830D01*
X001497Y030870D01*
X001457Y030870D01*
X001457Y031330D01*
X001278Y031330D01*
X001457Y031325D02*
X001497Y031325D01*
X001497Y031330D02*
X001497Y030870D01*
X001957Y030870D01*
X001957Y031049D01*
X001676Y031330D01*
X001497Y031330D01*
X001497Y031166D02*
X001457Y031166D01*
X001457Y031008D02*
X001497Y031008D01*
X001497Y030849D02*
X002017Y030849D01*
X002017Y030691D02*
X001957Y030691D01*
X001838Y030532D02*
X002144Y030532D01*
X002227Y030374D02*
X001679Y030374D01*
X001676Y030330D02*
X001497Y030330D01*
X001497Y029870D01*
X001457Y029870D01*
X001457Y029830D01*
X000997Y029830D01*
X000997Y029651D01*
X001278Y029370D01*
X001457Y029370D01*
X001457Y029830D01*
X001497Y029830D01*
X001497Y029370D01*
X001676Y029370D01*
X001957Y029651D01*
X001957Y029830D01*
X001497Y029830D01*
X001497Y029870D01*
X001957Y029870D01*
X001957Y030049D01*
X001676Y030330D01*
X001791Y030215D02*
X002192Y030215D01*
X002033Y030057D02*
X001949Y030057D01*
X001957Y029898D02*
X002017Y029898D01*
X002017Y029740D02*
X001957Y029740D01*
X001887Y029581D02*
X002095Y029581D01*
X002227Y029423D02*
X001728Y029423D01*
X001676Y029330D02*
X001497Y029330D01*
X001497Y028870D01*
X001457Y028870D01*
X001457Y028830D01*
X000997Y028830D01*
X000997Y028651D01*
X001278Y028370D01*
X001457Y028370D01*
X001457Y028830D01*
X001497Y028830D01*
X001497Y028370D01*
X001676Y028370D01*
X001957Y028651D01*
X001957Y028830D01*
X001497Y028830D01*
X001497Y028870D01*
X001957Y028870D01*
X001957Y029049D01*
X001676Y029330D01*
X001742Y029264D02*
X002227Y029264D01*
X002082Y029106D02*
X001900Y029106D01*
X001957Y028947D02*
X002017Y028947D01*
X002017Y028789D02*
X001957Y028789D01*
X001936Y028630D02*
X002046Y028630D01*
X002205Y028472D02*
X001777Y028472D01*
X001676Y028330D02*
X001497Y028330D01*
X001497Y027870D01*
X001457Y027870D01*
X001457Y027830D01*
X000997Y027830D01*
X000997Y027651D01*
X001278Y027370D01*
X001457Y027370D01*
X001457Y027830D01*
X001497Y027830D01*
X001497Y027370D01*
X001676Y027370D01*
X001957Y027651D01*
X001957Y027830D01*
X001497Y027830D01*
X001497Y027870D01*
X001957Y027870D01*
X001957Y028049D01*
X001676Y028330D01*
X001693Y028313D02*
X002227Y028313D01*
X002131Y028155D02*
X001851Y028155D01*
X001957Y027996D02*
X002017Y027996D01*
X002017Y027838D02*
X001497Y027838D01*
X001457Y027838D02*
X000707Y027838D01*
X000707Y027996D02*
X000997Y027996D01*
X000997Y028049D02*
X000997Y027870D01*
X001457Y027870D01*
X001457Y028330D01*
X001278Y028330D01*
X000997Y028049D01*
X001103Y028155D02*
X000707Y028155D01*
X000707Y028313D02*
X001261Y028313D01*
X001177Y028472D02*
X000707Y028472D01*
X000707Y028630D02*
X001018Y028630D01*
X000997Y028789D02*
X000707Y028789D01*
X000707Y028947D02*
X000997Y028947D01*
X000997Y028870D02*
X001457Y028870D01*
X001457Y029330D01*
X001278Y029330D01*
X000997Y029049D01*
X000997Y028870D01*
X001054Y029106D02*
X000707Y029106D01*
X000707Y029264D02*
X001212Y029264D01*
X001226Y029423D02*
X000707Y029423D01*
X000707Y029581D02*
X001067Y029581D01*
X000997Y029740D02*
X000707Y029740D01*
X000707Y029898D02*
X000997Y029898D01*
X000997Y029870D02*
X001457Y029870D01*
X001457Y030330D01*
X001278Y030330D01*
X000997Y030049D01*
X000997Y029870D01*
X001005Y030057D02*
X000707Y030057D01*
X000707Y030215D02*
X001163Y030215D01*
X001275Y030374D02*
X000707Y030374D01*
X000707Y030532D02*
X001116Y030532D01*
X000997Y030691D02*
X000707Y030691D01*
X000707Y030849D02*
X001457Y030849D01*
X001457Y030691D02*
X001497Y030691D01*
X001497Y030532D02*
X001457Y030532D01*
X001457Y030374D02*
X001497Y030374D01*
X001497Y030215D02*
X001457Y030215D01*
X001457Y030057D02*
X001497Y030057D01*
X001497Y029898D02*
X001457Y029898D01*
X001457Y029740D02*
X001497Y029740D01*
X001497Y029581D02*
X001457Y029581D01*
X001457Y029423D02*
X001497Y029423D01*
X001497Y029264D02*
X001457Y029264D01*
X001457Y029106D02*
X001497Y029106D01*
X001497Y028947D02*
X001457Y028947D01*
X001457Y028789D02*
X001497Y028789D01*
X001497Y028630D02*
X001457Y028630D01*
X001457Y028472D02*
X001497Y028472D01*
X001497Y028313D02*
X001457Y028313D01*
X001457Y028155D02*
X001497Y028155D01*
X001497Y027996D02*
X001457Y027996D01*
X001457Y027679D02*
X001497Y027679D01*
X001497Y027521D02*
X001457Y027521D01*
X001457Y027330D02*
X001278Y027330D01*
X000997Y027049D01*
X000997Y026870D01*
X001457Y026870D01*
X001457Y026830D01*
X000997Y026830D01*
X000997Y026651D01*
X001278Y026370D01*
X001457Y026370D01*
X001457Y026830D01*
X001497Y026830D01*
X001497Y026370D01*
X001676Y026370D01*
X001957Y026651D01*
X001957Y026830D01*
X001497Y026830D01*
X001497Y026870D01*
X001457Y026870D01*
X001457Y027330D01*
X001497Y027330D02*
X001497Y026870D01*
X001957Y026870D01*
X001957Y027049D01*
X001676Y027330D01*
X001497Y027330D01*
X001497Y027204D02*
X001457Y027204D01*
X001457Y027045D02*
X001497Y027045D01*
X001497Y026887D02*
X001457Y026887D01*
X001457Y026728D02*
X001497Y026728D01*
X001497Y026570D02*
X001457Y026570D01*
X001457Y026411D02*
X001497Y026411D01*
X001717Y026411D02*
X002227Y026411D01*
X002107Y026570D02*
X001875Y026570D01*
X001957Y026728D02*
X002017Y026728D01*
X002017Y026887D02*
X001957Y026887D01*
X001957Y027045D02*
X002022Y027045D01*
X002180Y027204D02*
X001802Y027204D01*
X001826Y027521D02*
X002156Y027521D01*
X002227Y027362D02*
X000707Y027362D01*
X000707Y027204D02*
X001152Y027204D01*
X000997Y027045D02*
X000707Y027045D01*
X000707Y026887D02*
X000997Y026887D01*
X000997Y026728D02*
X000707Y026728D01*
X000707Y026570D02*
X001079Y026570D01*
X001237Y026411D02*
X000707Y026411D01*
X000707Y027521D02*
X001128Y027521D01*
X000997Y027679D02*
X000707Y027679D01*
X001957Y027679D02*
X002017Y027679D01*
X001957Y031008D02*
X002017Y031008D01*
X002143Y031166D02*
X001840Y031166D01*
X001681Y031325D02*
X002227Y031325D01*
X001114Y031166D02*
X000707Y031166D01*
X000707Y031008D02*
X000997Y031008D01*
X004601Y030725D02*
X004601Y029975D01*
X004601Y029225D01*
X004601Y028475D01*
X018727Y043475D02*
X017977Y044225D01*
X018727Y043475D02*
X019227Y043475D01*
X019352Y043350D01*
X019352Y039725D01*
X019476Y039601D01*
X019852Y039601D01*
X022102Y038201D02*
X022102Y038100D01*
X026852Y038201D02*
X027352Y038201D01*
X025602Y024624D02*
X025602Y023725D01*
X025477Y023600D01*
X025352Y023725D01*
X025352Y024624D01*
X024352Y024624D02*
X024352Y023725D01*
X024477Y023600D01*
X023602Y023725D02*
X023602Y024624D01*
X023602Y023725D02*
X023477Y023600D01*
X022602Y023725D02*
X022477Y023600D01*
X022352Y023725D01*
X022352Y024624D01*
X022602Y024624D02*
X022602Y023725D01*
D39*
X019227Y020226D02*
X019227Y019350D01*
X028727Y019350D02*
X028727Y020226D01*
X019257Y003225D02*
X019257Y001255D01*
X018977Y000975D01*
X015852Y000975D01*
X015852Y001600D02*
X016727Y001600D01*
X016852Y001725D01*
X016852Y003100D01*
X016727Y003225D01*
X017977Y037600D02*
X017977Y039225D01*
X017977Y040350D01*
X018477Y039225D02*
X018477Y037600D01*
D40*
X014477Y008725D02*
X010852Y008725D01*
X010698Y008571D01*
X010698Y007811D01*
X014477Y008725D02*
X015102Y008100D01*
X019102Y008100D01*
X019227Y007975D01*
X019227Y006755D01*
X019257Y006725D01*
X019257Y003225D01*
D41*
X018396Y017293D02*
X018396Y022019D01*
X018727Y022350D01*
X018977Y022350D01*
X021227Y022350D01*
X022477Y023600D01*
X023477Y023600D02*
X023477Y023100D01*
X023477Y022850D01*
X021727Y021100D01*
X021727Y019600D01*
X022944Y018383D01*
X022944Y017293D01*
X024977Y017600D02*
X024977Y018350D01*
X026227Y019600D01*
X026227Y021100D01*
X024477Y022850D01*
X024477Y023100D01*
X024477Y023600D01*
X025477Y023600D02*
X026727Y022350D01*
X028977Y022350D01*
X029977Y022350D01*
X030444Y021883D01*
X030444Y017293D01*
X025896Y017293D02*
X025284Y017293D01*
X024977Y017600D01*
D42*
X025010Y013907D02*
X025010Y011067D01*
X025227Y010850D01*
X022977Y011100D02*
X022977Y013850D01*
X022920Y013907D01*
X022058Y013907D01*
X022977Y011100D02*
X022727Y010850D01*
X017727Y010850D02*
X017510Y011067D01*
X017510Y013907D01*
X015477Y013850D02*
X015477Y011100D01*
X015227Y010850D01*
X015477Y013850D02*
X014615Y013850D01*
X014558Y013907D01*
X010227Y010850D02*
X010010Y011067D01*
X010010Y013907D01*
X029227Y013850D02*
X029284Y013907D01*
X029558Y013907D01*
X029227Y013850D02*
X030477Y013850D01*
X030477Y011100D01*
X030227Y010850D01*
D43*
X030227Y007975D01*
X030102Y007850D01*
X026381Y007850D01*
X023073Y007811D02*
X023073Y009379D01*
X022602Y009850D01*
X015352Y009850D01*
X015227Y009975D01*
X015227Y010850D01*
X014477Y009850D02*
X010477Y009850D01*
X010227Y010100D01*
X010227Y010850D01*
X014477Y009850D02*
X015102Y009225D01*
X021727Y009225D01*
X021977Y008975D01*
X021977Y006350D01*
X022642Y005685D01*
X023073Y005685D01*
M02*
