M48
INCH,TZ
T10C0.024
T11C0.071
T12C0.118
T13C0.142
%
T10
X004495Y003850
X006495Y003850
X008495Y012600
X008495Y013350
X008495Y014100
X007495Y014100
X007495Y013350
X006745Y014350
X006745Y014850
X006745Y015350
X006245Y016100
X004495Y016600
X004495Y013600
X004995Y013600
X005495Y013600
X005995Y013600
X003995Y013600
X008495Y016850
X008495Y018600
X008495Y019350
X008495Y020100
X007495Y020100
X007495Y019350
X006745Y020350
X006745Y020850
X006745Y021350
X006245Y022100
X006245Y024350
X005495Y024350
X004745Y024350
X003995Y024350
X003245Y024350
X003245Y025100
X002495Y024350
X001745Y024350
X001745Y025100
X000995Y027350
X002245Y030600
X005495Y028100
X007245Y028350
X008995Y028100
X009745Y028600
X010245Y028600
X010745Y028600
X010745Y027600
X010745Y027100
X010745Y026600
X010745Y026100
X010245Y026100
X010245Y026600
X010245Y027100
X010245Y027600
X009745Y027600
X009745Y027100
X009745Y026600
X009745Y026100
X008995Y026100
X008995Y026850
X008245Y026100
X007495Y026100
X006745Y026100
X005995Y026100
X006995Y024350
X007745Y024350
X008495Y024350
X009245Y024350
X009995Y024350
X010745Y024350
X011495Y024350
X012245Y024350
X012995Y024350
X013745Y024350
X014495Y024350
X014495Y025100
X014495Y026100
X013745Y026100
X012995Y026100
X012245Y026100
X011495Y026100
X011495Y026850
X011495Y027600
X013995Y029600
X015745Y029600
X015745Y029100
X015745Y028600
X016745Y028600
X016745Y029100
X016745Y029600
X016745Y030100
X016745Y030600
X016745Y031100
X016745Y031850
X017245Y031850
X017245Y032350
X017245Y032850
X016745Y032850
X016745Y032350
X016245Y032350
X016245Y031850
X015745Y031850
X015745Y032350
X015745Y032850
X016245Y032850
X016245Y033350
X016745Y033350
X017245Y033350
X017745Y033350
X017745Y032850
X017745Y032350
X017745Y031850
X018495Y031850
X018495Y032350
X018495Y032850
X018995Y032850
X018995Y032350
X018995Y031850
X018995Y033350
X018495Y033350
X019745Y033600
X020245Y033600
X020995Y033350
X021495Y033350
X021495Y032850
X021495Y032350
X021495Y031850
X020995Y031850
X020995Y032350
X020995Y032850
X022995Y032850
X022995Y032350
X022995Y031850
X023495Y031850
X023495Y032350
X023495Y032850
X023495Y033350
X022995Y033350
X024245Y033600
X024745Y033600
X025495Y033350
X025995Y033350
X025995Y032850
X025995Y032350
X025995Y031850
X025495Y031850
X025495Y032350
X025495Y032850
X025495Y035100
X025495Y035600
X025995Y035600
X025995Y035100
X026745Y037600
X027245Y037600
X027245Y038100
X027245Y038600
X026745Y038600
X026745Y038100
X025245Y038100
X025245Y038600
X024745Y038600
X024745Y038100
X024745Y037600
X025245Y037600
X023495Y036600
X023495Y036100
X023495Y035600
X023495Y035100
X022995Y035100
X022995Y035600
X022495Y035600
X022495Y035100
X021995Y035100
X021995Y035600
X021495Y035600
X021495Y035100
X020995Y035100
X020995Y035600
X021995Y036100
X021995Y036600
X022495Y036600
X022995Y036600
X022995Y036100
X022495Y036100
X022495Y037600
X022495Y038100
X022495Y038600
X021995Y038600
X021995Y038100
X021995Y037600
X020495Y037600
X020495Y038100
X020495Y038600
X019495Y038600
X019495Y038100
X019495Y037600
X017995Y037600
X017995Y038100
X017995Y038600
X017495Y036350
X017495Y035850
X017995Y035600
X017995Y035100
X018495Y035100
X018495Y035600
X018995Y035600
X018995Y035100
X016995Y035850
X016995Y036350
X016495Y036350
X016495Y035850
X015995Y035850
X015995Y036350
X015245Y037350
X015245Y038100
X013495Y039100
X012995Y039100
X012245Y036850
X012245Y036350
X012245Y035850
X012245Y035350
X012245Y034850
X012245Y034350
X012245Y033850
X012245Y033350
X012245Y032600
X012250Y032595
X011495Y032350
X011495Y031850
X010995Y031850
X010995Y032350
X010995Y032850
X011495Y032850
X011495Y033350
X010995Y033350
X010245Y032600
X010245Y031850
X009495Y031850
X009495Y032600
X008745Y032600
X008745Y031850
X007995Y031850
X007995Y032600
X007245Y032600
X007245Y031850
X006495Y031850
X006495Y032600
X010745Y031100
X015745Y031100
X015745Y030600
X015745Y030100
X016995Y027600
X018745Y028850
X019245Y025600
X021745Y024850
X021745Y024100
X022495Y024100
X022495Y024850
X022995Y025350
X023495Y025350
X023995Y025350
X022245Y026100
X022245Y026600
X022245Y027100
X022245Y027600
X022245Y028100
X018245Y020850
X018245Y020350
X017745Y020350
X017745Y020850
X020995Y018600
X020995Y018100
X022495Y016850
X022495Y016350
X021495Y015850
X021495Y015350
X021495Y014850
X020245Y013600
X020745Y013100
X020745Y012600
X020745Y012100
X020745Y011600
X021745Y011600
X020495Y010600
X019995Y010600
X019995Y009100
X020495Y009100
X020495Y008600
X019995Y008600
X020245Y006850
X018745Y006100
X017745Y005100
X015745Y011600
X015495Y015350
X011745Y017600
X010745Y017600
X012495Y020100
X012495Y020600
X009495Y021850
X005995Y019600
X005495Y019600
X004995Y019600
X004495Y019600
X003995Y019600
X015745Y033350
X005245Y038350
X005245Y038850
X004495Y038600
X023995Y017350
X023995Y016850
X024495Y016850
X024495Y017350
X024995Y017350
X025245Y014600
X025245Y014100
X025245Y013600
X023745Y011600
X023745Y009600
T11
X023091Y007811
X024745Y007850
X026398Y007850
X026398Y005685
X024745Y005685
X023091Y005685
X014648Y005685
X012995Y005685
X012995Y007850
X014648Y007850
X011341Y007811
X011341Y005685
X008898Y005685
X008898Y007850
X007245Y007850
X005591Y007811
X005591Y005685
X007245Y005685
T12
X008898Y002811
X011341Y002811
X014648Y002811
X023091Y002811
X026398Y002811
X005591Y002811
T13
X002245Y002100
X029495Y002100
X029495Y037600
X002245Y037600
M30

