G75*
G70*
%OFA0B0*%
%FSLAX24Y24*%
%IPPOS*%
%LPD*%
%AMOC8*
5,1,8,0,0,1.08239X$1,22.5*
%
%ADD10C,0.0040*%
%ADD11R,0.1181X0.1654*%
%ADD12R,0.3744X0.0937*%
%ADD13R,0.0295X0.0266*%
%ADD14R,0.0258X0.0266*%
%ADD15R,0.1691X0.1776*%
%ADD16R,0.0709X0.1260*%
%ADD17R,0.0512X0.0591*%
%ADD18R,0.0591X0.0512*%
%ADD19R,0.0630X0.0512*%
%ADD20R,0.0709X0.0630*%
%ADD21R,0.0591X0.0472*%
%ADD22R,0.0984X0.1693*%
%ADD23R,0.0630X0.1181*%
%ADD24C,0.1063*%
%ADD25C,0.0057*%
%ADD26R,0.1280X0.0984*%
%ADD27R,0.0630X0.0709*%
%ADD28R,0.0984X0.1280*%
%ADD29R,0.0512X0.0630*%
%ADD30R,0.0140X0.0780*%
%ADD31R,0.0283X0.0701*%
%ADD32R,0.0160X0.0220*%
%ADD33R,0.1260X0.0709*%
%ADD34R,0.0945X0.0945*%
%ADD35R,0.1516X0.2165*%
%ADD36R,0.0472X0.0709*%
%ADD37R,0.0500X0.1000*%
%ADD38R,0.0394X0.0551*%
%ADD39R,0.1181X0.0630*%
%ADD40R,0.1000X0.0500*%
%ADD41C,0.0160*%
%ADD42R,0.0396X0.0396*%
%ADD43C,0.0660*%
%ADD44C,0.0120*%
%ADD45C,0.0240*%
%ADD46C,0.0560*%
%ADD47C,0.0400*%
%ADD48C,0.0320*%
%ADD49C,0.0100*%
%ADD50C,0.0500*%
%ADD51C,0.0700*%
%ADD52C,0.1000*%
D10*
X008846Y028638D02*
X009372Y028638D01*
X008846Y028638D02*
X008846Y028758D01*
X009372Y028758D01*
X009372Y028638D01*
X009372Y028677D02*
X008846Y028677D01*
X008846Y028716D02*
X009372Y028716D01*
X009372Y028755D02*
X008846Y028755D01*
X008846Y028894D02*
X009372Y028894D01*
X008846Y028894D02*
X008846Y029014D01*
X009372Y029014D01*
X009372Y028894D01*
X009372Y028933D02*
X008846Y028933D01*
X008846Y028972D02*
X009372Y028972D01*
X009372Y029011D02*
X008846Y029011D01*
X008846Y029150D02*
X009372Y029150D01*
X008846Y029150D02*
X008846Y029270D01*
X009372Y029270D01*
X009372Y029150D01*
X009372Y029189D02*
X008846Y029189D01*
X008846Y029228D02*
X009372Y029228D01*
X009372Y029267D02*
X008846Y029267D01*
X008846Y029406D02*
X009372Y029406D01*
X008846Y029406D02*
X008846Y029526D01*
X009372Y029526D01*
X009372Y029406D01*
X009372Y029445D02*
X008846Y029445D01*
X008846Y029484D02*
X009372Y029484D01*
X009372Y029523D02*
X008846Y029523D01*
X008846Y029662D02*
X009372Y029662D01*
X008846Y029662D02*
X008846Y029782D01*
X009372Y029782D01*
X009372Y029662D01*
X009372Y029701D02*
X008846Y029701D01*
X008846Y029740D02*
X009372Y029740D01*
X009372Y029779D02*
X008846Y029779D01*
X008846Y029918D02*
X009372Y029918D01*
X008846Y029918D02*
X008846Y030038D01*
X009372Y030038D01*
X009372Y029918D01*
X009372Y029957D02*
X008846Y029957D01*
X008846Y029996D02*
X009372Y029996D01*
X009372Y030035D02*
X008846Y030035D01*
X008846Y030174D02*
X009372Y030174D01*
X008846Y030174D02*
X008846Y030294D01*
X009372Y030294D01*
X009372Y030174D01*
X009372Y030213D02*
X008846Y030213D01*
X008846Y030252D02*
X009372Y030252D01*
X009372Y030291D02*
X008846Y030291D01*
X008846Y030430D02*
X009372Y030430D01*
X008846Y030430D02*
X008846Y030550D01*
X009372Y030550D01*
X009372Y030430D01*
X009372Y030469D02*
X008846Y030469D01*
X008846Y030508D02*
X009372Y030508D01*
X009372Y030547D02*
X008846Y030547D01*
X008846Y030686D02*
X009372Y030686D01*
X008846Y030686D02*
X008846Y030806D01*
X009372Y030806D01*
X009372Y030686D01*
X009372Y030725D02*
X008846Y030725D01*
X008846Y030764D02*
X009372Y030764D01*
X009372Y030803D02*
X008846Y030803D01*
X008846Y030942D02*
X009372Y030942D01*
X008846Y030942D02*
X008846Y031062D01*
X009372Y031062D01*
X009372Y030942D01*
X009372Y030981D02*
X008846Y030981D01*
X008846Y031020D02*
X009372Y031020D01*
X009372Y031059D02*
X008846Y031059D01*
X011118Y030942D02*
X011644Y030942D01*
X011118Y030942D02*
X011118Y031062D01*
X011644Y031062D01*
X011644Y030942D01*
X011644Y030981D02*
X011118Y030981D01*
X011118Y031020D02*
X011644Y031020D01*
X011644Y031059D02*
X011118Y031059D01*
X011118Y030686D02*
X011644Y030686D01*
X011118Y030686D02*
X011118Y030806D01*
X011644Y030806D01*
X011644Y030686D01*
X011644Y030725D02*
X011118Y030725D01*
X011118Y030764D02*
X011644Y030764D01*
X011644Y030803D02*
X011118Y030803D01*
X011118Y030430D02*
X011644Y030430D01*
X011118Y030430D02*
X011118Y030550D01*
X011644Y030550D01*
X011644Y030430D01*
X011644Y030469D02*
X011118Y030469D01*
X011118Y030508D02*
X011644Y030508D01*
X011644Y030547D02*
X011118Y030547D01*
X011118Y030174D02*
X011644Y030174D01*
X011118Y030174D02*
X011118Y030294D01*
X011644Y030294D01*
X011644Y030174D01*
X011644Y030213D02*
X011118Y030213D01*
X011118Y030252D02*
X011644Y030252D01*
X011644Y030291D02*
X011118Y030291D01*
X011118Y029918D02*
X011644Y029918D01*
X011118Y029918D02*
X011118Y030038D01*
X011644Y030038D01*
X011644Y029918D01*
X011644Y029957D02*
X011118Y029957D01*
X011118Y029996D02*
X011644Y029996D01*
X011644Y030035D02*
X011118Y030035D01*
X011118Y029662D02*
X011644Y029662D01*
X011118Y029662D02*
X011118Y029782D01*
X011644Y029782D01*
X011644Y029662D01*
X011644Y029701D02*
X011118Y029701D01*
X011118Y029740D02*
X011644Y029740D01*
X011644Y029779D02*
X011118Y029779D01*
X011118Y029406D02*
X011644Y029406D01*
X011118Y029406D02*
X011118Y029526D01*
X011644Y029526D01*
X011644Y029406D01*
X011644Y029445D02*
X011118Y029445D01*
X011118Y029484D02*
X011644Y029484D01*
X011644Y029523D02*
X011118Y029523D01*
X011118Y029150D02*
X011644Y029150D01*
X011118Y029150D02*
X011118Y029270D01*
X011644Y029270D01*
X011644Y029150D01*
X011644Y029189D02*
X011118Y029189D01*
X011118Y029228D02*
X011644Y029228D01*
X011644Y029267D02*
X011118Y029267D01*
X011118Y028894D02*
X011644Y028894D01*
X011118Y028894D02*
X011118Y029014D01*
X011644Y029014D01*
X011644Y028894D01*
X011644Y028933D02*
X011118Y028933D01*
X011118Y028972D02*
X011644Y028972D01*
X011644Y029011D02*
X011118Y029011D01*
X011118Y028638D02*
X011644Y028638D01*
X011118Y028638D02*
X011118Y028758D01*
X011644Y028758D01*
X011644Y028638D01*
X011644Y028677D02*
X011118Y028677D01*
X011118Y028716D02*
X011644Y028716D01*
X011644Y028755D02*
X011118Y028755D01*
D11*
X010245Y029850D03*
D12*
X008495Y033541D03*
X008495Y036159D03*
D13*
X012902Y034105D03*
X012902Y033610D03*
X012902Y033090D03*
X012902Y032595D03*
X015088Y035095D03*
X015088Y035590D03*
X015088Y036110D03*
X015088Y036605D03*
D14*
X015088Y034105D03*
X015088Y033610D03*
X015088Y033090D03*
X015088Y032595D03*
X012902Y035095D03*
X012902Y035590D03*
X012902Y036110D03*
X012902Y036605D03*
D15*
X013876Y035850D03*
X014113Y033350D03*
D16*
X014347Y038100D03*
X012143Y038100D03*
X028393Y014350D03*
X030597Y014350D03*
D17*
X018119Y026850D03*
X017371Y026850D03*
X016369Y026850D03*
X015621Y026850D03*
X015621Y027850D03*
X016369Y027850D03*
X017371Y029600D03*
X018119Y029600D03*
X018119Y030600D03*
X017371Y030600D03*
X014619Y027850D03*
X013871Y027850D03*
X013871Y026850D03*
X014619Y026850D03*
X004869Y028100D03*
X004121Y028100D03*
X004121Y028850D03*
X004869Y028850D03*
X004869Y029850D03*
X004121Y029850D03*
X004121Y030850D03*
X004869Y030850D03*
D18*
X005745Y030724D03*
X005745Y029976D03*
X005995Y027474D03*
X005995Y026726D03*
X006745Y026726D03*
X006745Y027474D03*
X007495Y027474D03*
X007495Y026726D03*
X008245Y026726D03*
X008245Y027474D03*
X012245Y027474D03*
X012245Y026726D03*
X012995Y026726D03*
X012995Y027474D03*
X012745Y030976D03*
X012745Y031724D03*
X011495Y034226D03*
X011495Y034974D03*
X015995Y037226D03*
X015995Y037974D03*
X016995Y037974D03*
X016995Y037226D03*
X017245Y034974D03*
X017245Y034226D03*
X016245Y034226D03*
X016245Y034974D03*
X003245Y028224D03*
X003245Y027476D03*
X003245Y026474D03*
X003245Y025726D03*
X001745Y025726D03*
X001745Y026474D03*
X020745Y017224D03*
X020745Y016476D03*
X020745Y015474D03*
X020745Y014726D03*
X021745Y012974D03*
X021745Y012226D03*
X022995Y010474D03*
X022995Y009726D03*
X024495Y009726D03*
X024495Y010474D03*
X024745Y011476D03*
X024745Y012224D03*
X025495Y010474D03*
X025495Y009726D03*
D19*
X007495Y011476D03*
X007495Y012224D03*
X006495Y012224D03*
X006495Y011476D03*
X006495Y017476D03*
X006495Y018224D03*
X007495Y018224D03*
X007495Y017476D03*
X011495Y035976D03*
X011495Y036724D03*
D20*
X014995Y029901D03*
X014995Y028799D03*
X008495Y021901D03*
X007495Y021901D03*
X007495Y020799D03*
X008495Y020799D03*
X005495Y018651D03*
X004495Y018651D03*
X004495Y017549D03*
X005495Y017549D03*
X004495Y015651D03*
X004495Y014549D03*
X004495Y012651D03*
X004495Y011549D03*
X005495Y011549D03*
X005495Y012651D03*
X007495Y014799D03*
X008495Y014799D03*
X008495Y015901D03*
X007495Y015901D03*
X004495Y020549D03*
X004495Y021651D03*
X022245Y015151D03*
X022245Y014049D03*
D21*
X014816Y030850D03*
X013674Y030850D03*
D22*
X019995Y032216D03*
X019995Y035484D03*
X024495Y035484D03*
X024495Y032216D03*
D23*
X025995Y036734D03*
X025995Y038466D03*
X021245Y038466D03*
X021245Y036734D03*
X018745Y036734D03*
X018745Y038466D03*
D24*
X014648Y007850D03*
X012995Y007850D03*
X012995Y005685D03*
X014648Y005685D03*
X011341Y005685D03*
X011341Y007811D03*
X008898Y007850D03*
X008898Y005685D03*
X007245Y005685D03*
X005591Y005685D03*
X005591Y007811D03*
X007245Y007850D03*
X023091Y007811D03*
X024745Y007850D03*
X026398Y007850D03*
X026398Y005685D03*
X024745Y005685D03*
X023091Y005685D03*
D25*
X023211Y025890D02*
X022791Y025890D01*
X022791Y026062D01*
X023211Y026062D01*
X023211Y025890D01*
X023211Y025946D02*
X022791Y025946D01*
X022791Y026002D02*
X023211Y026002D01*
X023211Y026058D02*
X022791Y026058D01*
X022791Y026264D02*
X023211Y026264D01*
X022791Y026264D02*
X022791Y026436D01*
X023211Y026436D01*
X023211Y026264D01*
X023211Y026320D02*
X022791Y026320D01*
X022791Y026376D02*
X023211Y026376D01*
X023211Y026432D02*
X022791Y026432D01*
X022791Y026638D02*
X023211Y026638D01*
X022791Y026638D02*
X022791Y026810D01*
X023211Y026810D01*
X023211Y026638D01*
X023211Y026694D02*
X022791Y026694D01*
X022791Y026750D02*
X023211Y026750D01*
X023211Y026806D02*
X022791Y026806D01*
X023779Y026638D02*
X024199Y026638D01*
X023779Y026638D02*
X023779Y026810D01*
X024199Y026810D01*
X024199Y026638D01*
X024199Y026694D02*
X023779Y026694D01*
X023779Y026750D02*
X024199Y026750D01*
X024199Y026806D02*
X023779Y026806D01*
X023779Y026264D02*
X024199Y026264D01*
X023779Y026264D02*
X023779Y026436D01*
X024199Y026436D01*
X024199Y026264D01*
X024199Y026320D02*
X023779Y026320D01*
X023779Y026376D02*
X024199Y026376D01*
X024199Y026432D02*
X023779Y026432D01*
X023779Y025890D02*
X024199Y025890D01*
X023779Y025890D02*
X023779Y026062D01*
X024199Y026062D01*
X024199Y025890D01*
X024199Y025946D02*
X023779Y025946D01*
X023779Y026002D02*
X024199Y026002D01*
X024199Y026058D02*
X023779Y026058D01*
X006205Y021554D02*
X006205Y021134D01*
X006033Y021134D01*
X006033Y021554D01*
X006205Y021554D01*
X006205Y021190D02*
X006033Y021190D01*
X006033Y021246D02*
X006205Y021246D01*
X006205Y021302D02*
X006033Y021302D01*
X006033Y021358D02*
X006205Y021358D01*
X006205Y021414D02*
X006033Y021414D01*
X006033Y021470D02*
X006205Y021470D01*
X006205Y021526D02*
X006033Y021526D01*
X005831Y021554D02*
X005831Y021134D01*
X005659Y021134D01*
X005659Y021554D01*
X005831Y021554D01*
X005831Y021190D02*
X005659Y021190D01*
X005659Y021246D02*
X005831Y021246D01*
X005831Y021302D02*
X005659Y021302D01*
X005659Y021358D02*
X005831Y021358D01*
X005831Y021414D02*
X005659Y021414D01*
X005659Y021470D02*
X005831Y021470D01*
X005831Y021526D02*
X005659Y021526D01*
X005457Y021554D02*
X005457Y021134D01*
X005285Y021134D01*
X005285Y021554D01*
X005457Y021554D01*
X005457Y021190D02*
X005285Y021190D01*
X005285Y021246D02*
X005457Y021246D01*
X005457Y021302D02*
X005285Y021302D01*
X005285Y021358D02*
X005457Y021358D01*
X005457Y021414D02*
X005285Y021414D01*
X005285Y021470D02*
X005457Y021470D01*
X005457Y021526D02*
X005285Y021526D01*
X005457Y020566D02*
X005457Y020146D01*
X005285Y020146D01*
X005285Y020566D01*
X005457Y020566D01*
X005457Y020202D02*
X005285Y020202D01*
X005285Y020258D02*
X005457Y020258D01*
X005457Y020314D02*
X005285Y020314D01*
X005285Y020370D02*
X005457Y020370D01*
X005457Y020426D02*
X005285Y020426D01*
X005285Y020482D02*
X005457Y020482D01*
X005457Y020538D02*
X005285Y020538D01*
X005831Y020566D02*
X005831Y020146D01*
X005659Y020146D01*
X005659Y020566D01*
X005831Y020566D01*
X005831Y020202D02*
X005659Y020202D01*
X005659Y020258D02*
X005831Y020258D01*
X005831Y020314D02*
X005659Y020314D01*
X005659Y020370D02*
X005831Y020370D01*
X005831Y020426D02*
X005659Y020426D01*
X005659Y020482D02*
X005831Y020482D01*
X005831Y020538D02*
X005659Y020538D01*
X006205Y020566D02*
X006205Y020146D01*
X006033Y020146D01*
X006033Y020566D01*
X006205Y020566D01*
X006205Y020202D02*
X006033Y020202D01*
X006033Y020258D02*
X006205Y020258D01*
X006205Y020314D02*
X006033Y020314D01*
X006033Y020370D02*
X006205Y020370D01*
X006205Y020426D02*
X006033Y020426D01*
X006033Y020482D02*
X006205Y020482D01*
X006205Y020538D02*
X006033Y020538D01*
X006205Y015554D02*
X006205Y015134D01*
X006033Y015134D01*
X006033Y015554D01*
X006205Y015554D01*
X006205Y015190D02*
X006033Y015190D01*
X006033Y015246D02*
X006205Y015246D01*
X006205Y015302D02*
X006033Y015302D01*
X006033Y015358D02*
X006205Y015358D01*
X006205Y015414D02*
X006033Y015414D01*
X006033Y015470D02*
X006205Y015470D01*
X006205Y015526D02*
X006033Y015526D01*
X005831Y015554D02*
X005831Y015134D01*
X005659Y015134D01*
X005659Y015554D01*
X005831Y015554D01*
X005831Y015190D02*
X005659Y015190D01*
X005659Y015246D02*
X005831Y015246D01*
X005831Y015302D02*
X005659Y015302D01*
X005659Y015358D02*
X005831Y015358D01*
X005831Y015414D02*
X005659Y015414D01*
X005659Y015470D02*
X005831Y015470D01*
X005831Y015526D02*
X005659Y015526D01*
X005457Y015554D02*
X005457Y015134D01*
X005285Y015134D01*
X005285Y015554D01*
X005457Y015554D01*
X005457Y015190D02*
X005285Y015190D01*
X005285Y015246D02*
X005457Y015246D01*
X005457Y015302D02*
X005285Y015302D01*
X005285Y015358D02*
X005457Y015358D01*
X005457Y015414D02*
X005285Y015414D01*
X005285Y015470D02*
X005457Y015470D01*
X005457Y015526D02*
X005285Y015526D01*
X005457Y014566D02*
X005457Y014146D01*
X005285Y014146D01*
X005285Y014566D01*
X005457Y014566D01*
X005457Y014202D02*
X005285Y014202D01*
X005285Y014258D02*
X005457Y014258D01*
X005457Y014314D02*
X005285Y014314D01*
X005285Y014370D02*
X005457Y014370D01*
X005457Y014426D02*
X005285Y014426D01*
X005285Y014482D02*
X005457Y014482D01*
X005457Y014538D02*
X005285Y014538D01*
X005831Y014566D02*
X005831Y014146D01*
X005659Y014146D01*
X005659Y014566D01*
X005831Y014566D01*
X005831Y014202D02*
X005659Y014202D01*
X005659Y014258D02*
X005831Y014258D01*
X005831Y014314D02*
X005659Y014314D01*
X005659Y014370D02*
X005831Y014370D01*
X005831Y014426D02*
X005659Y014426D01*
X005659Y014482D02*
X005831Y014482D01*
X005831Y014538D02*
X005659Y014538D01*
X006205Y014566D02*
X006205Y014146D01*
X006033Y014146D01*
X006033Y014566D01*
X006205Y014566D01*
X006205Y014202D02*
X006033Y014202D01*
X006033Y014258D02*
X006205Y014258D01*
X006205Y014314D02*
X006033Y014314D01*
X006033Y014370D02*
X006205Y014370D01*
X006205Y014426D02*
X006033Y014426D01*
X006033Y014482D02*
X006205Y014482D01*
X006205Y014538D02*
X006033Y014538D01*
D26*
X002245Y014781D03*
X002245Y012419D03*
X002245Y010531D03*
X002245Y008169D03*
X002245Y018419D03*
X002245Y020781D03*
X010995Y014781D03*
X010995Y012419D03*
X014245Y012419D03*
X014245Y014781D03*
D27*
X014796Y010850D03*
X014796Y009850D03*
X013694Y009850D03*
X013694Y010850D03*
X011546Y010850D03*
X011546Y009850D03*
X010444Y009850D03*
X010444Y010850D03*
X002796Y006850D03*
X002796Y005850D03*
X001694Y005850D03*
X001694Y006850D03*
X018694Y011600D03*
X018694Y012600D03*
X019796Y012600D03*
X019796Y011600D03*
X020296Y018350D03*
X020296Y019350D03*
X019194Y019350D03*
X019194Y018350D03*
X023444Y023600D03*
X023444Y024600D03*
X024546Y024600D03*
X024546Y023600D03*
X024296Y027600D03*
X023194Y027600D03*
X021296Y027600D03*
X021296Y026600D03*
X020194Y026600D03*
X020194Y027600D03*
X026194Y014600D03*
X026194Y013600D03*
X027296Y013600D03*
X027296Y014600D03*
D28*
X023426Y029850D03*
X021064Y029850D03*
D29*
X020869Y025600D03*
X020869Y024600D03*
X020121Y024600D03*
X020121Y025600D03*
D30*
X022870Y015820D03*
X023120Y015820D03*
X023370Y015820D03*
X023620Y015820D03*
X023870Y015820D03*
X024120Y015820D03*
X024370Y015820D03*
X024620Y015820D03*
X024620Y013880D03*
X024370Y013880D03*
X024120Y013880D03*
X023870Y013880D03*
X023620Y013880D03*
X023370Y013880D03*
X023120Y013880D03*
X022870Y013880D03*
D31*
X022745Y018099D03*
X023245Y018099D03*
X022245Y018099D03*
X021745Y018099D03*
X021745Y020101D03*
X022245Y020101D03*
X022745Y020101D03*
X023245Y020101D03*
D32*
X019629Y014140D03*
X019373Y014140D03*
X019117Y014140D03*
X018861Y014140D03*
X018861Y013560D03*
X019117Y013560D03*
X019373Y013560D03*
X019629Y013560D03*
D33*
X019245Y014998D03*
X019245Y017202D03*
D34*
X024495Y018234D03*
X024495Y019966D03*
X027379Y032100D03*
X027379Y033850D03*
X029111Y033850D03*
X029111Y032100D03*
D35*
X030204Y017850D03*
X026286Y017850D03*
D36*
X018745Y008190D03*
X018745Y007010D03*
D37*
X019245Y003850D03*
X018245Y003850D03*
X018245Y001350D03*
X019245Y001350D03*
X020245Y001350D03*
X021245Y001350D03*
X020245Y003850D03*
X017245Y001350D03*
D38*
X004869Y026417D03*
X004121Y026417D03*
X004495Y027283D03*
X002369Y027417D03*
X001621Y027417D03*
X001995Y028283D03*
X017371Y028783D03*
X017745Y027917D03*
X018119Y028783D03*
D39*
X018379Y009850D03*
X020111Y009850D03*
D40*
X001245Y031850D03*
X001245Y032850D03*
D41*
X002495Y032850D01*
X003370Y031975D01*
X002245Y031600D02*
X002245Y030600D01*
X002245Y031600D02*
X001995Y031850D01*
X001245Y031850D01*
X002387Y027435D02*
X002746Y027435D01*
X002746Y027481D01*
X002750Y027478D01*
X002750Y027137D01*
X002867Y027020D01*
X002985Y027020D01*
X002985Y026930D01*
X002867Y026930D01*
X002750Y026813D01*
X002750Y026135D01*
X002801Y026084D01*
X002782Y026051D01*
X002770Y026006D01*
X002770Y025774D01*
X003197Y025774D01*
X003197Y025678D01*
X003293Y025678D01*
X003293Y025774D01*
X003720Y025774D01*
X003720Y026006D01*
X003708Y026051D01*
X003689Y026084D01*
X003724Y026119D01*
X003724Y026058D01*
X003841Y025941D01*
X004401Y025941D01*
X004514Y026055D01*
X004528Y026031D01*
X004562Y025997D01*
X004603Y025974D01*
X004648Y025961D01*
X004850Y025961D01*
X004850Y026398D01*
X004887Y026398D01*
X004887Y025961D01*
X005089Y025961D01*
X005135Y025974D01*
X005176Y025997D01*
X005210Y026031D01*
X005233Y026072D01*
X005246Y026118D01*
X005246Y026399D01*
X004887Y026399D01*
X004887Y026435D01*
X004850Y026435D01*
X004850Y026873D01*
X004840Y026873D01*
X004892Y026925D01*
X004892Y027312D01*
X005016Y027437D01*
X005089Y027510D01*
X005127Y027600D01*
X005500Y027600D01*
X005500Y027135D01*
X005551Y027084D01*
X005532Y027051D01*
X005520Y027006D01*
X005520Y026774D01*
X005947Y026774D01*
X005947Y026678D01*
X006043Y026678D01*
X006043Y026774D01*
X006697Y026774D01*
X006697Y026678D01*
X006793Y026678D01*
X006793Y026774D01*
X007447Y026774D01*
X007447Y026678D01*
X007543Y026678D01*
X007543Y026774D01*
X007970Y026774D01*
X008197Y026774D01*
X008197Y026678D01*
X008293Y026678D01*
X008293Y026774D01*
X008720Y026774D01*
X008720Y027006D01*
X008708Y027051D01*
X008689Y027084D01*
X008740Y027135D01*
X008740Y027600D01*
X009495Y027600D01*
X009495Y028449D01*
X009593Y028547D01*
X009593Y028850D01*
X009605Y028850D01*
X009631Y028843D01*
X010165Y028843D01*
X010165Y028850D01*
X010325Y028850D01*
X010325Y028843D01*
X010859Y028843D01*
X010884Y028850D01*
X010897Y028850D01*
X010897Y028547D01*
X010995Y028449D01*
X010995Y027100D01*
X011785Y027100D01*
X011801Y027084D01*
X011782Y027051D01*
X011770Y027006D01*
X011770Y026774D01*
X012197Y026774D01*
X012197Y026678D01*
X012293Y026678D01*
X012293Y026774D01*
X012947Y026774D01*
X012947Y026678D01*
X013043Y026678D01*
X013043Y026290D01*
X013314Y026290D01*
X013347Y026299D01*
X013347Y025819D01*
X013464Y025702D01*
X014026Y025702D01*
X014120Y025796D01*
X014214Y025702D01*
X014745Y025702D01*
X014745Y024100D01*
X001495Y024100D01*
X001495Y025290D01*
X001697Y025290D01*
X001697Y025678D01*
X001793Y025678D01*
X001793Y025774D01*
X002220Y025774D01*
X002220Y026006D01*
X002208Y026051D01*
X002189Y026084D01*
X002240Y026135D01*
X002240Y026813D01*
X002123Y026930D01*
X001993Y026930D01*
X001965Y026997D01*
X001961Y027002D01*
X002014Y027055D01*
X002028Y027031D01*
X002062Y026997D01*
X002103Y026974D01*
X002148Y026961D01*
X002350Y026961D01*
X002350Y027398D01*
X002387Y027398D01*
X002387Y026961D01*
X002589Y026961D01*
X002635Y026974D01*
X002676Y026997D01*
X002710Y027031D01*
X002733Y027072D01*
X002746Y027118D01*
X002746Y027399D01*
X002387Y027399D01*
X002387Y027435D01*
X002387Y027362D02*
X002350Y027362D01*
X002350Y027204D02*
X002387Y027204D01*
X002387Y027045D02*
X002350Y027045D01*
X002166Y026887D02*
X002823Y026887D01*
X002842Y027045D02*
X002718Y027045D01*
X002746Y027204D02*
X002750Y027204D01*
X002746Y027362D02*
X002750Y027362D01*
X002750Y026728D02*
X002240Y026728D01*
X002240Y026570D02*
X002750Y026570D01*
X002750Y026411D02*
X002240Y026411D01*
X002240Y026253D02*
X002750Y026253D01*
X002791Y026094D02*
X002199Y026094D01*
X002220Y025936D02*
X002770Y025936D01*
X002770Y025777D02*
X002220Y025777D01*
X002220Y025678D02*
X001793Y025678D01*
X001793Y025290D01*
X002064Y025290D01*
X002110Y025302D01*
X002151Y025326D01*
X002184Y025360D01*
X002208Y025401D01*
X002220Y025446D01*
X002220Y025678D01*
X002220Y025619D02*
X002770Y025619D01*
X002770Y025678D02*
X002770Y025446D01*
X002782Y025401D01*
X002806Y025360D01*
X002839Y025326D01*
X002880Y025302D01*
X002926Y025290D01*
X003197Y025290D01*
X003197Y025678D01*
X002770Y025678D01*
X002770Y025460D02*
X002220Y025460D01*
X002107Y025302D02*
X002883Y025302D01*
X003197Y025302D02*
X003293Y025302D01*
X003293Y025290D02*
X003564Y025290D01*
X003610Y025302D01*
X003651Y025326D01*
X003684Y025360D01*
X003708Y025401D01*
X003720Y025446D01*
X003720Y025678D01*
X003293Y025678D01*
X003293Y025290D01*
X003293Y025460D02*
X003197Y025460D01*
X003197Y025619D02*
X003293Y025619D01*
X003720Y025619D02*
X014745Y025619D01*
X014745Y025460D02*
X003720Y025460D01*
X003607Y025302D02*
X014745Y025302D01*
X014745Y025143D02*
X001495Y025143D01*
X001495Y024985D02*
X014745Y024985D01*
X014745Y024826D02*
X001495Y024826D01*
X001495Y024668D02*
X014745Y024668D01*
X014745Y024509D02*
X001495Y024509D01*
X001495Y024351D02*
X014745Y024351D01*
X014745Y024192D02*
X001495Y024192D01*
X001697Y025302D02*
X001793Y025302D01*
X001793Y025460D02*
X001697Y025460D01*
X001697Y025619D02*
X001793Y025619D01*
X002004Y027045D02*
X002020Y027045D01*
X003699Y026094D02*
X003724Y026094D01*
X003720Y025936D02*
X013347Y025936D01*
X013347Y026094D02*
X005239Y026094D01*
X005246Y026253D02*
X013347Y026253D01*
X013043Y026411D02*
X012947Y026411D01*
X012947Y026290D02*
X012947Y026678D01*
X012520Y026678D01*
X012293Y026678D01*
X012293Y026290D01*
X012564Y026290D01*
X012610Y026302D01*
X012620Y026308D01*
X012630Y026302D01*
X012676Y026290D01*
X012947Y026290D01*
X012947Y026570D02*
X013043Y026570D01*
X012947Y026728D02*
X012293Y026728D01*
X012197Y026728D02*
X008293Y026728D01*
X008293Y026678D02*
X008720Y026678D01*
X008720Y026446D01*
X008708Y026401D01*
X008684Y026360D01*
X008651Y026326D01*
X008610Y026302D01*
X008564Y026290D01*
X008293Y026290D01*
X008293Y026678D01*
X008197Y026678D02*
X008197Y026290D01*
X007926Y026290D01*
X007880Y026302D01*
X007870Y026308D01*
X007860Y026302D01*
X007814Y026290D01*
X007543Y026290D01*
X007543Y026678D01*
X008197Y026678D01*
X008197Y026728D02*
X007543Y026728D01*
X007447Y026728D02*
X006793Y026728D01*
X006793Y026678D02*
X007020Y026678D01*
X007447Y026678D01*
X007447Y026290D01*
X007176Y026290D01*
X007130Y026302D01*
X007120Y026308D01*
X007110Y026302D01*
X007064Y026290D01*
X006793Y026290D01*
X006793Y026678D01*
X006697Y026678D02*
X006697Y026290D01*
X006426Y026290D01*
X006380Y026302D01*
X006370Y026308D01*
X006360Y026302D01*
X006314Y026290D01*
X006043Y026290D01*
X006043Y026678D01*
X006470Y026678D01*
X006697Y026678D01*
X006697Y026728D02*
X006043Y026728D01*
X005947Y026728D02*
X005243Y026728D01*
X005246Y026716D02*
X005233Y026762D01*
X005210Y026803D01*
X005176Y026837D01*
X005135Y026860D01*
X005089Y026873D01*
X004887Y026873D01*
X004887Y026435D01*
X005246Y026435D01*
X005246Y026716D01*
X005246Y026570D02*
X005520Y026570D01*
X005520Y026678D02*
X005520Y026446D01*
X005532Y026401D01*
X005556Y026360D01*
X005589Y026326D01*
X005630Y026302D01*
X005676Y026290D01*
X005947Y026290D01*
X005947Y026678D01*
X005520Y026678D01*
X005520Y026887D02*
X004854Y026887D01*
X004850Y026728D02*
X004887Y026728D01*
X004887Y026570D02*
X004850Y026570D01*
X004887Y026411D02*
X005529Y026411D01*
X005947Y026411D02*
X006043Y026411D01*
X006043Y026570D02*
X005947Y026570D01*
X005530Y027045D02*
X004892Y027045D01*
X004892Y027204D02*
X005500Y027204D01*
X005500Y027362D02*
X004942Y027362D01*
X005094Y027521D02*
X005500Y027521D01*
X004887Y026253D02*
X004850Y026253D01*
X004850Y026094D02*
X004887Y026094D01*
X003720Y025777D02*
X013389Y025777D01*
X014101Y025777D02*
X014139Y025777D01*
X012293Y026411D02*
X012197Y026411D01*
X012197Y026290D02*
X012197Y026678D01*
X011770Y026678D01*
X011770Y026446D01*
X011782Y026401D01*
X011806Y026360D01*
X011839Y026326D01*
X011880Y026302D01*
X011926Y026290D01*
X012197Y026290D01*
X012197Y026570D02*
X012293Y026570D01*
X011770Y026570D02*
X008720Y026570D01*
X008711Y026411D02*
X011779Y026411D01*
X011770Y026887D02*
X008720Y026887D01*
X008710Y027045D02*
X011780Y027045D01*
X010995Y027204D02*
X008740Y027204D01*
X008740Y027362D02*
X010995Y027362D01*
X010995Y027521D02*
X008740Y027521D01*
X008293Y026570D02*
X008197Y026570D01*
X008197Y026411D02*
X008293Y026411D01*
X007543Y026411D02*
X007447Y026411D01*
X007447Y026570D02*
X007543Y026570D01*
X006793Y026570D02*
X006697Y026570D01*
X006697Y026411D02*
X006793Y026411D01*
X009109Y028954D02*
X010141Y028954D01*
X009745Y028600D01*
X009593Y028630D02*
X010897Y028630D01*
X010897Y028789D02*
X009593Y028789D01*
X009517Y028472D02*
X010972Y028472D01*
X010995Y028313D02*
X009495Y028313D01*
X009495Y028155D02*
X010995Y028155D01*
X010995Y027996D02*
X009495Y027996D01*
X009495Y027838D02*
X010995Y027838D01*
X010995Y027679D02*
X009495Y027679D01*
X010635Y029210D02*
X010245Y029600D01*
X010245Y029850D01*
X009995Y030100D01*
X009995Y030350D01*
X009599Y030746D01*
X009109Y030746D01*
X009109Y029978D02*
X007123Y029978D01*
X006495Y029350D01*
X006245Y031600D02*
X006245Y033600D01*
X008415Y033600D01*
X008415Y033461D01*
X008575Y033461D01*
X008575Y033600D01*
X010745Y033600D01*
X010745Y034350D01*
X011020Y034350D01*
X011020Y034274D01*
X011447Y034274D01*
X011447Y034178D01*
X011543Y034178D01*
X011543Y034274D01*
X011970Y034274D01*
X011970Y034350D01*
X011995Y034350D01*
X011995Y035622D01*
X012010Y035637D01*
X012010Y036315D01*
X011995Y036330D01*
X011995Y036370D01*
X012010Y036385D01*
X012010Y037063D01*
X011995Y037078D01*
X011995Y037100D01*
X013995Y037100D01*
X013995Y036918D01*
X013956Y036918D01*
X013956Y035930D01*
X013796Y035930D01*
X013796Y036918D01*
X012902Y036918D01*
X012902Y036863D01*
X012902Y036918D01*
X012749Y036918D01*
X012703Y036906D01*
X012662Y036882D01*
X012629Y036848D01*
X012605Y036807D01*
X012593Y036761D01*
X012593Y036605D01*
X012851Y036605D01*
X012851Y036605D01*
X012593Y036605D01*
X012593Y036448D01*
X012605Y036403D01*
X012629Y036362D01*
X012633Y036357D01*
X012629Y036353D01*
X012605Y036312D01*
X012593Y036266D01*
X012593Y036110D01*
X012851Y036110D01*
X012851Y036110D01*
X012593Y036110D01*
X012593Y035953D01*
X012605Y035907D01*
X012629Y035866D01*
X012645Y035850D01*
X012629Y035834D01*
X012605Y035793D01*
X012593Y035747D01*
X012593Y035590D01*
X012593Y035434D01*
X012605Y035388D01*
X012629Y035347D01*
X012633Y035343D01*
X012629Y035338D01*
X012605Y035297D01*
X012593Y035252D01*
X012593Y035095D01*
X012593Y034939D01*
X012605Y034893D01*
X012629Y034852D01*
X012662Y034818D01*
X012703Y034794D01*
X012749Y034782D01*
X012902Y034782D01*
X013796Y034782D01*
X013796Y035770D01*
X013956Y035770D01*
X013956Y034782D01*
X013995Y034782D01*
X013995Y034600D01*
X012995Y034600D01*
X012995Y034418D01*
X012902Y034418D01*
X012902Y034105D01*
X012902Y034105D01*
X012902Y034418D01*
X012731Y034418D01*
X012685Y034406D01*
X012644Y034382D01*
X012610Y034348D01*
X012586Y034307D01*
X012574Y034261D01*
X012574Y034105D01*
X012902Y034105D01*
X012902Y033792D01*
X012902Y033610D01*
X012902Y033610D01*
X012902Y034105D01*
X012902Y034105D01*
X012902Y034105D01*
X012574Y034105D01*
X012574Y033948D01*
X012586Y033903D01*
X012610Y033862D01*
X012614Y033857D01*
X012610Y033853D01*
X012586Y033812D01*
X012574Y033766D01*
X012574Y033610D01*
X012902Y033610D01*
X012902Y033610D01*
X012902Y033403D01*
X012902Y033090D01*
X012574Y033090D01*
X012574Y032950D01*
X012531Y032993D01*
X012526Y032998D01*
X011964Y032998D01*
X011847Y032881D01*
X011847Y032319D01*
X011852Y032314D01*
X011969Y032197D01*
X012531Y032197D01*
X012634Y032300D01*
X012671Y032262D01*
X012995Y032262D01*
X012995Y032160D01*
X012793Y032160D01*
X012793Y031772D01*
X012697Y031772D01*
X012697Y032160D01*
X012426Y032160D01*
X012380Y032148D01*
X012339Y032124D01*
X012306Y032090D01*
X012282Y032049D01*
X012270Y032004D01*
X012270Y031772D01*
X012697Y031772D01*
X012697Y031676D01*
X012270Y031676D01*
X012270Y031600D01*
X006245Y031600D01*
X006245Y031642D02*
X012270Y031642D01*
X012270Y031800D02*
X006245Y031800D01*
X006245Y031959D02*
X012270Y031959D01*
X012332Y032117D02*
X006245Y032117D01*
X006245Y032276D02*
X011890Y032276D01*
X011852Y032314D02*
X011852Y032314D01*
X011847Y032434D02*
X006245Y032434D01*
X006245Y032593D02*
X011847Y032593D01*
X011847Y032751D02*
X006245Y032751D01*
X006245Y032910D02*
X006545Y032910D01*
X006553Y032905D02*
X006599Y032892D01*
X008415Y032892D01*
X008415Y033461D01*
X006443Y033461D01*
X006443Y033049D01*
X006455Y033003D01*
X006479Y032962D01*
X006512Y032928D01*
X006553Y032905D01*
X006443Y033068D02*
X006245Y033068D01*
X006245Y033227D02*
X006443Y033227D01*
X006443Y033385D02*
X006245Y033385D01*
X006245Y033544D02*
X008415Y033544D01*
X008415Y033385D02*
X008575Y033385D01*
X008575Y033461D02*
X008575Y032892D01*
X010391Y032892D01*
X010436Y032905D01*
X010477Y032928D01*
X010511Y032962D01*
X010535Y033003D01*
X010547Y033049D01*
X010547Y033461D01*
X008575Y033461D01*
X008575Y033544D02*
X012574Y033544D01*
X012574Y033610D02*
X012574Y033453D01*
X012586Y033407D01*
X012610Y033366D01*
X012627Y033350D01*
X012610Y033334D01*
X012586Y033293D01*
X012574Y033247D01*
X012574Y033090D01*
X012902Y033090D01*
X012902Y033090D01*
X012902Y033090D01*
X012902Y033610D01*
X012902Y033610D01*
X012574Y033610D01*
X012574Y033702D02*
X010745Y033702D01*
X010745Y033861D02*
X011055Y033861D01*
X011056Y033860D02*
X011032Y033901D01*
X011020Y033946D01*
X011020Y034178D01*
X011447Y034178D01*
X011447Y033790D01*
X011176Y033790D01*
X011130Y033802D01*
X011089Y033826D01*
X011056Y033860D01*
X011020Y034019D02*
X010745Y034019D01*
X010745Y034178D02*
X011020Y034178D01*
X011020Y034336D02*
X010745Y034336D01*
X011447Y034178D02*
X011543Y034178D01*
X011970Y034178D01*
X011970Y033946D01*
X011958Y033901D01*
X011934Y033860D01*
X011901Y033826D01*
X011860Y033802D01*
X011814Y033790D01*
X011543Y033790D01*
X011543Y034178D01*
X011543Y034019D02*
X011447Y034019D01*
X011447Y033861D02*
X011543Y033861D01*
X011935Y033861D02*
X012611Y033861D01*
X012574Y034019D02*
X011970Y034019D01*
X011970Y034178D02*
X012574Y034178D01*
X012603Y034336D02*
X011970Y034336D01*
X011995Y034495D02*
X012995Y034495D01*
X012902Y034336D02*
X012902Y034336D01*
X012902Y034178D02*
X012902Y034178D01*
X012902Y034019D02*
X012902Y034019D01*
X012902Y033861D02*
X012902Y033861D01*
X012902Y033702D02*
X012902Y033702D01*
X012902Y033544D02*
X012902Y033544D01*
X012902Y033385D02*
X012902Y033385D01*
X012902Y033227D02*
X012902Y033227D01*
X012574Y033227D02*
X010547Y033227D01*
X010547Y033385D02*
X012599Y033385D01*
X012574Y033068D02*
X010547Y033068D01*
X010445Y032910D02*
X011875Y032910D01*
X012531Y032993D02*
X012531Y032993D01*
X012609Y032276D02*
X012658Y032276D01*
X012697Y032117D02*
X012793Y032117D01*
X012793Y031959D02*
X012697Y031959D01*
X012697Y031800D02*
X012793Y031800D01*
X013995Y031954D02*
X013995Y032282D01*
X014033Y032282D01*
X014033Y033270D01*
X014193Y033270D01*
X014193Y032282D01*
X015088Y032282D01*
X015241Y032282D01*
X015286Y032294D01*
X015327Y032318D01*
X015361Y032352D01*
X015385Y032393D01*
X015397Y032439D01*
X015397Y032595D01*
X015139Y032595D01*
X015139Y032595D01*
X015397Y032595D01*
X015397Y032752D01*
X015385Y032797D01*
X015361Y032838D01*
X015357Y032843D01*
X015361Y032847D01*
X015385Y032888D01*
X015397Y032934D01*
X015397Y033090D01*
X015139Y033090D01*
X015139Y033090D01*
X015397Y033090D01*
X015397Y033247D01*
X015385Y033293D01*
X015361Y033334D01*
X015344Y033350D01*
X015361Y033366D01*
X015385Y033407D01*
X015397Y033453D01*
X015397Y033610D01*
X015397Y033766D01*
X015385Y033812D01*
X015361Y033853D01*
X015357Y033857D01*
X015361Y033862D01*
X015385Y033903D01*
X015397Y033948D01*
X015397Y034105D01*
X015397Y034261D01*
X015385Y034307D01*
X015361Y034348D01*
X015359Y034350D01*
X015770Y034350D01*
X015770Y034274D01*
X016197Y034274D01*
X016197Y034178D01*
X016293Y034178D01*
X016293Y034274D01*
X016720Y034274D01*
X016720Y034350D01*
X016770Y034350D01*
X016770Y034274D01*
X017197Y034274D01*
X017197Y034178D01*
X017293Y034178D01*
X017293Y034274D01*
X017720Y034274D01*
X017720Y034350D01*
X026727Y034350D01*
X026726Y034346D01*
X026726Y033930D01*
X027299Y033930D01*
X027299Y033770D01*
X027459Y033770D01*
X027459Y033198D01*
X027495Y033198D01*
X027495Y032752D01*
X027459Y032752D01*
X027459Y032180D01*
X027299Y032180D01*
X027299Y032752D01*
X026883Y032752D01*
X026837Y032740D01*
X026796Y032716D01*
X026762Y032683D01*
X026739Y032642D01*
X026726Y032596D01*
X026726Y032180D01*
X027299Y032180D01*
X027299Y032020D01*
X026726Y032020D01*
X026726Y031604D01*
X026727Y031600D01*
X025167Y031600D01*
X025167Y032136D01*
X024575Y032136D01*
X024575Y032296D01*
X025167Y032296D01*
X025167Y033086D01*
X025155Y033132D01*
X025131Y033173D01*
X025098Y033207D01*
X025056Y033230D01*
X025011Y033243D01*
X024575Y033243D01*
X024575Y032296D01*
X024415Y032296D01*
X024415Y032136D01*
X023823Y032136D01*
X023823Y031600D01*
X020667Y031600D01*
X020667Y032136D01*
X020075Y032136D01*
X020075Y032296D01*
X020667Y032296D01*
X020667Y033086D01*
X020655Y033132D01*
X020631Y033173D01*
X020598Y033207D01*
X020556Y033230D01*
X020511Y033243D01*
X020075Y033243D01*
X020075Y032296D01*
X019915Y032296D01*
X019915Y032136D01*
X019323Y032136D01*
X019323Y031600D01*
X014363Y031600D01*
X014091Y031871D01*
X014018Y031944D01*
X013995Y031954D01*
X013995Y031959D02*
X019323Y031959D01*
X019323Y032117D02*
X013995Y032117D01*
X013995Y032276D02*
X019915Y032276D01*
X019915Y032296D02*
X019323Y032296D01*
X019323Y033086D01*
X019335Y033132D01*
X019359Y033173D01*
X019392Y033207D01*
X019433Y033230D01*
X019479Y033243D01*
X019915Y033243D01*
X019915Y032296D01*
X019915Y032434D02*
X020075Y032434D01*
X020075Y032276D02*
X024415Y032276D01*
X024415Y032296D02*
X023823Y032296D01*
X023823Y033086D01*
X023835Y033132D01*
X023859Y033173D01*
X023892Y033207D01*
X023933Y033230D01*
X023979Y033243D01*
X024415Y033243D01*
X024415Y032296D01*
X024415Y032434D02*
X024575Y032434D01*
X024575Y032276D02*
X026726Y032276D01*
X026726Y032434D02*
X025167Y032434D01*
X025167Y032593D02*
X026726Y032593D01*
X026877Y032751D02*
X025167Y032751D01*
X025167Y032910D02*
X027495Y032910D01*
X027495Y033068D02*
X025167Y033068D01*
X025063Y033227D02*
X026808Y033227D01*
X026796Y033234D02*
X026837Y033210D01*
X026883Y033198D01*
X027299Y033198D01*
X027299Y033770D01*
X026726Y033770D01*
X026726Y033354D01*
X026739Y033308D01*
X026762Y033267D01*
X026796Y033234D01*
X026726Y033385D02*
X015372Y033385D01*
X015397Y033227D02*
X019427Y033227D01*
X019323Y033068D02*
X015397Y033068D01*
X015390Y032910D02*
X019323Y032910D01*
X019323Y032751D02*
X015397Y032751D01*
X015397Y032593D02*
X019323Y032593D01*
X019323Y032434D02*
X015396Y032434D01*
X015088Y032337D02*
X015088Y032282D01*
X015088Y032337D01*
X015088Y032337D01*
X014321Y031642D02*
X019323Y031642D01*
X019323Y031800D02*
X014163Y031800D01*
X014193Y032434D02*
X014033Y032434D01*
X014033Y032593D02*
X014193Y032593D01*
X014193Y032751D02*
X014033Y032751D01*
X014033Y032910D02*
X014193Y032910D01*
X014193Y033068D02*
X014033Y033068D01*
X014033Y033227D02*
X014193Y033227D01*
X015139Y033610D02*
X015139Y033610D01*
X015397Y033610D01*
X015139Y033610D01*
X015397Y033544D02*
X026726Y033544D01*
X026726Y033702D02*
X015397Y033702D01*
X015360Y033861D02*
X015805Y033861D01*
X015806Y033860D02*
X015839Y033826D01*
X015880Y033802D01*
X015926Y033790D01*
X016197Y033790D01*
X016197Y034178D01*
X015770Y034178D01*
X015770Y033946D01*
X015782Y033901D01*
X015806Y033860D01*
X015770Y034019D02*
X015397Y034019D01*
X015397Y034105D02*
X015139Y034105D01*
X015397Y034105D01*
X015397Y034178D02*
X015770Y034178D01*
X015770Y034336D02*
X015368Y034336D01*
X015139Y034105D02*
X015139Y034105D01*
X015378Y034850D02*
X015380Y034852D01*
X015403Y034893D01*
X015416Y034939D01*
X015416Y035095D01*
X015088Y035095D01*
X015088Y035095D01*
X015416Y035095D01*
X015416Y035252D01*
X015403Y035297D01*
X015380Y035338D01*
X015375Y035343D01*
X015380Y035347D01*
X015403Y035388D01*
X015416Y035434D01*
X015416Y035590D01*
X015088Y035590D01*
X015088Y035095D01*
X015088Y035095D01*
X015088Y035408D01*
X015088Y035590D01*
X015088Y035590D01*
X015088Y035590D01*
X015416Y035590D01*
X015416Y035747D01*
X015403Y035793D01*
X015380Y035834D01*
X015363Y035850D01*
X015380Y035866D01*
X015403Y035907D01*
X015416Y035953D01*
X015416Y036110D01*
X015416Y036266D01*
X015403Y036312D01*
X015387Y036341D01*
X015436Y036389D01*
X015436Y036821D01*
X015406Y036850D01*
X015565Y036850D01*
X015589Y036826D01*
X015630Y036802D01*
X015676Y036790D01*
X015947Y036790D01*
X015947Y036850D01*
X016043Y036850D01*
X016043Y036790D01*
X016314Y036790D01*
X016360Y036802D01*
X016401Y036826D01*
X016425Y036850D01*
X016565Y036850D01*
X016589Y036826D01*
X016630Y036802D01*
X016676Y036790D01*
X016947Y036790D01*
X016947Y036850D01*
X017043Y036850D01*
X017043Y036790D01*
X017314Y036790D01*
X017360Y036802D01*
X017401Y036826D01*
X017425Y036850D01*
X018250Y036850D01*
X018250Y036811D01*
X018667Y036811D01*
X018667Y036656D01*
X018822Y036656D01*
X018822Y035963D01*
X019084Y035963D01*
X019129Y035976D01*
X019170Y035999D01*
X019204Y036033D01*
X019228Y036074D01*
X019240Y036120D01*
X019240Y036656D01*
X018822Y036656D01*
X018822Y036811D01*
X019240Y036811D01*
X019240Y036850D01*
X020750Y036850D01*
X020750Y036811D01*
X021167Y036811D01*
X021167Y036656D01*
X021322Y036656D01*
X021322Y035963D01*
X021584Y035963D01*
X021629Y035976D01*
X021670Y035999D01*
X021704Y036033D01*
X021728Y036074D01*
X021740Y036120D01*
X021740Y036656D01*
X021322Y036656D01*
X021322Y036811D01*
X021740Y036811D01*
X021740Y036850D01*
X025500Y036850D01*
X025500Y036811D01*
X025917Y036811D01*
X025917Y036656D01*
X025500Y036656D01*
X025500Y036120D01*
X025512Y036074D01*
X025536Y036033D01*
X025569Y035999D01*
X025610Y035976D01*
X025656Y035963D01*
X025917Y035963D01*
X025917Y036656D01*
X026072Y036656D01*
X026072Y035963D01*
X026245Y035963D01*
X026245Y034850D01*
X025167Y034850D01*
X025167Y035404D01*
X024575Y035404D01*
X024575Y035564D01*
X024415Y035564D01*
X024415Y036510D01*
X023979Y036510D01*
X023933Y036498D01*
X023892Y036474D01*
X023859Y036441D01*
X023835Y036400D01*
X023823Y036354D01*
X023823Y035564D01*
X024415Y035564D01*
X024415Y035404D01*
X023823Y035404D01*
X023823Y034850D01*
X020667Y034850D01*
X020667Y035404D01*
X020075Y035404D01*
X020075Y035564D01*
X019915Y035564D01*
X019915Y036510D01*
X019479Y036510D01*
X019433Y036498D01*
X019392Y036474D01*
X019359Y036441D01*
X019335Y036400D01*
X019323Y036354D01*
X019323Y035564D01*
X019915Y035564D01*
X019915Y035404D01*
X019323Y035404D01*
X019323Y034850D01*
X017720Y034850D01*
X017720Y034926D01*
X017293Y034926D01*
X017293Y035022D01*
X017720Y035022D01*
X017720Y035254D01*
X017708Y035299D01*
X017684Y035340D01*
X017651Y035374D01*
X017610Y035398D01*
X017564Y035410D01*
X017293Y035410D01*
X017293Y035022D01*
X017197Y035022D01*
X017197Y035410D01*
X016926Y035410D01*
X016880Y035398D01*
X016839Y035374D01*
X016806Y035340D01*
X016782Y035299D01*
X016770Y035254D01*
X016770Y035022D01*
X017197Y035022D01*
X017197Y034926D01*
X016770Y034926D01*
X016770Y034850D01*
X016720Y034850D01*
X016720Y034926D01*
X016293Y034926D01*
X016293Y035022D01*
X016720Y035022D01*
X016720Y035254D01*
X016708Y035299D01*
X016684Y035340D01*
X016651Y035374D01*
X016610Y035398D01*
X016564Y035410D01*
X016293Y035410D01*
X016293Y035022D01*
X016197Y035022D01*
X016197Y035410D01*
X015926Y035410D01*
X015880Y035398D01*
X015839Y035374D01*
X015806Y035340D01*
X015782Y035299D01*
X015770Y035254D01*
X015770Y035022D01*
X016197Y035022D01*
X016197Y034926D01*
X015770Y034926D01*
X015770Y034850D01*
X015378Y034850D01*
X015416Y034970D02*
X016197Y034970D01*
X016293Y034970D02*
X017197Y034970D01*
X017293Y034970D02*
X019323Y034970D01*
X019323Y035129D02*
X017720Y035129D01*
X017711Y035287D02*
X019323Y035287D01*
X019323Y035604D02*
X015416Y035604D01*
X015416Y035446D02*
X019915Y035446D01*
X019915Y035604D02*
X020075Y035604D01*
X020075Y035564D02*
X020075Y036510D01*
X020511Y036510D01*
X020556Y036498D01*
X020598Y036474D01*
X020631Y036441D01*
X020655Y036400D01*
X020667Y036354D01*
X020667Y035564D01*
X020075Y035564D01*
X020075Y035446D02*
X024415Y035446D01*
X024415Y035604D02*
X024575Y035604D01*
X024575Y035564D02*
X024575Y036510D01*
X025011Y036510D01*
X025056Y036498D01*
X025098Y036474D01*
X025131Y036441D01*
X025155Y036400D01*
X025167Y036354D01*
X025167Y035564D01*
X024575Y035564D01*
X024575Y035446D02*
X026245Y035446D01*
X026245Y035604D02*
X025167Y035604D01*
X025167Y035763D02*
X026245Y035763D01*
X026245Y035921D02*
X025167Y035921D01*
X025167Y036080D02*
X025511Y036080D01*
X025500Y036238D02*
X025167Y036238D01*
X025156Y036397D02*
X025500Y036397D01*
X025500Y036555D02*
X021740Y036555D01*
X021740Y036397D02*
X023834Y036397D01*
X023823Y036238D02*
X021740Y036238D01*
X021729Y036080D02*
X023823Y036080D01*
X023823Y035921D02*
X020667Y035921D01*
X020667Y035763D02*
X023823Y035763D01*
X023823Y035604D02*
X020667Y035604D01*
X020667Y035287D02*
X023823Y035287D01*
X023823Y035129D02*
X020667Y035129D01*
X020667Y034970D02*
X023823Y034970D01*
X024415Y035763D02*
X024575Y035763D01*
X024575Y035921D02*
X024415Y035921D01*
X024415Y036080D02*
X024575Y036080D01*
X024575Y036238D02*
X024415Y036238D01*
X024415Y036397D02*
X024575Y036397D01*
X025167Y035287D02*
X026245Y035287D01*
X026245Y035129D02*
X025167Y035129D01*
X025167Y034970D02*
X026245Y034970D01*
X026726Y034336D02*
X017720Y034336D01*
X017720Y034178D02*
X017293Y034178D01*
X017293Y033790D01*
X017564Y033790D01*
X017610Y033802D01*
X017651Y033826D01*
X017684Y033860D01*
X017708Y033901D01*
X017720Y033946D01*
X017720Y034178D01*
X026726Y034178D01*
X026726Y034019D02*
X017720Y034019D01*
X017685Y033861D02*
X027299Y033861D01*
X027299Y033702D02*
X027459Y033702D01*
X027459Y033544D02*
X027299Y033544D01*
X027299Y033385D02*
X027459Y033385D01*
X027459Y033227D02*
X027299Y033227D01*
X027299Y032751D02*
X027459Y032751D01*
X027459Y032593D02*
X027299Y032593D01*
X027299Y032434D02*
X027459Y032434D01*
X027459Y032276D02*
X027299Y032276D01*
X027299Y032117D02*
X025167Y032117D01*
X025167Y031959D02*
X026726Y031959D01*
X026726Y031800D02*
X025167Y031800D01*
X025167Y031642D02*
X026726Y031642D01*
X024575Y032593D02*
X024415Y032593D01*
X024415Y032751D02*
X024575Y032751D01*
X024575Y032910D02*
X024415Y032910D01*
X024415Y033068D02*
X024575Y033068D01*
X024575Y033227D02*
X024415Y033227D01*
X023927Y033227D02*
X020563Y033227D01*
X020667Y033068D02*
X023823Y033068D01*
X023823Y032910D02*
X020667Y032910D01*
X020667Y032751D02*
X023823Y032751D01*
X023823Y032593D02*
X020667Y032593D01*
X020667Y032434D02*
X023823Y032434D01*
X023823Y032117D02*
X020667Y032117D01*
X020667Y031959D02*
X023823Y031959D01*
X023823Y031800D02*
X020667Y031800D01*
X020667Y031642D02*
X023823Y031642D01*
X022495Y028350D02*
X021245Y028350D01*
X021245Y027677D01*
X021374Y027677D01*
X021791Y027677D01*
X021791Y027978D01*
X021779Y028024D01*
X021755Y028065D01*
X021722Y028098D01*
X021681Y028122D01*
X021635Y028134D01*
X021374Y028134D01*
X021374Y027677D01*
X021374Y027523D01*
X021791Y027523D01*
X021791Y027222D01*
X021779Y027176D01*
X021755Y027135D01*
X021722Y027102D01*
X021719Y027100D01*
X021722Y027098D01*
X021755Y027065D01*
X021779Y027024D01*
X021791Y026978D01*
X021791Y026677D01*
X021374Y026677D01*
X021374Y026523D01*
X021791Y026523D01*
X021791Y026222D01*
X021779Y026176D01*
X021755Y026135D01*
X021722Y026102D01*
X021681Y026078D01*
X021635Y026066D01*
X021374Y026066D01*
X021374Y026523D01*
X021245Y026523D01*
X021245Y026078D01*
X021325Y025998D01*
X021325Y025880D01*
X022379Y025880D01*
X022495Y025996D01*
X022495Y028350D01*
X022495Y028313D02*
X021245Y028313D01*
X021245Y028155D02*
X022495Y028155D01*
X022495Y027996D02*
X021786Y027996D01*
X021791Y027838D02*
X022495Y027838D01*
X022495Y027679D02*
X021791Y027679D01*
X021791Y027521D02*
X022495Y027521D01*
X022495Y027362D02*
X021791Y027362D01*
X021786Y027204D02*
X022495Y027204D01*
X022495Y027045D02*
X021766Y027045D01*
X021791Y026887D02*
X022495Y026887D01*
X022495Y026728D02*
X021791Y026728D01*
X021791Y026411D02*
X022495Y026411D01*
X022495Y026253D02*
X021791Y026253D01*
X021708Y026094D02*
X022495Y026094D01*
X022434Y025936D02*
X021325Y025936D01*
X021374Y026094D02*
X021245Y026094D01*
X021245Y026253D02*
X021374Y026253D01*
X021374Y026411D02*
X021245Y026411D01*
X021374Y026570D02*
X022495Y026570D01*
X022245Y026350D02*
X022245Y026100D01*
X022245Y026350D02*
X023001Y026350D01*
X023495Y026350D01*
X023495Y025350D01*
X023521Y025134D02*
X023521Y024677D01*
X023939Y024677D01*
X023939Y024978D01*
X023926Y025024D01*
X023903Y025065D01*
X023869Y025098D01*
X023828Y025122D01*
X023782Y025134D01*
X023521Y025134D01*
X023521Y024985D02*
X023366Y024985D01*
X023366Y025134D02*
X023105Y025134D01*
X023059Y025122D01*
X023018Y025098D01*
X022985Y025065D01*
X022961Y025024D01*
X022949Y024978D01*
X022949Y024677D01*
X023366Y024677D01*
X023366Y024523D01*
X022949Y024523D01*
X022949Y024222D01*
X022961Y024176D01*
X022985Y024135D01*
X023018Y024102D01*
X023021Y024100D01*
X023018Y024098D01*
X022985Y024065D01*
X022961Y024024D01*
X022949Y023978D01*
X022949Y023677D01*
X023366Y023677D01*
X023366Y023523D01*
X022949Y023523D01*
X022949Y023350D01*
X020745Y023350D01*
X020745Y024105D01*
X020821Y024105D01*
X020821Y024552D01*
X020917Y024552D01*
X020917Y024648D01*
X021305Y024648D01*
X021305Y024939D01*
X021293Y024984D01*
X021269Y025025D01*
X021235Y025059D01*
X021194Y025083D01*
X021186Y025085D01*
X021208Y025085D01*
X021325Y025202D01*
X021325Y025320D01*
X022551Y025320D01*
X022653Y025363D01*
X022953Y025662D01*
X023305Y025662D01*
X023439Y025796D01*
X023439Y025850D01*
X023551Y025850D01*
X023551Y025796D01*
X023685Y025662D01*
X024245Y025662D01*
X024245Y025154D01*
X024148Y025154D01*
X024031Y025037D01*
X024031Y024163D01*
X024094Y024100D01*
X024031Y024037D01*
X024031Y023350D01*
X023939Y023350D01*
X023939Y023523D01*
X023521Y023523D01*
X023521Y023677D01*
X023939Y023677D01*
X023939Y023978D01*
X023926Y024024D01*
X023903Y024065D01*
X023869Y024098D01*
X023866Y024100D01*
X023869Y024102D01*
X023903Y024135D01*
X023926Y024176D01*
X023939Y024222D01*
X023939Y024523D01*
X023521Y024523D01*
X023521Y024677D01*
X023366Y024677D01*
X023366Y025134D01*
X023366Y024826D02*
X023521Y024826D01*
X023521Y024668D02*
X024031Y024668D01*
X024031Y024826D02*
X023939Y024826D01*
X023937Y024985D02*
X024031Y024985D01*
X024137Y025143D02*
X021266Y025143D01*
X021292Y024985D02*
X022950Y024985D01*
X022949Y024826D02*
X021305Y024826D01*
X021305Y024668D02*
X023366Y024668D01*
X023366Y024523D02*
X023521Y024523D01*
X023521Y024066D01*
X023521Y023677D01*
X023366Y023677D01*
X023366Y024523D01*
X023366Y024509D02*
X023521Y024509D01*
X023521Y024351D02*
X023366Y024351D01*
X023366Y024192D02*
X023521Y024192D01*
X023521Y024034D02*
X023366Y024034D01*
X023366Y023875D02*
X023521Y023875D01*
X023521Y023717D02*
X023366Y023717D01*
X023366Y023558D02*
X020745Y023558D01*
X020745Y023400D02*
X022949Y023400D01*
X022949Y023717D02*
X020745Y023717D01*
X020745Y023875D02*
X022949Y023875D01*
X022967Y024034D02*
X020745Y024034D01*
X020821Y024192D02*
X020917Y024192D01*
X020917Y024105D02*
X020917Y024552D01*
X021305Y024552D01*
X021305Y024261D01*
X021293Y024216D01*
X021269Y024175D01*
X021235Y024141D01*
X021194Y024117D01*
X021149Y024105D01*
X020917Y024105D01*
X020917Y024351D02*
X020821Y024351D01*
X020821Y024509D02*
X020917Y024509D01*
X021305Y024509D02*
X022949Y024509D01*
X022949Y024351D02*
X021305Y024351D01*
X021279Y024192D02*
X022957Y024192D01*
X023521Y023558D02*
X024031Y023558D01*
X024031Y023400D02*
X023939Y023400D01*
X023939Y023717D02*
X024031Y023717D01*
X024031Y023875D02*
X023939Y023875D01*
X023921Y024034D02*
X024031Y024034D01*
X024031Y024192D02*
X023931Y024192D01*
X023939Y024351D02*
X024031Y024351D01*
X024031Y024509D02*
X023939Y024509D01*
X024245Y025302D02*
X021325Y025302D01*
X020869Y025474D02*
X020869Y025600D01*
X022495Y025600D01*
X022871Y025976D01*
X023001Y025976D01*
X022909Y025619D02*
X024245Y025619D01*
X024245Y025460D02*
X022751Y025460D01*
X023420Y025777D02*
X023569Y025777D01*
X023989Y025976D02*
X024621Y025976D01*
X024745Y026100D01*
X021374Y026677D02*
X021245Y026677D01*
X021245Y027523D01*
X021374Y027523D01*
X021374Y026677D01*
X021374Y026728D02*
X021245Y026728D01*
X021245Y026887D02*
X021374Y026887D01*
X021374Y027045D02*
X021245Y027045D01*
X021245Y027204D02*
X021374Y027204D01*
X021374Y027362D02*
X021245Y027362D01*
X021245Y027521D02*
X021374Y027521D01*
X021374Y027679D02*
X021245Y027679D01*
X021245Y027838D02*
X021374Y027838D01*
X021374Y027996D02*
X021245Y027996D01*
X020194Y026600D02*
X020194Y025600D01*
X020121Y025600D01*
X020869Y025474D02*
X020121Y024726D01*
X020121Y024600D01*
X021245Y024100D02*
X021245Y023350D01*
X018495Y023350D01*
X018495Y019850D01*
X009745Y019850D01*
X009245Y019350D01*
X008495Y019350D01*
X008495Y020350D01*
X008572Y020350D01*
X008572Y020304D01*
X008873Y020304D01*
X008919Y020316D01*
X008960Y020340D01*
X008970Y020350D01*
X009245Y020350D01*
X009745Y020850D01*
X018495Y020850D01*
X018495Y019850D01*
X017495Y019850D01*
X017495Y024100D01*
X021245Y024100D01*
X021245Y024034D02*
X017495Y024034D01*
X017495Y023875D02*
X021245Y023875D01*
X021245Y023717D02*
X017495Y023717D01*
X017495Y023558D02*
X021245Y023558D01*
X021245Y023400D02*
X017495Y023400D01*
X017495Y023241D02*
X018495Y023241D01*
X018495Y023083D02*
X017495Y023083D01*
X017495Y022924D02*
X018495Y022924D01*
X018495Y022766D02*
X017495Y022766D01*
X017495Y022607D02*
X018495Y022607D01*
X018495Y022449D02*
X017495Y022449D01*
X017495Y022290D02*
X018495Y022290D01*
X018495Y022132D02*
X017495Y022132D01*
X017495Y021973D02*
X018495Y021973D01*
X018495Y021815D02*
X017495Y021815D01*
X017495Y021656D02*
X018495Y021656D01*
X018495Y021498D02*
X017495Y021498D01*
X017495Y021339D02*
X018495Y021339D01*
X018495Y021181D02*
X017495Y021181D01*
X017495Y021022D02*
X018495Y021022D01*
X018495Y020864D02*
X017495Y020864D01*
X017495Y020705D02*
X018495Y020705D01*
X009600Y020705D01*
X009441Y020547D02*
X018495Y020547D01*
X017495Y020547D01*
X017495Y020388D02*
X018495Y020388D01*
X009283Y020388D01*
X008745Y020304D02*
X008745Y018100D01*
X007990Y018100D01*
X007990Y018176D01*
X007543Y018176D01*
X007543Y018272D01*
X007990Y018272D01*
X007990Y018504D01*
X007978Y018549D01*
X007954Y018590D01*
X007920Y018624D01*
X007879Y018648D01*
X007834Y018660D01*
X007543Y018660D01*
X007543Y018272D01*
X007447Y018272D01*
X007447Y018660D01*
X007156Y018660D01*
X007110Y018648D01*
X007069Y018624D01*
X007036Y018590D01*
X007012Y018549D01*
X007010Y018541D01*
X007010Y018563D01*
X006893Y018680D01*
X006775Y018680D01*
X006775Y019906D01*
X006732Y020009D01*
X006433Y020308D01*
X006433Y020660D01*
X006299Y020794D01*
X006245Y020794D01*
X006245Y020906D01*
X006299Y020906D01*
X006433Y021040D01*
X006433Y021262D01*
X006482Y021311D01*
X006525Y021414D01*
X006525Y021600D01*
X006941Y021600D01*
X006941Y021503D01*
X007058Y021386D01*
X007932Y021386D01*
X007995Y021449D01*
X008058Y021386D01*
X008745Y021386D01*
X008745Y021294D01*
X008572Y021294D01*
X008572Y020876D01*
X008417Y020876D01*
X008417Y020721D01*
X007572Y020721D01*
X007572Y020304D01*
X007873Y020304D01*
X007919Y020316D01*
X007960Y020340D01*
X007993Y020373D01*
X007995Y020376D01*
X007997Y020373D01*
X008030Y020340D01*
X008071Y020316D01*
X008117Y020304D01*
X008417Y020304D01*
X008417Y020721D01*
X008572Y020721D01*
X008572Y020304D01*
X008745Y020304D01*
X008745Y020230D02*
X006511Y020230D01*
X006433Y020388D02*
X006988Y020388D01*
X006997Y020373D02*
X007030Y020340D01*
X007071Y020316D01*
X007117Y020304D01*
X007417Y020304D01*
X007417Y020721D01*
X006961Y020721D01*
X006961Y020460D01*
X006973Y020414D01*
X006997Y020373D01*
X006961Y020547D02*
X006433Y020547D01*
X006388Y020705D02*
X006961Y020705D01*
X006961Y020876D02*
X007417Y020876D01*
X007417Y020721D01*
X007572Y020721D01*
X007572Y020876D01*
X007417Y020876D01*
X007417Y021294D01*
X007117Y021294D01*
X007071Y021282D01*
X007030Y021258D01*
X006997Y021224D01*
X006973Y021183D01*
X006961Y021137D01*
X006961Y020876D01*
X006961Y021022D02*
X006415Y021022D01*
X006433Y021181D02*
X006972Y021181D01*
X006946Y021498D02*
X006525Y021498D01*
X006494Y021339D02*
X008745Y021339D01*
X008572Y021181D02*
X008417Y021181D01*
X008417Y021294D02*
X008117Y021294D01*
X008071Y021282D01*
X008030Y021258D01*
X007997Y021224D01*
X007995Y021221D01*
X007993Y021224D01*
X007960Y021258D01*
X007919Y021282D01*
X007873Y021294D01*
X007572Y021294D01*
X007572Y020876D01*
X008029Y020876D01*
X008417Y020876D01*
X008417Y021294D01*
X008417Y021022D02*
X008572Y021022D01*
X008417Y020864D02*
X007572Y020864D01*
X007417Y020864D02*
X006245Y020864D01*
X006119Y021344D02*
X006245Y021470D01*
X006245Y022100D01*
X005745Y020850D02*
X006745Y020850D01*
X007417Y020705D02*
X007572Y020705D01*
X007572Y020547D02*
X007417Y020547D01*
X007417Y020388D02*
X007572Y020388D01*
X007572Y021022D02*
X007417Y021022D01*
X007417Y021181D02*
X007572Y021181D01*
X008417Y020705D02*
X008572Y020705D01*
X008572Y020547D02*
X008417Y020547D01*
X008417Y020388D02*
X008572Y020388D01*
X008495Y020230D02*
X018495Y020230D01*
X017495Y020230D01*
X017495Y020071D02*
X018495Y020071D01*
X008495Y020071D01*
X008495Y019913D02*
X018495Y019913D01*
X017495Y019913D01*
X019245Y017202D02*
X019643Y017202D01*
X019745Y017100D01*
X019745Y016600D01*
X019995Y016600D01*
X020245Y016850D01*
X020245Y017100D01*
X020369Y017224D01*
X020745Y017224D01*
X020745Y016476D02*
X020745Y015474D01*
X020245Y015350D02*
X019995Y015600D01*
X019745Y015600D01*
X019745Y015100D01*
X019643Y014998D01*
X019245Y014998D01*
X019629Y014614D01*
X019629Y014140D01*
X019842Y013300D02*
X019866Y013300D01*
X019964Y013202D01*
X020526Y013202D01*
X020643Y013319D01*
X020643Y013350D01*
X021245Y013350D01*
X021245Y010704D01*
X020831Y010290D01*
X020812Y010309D01*
X020771Y010333D01*
X020725Y010345D01*
X020189Y010345D01*
X020189Y009927D01*
X020034Y009927D01*
X020034Y010345D01*
X019745Y010345D01*
X019745Y011523D01*
X019874Y011523D01*
X019874Y011677D01*
X020291Y011677D01*
X020291Y011978D01*
X020279Y012024D01*
X020255Y012065D01*
X020222Y012098D01*
X020219Y012100D01*
X020222Y012102D01*
X020255Y012135D01*
X020279Y012176D01*
X020291Y012222D01*
X020291Y012523D01*
X019874Y012523D01*
X019874Y012677D01*
X020291Y012677D01*
X020291Y012978D01*
X020279Y013024D01*
X020255Y013065D01*
X020222Y013098D01*
X020181Y013122D01*
X020135Y013134D01*
X019874Y013134D01*
X019874Y012677D01*
X019745Y012677D01*
X019745Y013249D01*
X019792Y013249D01*
X019842Y013300D01*
X019798Y013256D02*
X019910Y013256D01*
X019874Y013097D02*
X019745Y013097D01*
X019745Y012939D02*
X019874Y012939D01*
X019874Y012780D02*
X019745Y012780D01*
X019874Y012622D02*
X021245Y012622D01*
X021245Y012780D02*
X020291Y012780D01*
X020291Y012939D02*
X021245Y012939D01*
X021245Y013097D02*
X020223Y013097D01*
X020579Y013256D02*
X021245Y013256D01*
X021245Y012463D02*
X020291Y012463D01*
X020291Y012305D02*
X021245Y012305D01*
X021245Y012146D02*
X020261Y012146D01*
X020288Y011988D02*
X021245Y011988D01*
X021245Y011829D02*
X020291Y011829D01*
X020291Y011523D02*
X019874Y011523D01*
X019874Y011066D01*
X020135Y011066D01*
X020181Y011078D01*
X020222Y011102D01*
X020255Y011135D01*
X020279Y011176D01*
X020291Y011222D01*
X020291Y011523D01*
X020291Y011512D02*
X021245Y011512D01*
X021245Y011354D02*
X020291Y011354D01*
X020284Y011195D02*
X021245Y011195D01*
X021245Y011037D02*
X019745Y011037D01*
X019745Y011195D02*
X019874Y011195D01*
X019874Y011354D02*
X019745Y011354D01*
X019745Y011512D02*
X019874Y011512D01*
X019874Y011671D02*
X021245Y011671D01*
X021245Y010878D02*
X019745Y010878D01*
X019745Y010720D02*
X021245Y010720D01*
X021102Y010561D02*
X019745Y010561D01*
X019745Y010403D02*
X020944Y010403D01*
X020189Y010244D02*
X020034Y010244D01*
X020034Y010086D02*
X020189Y010086D01*
X020189Y009773D02*
X020189Y009355D01*
X020725Y009355D01*
X020745Y009360D01*
X020745Y008350D01*
X019745Y008350D01*
X019745Y009355D01*
X020034Y009355D01*
X020034Y009773D01*
X020189Y009773D01*
X020189Y009769D02*
X020034Y009769D01*
X020034Y009610D02*
X020189Y009610D01*
X020189Y009452D02*
X020034Y009452D01*
X019745Y009293D02*
X020745Y009293D01*
X020745Y009135D02*
X019745Y009135D01*
X019745Y008976D02*
X020745Y008976D01*
X020745Y008818D02*
X019745Y008818D01*
X019745Y008659D02*
X020745Y008659D01*
X020745Y008501D02*
X019745Y008501D01*
X018745Y008190D02*
X018585Y008350D01*
X018245Y008350D01*
X017995Y008100D01*
X017995Y006100D01*
X019245Y004850D01*
X019245Y003850D01*
X018245Y003850D02*
X018245Y004600D01*
X017745Y005100D01*
X017995Y002350D02*
X016245Y002350D01*
X015745Y001850D01*
X006995Y001850D01*
X006745Y002100D01*
X006745Y003600D01*
X006495Y003850D01*
X004495Y003850D02*
X004495Y001850D01*
X004995Y001350D01*
X017245Y001350D01*
X018245Y002100D02*
X017995Y002350D01*
X018245Y002100D02*
X018245Y001350D01*
X019745Y011677D02*
X019745Y012523D01*
X019874Y012523D01*
X019874Y012066D01*
X019874Y011677D01*
X019745Y011677D01*
X019745Y011829D02*
X019874Y011829D01*
X019874Y011988D02*
X019745Y011988D01*
X019745Y012146D02*
X019874Y012146D01*
X019874Y012305D02*
X019745Y012305D01*
X019745Y012463D02*
X019874Y012463D01*
X020369Y014726D02*
X020245Y014850D01*
X020245Y015350D01*
X020369Y014726D02*
X020745Y014726D01*
X024995Y014682D02*
X025699Y014682D01*
X025699Y014677D02*
X026116Y014677D01*
X026116Y014523D01*
X025699Y014523D01*
X025699Y014222D01*
X025711Y014176D01*
X025735Y014135D01*
X025768Y014102D01*
X025771Y014100D01*
X025768Y014098D01*
X025735Y014065D01*
X025711Y014024D01*
X025699Y013978D01*
X025699Y013677D01*
X026116Y013677D01*
X026116Y013523D01*
X025699Y013523D01*
X025699Y013350D01*
X025071Y013350D01*
X025047Y013360D01*
X024995Y013360D01*
X024995Y014840D01*
X025547Y014840D01*
X025571Y014850D01*
X025699Y014850D01*
X025699Y014677D01*
X025699Y014841D02*
X025548Y014841D01*
X025699Y014365D02*
X024995Y014365D01*
X024995Y014207D02*
X025703Y014207D01*
X025725Y014048D02*
X024995Y014048D01*
X024995Y013890D02*
X025699Y013890D01*
X025699Y013731D02*
X024995Y013731D01*
X024995Y013573D02*
X026116Y013573D01*
X026116Y013677D02*
X026116Y014134D01*
X026116Y014523D01*
X026271Y014523D01*
X026271Y013677D01*
X026116Y013677D01*
X026116Y013731D02*
X026271Y013731D01*
X026271Y013890D02*
X026116Y013890D01*
X026116Y014048D02*
X026271Y014048D01*
X026271Y014207D02*
X026116Y014207D01*
X026116Y014365D02*
X026271Y014365D01*
X026116Y014524D02*
X024995Y014524D01*
X024995Y013414D02*
X025699Y013414D01*
X028495Y014600D02*
X028495Y014850D01*
X016995Y027600D02*
X016745Y027850D01*
X016369Y027850D01*
X012495Y029350D02*
X012123Y029722D01*
X011381Y029722D01*
X010373Y029722D01*
X010245Y029850D01*
X010635Y029210D02*
X011381Y029210D01*
X008575Y032910D02*
X008415Y032910D01*
X008415Y033068D02*
X008575Y033068D01*
X008575Y033227D02*
X008415Y033227D01*
X008415Y036100D02*
X006245Y036100D01*
X006245Y038850D01*
X011495Y038850D01*
X011495Y037350D01*
X010745Y037350D01*
X010745Y036100D01*
X008575Y036100D01*
X008575Y036239D01*
X010547Y036239D01*
X010547Y036651D01*
X010535Y036697D01*
X010511Y036738D01*
X010477Y036772D01*
X010436Y036795D01*
X010391Y036808D01*
X008575Y036808D01*
X008575Y036239D01*
X008415Y036239D01*
X008415Y036808D01*
X006599Y036808D01*
X006553Y036795D01*
X006512Y036772D01*
X006479Y036738D01*
X006455Y036697D01*
X006443Y036651D01*
X006443Y036239D01*
X008415Y036239D01*
X008415Y036100D01*
X008415Y036238D02*
X006245Y036238D01*
X006245Y036397D02*
X006443Y036397D01*
X006443Y036555D02*
X006245Y036555D01*
X006245Y036714D02*
X006465Y036714D01*
X006245Y036872D02*
X010745Y036872D01*
X010745Y036714D02*
X010525Y036714D01*
X010547Y036555D02*
X010745Y036555D01*
X010745Y036397D02*
X010547Y036397D01*
X010745Y036238D02*
X008575Y036238D01*
X008575Y036397D02*
X008415Y036397D01*
X008415Y036555D02*
X008575Y036555D01*
X008575Y036714D02*
X008415Y036714D01*
X006245Y037031D02*
X010745Y037031D01*
X010745Y037189D02*
X006245Y037189D01*
X006245Y037348D02*
X010745Y037348D01*
X011495Y037506D02*
X006245Y037506D01*
X006245Y037665D02*
X011495Y037665D01*
X011495Y037600D02*
X011495Y036724D01*
X012010Y036714D02*
X012593Y036714D01*
X012593Y036555D02*
X012010Y036555D01*
X012010Y036397D02*
X012609Y036397D01*
X012593Y036238D02*
X012010Y036238D01*
X012010Y036080D02*
X012593Y036080D01*
X012602Y035921D02*
X012010Y035921D01*
X012010Y035763D02*
X012597Y035763D01*
X012593Y035604D02*
X011995Y035604D01*
X011995Y035446D02*
X012593Y035446D01*
X012593Y035590D02*
X012851Y035590D01*
X012851Y035590D01*
X012593Y035590D01*
X012602Y035287D02*
X011995Y035287D01*
X011995Y035129D02*
X012593Y035129D01*
X012593Y035095D02*
X012851Y035095D01*
X012593Y035095D01*
X012593Y034970D02*
X011995Y034970D01*
X011995Y034812D02*
X012674Y034812D01*
X012902Y034812D02*
X012902Y034812D01*
X012902Y034837D02*
X012902Y034782D01*
X012902Y034837D01*
X012902Y034837D01*
X012851Y035095D02*
X012851Y035095D01*
X013796Y035129D02*
X013956Y035129D01*
X013956Y035287D02*
X013796Y035287D01*
X013796Y035446D02*
X013956Y035446D01*
X013956Y035604D02*
X013796Y035604D01*
X013796Y035763D02*
X013956Y035763D01*
X013956Y036080D02*
X013796Y036080D01*
X013796Y036238D02*
X013956Y036238D01*
X013956Y036397D02*
X013796Y036397D01*
X013796Y036555D02*
X013956Y036555D01*
X013956Y036714D02*
X013796Y036714D01*
X013796Y036872D02*
X013956Y036872D01*
X013995Y037031D02*
X012010Y037031D01*
X012010Y036872D02*
X012653Y036872D01*
X012902Y036872D02*
X012902Y036872D01*
X012902Y036863D02*
X012902Y036863D01*
X011495Y037823D02*
X006245Y037823D01*
X006245Y037982D02*
X011495Y037982D01*
X011495Y038140D02*
X006245Y038140D01*
X006245Y038299D02*
X011495Y038299D01*
X011495Y038457D02*
X006245Y038457D01*
X006245Y038616D02*
X011495Y038616D01*
X011495Y038774D02*
X006245Y038774D01*
X011995Y034653D02*
X013995Y034653D01*
X013956Y034812D02*
X013796Y034812D01*
X013796Y034970D02*
X013956Y034970D01*
X015088Y035129D02*
X015088Y035129D01*
X015088Y035287D02*
X015088Y035287D01*
X015088Y035446D02*
X015088Y035446D01*
X015088Y035590D02*
X015088Y035903D01*
X015088Y036110D01*
X015416Y036110D01*
X015088Y036110D01*
X015088Y036110D01*
X015088Y035590D01*
X015088Y035590D01*
X015088Y035604D02*
X015088Y035604D01*
X015088Y035763D02*
X015088Y035763D01*
X015088Y035921D02*
X015088Y035921D01*
X015088Y036080D02*
X015088Y036080D01*
X015088Y036110D02*
X015088Y036110D01*
X015416Y036080D02*
X018261Y036080D01*
X018262Y036074D02*
X018286Y036033D01*
X018319Y035999D01*
X018360Y035976D01*
X018406Y035963D01*
X018667Y035963D01*
X018667Y036656D01*
X018250Y036656D01*
X018250Y036120D01*
X018262Y036074D01*
X018250Y036238D02*
X015416Y036238D01*
X015436Y036397D02*
X018250Y036397D01*
X018250Y036555D02*
X015436Y036555D01*
X015436Y036714D02*
X018667Y036714D01*
X018822Y036714D02*
X021167Y036714D01*
X021167Y036656D02*
X020750Y036656D01*
X020750Y036120D01*
X020762Y036074D01*
X020786Y036033D01*
X020819Y035999D01*
X020860Y035976D01*
X020906Y035963D01*
X021167Y035963D01*
X021167Y036656D01*
X021167Y036555D02*
X021322Y036555D01*
X021322Y036397D02*
X021167Y036397D01*
X021167Y036238D02*
X021322Y036238D01*
X021322Y036080D02*
X021167Y036080D01*
X021322Y036714D02*
X025917Y036714D01*
X025917Y036555D02*
X026072Y036555D01*
X026072Y036397D02*
X025917Y036397D01*
X025917Y036238D02*
X026072Y036238D01*
X026072Y036080D02*
X025917Y036080D01*
X020761Y036080D02*
X020667Y036080D01*
X020667Y036238D02*
X020750Y036238D01*
X020750Y036397D02*
X020656Y036397D01*
X020750Y036555D02*
X019240Y036555D01*
X019240Y036397D02*
X019334Y036397D01*
X019323Y036238D02*
X019240Y036238D01*
X019229Y036080D02*
X019323Y036080D01*
X019323Y035921D02*
X015407Y035921D01*
X015411Y035763D02*
X019323Y035763D01*
X019915Y035763D02*
X020075Y035763D01*
X020075Y035921D02*
X019915Y035921D01*
X019915Y036080D02*
X020075Y036080D01*
X020075Y036238D02*
X019915Y036238D01*
X019915Y036397D02*
X020075Y036397D01*
X018822Y036397D02*
X018667Y036397D01*
X018667Y036555D02*
X018822Y036555D01*
X018822Y036238D02*
X018667Y036238D01*
X018667Y036080D02*
X018822Y036080D01*
X017293Y035287D02*
X017197Y035287D01*
X017197Y035129D02*
X017293Y035129D01*
X016770Y035129D02*
X016720Y035129D01*
X016711Y035287D02*
X016779Y035287D01*
X016293Y035287D02*
X016197Y035287D01*
X016197Y035129D02*
X016293Y035129D01*
X015770Y035129D02*
X015416Y035129D01*
X015406Y035287D02*
X015779Y035287D01*
X016197Y034178D02*
X016293Y034178D01*
X016720Y034178D01*
X016720Y033946D01*
X016708Y033901D01*
X016684Y033860D01*
X016651Y033826D01*
X016610Y033802D01*
X016564Y033790D01*
X016293Y033790D01*
X016293Y034178D01*
X016293Y034019D02*
X016197Y034019D01*
X016197Y033861D02*
X016293Y033861D01*
X016685Y033861D02*
X016805Y033861D01*
X016806Y033860D02*
X016839Y033826D01*
X016880Y033802D01*
X016926Y033790D01*
X017197Y033790D01*
X017197Y034178D01*
X016770Y034178D01*
X016770Y033946D01*
X016782Y033901D01*
X016806Y033860D01*
X016770Y034019D02*
X016720Y034019D01*
X016720Y034178D02*
X016770Y034178D01*
X016770Y034336D02*
X016720Y034336D01*
X017197Y034178D02*
X017293Y034178D01*
X017293Y034019D02*
X017197Y034019D01*
X017197Y033861D02*
X017293Y033861D01*
X019915Y033227D02*
X020075Y033227D01*
X020075Y033068D02*
X019915Y033068D01*
X019915Y032910D02*
X020075Y032910D01*
X020075Y032751D02*
X019915Y032751D01*
X019915Y032593D02*
X020075Y032593D01*
X009649Y019754D02*
X008495Y019754D01*
X008495Y019596D02*
X009490Y019596D01*
X009332Y019437D02*
X008495Y019437D01*
X008745Y019437D02*
X006775Y019437D01*
X006775Y019279D02*
X008745Y019279D01*
X008745Y019120D02*
X006775Y019120D01*
X006775Y018962D02*
X008745Y018962D01*
X008745Y018803D02*
X006775Y018803D01*
X006928Y018645D02*
X007105Y018645D01*
X007447Y018645D02*
X007543Y018645D01*
X007543Y018486D02*
X007447Y018486D01*
X007447Y018328D02*
X007543Y018328D01*
X007885Y018645D02*
X008745Y018645D01*
X008745Y018486D02*
X007990Y018486D01*
X007990Y018328D02*
X008745Y018328D01*
X008745Y018169D02*
X007990Y018169D01*
X007495Y017476D02*
X007369Y017476D01*
X006995Y017850D01*
X006495Y017549D02*
X006495Y017476D01*
X006495Y017549D02*
X005495Y017549D01*
X005572Y018600D02*
X005572Y018729D01*
X005417Y018729D01*
X005417Y018600D01*
X004572Y018600D01*
X004572Y018729D01*
X004417Y018729D01*
X004417Y019146D01*
X004117Y019146D01*
X004071Y019134D01*
X004030Y019110D01*
X003997Y019077D01*
X003973Y019036D01*
X003961Y018990D01*
X003961Y018729D01*
X004417Y018729D01*
X004417Y018600D01*
X003745Y018600D01*
X003745Y019850D01*
X006099Y019850D01*
X006215Y019734D01*
X006215Y018680D01*
X006097Y018680D01*
X006017Y018600D01*
X005572Y018600D01*
X005572Y018645D02*
X006062Y018645D01*
X006029Y018729D02*
X006029Y018990D01*
X006017Y019036D01*
X005993Y019077D01*
X005960Y019110D01*
X005919Y019134D01*
X005873Y019146D01*
X005572Y019146D01*
X005572Y018729D01*
X006029Y018729D01*
X006029Y018803D02*
X006215Y018803D01*
X006215Y018962D02*
X006029Y018962D01*
X005943Y019120D02*
X006215Y019120D01*
X006215Y019279D02*
X003745Y019279D01*
X003745Y019437D02*
X006215Y019437D01*
X006215Y019596D02*
X003745Y019596D01*
X003745Y019754D02*
X006195Y019754D01*
X006495Y019850D02*
X006119Y020226D01*
X006119Y020356D01*
X005745Y020356D02*
X005745Y019850D01*
X005495Y019600D01*
X005417Y019146D02*
X005117Y019146D01*
X005071Y019134D01*
X005030Y019110D01*
X004997Y019077D01*
X004995Y019074D01*
X004993Y019077D01*
X004960Y019110D01*
X004919Y019134D01*
X004873Y019146D01*
X004572Y019146D01*
X004572Y018729D01*
X005417Y018729D01*
X005417Y019146D01*
X005417Y019120D02*
X005572Y019120D01*
X005572Y018962D02*
X005417Y018962D01*
X005417Y018803D02*
X005572Y018803D01*
X005417Y018645D02*
X004572Y018645D01*
X004417Y018645D02*
X003745Y018645D01*
X003745Y018803D02*
X003961Y018803D01*
X003961Y018962D02*
X003745Y018962D01*
X003745Y019120D02*
X004047Y019120D01*
X004417Y019120D02*
X004572Y019120D01*
X004572Y018962D02*
X004417Y018962D01*
X004417Y018803D02*
X004572Y018803D01*
X004943Y019120D02*
X005047Y019120D01*
X005745Y020356D02*
X005745Y020850D01*
X006495Y019850D02*
X006495Y018224D01*
X006775Y019596D02*
X008745Y019596D01*
X008745Y019754D02*
X006775Y019754D01*
X006772Y019913D02*
X008745Y019913D01*
X008745Y020071D02*
X006670Y020071D01*
X006495Y018224D02*
X006586Y018172D01*
X006674Y018116D01*
X006759Y018055D01*
X006841Y017991D01*
X006920Y017922D01*
X006995Y017850D01*
X006245Y016100D02*
X006245Y015470D01*
X006119Y015344D01*
X006433Y015262D02*
X006433Y015040D01*
X006299Y014906D01*
X006245Y014906D01*
X006245Y014794D01*
X006299Y014794D01*
X006433Y014660D01*
X006433Y014308D01*
X006732Y014009D01*
X006775Y013906D01*
X006775Y012680D01*
X006893Y012680D01*
X007010Y012563D01*
X007010Y012541D01*
X007012Y012549D01*
X007036Y012590D01*
X007069Y012624D01*
X007110Y012648D01*
X007156Y012660D01*
X007447Y012660D01*
X007447Y012272D01*
X007543Y012272D01*
X007990Y012272D01*
X007990Y012504D01*
X007978Y012549D01*
X007954Y012590D01*
X007920Y012624D01*
X007879Y012648D01*
X007834Y012660D01*
X007543Y012660D01*
X007543Y012272D01*
X007543Y012176D01*
X007990Y012176D01*
X007990Y012100D01*
X008745Y012100D01*
X008745Y014304D01*
X008572Y014304D01*
X008572Y014721D01*
X008417Y014721D01*
X007572Y014721D01*
X007572Y014304D01*
X007873Y014304D01*
X007919Y014316D01*
X007960Y014340D01*
X007993Y014373D01*
X007995Y014376D01*
X007997Y014373D01*
X008030Y014340D01*
X008071Y014316D01*
X008117Y014304D01*
X008417Y014304D01*
X008417Y014721D01*
X008417Y014876D01*
X007961Y014876D01*
X007572Y014876D01*
X007417Y014876D01*
X007417Y014721D01*
X006961Y014721D01*
X006961Y014460D01*
X006973Y014414D01*
X006997Y014373D01*
X007030Y014340D01*
X007071Y014316D01*
X007117Y014304D01*
X007417Y014304D01*
X007417Y014721D01*
X007572Y014721D01*
X007572Y014876D01*
X007572Y015294D01*
X007873Y015294D01*
X007919Y015282D01*
X007960Y015258D01*
X007993Y015224D01*
X007995Y015221D01*
X007997Y015224D01*
X008030Y015258D01*
X008071Y015282D01*
X008117Y015294D01*
X008417Y015294D01*
X008417Y014876D01*
X008572Y014876D01*
X008572Y015294D01*
X008745Y015294D01*
X008745Y015386D01*
X008058Y015386D01*
X007995Y015449D01*
X007932Y015386D01*
X007058Y015386D01*
X006941Y015503D01*
X006941Y015600D01*
X006525Y015600D01*
X006525Y015414D01*
X006482Y015311D01*
X006433Y015262D01*
X006484Y015316D02*
X008745Y015316D01*
X008572Y015158D02*
X008417Y015158D01*
X008417Y014999D02*
X008572Y014999D01*
X008417Y014841D02*
X007572Y014841D01*
X007417Y014841D02*
X006245Y014841D01*
X006392Y014999D02*
X006961Y014999D01*
X006961Y014876D02*
X007417Y014876D01*
X007417Y015294D01*
X007117Y015294D01*
X007071Y015282D01*
X007030Y015258D01*
X006997Y015224D01*
X006973Y015183D01*
X006961Y015137D01*
X006961Y014876D01*
X006961Y014682D02*
X006411Y014682D01*
X006433Y014524D02*
X006961Y014524D01*
X007005Y014365D02*
X006433Y014365D01*
X006534Y014207D02*
X008745Y014207D01*
X008745Y014048D02*
X006693Y014048D01*
X006775Y013890D02*
X008745Y013890D01*
X008745Y013731D02*
X006775Y013731D01*
X006775Y013573D02*
X008745Y013573D01*
X008745Y013414D02*
X006775Y013414D01*
X006775Y013256D02*
X008745Y013256D01*
X008745Y013097D02*
X006775Y013097D01*
X006775Y012939D02*
X008745Y012939D01*
X008745Y012780D02*
X006775Y012780D01*
X006951Y012622D02*
X007067Y012622D01*
X007447Y012622D02*
X007543Y012622D01*
X007543Y012463D02*
X007447Y012463D01*
X007447Y012305D02*
X007543Y012305D01*
X007990Y012305D02*
X008745Y012305D01*
X008745Y012463D02*
X007990Y012463D01*
X007923Y012622D02*
X008745Y012622D01*
X008745Y012146D02*
X007990Y012146D01*
X007495Y011476D02*
X007369Y011476D01*
X006745Y012100D01*
X006619Y012100D01*
X006495Y012224D01*
X006495Y013850D01*
X006119Y014226D01*
X006119Y014356D01*
X005745Y014356D02*
X005745Y014850D01*
X006745Y014850D01*
X006966Y015158D02*
X006433Y015158D01*
X006525Y015475D02*
X006969Y015475D01*
X007417Y015158D02*
X007572Y015158D01*
X007572Y014999D02*
X007417Y014999D01*
X007417Y014682D02*
X007572Y014682D01*
X007572Y014524D02*
X007417Y014524D01*
X007417Y014365D02*
X007572Y014365D01*
X007985Y014365D02*
X008005Y014365D01*
X008417Y014365D02*
X008572Y014365D01*
X008572Y014524D02*
X008417Y014524D01*
X008417Y014682D02*
X008572Y014682D01*
X006215Y013734D02*
X006215Y012680D01*
X006097Y012680D01*
X006017Y012600D01*
X005572Y012600D01*
X005572Y012729D01*
X005417Y012729D01*
X005417Y012600D01*
X004572Y012600D01*
X004572Y012729D01*
X004417Y012729D01*
X004417Y013146D01*
X004117Y013146D01*
X004071Y013134D01*
X004030Y013110D01*
X003997Y013077D01*
X003973Y013036D01*
X003961Y012990D01*
X003961Y012729D01*
X004417Y012729D01*
X004417Y012600D01*
X003745Y012600D01*
X003745Y013850D01*
X006099Y013850D01*
X006215Y013734D01*
X006215Y013731D02*
X003745Y013731D01*
X003745Y013573D02*
X006215Y013573D01*
X006215Y013414D02*
X003745Y013414D01*
X003745Y013256D02*
X006215Y013256D01*
X006215Y013097D02*
X005973Y013097D01*
X005960Y013110D02*
X005919Y013134D01*
X005873Y013146D01*
X005572Y013146D01*
X005572Y012729D01*
X006029Y012729D01*
X006029Y012990D01*
X006017Y013036D01*
X005993Y013077D01*
X005960Y013110D01*
X006029Y012939D02*
X006215Y012939D01*
X006215Y012780D02*
X006029Y012780D01*
X006039Y012622D02*
X005572Y012622D01*
X005417Y012622D02*
X004572Y012622D01*
X004572Y012729D02*
X005417Y012729D01*
X005417Y013146D01*
X005117Y013146D01*
X005071Y013134D01*
X005030Y013110D01*
X004997Y013077D01*
X004995Y013074D01*
X004993Y013077D01*
X004960Y013110D01*
X004919Y013134D01*
X004873Y013146D01*
X004572Y013146D01*
X004572Y012729D01*
X004572Y012780D02*
X004417Y012780D01*
X004417Y012622D02*
X003745Y012622D01*
X003745Y012780D02*
X003961Y012780D01*
X003961Y012939D02*
X003745Y012939D01*
X003745Y013097D02*
X004017Y013097D01*
X004417Y013097D02*
X004572Y013097D01*
X004572Y012939D02*
X004417Y012939D01*
X004973Y013097D02*
X005017Y013097D01*
X005417Y013097D02*
X005572Y013097D01*
X005572Y012939D02*
X005417Y012939D01*
X005417Y012780D02*
X005572Y012780D01*
X005745Y013600D02*
X005995Y013600D01*
X005745Y013600D02*
X005745Y014356D01*
X005495Y011549D02*
X005568Y011476D01*
X006495Y011476D01*
D42*
X007495Y013350D03*
X007495Y014100D03*
X006745Y014350D03*
X006745Y014850D03*
X006745Y015350D03*
X006245Y016100D03*
X004495Y016600D03*
X004495Y013600D03*
X004995Y013600D03*
X005495Y013600D03*
X005995Y013600D03*
X003995Y013600D03*
X008495Y013350D03*
X008495Y012600D03*
X008495Y014100D03*
X008495Y016850D03*
X008495Y018600D03*
X008495Y019350D03*
X008495Y020100D03*
X007495Y020100D03*
X007495Y019350D03*
X006745Y020350D03*
X006745Y020850D03*
X006745Y021350D03*
X006245Y022100D03*
X006245Y024350D03*
X005495Y024350D03*
X004745Y024350D03*
X003995Y024350D03*
X003245Y024350D03*
X003245Y025100D03*
X002495Y024350D03*
X001745Y024350D03*
X001745Y025100D03*
X000995Y027350D03*
X002245Y030600D03*
X005495Y028100D03*
X007245Y028350D03*
X008995Y028100D03*
X009745Y028600D03*
X010245Y028600D03*
X010745Y028600D03*
X010745Y027600D03*
X010745Y027100D03*
X010745Y026600D03*
X010745Y026100D03*
X010245Y026100D03*
X010245Y026600D03*
X010245Y027100D03*
X010245Y027600D03*
X009745Y027600D03*
X009745Y027100D03*
X009745Y026600D03*
X009745Y026100D03*
X008995Y026100D03*
X008995Y026850D03*
X008245Y026100D03*
X007495Y026100D03*
X006745Y026100D03*
X005995Y026100D03*
X006995Y024350D03*
X007745Y024350D03*
X008495Y024350D03*
X009245Y024350D03*
X009995Y024350D03*
X010745Y024350D03*
X011495Y024350D03*
X012245Y024350D03*
X012995Y024350D03*
X013745Y024350D03*
X014495Y024350D03*
X014495Y025100D03*
X014495Y026100D03*
X013745Y026100D03*
X012995Y026100D03*
X012245Y026100D03*
X011495Y026100D03*
X011495Y026850D03*
X011495Y027600D03*
X013995Y029600D03*
X015745Y029600D03*
X015745Y029100D03*
X015745Y028600D03*
X016745Y028600D03*
X016745Y029100D03*
X016745Y029600D03*
X016745Y030100D03*
X016745Y030600D03*
X016745Y031100D03*
X016745Y031850D03*
X017245Y031850D03*
X017245Y032350D03*
X017245Y032850D03*
X016745Y032850D03*
X016745Y032350D03*
X016245Y032350D03*
X016245Y031850D03*
X015745Y031850D03*
X015745Y032350D03*
X015745Y032850D03*
X016245Y032850D03*
X016245Y033350D03*
X016745Y033350D03*
X017245Y033350D03*
X017745Y033350D03*
X017745Y032850D03*
X017745Y032350D03*
X017745Y031850D03*
X018495Y031850D03*
X018495Y032350D03*
X018495Y032850D03*
X018995Y032850D03*
X018995Y032350D03*
X018995Y031850D03*
X018995Y033350D03*
X018495Y033350D03*
X019745Y033600D03*
X020245Y033600D03*
X020995Y033350D03*
X021495Y033350D03*
X021495Y032850D03*
X021495Y032350D03*
X021495Y031850D03*
X020995Y031850D03*
X020995Y032350D03*
X020995Y032850D03*
X022995Y032850D03*
X022995Y032350D03*
X022995Y031850D03*
X023495Y031850D03*
X023495Y032350D03*
X023495Y032850D03*
X023495Y033350D03*
X022995Y033350D03*
X024245Y033600D03*
X024745Y033600D03*
X025495Y033350D03*
X025995Y033350D03*
X025995Y032850D03*
X025995Y032350D03*
X025995Y031850D03*
X025495Y031850D03*
X025495Y032350D03*
X025495Y032850D03*
X025495Y035100D03*
X025495Y035600D03*
X025995Y035600D03*
X025995Y035100D03*
X026745Y037600D03*
X027245Y037600D03*
X027245Y038100D03*
X027245Y038600D03*
X026745Y038600D03*
X026745Y038100D03*
X025245Y038100D03*
X025245Y038600D03*
X024745Y038600D03*
X024745Y038100D03*
X024745Y037600D03*
X025245Y037600D03*
X023495Y036600D03*
X023495Y036100D03*
X023495Y035600D03*
X023495Y035100D03*
X022995Y035100D03*
X022995Y035600D03*
X022495Y035600D03*
X022495Y035100D03*
X021995Y035100D03*
X021995Y035600D03*
X021495Y035600D03*
X021495Y035100D03*
X020995Y035100D03*
X020995Y035600D03*
X021995Y036100D03*
X021995Y036600D03*
X022495Y036600D03*
X022995Y036600D03*
X022995Y036100D03*
X022495Y036100D03*
X022495Y037600D03*
X022495Y038100D03*
X022495Y038600D03*
X021995Y038600D03*
X021995Y038100D03*
X021995Y037600D03*
X020495Y037600D03*
X020495Y038100D03*
X020495Y038600D03*
X019495Y038600D03*
X019495Y038100D03*
X019495Y037600D03*
X017995Y037600D03*
X017995Y038100D03*
X017995Y038600D03*
X017495Y036350D03*
X017495Y035850D03*
X017995Y035600D03*
X017995Y035100D03*
X018495Y035100D03*
X018495Y035600D03*
X018995Y035600D03*
X018995Y035100D03*
X016995Y035850D03*
X016995Y036350D03*
X016495Y036350D03*
X016495Y035850D03*
X015995Y035850D03*
X015995Y036350D03*
X015245Y037350D03*
X015245Y038100D03*
X013495Y039100D03*
X012995Y039100D03*
X012245Y036850D03*
X012245Y036350D03*
X012245Y035850D03*
X012245Y035350D03*
X012245Y034850D03*
X012245Y034350D03*
X012245Y033850D03*
X012245Y033350D03*
X012245Y032600D03*
X012250Y032595D03*
X011495Y032350D03*
X011495Y031850D03*
X010995Y031850D03*
X010995Y032350D03*
X010995Y032850D03*
X011495Y032850D03*
X011495Y033350D03*
X010995Y033350D03*
X010245Y032600D03*
X010245Y031850D03*
X009495Y031850D03*
X009495Y032600D03*
X008745Y032600D03*
X008745Y031850D03*
X007995Y031850D03*
X007995Y032600D03*
X007245Y032600D03*
X007245Y031850D03*
X006495Y031850D03*
X006495Y032600D03*
X010745Y031100D03*
X015745Y031100D03*
X015745Y030600D03*
X015745Y030100D03*
X016995Y027600D03*
X018745Y028850D03*
X019245Y025600D03*
X021745Y024850D03*
X021745Y024100D03*
X022495Y024100D03*
X022495Y024850D03*
X022995Y025350D03*
X023495Y025350D03*
X023995Y025350D03*
X022245Y026100D03*
X022245Y026600D03*
X022245Y027100D03*
X022245Y027600D03*
X022245Y028100D03*
X018245Y020850D03*
X018245Y020350D03*
X017745Y020350D03*
X017745Y020850D03*
X020995Y018600D03*
X020995Y018100D03*
X022495Y016850D03*
X022495Y016350D03*
X021495Y015850D03*
X021495Y015350D03*
X021495Y014850D03*
X020245Y013600D03*
X020745Y013100D03*
X020745Y012600D03*
X020745Y012100D03*
X020745Y011600D03*
X021745Y011600D03*
X020495Y010600D03*
X019995Y010600D03*
X019995Y009100D03*
X020495Y009100D03*
X020495Y008600D03*
X019995Y008600D03*
X020245Y006850D03*
X018745Y006100D03*
X017745Y005100D03*
X015745Y011600D03*
X015495Y015350D03*
X011745Y017600D03*
X010745Y017600D03*
X012495Y020100D03*
X012495Y020600D03*
X009495Y021850D03*
X005995Y019600D03*
X005495Y019600D03*
X004995Y019600D03*
X004495Y019600D03*
X003995Y019600D03*
X015745Y033350D03*
X005245Y038350D03*
X005245Y038850D03*
X004495Y038600D03*
X023995Y017350D03*
X023995Y016850D03*
X024495Y016850D03*
X024495Y017350D03*
X024995Y017350D03*
X025245Y014600D03*
X025245Y014100D03*
X025245Y013600D03*
X023745Y011600D03*
X023745Y009600D03*
X006495Y003850D03*
X004495Y003850D03*
D43*
X011245Y038100D02*
X012143Y038100D01*
D44*
X012245Y038202D01*
X012245Y038600D01*
X012745Y038600D01*
X012995Y038850D01*
X012995Y039100D01*
X013495Y039100D02*
X013495Y038850D01*
X013745Y038600D01*
X014245Y038600D01*
X014245Y038202D01*
X014347Y038100D01*
X015245Y037350D02*
X015088Y037193D01*
X015088Y036605D01*
X012902Y032595D02*
X012250Y032595D01*
X012245Y032600D01*
X012745Y031724D02*
X013871Y031724D01*
X014245Y031350D01*
X014245Y030350D01*
X013245Y030350D01*
X013105Y030490D01*
X011381Y030490D01*
X011381Y030746D02*
X011099Y030746D01*
X010745Y031100D01*
X011381Y031002D02*
X012719Y031002D01*
X012745Y030976D01*
X013548Y030976D01*
X013674Y030850D01*
X014485Y031266D02*
X014485Y031350D01*
X017495Y031350D01*
X017495Y031055D01*
X017431Y031055D01*
X017431Y030660D01*
X017311Y030660D01*
X017311Y031055D01*
X017094Y031055D01*
X017053Y031044D01*
X017017Y031023D01*
X016987Y030994D01*
X016966Y030957D01*
X016955Y030916D01*
X016955Y030660D01*
X017311Y030660D01*
X017311Y030540D01*
X017431Y030540D01*
X017431Y030145D01*
X017495Y030145D01*
X017495Y030055D01*
X017431Y030055D01*
X017431Y029660D01*
X017311Y029660D01*
X017311Y030055D01*
X017094Y030055D01*
X017053Y030044D01*
X017017Y030023D01*
X016987Y029994D01*
X016966Y029957D01*
X016955Y029916D01*
X016955Y029660D01*
X017311Y029660D01*
X017311Y029540D01*
X017431Y029540D01*
X017431Y029219D01*
X017409Y029219D01*
X017409Y028822D01*
X017332Y028822D01*
X017332Y029219D01*
X017311Y029219D01*
X017311Y029540D01*
X016955Y029540D01*
X016955Y029284D01*
X016966Y029243D01*
X016987Y029206D01*
X017017Y029177D01*
X017048Y029159D01*
X017046Y029157D01*
X017025Y029120D01*
X017014Y029080D01*
X017014Y028821D01*
X017332Y028821D01*
X017332Y028745D01*
X017014Y028745D01*
X017014Y028486D01*
X017025Y028446D01*
X017046Y028409D01*
X017076Y028379D01*
X017112Y028358D01*
X017144Y028350D01*
X015437Y028350D01*
X015447Y028356D01*
X015477Y028386D01*
X015498Y028422D01*
X015509Y028463D01*
X015509Y028739D01*
X015055Y028739D01*
X015055Y028859D01*
X014935Y028859D01*
X014935Y029274D01*
X014619Y029274D01*
X014579Y029263D01*
X014542Y029242D01*
X014513Y029212D01*
X014491Y029176D01*
X014481Y029135D01*
X014481Y028859D01*
X014935Y028859D01*
X014935Y028739D01*
X014481Y028739D01*
X014481Y028463D01*
X014491Y028422D01*
X014513Y028386D01*
X014542Y028356D01*
X014552Y028350D01*
X013245Y028350D01*
X013235Y028360D01*
X013235Y028398D01*
X013198Y028486D01*
X013131Y028553D01*
X012245Y029439D01*
X012245Y029738D01*
X012518Y029738D01*
X012541Y029714D01*
X012609Y029647D01*
X012697Y029610D01*
X013617Y029610D01*
X013617Y029327D01*
X013722Y029222D01*
X014268Y029222D01*
X014373Y029327D01*
X014373Y029860D01*
X014461Y029860D01*
X014461Y029512D01*
X014566Y029406D01*
X015424Y029406D01*
X015529Y029512D01*
X015529Y030291D01*
X015424Y030396D01*
X015056Y030396D01*
X015056Y030434D01*
X015186Y030434D01*
X015291Y030539D01*
X015291Y031161D01*
X015186Y031266D01*
X014485Y031266D01*
X014816Y030850D02*
X014816Y030171D01*
X014745Y030100D01*
X014796Y030100D01*
X014995Y029901D01*
X014745Y030100D02*
X012995Y030100D01*
X012861Y030234D01*
X011381Y030234D01*
X011381Y029978D02*
X012617Y029978D01*
X012745Y029850D01*
X013745Y029850D01*
X013995Y029600D01*
X014373Y029607D02*
X014461Y029607D01*
X014461Y029725D02*
X014373Y029725D01*
X014373Y029844D02*
X014461Y029844D01*
X014484Y029488D02*
X014373Y029488D01*
X014373Y029370D02*
X016955Y029370D01*
X016955Y029488D02*
X015506Y029488D01*
X015529Y029607D02*
X017311Y029607D01*
X017371Y029600D02*
X017371Y028783D01*
X017332Y028777D02*
X015055Y028777D01*
X015055Y028859D02*
X015509Y028859D01*
X015509Y029135D01*
X015498Y029176D01*
X015477Y029212D01*
X015447Y029242D01*
X015411Y029263D01*
X015370Y029274D01*
X015055Y029274D01*
X015055Y028859D01*
X015055Y028896D02*
X014935Y028896D01*
X014935Y029014D02*
X015055Y029014D01*
X015055Y029133D02*
X014935Y029133D01*
X014935Y029251D02*
X015055Y029251D01*
X015431Y029251D02*
X016964Y029251D01*
X017032Y029133D02*
X015509Y029133D01*
X015509Y029014D02*
X017014Y029014D01*
X017014Y028896D02*
X015509Y028896D01*
X015509Y028659D02*
X017014Y028659D01*
X017014Y028540D02*
X015509Y028540D01*
X015498Y028422D02*
X017039Y028422D01*
X017332Y028896D02*
X017409Y028896D01*
X017409Y029014D02*
X017332Y029014D01*
X017332Y029133D02*
X017409Y029133D01*
X017431Y029251D02*
X017311Y029251D01*
X017311Y029370D02*
X017431Y029370D01*
X017431Y029488D02*
X017311Y029488D01*
X017371Y029600D02*
X017371Y030600D01*
X016745Y030600D01*
X016955Y030540D02*
X016955Y030284D01*
X016966Y030243D01*
X016987Y030206D01*
X017017Y030177D01*
X017053Y030156D01*
X017094Y030145D01*
X017311Y030145D01*
X017311Y030540D01*
X016955Y030540D01*
X016955Y030436D02*
X015188Y030436D01*
X015291Y030555D02*
X017311Y030555D01*
X017311Y030673D02*
X017431Y030673D01*
X017431Y030792D02*
X017311Y030792D01*
X017311Y030910D02*
X017431Y030910D01*
X017431Y031029D02*
X017311Y031029D01*
X017495Y031147D02*
X015291Y031147D01*
X015291Y031029D02*
X017026Y031029D01*
X016955Y030910D02*
X015291Y030910D01*
X015291Y030792D02*
X016955Y030792D01*
X016955Y030673D02*
X015291Y030673D01*
X015502Y030318D02*
X016955Y030318D01*
X016994Y030199D02*
X015529Y030199D01*
X015529Y030081D02*
X017495Y030081D01*
X017431Y030199D02*
X017311Y030199D01*
X017311Y030318D02*
X017431Y030318D01*
X017431Y030436D02*
X017311Y030436D01*
X017311Y029962D02*
X017431Y029962D01*
X017431Y029844D02*
X017311Y029844D01*
X017311Y029725D02*
X017431Y029725D01*
X016955Y029725D02*
X015529Y029725D01*
X015529Y029844D02*
X016955Y029844D01*
X016969Y029962D02*
X015529Y029962D01*
X014558Y029251D02*
X014297Y029251D01*
X014481Y029133D02*
X012552Y029133D01*
X012433Y029251D02*
X013693Y029251D01*
X013617Y029370D02*
X012315Y029370D01*
X012245Y029488D02*
X013617Y029488D01*
X013617Y029607D02*
X012245Y029607D01*
X012245Y029725D02*
X012530Y029725D01*
X012541Y029714D02*
X012541Y029714D01*
X011879Y029466D02*
X012995Y028350D01*
X012995Y027474D01*
X013871Y027850D02*
X013871Y026850D01*
X013871Y026226D01*
X013745Y026100D01*
X014495Y026100D02*
X015995Y026100D01*
X016369Y026474D01*
X016369Y026850D01*
X017371Y026850D01*
X018119Y026850D02*
X018119Y027543D01*
X017745Y027917D01*
X019062Y027917D01*
X019245Y028100D01*
X019245Y030350D01*
X018995Y030600D01*
X018119Y030600D01*
X017495Y031266D02*
X015186Y031266D01*
X014481Y029014D02*
X012670Y029014D01*
X012789Y028896D02*
X014481Y028896D01*
X014481Y028659D02*
X013026Y028659D01*
X012907Y028777D02*
X014935Y028777D01*
X014481Y028540D02*
X013144Y028540D01*
X013225Y028422D02*
X014492Y028422D01*
X014619Y027850D02*
X015621Y027850D01*
X015745Y027726D01*
X015745Y027600D01*
X016369Y026976D01*
X016369Y026850D01*
X015621Y026850D02*
X014619Y026850D01*
X012245Y027474D02*
X012245Y028600D01*
X011891Y028954D01*
X011381Y028954D01*
X011381Y028698D02*
X011381Y027714D01*
X011495Y027600D01*
X011381Y029466D02*
X011879Y029466D01*
X009109Y029466D02*
X008111Y029466D01*
X007745Y029100D01*
X007745Y028100D01*
X007495Y027850D01*
X007495Y027474D01*
X006745Y027474D02*
X006745Y027850D01*
X007245Y028350D01*
X007245Y029100D01*
X007867Y029722D01*
X009109Y029722D01*
X008745Y029978D02*
X008666Y029978D01*
X008745Y029978D01*
X008745Y029978D01*
X008666Y029978D02*
X008666Y029962D01*
X007819Y029962D01*
X007731Y029926D01*
X007663Y029858D01*
X007041Y029236D01*
X007005Y029148D01*
X007005Y028860D01*
X006495Y028350D01*
X006495Y027910D01*
X006375Y027910D01*
X006346Y027881D01*
X006311Y027890D01*
X006055Y027890D01*
X006055Y027850D01*
X005935Y027850D01*
X005935Y027890D01*
X005873Y027890D01*
X005873Y028373D01*
X005768Y028478D01*
X005297Y028478D01*
X005276Y028499D01*
X005285Y028534D01*
X005285Y028790D01*
X004929Y028790D01*
X004929Y028910D01*
X005285Y028910D01*
X005285Y029166D01*
X005274Y029207D01*
X005253Y029244D01*
X005223Y029273D01*
X005187Y029294D01*
X005146Y029305D01*
X004929Y029305D01*
X004929Y028910D01*
X004809Y028910D01*
X004809Y029305D01*
X004745Y029305D01*
X004745Y029350D01*
X005495Y029350D01*
X005495Y029540D01*
X006115Y029540D01*
X006220Y029646D01*
X006220Y029757D01*
X006257Y029773D01*
X006324Y029840D01*
X006478Y029994D01*
X008666Y029994D01*
X008666Y029978D01*
X008666Y029962D02*
X006446Y029962D01*
X006328Y029844D02*
X007649Y029844D01*
X007531Y029725D02*
X006220Y029725D01*
X006181Y029607D02*
X007412Y029607D01*
X007294Y029488D02*
X005495Y029488D01*
X005495Y029370D02*
X007175Y029370D01*
X007057Y029251D02*
X005245Y029251D01*
X005285Y029133D02*
X007005Y029133D01*
X007005Y029014D02*
X005285Y029014D01*
X005285Y028777D02*
X006922Y028777D01*
X007005Y028896D02*
X004929Y028896D01*
X004929Y029014D02*
X004809Y029014D01*
X004809Y029133D02*
X004929Y029133D01*
X004929Y029251D02*
X004809Y029251D01*
X005285Y028659D02*
X006803Y028659D01*
X006685Y028540D02*
X005285Y028540D01*
X005495Y028100D02*
X004869Y028100D01*
X004869Y027657D01*
X004495Y027283D01*
X004064Y026474D02*
X004121Y026417D01*
X004064Y026474D02*
X003245Y026474D01*
X003245Y027476D01*
X003121Y027600D01*
X002995Y027600D01*
X002312Y028283D01*
X001995Y028283D01*
X002369Y027417D02*
X002369Y026976D01*
X002495Y026850D01*
X002495Y025726D01*
X003245Y025726D01*
X004621Y025726D01*
X004869Y025974D01*
X004869Y026417D01*
X005186Y026100D01*
X005995Y026100D01*
X005873Y027948D02*
X006495Y027948D01*
X006495Y028066D02*
X005873Y028066D01*
X005873Y028185D02*
X006495Y028185D01*
X006495Y028303D02*
X005873Y028303D01*
X005824Y028422D02*
X006566Y028422D01*
X006121Y029976D02*
X005745Y029976D01*
X005371Y029976D01*
X005245Y029850D01*
X004869Y029850D01*
X004121Y029850D02*
X003995Y029850D01*
X003495Y030350D01*
X003495Y031350D01*
X003995Y031850D01*
X005245Y031850D01*
X005495Y032100D01*
X005495Y038100D01*
X005245Y038350D01*
X005245Y038850D02*
X005495Y038850D01*
X005745Y038600D01*
X005745Y031850D01*
X005495Y031600D01*
X004245Y031600D01*
X004121Y031476D01*
X004121Y030850D01*
X004869Y030850D02*
X005245Y030850D01*
X005371Y030724D01*
X005745Y030724D01*
X006121Y030724D01*
X006355Y030490D01*
X009109Y030490D01*
X009109Y030234D02*
X006379Y030234D01*
X006121Y029976D01*
X008245Y029100D02*
X008245Y027474D01*
X008995Y028100D02*
X009109Y028214D01*
X009109Y028698D01*
X009109Y029210D02*
X008355Y029210D01*
X008245Y029100D01*
X003745Y028850D02*
X003245Y028350D01*
X003245Y028224D01*
X001621Y027417D02*
X001621Y026974D01*
X001745Y026850D01*
X001745Y026474D01*
X001745Y025726D02*
X002495Y025726D01*
X001621Y027417D02*
X001062Y027417D01*
X000995Y027350D01*
X018119Y028783D02*
X018678Y028783D01*
X018745Y028850D01*
X018119Y028783D02*
X018119Y029600D01*
X018995Y022600D02*
X027995Y022600D01*
X027995Y031517D01*
X028031Y031553D01*
X028031Y032647D01*
X027995Y032683D01*
X027995Y033267D01*
X028031Y033303D01*
X028031Y034397D01*
X027995Y034433D01*
X027995Y034850D01*
X026745Y034850D01*
X026745Y037600D01*
X026495Y037600D01*
X026495Y038850D01*
X027495Y038850D01*
X027495Y036850D01*
X027900Y036850D01*
X027997Y036638D01*
X028329Y036255D01*
X028755Y035981D01*
X029242Y035838D01*
X029748Y035838D01*
X030234Y035981D01*
X030234Y035981D01*
X030661Y036255D01*
X030992Y036638D01*
X030995Y036643D01*
X030995Y021600D01*
X021245Y021600D01*
X021245Y021100D01*
X018995Y021100D01*
X018995Y022600D01*
X018995Y022497D02*
X030995Y022497D01*
X030995Y022615D02*
X027995Y022615D01*
X027995Y022734D02*
X030995Y022734D01*
X030995Y022852D02*
X027995Y022852D01*
X027995Y022971D02*
X030995Y022971D01*
X030995Y023089D02*
X027995Y023089D01*
X027995Y023208D02*
X030995Y023208D01*
X030995Y023326D02*
X027995Y023326D01*
X027995Y023445D02*
X030995Y023445D01*
X030995Y023563D02*
X027995Y023563D01*
X027995Y023682D02*
X030995Y023682D01*
X030995Y023800D02*
X027995Y023800D01*
X027995Y023919D02*
X030995Y023919D01*
X030995Y024037D02*
X027995Y024037D01*
X027995Y024156D02*
X030995Y024156D01*
X030995Y024274D02*
X027995Y024274D01*
X027995Y024393D02*
X030995Y024393D01*
X030995Y024511D02*
X027995Y024511D01*
X027995Y024630D02*
X030995Y024630D01*
X030995Y024748D02*
X027995Y024748D01*
X027995Y024867D02*
X030995Y024867D01*
X030995Y024985D02*
X027995Y024985D01*
X027995Y025104D02*
X030995Y025104D01*
X030995Y025222D02*
X027995Y025222D01*
X027995Y025341D02*
X030995Y025341D01*
X030995Y025459D02*
X027995Y025459D01*
X027995Y025578D02*
X030995Y025578D01*
X030995Y025696D02*
X027995Y025696D01*
X027995Y025815D02*
X030995Y025815D01*
X030995Y025933D02*
X027995Y025933D01*
X027995Y026052D02*
X030995Y026052D01*
X030995Y026170D02*
X027995Y026170D01*
X027995Y026289D02*
X030995Y026289D01*
X030995Y026407D02*
X027995Y026407D01*
X027995Y026526D02*
X030995Y026526D01*
X030995Y026644D02*
X027995Y026644D01*
X027995Y026763D02*
X030995Y026763D01*
X030995Y026881D02*
X027995Y026881D01*
X027995Y027000D02*
X030995Y027000D01*
X030995Y027118D02*
X027995Y027118D01*
X027995Y027237D02*
X030995Y027237D01*
X030995Y027355D02*
X027995Y027355D01*
X027995Y027474D02*
X030995Y027474D01*
X030995Y027592D02*
X027995Y027592D01*
X027995Y027711D02*
X030995Y027711D01*
X030995Y027829D02*
X027995Y027829D01*
X027995Y027948D02*
X030995Y027948D01*
X030995Y028066D02*
X027995Y028066D01*
X027995Y028185D02*
X030995Y028185D01*
X030995Y028303D02*
X027995Y028303D01*
X027995Y028422D02*
X030995Y028422D01*
X030995Y028540D02*
X027995Y028540D01*
X027995Y028659D02*
X030995Y028659D01*
X030995Y028777D02*
X027995Y028777D01*
X027995Y028896D02*
X030995Y028896D01*
X030995Y029014D02*
X027995Y029014D01*
X027995Y029133D02*
X030995Y029133D01*
X030995Y029251D02*
X027995Y029251D01*
X027995Y029370D02*
X030995Y029370D01*
X030995Y029488D02*
X027995Y029488D01*
X027995Y029607D02*
X030995Y029607D01*
X030995Y029725D02*
X027995Y029725D01*
X027995Y029844D02*
X030995Y029844D01*
X030995Y029962D02*
X027995Y029962D01*
X027995Y030081D02*
X030995Y030081D01*
X030995Y030199D02*
X027995Y030199D01*
X027995Y030318D02*
X030995Y030318D01*
X030995Y030436D02*
X027995Y030436D01*
X027995Y030555D02*
X030995Y030555D01*
X030995Y030673D02*
X027995Y030673D01*
X027995Y030792D02*
X030995Y030792D01*
X030995Y030910D02*
X027995Y030910D01*
X027995Y031029D02*
X030995Y031029D01*
X030995Y031147D02*
X027995Y031147D01*
X027995Y031266D02*
X030995Y031266D01*
X030995Y031384D02*
X027995Y031384D01*
X027995Y031503D02*
X028537Y031503D01*
X028540Y031500D02*
X028577Y031478D01*
X028618Y031468D01*
X029051Y031468D01*
X029051Y032040D01*
X028479Y032040D01*
X028479Y031606D01*
X028489Y031566D01*
X028511Y031529D01*
X028540Y031500D01*
X028479Y031621D02*
X028031Y031621D01*
X028031Y031740D02*
X028479Y031740D01*
X028479Y031858D02*
X028031Y031858D01*
X028031Y031977D02*
X028479Y031977D01*
X028479Y032160D02*
X029051Y032160D01*
X029051Y032040D01*
X029171Y032040D01*
X029171Y031468D01*
X029605Y031468D01*
X029645Y031478D01*
X029682Y031500D01*
X029711Y031529D01*
X029733Y031566D01*
X029743Y031606D01*
X029743Y032040D01*
X029171Y032040D01*
X029171Y032160D01*
X029051Y032160D01*
X029051Y032732D01*
X028618Y032732D01*
X028577Y032722D01*
X028540Y032700D01*
X028511Y032671D01*
X028489Y032634D01*
X028479Y032594D01*
X028479Y032160D01*
X028479Y032214D02*
X028031Y032214D01*
X028031Y032332D02*
X028479Y032332D01*
X028479Y032451D02*
X028031Y032451D01*
X028031Y032569D02*
X028479Y032569D01*
X028527Y032688D02*
X027995Y032688D01*
X027995Y032806D02*
X030995Y032806D01*
X030995Y032688D02*
X029695Y032688D01*
X029682Y032700D02*
X029711Y032671D01*
X029733Y032634D01*
X029743Y032594D01*
X029743Y032160D01*
X029171Y032160D01*
X029171Y032732D01*
X029605Y032732D01*
X029645Y032722D01*
X029682Y032700D01*
X029743Y032569D02*
X030995Y032569D01*
X030995Y032451D02*
X029743Y032451D01*
X029743Y032332D02*
X030995Y032332D01*
X030995Y032214D02*
X029743Y032214D01*
X029743Y031977D02*
X030995Y031977D01*
X030995Y032095D02*
X029171Y032095D01*
X029171Y031977D02*
X029051Y031977D01*
X029051Y032095D02*
X028031Y032095D01*
X027995Y032925D02*
X030995Y032925D01*
X030995Y033043D02*
X027995Y033043D01*
X027995Y033162D02*
X030995Y033162D01*
X030995Y033280D02*
X029712Y033280D01*
X029711Y033279D02*
X029733Y033316D01*
X029743Y033356D01*
X029743Y033790D01*
X029171Y033790D01*
X029171Y033218D01*
X029605Y033218D01*
X029645Y033228D01*
X029682Y033250D01*
X029711Y033279D01*
X029743Y033399D02*
X030995Y033399D01*
X030995Y033517D02*
X029743Y033517D01*
X029743Y033636D02*
X030995Y033636D01*
X030995Y033754D02*
X029743Y033754D01*
X029743Y033910D02*
X029743Y034344D01*
X029733Y034384D01*
X029711Y034421D01*
X029682Y034450D01*
X029645Y034472D01*
X029605Y034482D01*
X029171Y034482D01*
X029171Y033910D01*
X029051Y033910D01*
X029051Y033790D01*
X028479Y033790D01*
X028479Y033356D01*
X028489Y033316D01*
X028511Y033279D01*
X028540Y033250D01*
X028577Y033228D01*
X028618Y033218D01*
X029051Y033218D01*
X029051Y033790D01*
X029171Y033790D01*
X029171Y033910D01*
X029743Y033910D01*
X029743Y033991D02*
X030995Y033991D01*
X030995Y033873D02*
X029171Y033873D01*
X029171Y033991D02*
X029051Y033991D01*
X029051Y033910D02*
X029051Y034482D01*
X028618Y034482D01*
X028577Y034472D01*
X028540Y034450D01*
X028511Y034421D01*
X028489Y034384D01*
X028479Y034344D01*
X028479Y033910D01*
X029051Y033910D01*
X029051Y033873D02*
X028031Y033873D01*
X028031Y033991D02*
X028479Y033991D01*
X028479Y034110D02*
X028031Y034110D01*
X028031Y034228D02*
X028479Y034228D01*
X028479Y034347D02*
X028031Y034347D01*
X027995Y034465D02*
X028566Y034465D01*
X029051Y034465D02*
X029171Y034465D01*
X029171Y034347D02*
X029051Y034347D01*
X029051Y034228D02*
X029171Y034228D01*
X029171Y034110D02*
X029051Y034110D01*
X029051Y033754D02*
X029171Y033754D01*
X029171Y033636D02*
X029051Y033636D01*
X029051Y033517D02*
X029171Y033517D01*
X029171Y033399D02*
X029051Y033399D01*
X029051Y033280D02*
X029171Y033280D01*
X029171Y032688D02*
X029051Y032688D01*
X029051Y032569D02*
X029171Y032569D01*
X029171Y032451D02*
X029051Y032451D01*
X029051Y032332D02*
X029171Y032332D01*
X029171Y032214D02*
X029051Y032214D01*
X029051Y031858D02*
X029171Y031858D01*
X029171Y031740D02*
X029051Y031740D01*
X029051Y031621D02*
X029171Y031621D01*
X029171Y031503D02*
X029051Y031503D01*
X029685Y031503D02*
X030995Y031503D01*
X030995Y031621D02*
X029743Y031621D01*
X029743Y031740D02*
X030995Y031740D01*
X030995Y031858D02*
X029743Y031858D01*
X028510Y033280D02*
X028008Y033280D01*
X028031Y033399D02*
X028479Y033399D01*
X028479Y033517D02*
X028031Y033517D01*
X028031Y033636D02*
X028479Y033636D01*
X028479Y033754D02*
X028031Y033754D01*
X027995Y034584D02*
X030995Y034584D01*
X030995Y034702D02*
X027995Y034702D01*
X027995Y034821D02*
X030995Y034821D01*
X030995Y034939D02*
X026745Y034939D01*
X026745Y035058D02*
X030995Y035058D01*
X030995Y035176D02*
X026745Y035176D01*
X026745Y035295D02*
X030995Y035295D01*
X030995Y035413D02*
X026745Y035413D01*
X026745Y035532D02*
X030995Y035532D01*
X030995Y035650D02*
X026745Y035650D01*
X026745Y035769D02*
X030995Y035769D01*
X030995Y035887D02*
X029915Y035887D01*
X030273Y036006D02*
X030995Y036006D01*
X030995Y036124D02*
X030457Y036124D01*
X030642Y036243D02*
X030995Y036243D01*
X030995Y036361D02*
X030753Y036361D01*
X030661Y036255D02*
X030661Y036255D01*
X030661Y036255D01*
X030855Y036480D02*
X030995Y036480D01*
X030995Y036598D02*
X030958Y036598D01*
X030992Y036638D02*
X030992Y036638D01*
X030995Y034465D02*
X029656Y034465D01*
X029743Y034347D02*
X030995Y034347D01*
X030995Y034228D02*
X029743Y034228D01*
X029743Y034110D02*
X030995Y034110D01*
X029242Y035838D02*
X029242Y035838D01*
X029075Y035887D02*
X026745Y035887D01*
X026745Y036006D02*
X028717Y036006D01*
X028533Y036124D02*
X026745Y036124D01*
X026745Y036243D02*
X028348Y036243D01*
X028237Y036361D02*
X026745Y036361D01*
X026745Y036480D02*
X028134Y036480D01*
X028032Y036598D02*
X026745Y036598D01*
X026745Y036717D02*
X027961Y036717D01*
X027997Y036638D02*
X027997Y036638D01*
X027907Y036835D02*
X026745Y036835D01*
X026745Y036954D02*
X027495Y036954D01*
X027495Y037072D02*
X026745Y037072D01*
X026745Y037191D02*
X027495Y037191D01*
X027495Y037309D02*
X026745Y037309D01*
X026745Y037428D02*
X027495Y037428D01*
X027495Y037546D02*
X026745Y037546D01*
X026495Y037665D02*
X027495Y037665D01*
X027495Y037783D02*
X026495Y037783D01*
X026495Y037902D02*
X027495Y037902D01*
X027495Y038020D02*
X026495Y038020D01*
X026495Y038139D02*
X027495Y038139D01*
X027495Y038257D02*
X026495Y038257D01*
X026495Y038376D02*
X027495Y038376D01*
X027495Y038494D02*
X026495Y038494D01*
X026495Y038613D02*
X027495Y038613D01*
X027495Y038731D02*
X026495Y038731D01*
X026495Y038850D02*
X027495Y038850D01*
X030995Y022378D02*
X018995Y022378D01*
X018995Y022260D02*
X030995Y022260D01*
X030995Y022141D02*
X018995Y022141D01*
X018995Y022023D02*
X030995Y022023D01*
X030995Y021904D02*
X018995Y021904D01*
X018995Y021786D02*
X030995Y021786D01*
X030995Y021667D02*
X018995Y021667D01*
X018995Y021549D02*
X021245Y021549D01*
X021245Y021430D02*
X018995Y021430D01*
X018995Y021312D02*
X021245Y021312D01*
X021245Y021193D02*
X018995Y021193D01*
X020745Y017224D02*
X022121Y017224D01*
X022495Y016850D01*
X022495Y016350D02*
X020871Y016350D01*
X020745Y016476D01*
X021495Y015850D02*
X021525Y015820D01*
X022870Y015820D01*
X023120Y015820D02*
X023120Y017225D01*
X022995Y017350D01*
X022495Y017350D01*
X022245Y017600D01*
X022245Y018099D01*
X023245Y018099D02*
X023620Y017724D01*
X023620Y015820D01*
X023870Y015820D02*
X023870Y016725D01*
X023995Y016850D01*
X024495Y016850D02*
X024495Y016600D01*
X024120Y016225D01*
X024120Y015820D01*
X024370Y015820D02*
X024370Y015225D01*
X024495Y015100D01*
X025495Y015100D01*
X025745Y015350D01*
X028995Y015350D01*
X029245Y015100D01*
X029245Y014850D01*
X028495Y014850D01*
X028245Y014850D01*
X028245Y014498D01*
X028393Y014350D01*
X029245Y015600D02*
X029745Y015100D01*
X029745Y014850D01*
X030495Y014850D01*
X030597Y014748D01*
X030597Y014350D01*
X029245Y015600D02*
X025495Y015600D01*
X025245Y015350D01*
X024745Y015350D01*
X024620Y015475D01*
X024620Y015820D01*
X023370Y015820D02*
X023370Y015151D01*
X022245Y015151D01*
X022245Y014049D02*
X022701Y014049D01*
X022870Y013880D01*
X022245Y014049D02*
X021745Y013549D01*
X021745Y012974D01*
X021745Y012226D02*
X021745Y011600D01*
X022995Y012100D02*
X022995Y010474D01*
X023055Y009786D02*
X023450Y009786D01*
X023450Y009850D01*
X024040Y009850D01*
X024040Y009786D01*
X024435Y009786D01*
X024435Y009666D01*
X024555Y009666D01*
X024555Y009786D01*
X024950Y009786D01*
X024950Y009850D01*
X025040Y009850D01*
X025040Y009786D01*
X025435Y009786D01*
X025435Y009666D01*
X025555Y009666D01*
X025555Y009786D01*
X025950Y009786D01*
X025950Y009850D01*
X026245Y009850D01*
X026245Y009100D01*
X021495Y009100D01*
X021495Y009775D01*
X021570Y009850D01*
X022540Y009850D01*
X022540Y009786D01*
X022935Y009786D01*
X022935Y009666D01*
X023055Y009666D01*
X023055Y009786D01*
X023055Y009699D02*
X024435Y009699D01*
X024435Y009666D02*
X024040Y009666D01*
X024040Y009449D01*
X024051Y009408D01*
X024072Y009372D01*
X024101Y009342D01*
X024138Y009321D01*
X024179Y009310D01*
X024435Y009310D01*
X024435Y009666D01*
X024435Y009580D02*
X024555Y009580D01*
X024555Y009666D02*
X024555Y009310D01*
X024811Y009310D01*
X024852Y009321D01*
X024888Y009342D01*
X024918Y009372D01*
X024939Y009408D01*
X024950Y009449D01*
X024950Y009666D01*
X024555Y009666D01*
X024555Y009699D02*
X025435Y009699D01*
X025435Y009666D02*
X025040Y009666D01*
X025040Y009449D01*
X025051Y009408D01*
X025072Y009372D01*
X025101Y009342D01*
X025138Y009321D01*
X025179Y009310D01*
X025435Y009310D01*
X025435Y009666D01*
X025435Y009580D02*
X025555Y009580D01*
X025555Y009666D02*
X025555Y009310D01*
X025811Y009310D01*
X025852Y009321D01*
X025888Y009342D01*
X025918Y009372D01*
X025939Y009408D01*
X025950Y009449D01*
X025950Y009666D01*
X025555Y009666D01*
X025555Y009699D02*
X026245Y009699D01*
X026245Y009817D02*
X025950Y009817D01*
X025950Y009580D02*
X026245Y009580D01*
X026245Y009462D02*
X025950Y009462D01*
X025889Y009343D02*
X026245Y009343D01*
X026245Y009225D02*
X021495Y009225D01*
X021495Y009343D02*
X022600Y009343D01*
X022601Y009342D02*
X022638Y009321D01*
X022679Y009310D01*
X022935Y009310D01*
X022935Y009666D01*
X022540Y009666D01*
X022540Y009449D01*
X022551Y009408D01*
X022572Y009372D01*
X022601Y009342D01*
X022540Y009462D02*
X021495Y009462D01*
X021495Y009580D02*
X022540Y009580D01*
X022540Y009817D02*
X021537Y009817D01*
X021495Y009699D02*
X022935Y009699D01*
X022935Y009580D02*
X023055Y009580D01*
X023055Y009666D02*
X023055Y009310D01*
X023311Y009310D01*
X023352Y009321D01*
X023388Y009342D01*
X023418Y009372D01*
X023439Y009408D01*
X023450Y009449D01*
X023450Y009666D01*
X023055Y009666D01*
X023055Y009462D02*
X022935Y009462D01*
X022935Y009343D02*
X023055Y009343D01*
X023389Y009343D02*
X024100Y009343D01*
X024040Y009462D02*
X023450Y009462D01*
X023450Y009580D02*
X024040Y009580D01*
X023995Y009600D02*
X023870Y009725D01*
X023745Y009600D02*
X023745Y010850D01*
X023245Y011350D01*
X023245Y011850D01*
X023870Y012475D01*
X023870Y013880D01*
X024120Y013880D02*
X024120Y012225D01*
X023745Y011850D01*
X023745Y011600D01*
X024495Y010850D02*
X024745Y011100D01*
X024745Y011476D01*
X024495Y010850D02*
X024495Y010474D01*
X024950Y009817D02*
X025040Y009817D01*
X025040Y009580D02*
X024950Y009580D01*
X024950Y009462D02*
X025040Y009462D01*
X025100Y009343D02*
X024889Y009343D01*
X024555Y009343D02*
X024435Y009343D01*
X024435Y009462D02*
X024555Y009462D01*
X024040Y009817D02*
X023450Y009817D01*
X025435Y009462D02*
X025555Y009462D01*
X025555Y009343D02*
X025435Y009343D01*
X026245Y009106D02*
X021495Y009106D01*
X022995Y012100D02*
X023620Y012725D01*
X023620Y013880D01*
X024370Y013880D02*
X024370Y012725D01*
X024745Y012350D01*
X024745Y012224D01*
X025495Y012600D02*
X025495Y010474D01*
X025495Y012600D02*
X024995Y013100D01*
X024745Y013100D01*
X024620Y013225D01*
X024620Y013880D01*
X022245Y014049D02*
X019944Y014049D01*
X019745Y013850D01*
X019245Y013850D01*
X019373Y013978D01*
X019373Y014140D01*
X019117Y014140D02*
X019117Y013972D01*
X018995Y013850D01*
X019117Y013728D01*
X019117Y013560D01*
X019373Y013560D02*
X019373Y013722D01*
X019245Y013850D01*
X018861Y013966D02*
X018745Y013850D01*
X018861Y013734D01*
X018861Y013560D01*
X018861Y013966D02*
X018861Y014140D01*
X019629Y013560D02*
X020205Y013560D01*
X020245Y013600D01*
D45*
X019245Y013850D02*
X018995Y013850D01*
X018745Y013850D01*
X018245Y013850D01*
X018245Y013350D01*
X018694Y012901D01*
X018694Y012600D01*
X017245Y017600D02*
X017995Y018350D01*
X019194Y018350D01*
X019231Y018387D02*
X019729Y018387D01*
X019729Y018733D01*
X019714Y018789D01*
X019685Y018839D01*
X019674Y018850D01*
X019685Y018861D01*
X019714Y018911D01*
X019729Y018967D01*
X019729Y019313D01*
X019231Y019313D01*
X019231Y019387D01*
X019729Y019387D01*
X019729Y019733D01*
X019714Y019789D01*
X019685Y019839D01*
X019644Y019880D01*
X019594Y019909D01*
X019538Y019924D01*
X019231Y019924D01*
X019231Y019387D01*
X019156Y019387D01*
X019156Y019924D01*
X018995Y019924D01*
X018995Y021100D01*
X021245Y021100D01*
X021245Y019350D01*
X023245Y019350D01*
X023245Y018689D01*
X023055Y018689D01*
X022971Y018654D01*
X022916Y018669D01*
X022745Y018669D01*
X022745Y018100D01*
X022745Y018100D01*
X022745Y018669D01*
X022574Y018669D01*
X022519Y018654D01*
X022434Y018689D01*
X022055Y018689D01*
X021995Y018664D01*
X021934Y018689D01*
X021555Y018689D01*
X021467Y018653D01*
X021433Y018618D01*
X021433Y018846D01*
X021396Y018934D01*
X021329Y019002D01*
X021241Y019038D01*
X020851Y019038D01*
X020851Y019752D01*
X020814Y019840D01*
X020747Y019908D01*
X020659Y019944D01*
X019933Y019944D01*
X019845Y019908D01*
X019778Y019840D01*
X019741Y019752D01*
X019741Y018948D01*
X019778Y018860D01*
X019787Y018850D01*
X019778Y018840D01*
X019741Y018752D01*
X019741Y018100D01*
X019729Y018100D01*
X019729Y018313D01*
X019231Y018313D01*
X019231Y018387D01*
X019156Y018387D01*
X019156Y018776D01*
X019156Y019313D01*
X019231Y019313D01*
X019231Y018387D01*
X019231Y018465D02*
X019156Y018465D01*
X019156Y018703D02*
X019231Y018703D01*
X019231Y018942D02*
X019156Y018942D01*
X019156Y019180D02*
X019231Y019180D01*
X019231Y019419D02*
X019156Y019419D01*
X019156Y019657D02*
X019231Y019657D01*
X019231Y019896D02*
X019156Y019896D01*
X018995Y020134D02*
X021245Y020134D01*
X021245Y019896D02*
X020759Y019896D01*
X020851Y019657D02*
X021245Y019657D01*
X021245Y019419D02*
X020851Y019419D01*
X020851Y019180D02*
X023245Y019180D01*
X023245Y018942D02*
X021389Y018942D01*
X021433Y018703D02*
X023245Y018703D01*
X022745Y018465D02*
X022745Y018465D01*
X022745Y018226D02*
X022745Y018226D01*
X023607Y019850D02*
X023607Y020101D01*
X023245Y020101D01*
X023245Y020101D01*
X022883Y020101D01*
X022745Y020101D01*
X022745Y020101D01*
X023245Y020101D01*
X023245Y020101D01*
X023607Y020101D01*
X023607Y020481D01*
X023592Y020537D01*
X023563Y020587D01*
X023522Y020628D01*
X023472Y020657D01*
X023416Y020672D01*
X023245Y020672D01*
X023245Y020101D01*
X023245Y020101D01*
X023245Y020672D01*
X023074Y020672D01*
X023018Y020657D01*
X022995Y020643D01*
X022972Y020657D01*
X022916Y020672D01*
X022745Y020672D01*
X022745Y020101D01*
X022383Y020101D01*
X022245Y020101D01*
X022245Y020101D01*
X022745Y020101D01*
X022745Y020101D01*
X022745Y020101D01*
X022745Y020672D01*
X022574Y020672D01*
X022518Y020657D01*
X022495Y020643D01*
X022472Y020657D01*
X022416Y020672D01*
X022245Y020672D01*
X022245Y020101D01*
X021883Y020101D01*
X021745Y020101D01*
X021745Y020101D01*
X022245Y020101D01*
X022245Y020101D01*
X022245Y020101D01*
X022245Y020672D01*
X022074Y020672D01*
X022018Y020657D01*
X021995Y020643D01*
X021972Y020657D01*
X021916Y020672D01*
X021745Y020672D01*
X021745Y020101D01*
X021745Y020101D01*
X021745Y021100D01*
X026995Y021100D01*
X026995Y019153D01*
X026406Y019153D01*
X026406Y017970D01*
X026166Y017970D01*
X026166Y019153D01*
X025499Y019153D01*
X025495Y019151D01*
X025495Y019850D01*
X024611Y019850D01*
X024611Y020082D01*
X025187Y020082D01*
X025187Y020468D01*
X025172Y020523D01*
X025143Y020574D01*
X025102Y020615D01*
X025052Y020644D01*
X024996Y020659D01*
X024611Y020659D01*
X024611Y020082D01*
X024379Y020082D01*
X024379Y019850D01*
X023607Y019850D01*
X023607Y019896D02*
X024379Y019896D01*
X024379Y020082D02*
X023802Y020082D01*
X023802Y020468D01*
X023817Y020523D01*
X023846Y020574D01*
X023887Y020615D01*
X023938Y020644D01*
X023993Y020659D01*
X024379Y020659D01*
X024379Y020082D01*
X024379Y020134D02*
X024611Y020134D01*
X024611Y019896D02*
X026995Y019896D01*
X026995Y020134D02*
X025187Y020134D01*
X025187Y020373D02*
X026995Y020373D01*
X026995Y020611D02*
X025106Y020611D01*
X024611Y020611D02*
X024379Y020611D01*
X024379Y020373D02*
X024611Y020373D01*
X023884Y020611D02*
X023538Y020611D01*
X023607Y020373D02*
X023802Y020373D01*
X023802Y020134D02*
X023607Y020134D01*
X023245Y020134D02*
X023245Y020134D01*
X023245Y020373D02*
X023245Y020373D01*
X023245Y020611D02*
X023245Y020611D01*
X022745Y020611D02*
X022745Y020611D01*
X022745Y020373D02*
X022745Y020373D01*
X022745Y020134D02*
X022745Y020134D01*
X022245Y020134D02*
X022245Y020134D01*
X022245Y020373D02*
X022245Y020373D01*
X022245Y020611D02*
X022245Y020611D01*
X021745Y020611D02*
X021745Y020611D01*
X021745Y020373D02*
X021745Y020373D01*
X021745Y020134D02*
X021745Y020134D01*
X021245Y020373D02*
X018995Y020373D01*
X018995Y020611D02*
X021245Y020611D01*
X021245Y020850D02*
X018995Y020850D01*
X018995Y021088D02*
X021245Y021088D01*
X021745Y021088D02*
X026995Y021088D01*
X026995Y020850D02*
X021745Y020850D01*
X019833Y019896D02*
X019618Y019896D01*
X019729Y019657D02*
X019741Y019657D01*
X019729Y019419D02*
X019741Y019419D01*
X019729Y019180D02*
X019741Y019180D01*
X019722Y018942D02*
X019744Y018942D01*
X019729Y018703D02*
X019741Y018703D01*
X019729Y018465D02*
X019741Y018465D01*
X019729Y018226D02*
X019741Y018226D01*
X017245Y017600D02*
X011745Y017600D01*
X008495Y016850D02*
X008495Y015901D01*
X007495Y015901D01*
X006796Y016600D01*
X005745Y016600D01*
X005745Y015344D01*
X005371Y015344D02*
X005064Y015651D01*
X004495Y015651D01*
X004495Y014549D02*
X004495Y014356D01*
X005371Y014356D01*
X005371Y020356D02*
X004688Y020356D01*
X004495Y020549D01*
X004495Y021651D02*
X005064Y021651D01*
X005371Y021344D01*
X005745Y021344D02*
X005745Y022600D01*
X006796Y022600D01*
X007495Y021901D01*
X008495Y021901D01*
X009444Y021901D01*
X009495Y021850D01*
X005995Y027474D02*
X005995Y028350D01*
X004121Y028100D02*
X004121Y028850D01*
X003745Y028850D01*
X002995Y029600D01*
X002995Y031600D01*
X003370Y031975D01*
X003745Y032350D01*
X004745Y032350D01*
X004995Y032600D01*
X004995Y037600D01*
X004495Y038100D01*
X004495Y038600D01*
X014347Y038100D02*
X015245Y038100D01*
X015480Y038022D02*
X014922Y038022D01*
X014922Y038043D02*
X014745Y038043D01*
X014745Y038157D01*
X014922Y038157D01*
X014922Y038759D01*
X014907Y038815D01*
X014878Y038865D01*
X014837Y038906D01*
X014786Y038935D01*
X014745Y038946D01*
X014745Y038950D01*
X018210Y038950D01*
X018210Y038504D01*
X018707Y038504D01*
X018707Y038429D01*
X018210Y038429D01*
X018210Y037847D01*
X018225Y037791D01*
X018254Y037741D01*
X018295Y037700D01*
X018345Y037671D01*
X018401Y037656D01*
X018707Y037656D01*
X018707Y038429D01*
X018782Y038429D01*
X018782Y037656D01*
X019089Y037656D01*
X019145Y037671D01*
X019195Y037700D01*
X019236Y037741D01*
X019265Y037791D01*
X019280Y037847D01*
X019280Y038429D01*
X018782Y038429D01*
X018782Y038504D01*
X019280Y038504D01*
X019280Y038950D01*
X020710Y038950D01*
X020710Y038504D01*
X021207Y038504D01*
X021207Y038429D01*
X020710Y038429D01*
X020710Y037847D01*
X020725Y037791D01*
X020754Y037741D01*
X020795Y037700D01*
X020845Y037671D01*
X020901Y037656D01*
X021207Y037656D01*
X021207Y038429D01*
X021282Y038429D01*
X021282Y037656D01*
X021589Y037656D01*
X021645Y037671D01*
X021695Y037700D01*
X021736Y037741D01*
X021765Y037791D01*
X021780Y037847D01*
X021780Y038429D01*
X021282Y038429D01*
X021282Y038504D01*
X021780Y038504D01*
X021780Y038950D01*
X025460Y038950D01*
X025460Y038504D01*
X025957Y038504D01*
X025957Y038429D01*
X025460Y038429D01*
X025460Y037847D01*
X025475Y037791D01*
X025504Y037741D01*
X025545Y037700D01*
X025595Y037671D01*
X025651Y037656D01*
X025957Y037656D01*
X025957Y038429D01*
X026032Y038429D01*
X026032Y037656D01*
X026339Y037656D01*
X026395Y037671D01*
X026445Y037700D01*
X026486Y037741D01*
X026515Y037791D01*
X026530Y037847D01*
X026530Y038429D01*
X026032Y038429D01*
X026032Y038504D01*
X026530Y038504D01*
X026530Y038950D01*
X027495Y038950D01*
X027495Y037350D01*
X026550Y037350D01*
X026550Y037372D01*
X026513Y037460D01*
X026446Y037528D01*
X026358Y037564D01*
X025632Y037564D01*
X025544Y037528D01*
X025476Y037460D01*
X025440Y037372D01*
X025440Y037350D01*
X021800Y037350D01*
X021800Y037372D01*
X021763Y037460D01*
X021696Y037528D01*
X021608Y037564D01*
X020882Y037564D01*
X020794Y037528D01*
X020726Y037460D01*
X020690Y037372D01*
X020690Y037350D01*
X019300Y037350D01*
X019300Y037372D01*
X019263Y037460D01*
X019196Y037528D01*
X019108Y037564D01*
X018382Y037564D01*
X018294Y037528D01*
X018226Y037460D01*
X018190Y037372D01*
X018190Y037350D01*
X017745Y037350D01*
X017745Y037850D01*
X017510Y037850D01*
X017510Y037966D01*
X017003Y037966D01*
X017003Y037982D01*
X017510Y037982D01*
X017510Y038259D01*
X017495Y038315D01*
X017466Y038365D01*
X017425Y038406D01*
X017375Y038435D01*
X017319Y038450D01*
X017003Y038450D01*
X017003Y037982D01*
X016987Y037982D01*
X016987Y038450D01*
X016671Y038450D01*
X016615Y038435D01*
X016565Y038406D01*
X016524Y038365D01*
X016495Y038315D01*
X016466Y038365D01*
X016425Y038406D01*
X016375Y038435D01*
X016319Y038450D01*
X016003Y038450D01*
X016003Y037982D01*
X016480Y037982D01*
X016987Y037982D01*
X016987Y037966D01*
X016003Y037966D01*
X016003Y037982D01*
X015987Y037982D01*
X015987Y038450D01*
X015671Y038450D01*
X015615Y038435D01*
X015565Y038406D01*
X015524Y038365D01*
X015495Y038315D01*
X015480Y038259D01*
X015480Y037982D01*
X015987Y037982D01*
X015987Y037966D01*
X015480Y037966D01*
X015480Y037850D01*
X015245Y037850D01*
X015245Y037788D01*
X014999Y037788D01*
X014922Y037756D01*
X014922Y038043D01*
X014922Y038260D02*
X015480Y038260D01*
X015987Y038260D02*
X016003Y038260D01*
X015987Y038022D02*
X016003Y038022D01*
X016987Y038022D02*
X017003Y038022D01*
X016987Y038260D02*
X017003Y038260D01*
X017510Y038260D02*
X018210Y038260D01*
X018210Y038022D02*
X017510Y038022D01*
X017745Y037783D02*
X018229Y037783D01*
X018334Y037545D02*
X017745Y037545D01*
X018707Y037783D02*
X018782Y037783D01*
X018782Y038022D02*
X018707Y038022D01*
X018707Y038260D02*
X018782Y038260D01*
X018782Y038499D02*
X021207Y038499D01*
X021282Y038499D02*
X025957Y038499D01*
X026032Y038499D02*
X027495Y038499D01*
X027495Y038737D02*
X026530Y038737D01*
X026530Y038260D02*
X027495Y038260D01*
X027495Y038022D02*
X026530Y038022D01*
X026510Y037783D02*
X027495Y037783D01*
X027495Y037545D02*
X026406Y037545D01*
X026032Y037783D02*
X025957Y037783D01*
X025957Y038022D02*
X026032Y038022D01*
X026032Y038260D02*
X025957Y038260D01*
X025460Y038260D02*
X021780Y038260D01*
X021780Y038022D02*
X025460Y038022D01*
X025479Y037783D02*
X021760Y037783D01*
X021656Y037545D02*
X025584Y037545D01*
X025460Y038737D02*
X021780Y038737D01*
X021282Y038260D02*
X021207Y038260D01*
X021207Y038022D02*
X021282Y038022D01*
X021282Y037783D02*
X021207Y037783D01*
X020834Y037545D02*
X019156Y037545D01*
X019260Y037783D02*
X020729Y037783D01*
X020710Y038022D02*
X019280Y038022D01*
X019280Y038260D02*
X020710Y038260D01*
X020710Y038737D02*
X019280Y038737D01*
X018707Y038499D02*
X014922Y038499D01*
X014922Y038737D02*
X018210Y038737D01*
X014987Y037783D02*
X014922Y037783D01*
X022995Y027600D02*
X023194Y027600D01*
X022995Y027600D02*
X022995Y026730D01*
X023001Y026724D01*
X023989Y026724D02*
X024296Y027031D01*
X024296Y027600D01*
X024495Y026350D02*
X023989Y026350D01*
X024495Y026350D02*
X024745Y026100D01*
X024745Y025100D01*
X024546Y024901D01*
X024546Y024600D01*
X024546Y023600D01*
X024546Y022401D01*
X024245Y022100D01*
X025495Y019657D02*
X026995Y019657D01*
X026995Y019419D02*
X025495Y019419D01*
X025495Y019180D02*
X026995Y019180D01*
X026406Y018942D02*
X026166Y018942D01*
X026166Y018703D02*
X026406Y018703D01*
X026406Y018465D02*
X026166Y018465D01*
X026166Y018226D02*
X026406Y018226D01*
X026406Y017988D02*
X026166Y017988D01*
X012995Y005100D02*
X012245Y004350D01*
X008995Y004350D01*
X008898Y004446D01*
X008898Y005685D01*
X008995Y004350D02*
X007495Y004350D01*
X007245Y004600D01*
X007245Y005685D01*
D46*
X005495Y011549D02*
X004495Y011549D01*
X002245Y011549D01*
X002245Y012419D01*
X002245Y014781D02*
X002245Y015651D01*
X004495Y015651D01*
X018694Y012600D02*
X018694Y011600D01*
X018745Y007010D02*
X018745Y006100D01*
X026398Y005685D02*
X028580Y005685D01*
X028995Y006100D01*
X028995Y011600D01*
X027245Y013350D01*
X027245Y013549D01*
X027296Y013600D01*
X019245Y017202D02*
X019194Y017254D01*
X019194Y018350D01*
X020194Y026600D02*
X020194Y027600D01*
X020194Y029850D01*
X021064Y029850D01*
X023426Y029850D02*
X024296Y029850D01*
X024296Y027600D01*
D47*
X020296Y019350D02*
X020296Y018350D01*
X018694Y011600D02*
X018694Y010165D01*
X018379Y009850D01*
X018495Y009850D01*
X018745Y009600D01*
X018745Y008190D01*
X011495Y034974D02*
X011495Y035976D01*
D48*
X015995Y036600D02*
X015995Y037226D01*
X016995Y037226D02*
X016995Y036600D01*
X019245Y025600D02*
X020121Y025600D01*
X020995Y018600D02*
X020745Y018350D01*
X020995Y018100D01*
X021744Y018100D01*
X021745Y018099D01*
X020745Y018350D02*
X020296Y018350D01*
X021495Y015350D02*
X021694Y015151D01*
X021745Y015151D01*
X021495Y014901D01*
X021495Y014850D01*
X021745Y015151D02*
X022245Y015151D01*
X023995Y017350D02*
X023995Y017850D01*
X024245Y018100D01*
X024361Y018100D01*
X024495Y018234D01*
X024495Y017350D01*
X024995Y017350D02*
X024995Y017850D01*
X024611Y018234D01*
X024495Y018234D01*
X015495Y015350D02*
X015495Y015100D01*
X015176Y014781D01*
X014245Y014781D01*
D49*
X020245Y006850D02*
X020245Y003850D01*
X020995Y003100D02*
X020745Y002850D01*
X019495Y002850D01*
X019245Y002600D01*
X019245Y001350D01*
X020245Y001350D02*
X020245Y002350D01*
X020495Y002600D01*
X020995Y002600D01*
X021245Y002850D01*
X021245Y009850D01*
X022745Y011350D01*
X022745Y012350D01*
X023370Y012975D01*
X023370Y013880D01*
X023120Y013880D02*
X023120Y013225D01*
X022495Y012600D01*
X022495Y011600D01*
X020995Y010100D01*
X020995Y003100D01*
X021495Y002600D02*
X021245Y002350D01*
X021245Y001350D01*
X021495Y002600D02*
X021495Y008600D01*
X021745Y008850D01*
X026495Y008850D01*
X026745Y009100D01*
X026745Y010350D01*
X026495Y010600D01*
X025621Y010600D01*
X025495Y010474D01*
D50*
X001995Y004850D02*
X001694Y005151D01*
X001694Y005850D01*
X001694Y006850D01*
X001245Y006850D01*
X000995Y007100D01*
X000995Y009100D01*
X001245Y009350D01*
X004995Y009350D01*
X006245Y010600D01*
X008245Y010600D01*
X008495Y010850D01*
X008495Y012100D01*
X008245Y012350D01*
X009495Y011600D02*
X009495Y018100D01*
X009245Y018350D01*
X008245Y018350D01*
X010745Y017600D02*
X010995Y017350D01*
X010995Y014781D01*
X010995Y012419D02*
X011546Y011868D01*
X011546Y010850D01*
X011546Y009850D01*
X011546Y008015D01*
X011341Y007811D01*
X010245Y008850D02*
X010444Y009049D01*
X010444Y009850D01*
X010444Y010850D01*
X010245Y010850D01*
X009495Y011600D01*
X010245Y008850D02*
X010245Y006100D01*
X010660Y005685D01*
X011341Y005685D01*
X012995Y005685D02*
X012995Y005100D01*
X013495Y004600D01*
X016245Y004600D01*
X016495Y004850D01*
X016495Y008100D01*
X015995Y008600D01*
X014796Y009850D01*
X014796Y010850D01*
X015546Y011600D01*
X015745Y011600D01*
X014245Y012419D02*
X013694Y011868D01*
X013694Y010850D01*
X013694Y009850D01*
X013694Y008549D01*
X012995Y007850D01*
X005591Y007811D02*
X003631Y005850D01*
X002796Y005850D01*
X002796Y006850D01*
X002796Y007618D01*
X002245Y008169D01*
X002245Y010531D02*
X004926Y010531D01*
X005495Y011100D01*
X005495Y011549D01*
X004495Y016600D02*
X004495Y017549D01*
X005495Y017549D01*
X004495Y017549D02*
X002245Y017549D01*
X002245Y018419D01*
X002245Y020781D02*
X002245Y021651D01*
X004495Y021651D01*
X004830Y005685D02*
X003995Y004850D01*
X001995Y004850D01*
X004830Y005685D02*
X005591Y005685D01*
X027296Y013600D02*
X027296Y014600D01*
X028495Y014600D01*
X030597Y014350D02*
X030597Y017456D01*
X030204Y017850D01*
D51*
X010245Y028350D02*
X010245Y029600D01*
D52*
X024745Y005685D02*
X026398Y005685D01*
M02*
